<svg width="278" height="254" version="1.1" xmlns="http://www.w3.org/2000/svg" desc="Created with imagetracer.js version 1.2.6" ><path fill="rgb(208,204,76)" stroke="rgb(208,204,76)" stroke-width="1" opacity="1" d="M 245.5 4 L 246 10.5 L 245 11.5 L 245 18 L 252 18 L 252 11.5 L 253 11.5 Q 254.5 17 252 18.5 L 251.5 228 L 246.5 227 Q 243.3 228.9 245 235 L 27.5 235 Q 26.3 235.3 27 241.5 L 26 241.5 L 27 228.5 Q 25.4 225.5 20 227 L 20 18.5 Q 17.5 17 19 11.5 L 20 11.5 L 20 18 L 27 18 L 27 11.5 L 26 10.5 L 27.5 11 L 244.5 11 L 245 10.5 L 245.5 4 Z M 39 18 L 38 23 L 38 30 L 26 30 L 26 43 L 29 43 L 29 55 L 26 55 L 26 191 L 29 191 L 29 203 L 26 203 L 26 216 L 38 216 L 38 227 L 40 228 L 51 228 L 51 224 L 57 225 Q 62 224 60 228 L 213 228 L 213 224 L 220 224 L 222 228 L 232 228 L 233 227 L 233 215 L 246 215 L 245 214 L 245 204 L 242 203 L 242 192 L 245 191 L 245 56 L 242 55 L 243 51 L 242 47 Q 241 41 245 43 L 245 30 L 233 30 L 233 20 L 232 18 L 221 18 L 220 22 L 219 21 L 215 22 L 214 18 L 61 18 L 60 22 L 51 22 L 51 18 L 39 18 Z " /><path fill="rgb(208,204,76)" stroke="rgb(208,204,76)" stroke-width="1" opacity="1" d="M 13.5 18 L 14 80.5 L 13 80.5 L 13.5 18 Z " /><path fill="rgb(208,204,76)" stroke="rgb(208,204,76)" stroke-width="1" opacity="1" d="M 39 31 Q 46.5 28.5 44 36 Q 36.5 38.5 39 31 Z M 42 32 L 40 34 L 42 34 L 42 32 Z " /><path fill="rgb(208,204,76)" stroke="rgb(208,204,76)" stroke-width="1" opacity="1" d="M 228 31 L 232 31.5 L 229 32 L 230 35.5 L 227.5 36 L 228 34.5 L 228 31 Z " /><path fill="rgb(208,204,76)" stroke="rgb(208,204,76)" stroke-width="1" opacity="1" d="M 138.5 43 Q 141.3 44.3 139 45.5 L 140 47.5 L 138 48 L 138.5 43 Z " /><path fill="rgb(208,204,76)" stroke="rgb(208,204,76)" stroke-width="1" opacity="1" d="M 83.5 49 L 84.5 50 L 92 50 L 91.5 55 L 87 53.5 L 90 53 L 90 51 L 84 51 L 83.5 54 L 83.5 49 Z " /><path fill="rgb(208,204,76)" stroke="rgb(208,204,76)" stroke-width="1" opacity="1" d="M 137.5 50 L 138 55 L 144 56 L 144 61 L 141.5 61 L 137 62 L 137 57 L 125.5 57 L 125.5 56 Q 133 57 136 55 Q 135 51.2 137.5 50 Z " /><path fill="rgb(208,204,76)" stroke="rgb(208,204,76)" stroke-width="1" opacity="1" d="M 76.5 56 L 77 60.5 L 76 60.5 L 76.5 56 Z " /><path fill="rgb(208,204,76)" stroke="rgb(208,204,76)" stroke-width="1" opacity="1" d="M 90.5 56 L 93 57.5 L 93 61 L 98 61 L 98 66.5 L 101.5 68 L 103 67.5 L 104 75 Q 99.4 73.8 98 76.5 Q 100.3 83.3 93.5 81 Q 90.8 82.4 92 87 Q 88.3 88.5 89 85.5 L 88 81 L 82.5 81 L 82 79.5 L 79.5 75 L 76.5 76 L 76 66.5 L 78.5 63 L 83 60.5 L 83 57 L 89.5 57 L 90.5 56 Z " /><path fill="rgb(208,204,76)" stroke="rgb(208,204,76)" stroke-width="1" opacity="1" d="M 189.5 56 L 199.5 56 L 201 57.5 L 201 62 L 206.5 62 L 207 62.5 L 207 81 Q 202.4 79.8 201 82.5 L 201 87 L 188 87 Q 189.3 82.4 186.5 81 Q 182 81.5 182 80.5 L 182 63.5 Q 183.4 60.8 188 62 Q 186.8 57.4 189.5 56 Z " /><path fill="rgb(208,204,76)" stroke="rgb(208,204,76)" stroke-width="1" opacity="1" d="M 73 68 L 75 68 L 75 74 Q 70.9 75.3 72 72 Q 74.7 73.1 74 70.5 L 73 68 Z " /><path fill="rgb(208,204,76)" stroke="rgb(208,204,76)" stroke-width="1" opacity="1" d="M 176.5 68 L 180 69.5 L 178 70 L 179 74 L 176 74 L 176.5 68 Z " /><path fill="rgb(208,204,76)" stroke="rgb(208,204,76)" stroke-width="1" opacity="1" d="M 212.5 68 Q 215.3 69.2 213 70.5 L 212.5 81 L 212 74 L 210 74 L 210 69 L 212.5 68 Z " /><path fill="rgb(208,204,76)" stroke="rgb(208,204,76)" stroke-width="1" opacity="1" d="M 105 69 L 108 69.5 L 106 70 L 105.5 72 L 105 69 Z " /><path fill="rgb(208,204,76)" stroke="rgb(208,204,76)" stroke-width="1" opacity="1" d="M 57.5 100 L 60 107 L 63 107.5 L 62 110 L 68.5 110 L 69 111.5 Q 68.3 113.8 64.5 113 L 62.5 113 Q 57.3 111.3 59 116.5 L 57.5 119 L 56 115.5 L 57 113 L 50.5 113 L 50 111.5 Q 51.4 108.8 56 110 L 57.5 100 Z M 59 108 L 59 110 L 61 109 L 59 108 Z " /><path fill="rgb(208,204,76)" stroke="rgb(208,204,76)" stroke-width="1" opacity="1" d="M 13.5 103 L 14 113.5 L 13 113.5 L 13.5 103 Z " /><path fill="rgb(208,204,76)" stroke="rgb(208,204,76)" stroke-width="1" opacity="1" d="M 122.5 107 L 131 107 L 131 113 L 136.5 113 Q 139.3 114.3 137 115.5 L 137 120 L 144 120 L 144 126 Q 138.6 124.5 137 127.5 L 137 133 L 131 133 L 131 139 L 123 139 L 123 133 L 118 133 L 118 139 L 112 139 L 112 133 L 117 133 L 117 127 Q 111.5 128.1 109 125.5 L 110 120 Q 115.7 121 118 117.5 L 118 113 L 123 113 L 123 108.5 L 122.5 107 Z " /><path fill="rgb(208,204,76)" stroke="rgb(208,204,76)" stroke-width="1" opacity="1" d="M 111.5 113 L 112 117.5 L 111 117.5 L 111.5 113 Z " /><path fill="rgb(208,204,76)" stroke="rgb(208,204,76)" stroke-width="1" opacity="1" d="M 211 120 Q 215 118.6 213 125.5 L 214 132 L 217 131.5 L 216.5 130 L 219 130 Q 217.9 132.7 220.5 132 L 225 133.5 L 214 134 L 213.5 140 L 210 139 L 210 134 L 201.5 134 L 201 132 L 204.5 133 L 207 132 Q 205.9 128.7 210 130 L 210 126.5 L 211 120 Z " /><path fill="rgb(208,204,76)" stroke="rgb(208,204,76)" stroke-width="1" opacity="1" d="M 13.5 129 L 14 139.5 L 13 139.5 L 13.5 129 Z " /><path fill="rgb(208,204,76)" stroke="rgb(208,204,76)" stroke-width="1" opacity="1" d="M 136.5 135 L 138 135 L 138 139 L 134 138.5 L 136.5 135 Z " /><path fill="rgb(208,204,76)" stroke="rgb(208,204,76)" stroke-width="1" opacity="1" d="M 213.5 141 L 214 145.5 L 213 145.5 L 213.5 141 Z " /><path fill="rgb(208,204,76)" stroke="rgb(208,204,76)" stroke-width="1" opacity="1" d="M 69 146 L 76 146 L 76 148.5 L 76 150.5 Q 75.1 153.5 79.5 152 L 81 154.5 L 80 156.5 L 88 159.5 L 87 165 L 82 165 L 82 172 L 77.5 172 L 76 171.5 L 76 178 L 69 178 L 69 172 L 63 172 L 63 166 L 58.5 166 L 57 164.5 L 57 158 L 63 158 L 63 152.5 L 64.5 152 L 67.5 151 L 69 151.5 L 69 146 Z " /><path fill="rgb(208,204,76)" stroke="rgb(208,204,76)" stroke-width="1" opacity="1" d="M 13.5 155 L 14 174.5 L 13 174.5 L 13.5 155 Z " /><path fill="rgb(208,204,76)" stroke="rgb(208,204,76)" stroke-width="1" opacity="1" d="M 171.5 158 Q 182.4 156.9 188 160 L 189.5 169 L 190 166 Q 194.5 164.3 193 169.5 L 194 170.5 L 194 180 L 188 179 L 189 183.5 Q 187.6 186.3 183 185 Q 184.3 189.6 181.5 191 L 175 191 L 175 185 L 169 185 L 169 179.5 L 165.5 178 L 163.5 179 L 157 178 L 157.5 172 L 158 176 L 162 174.5 L 161 172.5 L 169 169.5 L 170 159.5 L 171.5 158 Z " /><path fill="rgb(208,204,76)" stroke="rgb(208,204,76)" stroke-width="1" opacity="1" d="M 90.5 159 L 91 163.5 L 90 163.5 L 90.5 159 Z " /><path fill="rgb(208,204,76)" stroke="rgb(208,204,76)" stroke-width="1" opacity="1" d="M 221.5 165 L 222 170 Q 218.7 171.3 220 166.5 L 221.5 165 Z " /><path fill="rgb(208,204,76)" stroke="rgb(208,204,76)" stroke-width="1" opacity="1" d="M 13.5 176 L 14 227.5 L 13 227.5 L 13.5 176 Z " /><path fill="rgb(208,204,76)" stroke="rgb(208,204,76)" stroke-width="1" opacity="1" d="M 121 178 L 124 178.5 L 121 180 L 121 178 Z " /><path fill="rgb(208,204,76)" stroke="rgb(208,204,76)" stroke-width="1" opacity="1" d="M 121 184 L 124 184 L 124 191 L 130.5 191 L 131 192.5 L 130 196 Q 125.4 194.8 124 197.5 Q 125.3 203.6 122.5 203 Q 119.5 201.4 121 196 L 112 196 L 112 191 L 114.5 192 L 121 191 L 121 184 Z " /><path fill="rgb(208,204,76)" stroke="rgb(208,204,76)" stroke-width="1" opacity="1" d="M 230.5 210 Q 232.8 209.3 232 211.5 L 230.5 210 Z " /><path fill="rgb(208,204,76)" stroke="rgb(208,204,76)" stroke-width="1" opacity="1" d="M 19.5 228 L 20 234.5 L 19 234.5 L 19.5 228 Z " /><path fill="rgb(208,204,76)" stroke="rgb(208,204,76)" stroke-width="1" opacity="1" d="M 245.5 236 L 246 241.5 L 245 241.5 L 245.5 236 Z " /><path fill="rgb(0,0,0)" stroke="rgb(0,0,0)" stroke-width="1" opacity="0" d="M 0 0 L 278 0 L 278 254 L 0 254 L 0 0 Z M 27 4 Q 28 9 26 11 L 19 11 L 19 18 L 13 18 L 13 228 L 14 228 L 19 228 L 19 235 L 26 235 L 26 242 L 246 242 L 246 242 L 246 235 L 252 235 L 252 228 L 259 228 L 259 19 L 259 18 L 253 18 L 253 11 L 246 11 L 246 4 L 27 4 Z " /><path fill="rgb(13,31,45)" stroke="rgb(13,31,45)" stroke-width="1" opacity="1" d="M 27.5 5 L 28 9.5 L 27 9.5 L 27.5 5 Z " /><path fill="rgb(13,31,45)" stroke="rgb(13,31,45)" stroke-width="1" opacity="1" d="M 21.5 11 L 27 11.5 L 21.5 12 L 21.5 11 Z " /><path fill="rgb(13,31,45)" stroke="rgb(13,31,45)" stroke-width="1" opacity="1" d="M 246.5 11 L 252 11.5 L 246.5 12 L 246.5 11 Z " /><path fill="rgb(13,31,45)" stroke="rgb(13,31,45)" stroke-width="1" opacity="1" d="M 16.5 18 L 19 18.5 L 16.5 19 L 16.5 18 Z " /><path fill="rgb(13,31,45)" stroke="rgb(13,31,45)" stroke-width="1" opacity="1" d="M 252.5 18 L 256 18.5 L 252.5 19 L 252.5 18 Z " /><path fill="rgb(13,31,45)" stroke="rgb(13,31,45)" stroke-width="1" opacity="1" d="M 19.5 23 L 20 31.5 L 19 31.5 L 19.5 23 Z " /><path fill="rgb(13,31,45)" stroke="rgb(13,31,45)" stroke-width="1" opacity="1" d="M 194.5 24 L 207.5 24 L 208 26 L 206 26 Q 207.1 28.7 204.5 28 L 204.5 29 L 208 29.5 L 201 30 L 200 35.5 L 208 36 L 207 42.5 L 211 44 Q 210 47.8 212.5 49 L 213.5 43 L 214.5 49 L 216 46.5 L 215.5 45 L 217 44.5 L 216.5 43 Q 218.8 42.3 218 44.5 L 219 44.5 L 219.5 43 L 220 49.5 L 221.5 51 Q 223.5 47 225.5 51 L 227 51 L 227 56 L 221.5 55 L 220 58.5 Q 222.2 62.2 224.5 57 L 227 57.5 L 227 65.5 L 223 67.5 L 225 68 Q 223.9 74.4 226.5 78 L 228.5 70 L 229.5 72 L 230 70 L 232 69.5 L 227 69 L 227.5 67 L 229 67.5 Q 227.9 64.2 230.5 65 L 231.5 67 L 230 67.5 L 233 68 Q 234.9 80.8 230.5 88 L 227 87 L 227 94 L 220 94 L 220 87 L 217.5 87 L 214.5 89 L 214 82 L 220 82 L 220 65.5 L 221 63.5 L 219.5 61 L 216.5 62 L 214 61.5 L 214 55 L 211.5 55 L 209 54 L 208 49 L 201 48.5 L 202 44.5 L 200.5 43 L 188 43 Q 190.1 48.2 185.5 47 L 185.5 48 L 187 48.5 L 185.5 49 L 183.5 48 L 181.5 51 L 181 49.5 L 183 43.5 L 176 43 L 176 36.5 L 177.5 36 L 182 37 Q 180.8 32.4 183.5 31 L 200.5 30 L 203 28.5 L 201 28 L 201 25 L 194.5 25 L 194.5 24 Z M 184 37 L 182 40 L 183 43 L 184 43 L 184 37 Z M 207 43 L 206 45 L 203 44 L 204 48 L 207 46 L 207 43 Z M 209 49 L 209 51 L 213 53 L 213 51 L 209 49 Z M 215 52 L 215 54 Q 213 55 216 56 Q 221 58 220 55 L 215 52 Z M 224 71 L 223 74 L 224 74 L 224 71 Z M 221 83 L 220 87 L 221 87 L 221 83 Z M 225 83 Q 223 88 227 87 Q 229 82 225 83 Z " /><path fill="rgb(13,31,45)" stroke="rgb(13,31,45)" stroke-width="1" opacity="1" d="M 209.5 29 L 216 29.5 L 209.5 30 L 209.5 29 Z " /><path fill="rgb(13,31,45)" stroke="rgb(13,31,45)" stroke-width="1" opacity="1" d="M 83.5 30 L 85.5 30 L 94.5 31 L 98 30 L 98 37 L 106 37 L 106 39.5 L 105 43 L 111.5 43 L 112 44.5 L 113 44.5 L 113.5 43 L 114 45.5 L 113 48 L 117.5 47 L 120.5 54 L 121 52.5 Q 118.8 51.3 121.5 50 Q 125.3 48.8 124 52.5 L 124.5 55 L 126 55.5 L 124.5 58 L 126 58.5 L 122 60.5 L 125 62.5 L 123 79 Q 119.7 77.9 121 82 L 118 82 L 118 62.5 L 116.5 62 L 116.5 60 Q 114.3 60.8 115 58.5 L 114 56 Q 110 54.6 112 61.5 L 114 61.5 L 112.5 68 L 111 54 L 105.5 56 L 105 50 L 109 49.5 L 103 48.5 L 103.5 47 L 100 45.5 L 99.5 43 L 98.5 49 L 98 43 L 92.5 42 L 89.5 43 L 82.5 43 L 82 45.5 L 81 48 L 74 49 L 76 55 L 72.5 54 L 68 56.5 L 68.5 58 L 63 61 L 62 74.5 L 63 81 Q 66.8 80 68 82.5 Q 67.3 86.8 70 87.5 L 70 92.5 L 69 92.5 Q 71.7 84.7 64.5 87 L 62.5 87 Q 60.3 86.3 61 88.5 L 62 90.5 L 60 91.5 L 59.5 90 L 58 90.5 L 58 87 L 50 87 L 50 81.5 L 51 80.5 L 51 68 Q 55.6 69.3 57 66.5 Q 57.8 64.3 55.5 65 Q 52.5 63.5 55.5 62 L 57 61.5 L 57 55 L 63 55 L 63 49.5 Q 64.2 47 68 48 L 69 43 L 76 43 L 76 36 L 82.5 36 L 82 34.5 L 83.5 30 Z M 117 55 L 115 58 L 118 59 L 118 55 L 117 55 Z M 59 56 L 59 57 L 63 57 L 59 56 Z M 60 67 L 58 69 L 59 71 L 57 72 L 60 72 L 60 67 Z M 56 69 L 55 81 L 56 81 L 56 69 Z " /><path fill="rgb(13,31,45)" stroke="rgb(13,31,45)" stroke-width="1" opacity="1" d="M 221.5 31 L 222.5 33 L 226 32.5 L 225.5 37 L 224.5 35 L 223 35.5 L 222.5 34 L 221.5 36 L 221.5 31 Z " /><path fill="rgb(13,31,45)" stroke="rgb(13,31,45)" stroke-width="1" opacity="1" d="M 111.5 37 L 113.5 40 L 111 38.5 L 111.5 37 Z " /><path fill="rgb(13,31,45)" stroke="rgb(13,31,45)" stroke-width="1" opacity="1" d="M 209 37 L 214 37 L 214 38.5 L 211.5 42 L 209 41.5 L 209 37 Z " /><path fill="rgb(13,31,45)" stroke="rgb(13,31,45)" stroke-width="1" opacity="1" d="M 238.5 37 L 239 42.5 L 238 42.5 L 238.5 37 Z " /><path fill="rgb(13,31,45)" stroke="rgb(13,31,45)" stroke-width="1" opacity="1" d="M 19.5 43 L 20 48.5 L 19 48.5 L 19.5 43 Z " /><path fill="rgb(13,31,45)" stroke="rgb(13,31,45)" stroke-width="1" opacity="1" d="M 157 43 L 163 43 L 163 49 L 159 49 L 159 46 Q 155.7 47.1 157 43 Z " /><path fill="rgb(13,31,45)" stroke="rgb(13,31,45)" stroke-width="1" opacity="1" d="M 169 43 L 175 43 L 175 45.5 L 177 49.5 L 175.5 49 L 169 49 L 169 43 Z M 170 44 L 171 46 L 174 45 L 170 44 Z " /><path fill="rgb(13,31,45)" stroke="rgb(13,31,45)" stroke-width="1" opacity="1" d="M 86.5 48 L 93 48.5 L 86.5 49 L 86.5 48 Z " /><path fill="rgb(13,31,45)" stroke="rgb(13,31,45)" stroke-width="1" opacity="1" d="M 137 48 L 139 48.5 L 136 50.5 L 137 48 Z " /><path fill="rgb(13,31,45)" stroke="rgb(13,31,45)" stroke-width="1" opacity="1" d="M 192.5 48 L 197 48.5 L 192.5 49 L 192.5 48 Z " /><path fill="rgb(13,31,45)" stroke="rgb(13,31,45)" stroke-width="1" opacity="1" d="M 164.5 49 L 170 50 L 170 55 L 176 55 L 176 58.5 L 175 58.5 Q 176.3 54.8 172.5 56 L 172.5 57 Q 175.5 56.2 174 60 Q 168.8 62.1 170 57.5 Q 172.5 56 169 54.5 L 168.5 51 L 168 55 L 164 55 L 164 53.5 L 163 50.5 L 164.5 49 Z " /><path fill="rgb(13,31,45)" stroke="rgb(13,31,45)" stroke-width="1" opacity="1" d="M 236.5 50 L 239 50.5 L 238.5 59 L 234.5 56 L 233 56.5 L 233.5 53 L 234.5 55 L 235 53 L 237 52.5 L 235 51.5 L 236.5 50 Z " /><path fill="rgb(13,31,45)" stroke="rgb(13,31,45)" stroke-width="1" opacity="1" d="M 252.5 50 L 253 54.5 L 252 54.5 L 252.5 50 Z " /><path fill="rgb(13,31,45)" stroke="rgb(13,31,45)" stroke-width="1" opacity="1" d="M 176.5 51 L 178.5 51 L 180 51.5 L 178 52 Q 179 55 176 54 L 176.5 51 Z " /><path fill="rgb(13,31,45)" stroke="rgb(13,31,45)" stroke-width="1" opacity="1" d="M 19.5 54 L 20 73.5 L 19 73.5 L 19.5 54 Z " /><path fill="rgb(13,31,45)" stroke="rgb(13,31,45)" stroke-width="1" opacity="1" d="M 145.5 55 L 150 55.5 L 145.5 56 L 145.5 55 Z " /><path fill="rgb(13,31,45)" stroke="rgb(13,31,45)" stroke-width="1" opacity="1" d="M 157.5 56 L 158 58 L 161 58.5 L 157 59 L 157.5 56 Z " /><path fill="rgb(13,31,45)" stroke="rgb(13,31,45)" stroke-width="1" opacity="1" d="M 252.5 56 L 253 61.5 L 252 61.5 L 252.5 56 Z " /><path fill="rgb(13,31,45)" stroke="rgb(13,31,45)" stroke-width="1" opacity="1" d="M 127.5 58 L 132 58.5 L 127.5 59 L 127.5 58 Z " /><path fill="rgb(13,31,45)" stroke="rgb(13,31,45)" stroke-width="1" opacity="1" d="M 133.5 58 Q 138.1 56.8 136 62 Q 133.3 63.1 134 60.5 L 134.5 59 L 133.5 58 Z " /><path fill="rgb(13,31,45)" stroke="rgb(13,31,45)" stroke-width="1" opacity="1" d="M 32.5 59 L 33 61.5 L 32 61.5 L 32.5 59 Z " /><path fill="rgb(13,31,45)" stroke="rgb(13,31,45)" stroke-width="1" opacity="1" d="M 68.5 61 L 69 64.5 L 68 64.5 L 68.5 61 Z " /><path fill="rgb(13,31,45)" stroke="rgb(13,31,45)" stroke-width="1" opacity="1" d="M 131.5 61 L 133 63.5 L 132.5 67 Q 135.8 65.9 135 68.5 L 136 68.5 L 137.5 62 L 138 67.5 L 137 72.5 Q 139.3 73.8 136.5 75 L 131 75 L 131 64.5 L 131 62.5 L 131.5 61 Z " /><path fill="rgb(13,31,45)" stroke="rgb(13,31,45)" stroke-width="1" opacity="1" d="M 168.5 61 L 169 67.5 L 168 69.5 Q 170.5 71 169 76.5 L 168 82 Q 170.7 80.9 170 83.5 L 169 85.5 Q 170.4 88.1 175 87.5 L 174 91 L 171.5 92 L 168.5 86 L 163 87 L 162.5 93 L 162 87.5 L 163 86.5 L 163 71.5 L 165 69.5 L 157 67.5 L 162.5 67 L 168 68 L 168.5 61 Z M 168 71 L 165 75 Q 164 77 167 76 L 168 77 L 168 71 Z " /><path fill="rgb(13,31,45)" stroke="rgb(13,31,45)" stroke-width="1" opacity="1" d="M 156.5 62 L 157 65.5 L 156 65.5 L 156.5 62 Z " /><path fill="rgb(13,31,45)" stroke="rgb(13,31,45)" stroke-width="1" opacity="1" d="M 139 63 Q 143.1 61.7 142 65 Q 137.9 66.3 139 63 Z " /><path fill="rgb(13,31,45)" stroke="rgb(13,31,45)" stroke-width="1" opacity="1" d="M 156.5 69 L 157 75 L 155 74.5 L 156.5 69 Z " /><path fill="rgb(13,31,45)" stroke="rgb(13,31,45)" stroke-width="1" opacity="1" d="M 112.5 75 L 113 80.5 L 112 80.5 L 112.5 75 Z " /><path fill="rgb(13,31,45)" stroke="rgb(13,31,45)" stroke-width="1" opacity="1" d="M 68.5 76 L 69 80.5 L 68 80.5 L 68.5 76 Z " /><path fill="rgb(13,31,45)" stroke="rgb(13,31,45)" stroke-width="1" opacity="1" d="M 124.5 78 L 125 79.5 L 122.5 81 L 122.5 80 Q 125 80.7 124.5 78 Z " /><path fill="rgb(13,31,45)" stroke="rgb(13,31,45)" stroke-width="1" opacity="1" d="M 155.5 78 L 158.5 89 L 159 87 L 161 87.5 L 161 89.5 L 161 94.5 Q 164.3 93.7 163 99 L 157 100 Q 155.2 106.1 158.5 108 L 161 107 L 164.5 118 L 166 117.5 Q 165.3 119.8 167.5 119 L 169 119.5 L 170 111.5 L 169 107 L 164 107 L 164 108.5 L 163 108.5 L 162.5 105 L 161 105.5 L 164 104 L 164 106 L 170 106 L 169 100.5 L 170 100.5 Q 169.2 103.1 172.5 102 L 174.5 106 L 175.5 100 L 176 112.5 L 175 112.5 L 174.5 111 L 174 113 L 170 113 L 170 121.5 L 168.5 121 Q 164.8 120.3 164 122.5 L 163.5 124 L 163 120 L 159 120 L 159 126 L 168.5 126 L 169.5 125 L 170 127 L 164.5 127 L 164 128.5 L 163 132.5 L 164.5 132 L 173.5 133 L 179 131.5 L 176 129.5 L 177.5 126 L 177 127.5 L 177.5 130 L 178 128 Q 180.7 126.9 180 129.5 L 182 130.5 L 181 125.5 L 183 125 L 182 131.5 L 185.5 133 L 188 132 Q 186.8 127.4 189.5 126 L 192 126.5 L 189 127 Q 186.3 134.5 194.5 132 L 194.5 133 L 188 133 L 188 139 L 195 139 L 195 141.5 L 198.5 146 L 202 146 Q 200.3 150.5 205.5 149 L 205.5 151 L 207 151.5 L 201.5 153 L 199.5 150 L 188 152 L 189 149.5 L 188 147.5 L 188.5 146 Q 181.3 143.7 184 151.5 L 182 150.5 L 184 142.5 L 183 142.5 L 182.5 145 L 169.5 145 L 169 146.5 L 167.5 146 L 163.5 145 L 162.5 146 L 156 146 L 158 153.5 L 157 153.5 Q 157.5 150.5 150.5 152 Q 147.8 153.4 149 158 Q 144.4 156.8 143 159.5 L 144 162.5 L 143 165.5 L 144 171 L 147.5 172 L 150 171 L 150 178.5 L 148 179 L 147.5 177 L 146.5 179 L 144 176.5 L 142.5 166 L 142 170 L 131 172 L 132 169.5 L 131 165 L 117 164.5 L 118 158 L 112 159 L 111.5 163 L 111 159 L 105.5 158 L 105 165.5 L 105 167.5 L 104 170.5 L 105 174.5 L 104 174.5 L 104 171.5 L 98 164.5 L 97.5 157 L 96 163.5 Q 98.7 165.3 97 171.5 L 94.5 172 L 91 171.5 L 93 170.5 L 92 169.5 L 92 161.5 L 92 159.5 L 92 153 L 95.5 153 L 97.5 156 L 98 145 L 92.5 145 L 92 146.5 L 90.5 149 L 88 148.5 Q 86.9 145.2 89.5 146 L 92 145 Q 93.3 140.4 90.5 139 Q 88.3 139.8 89 137.5 L 90 133 L 83 133 L 81 137 L 83 137.5 L 81.5 139 L 63.5 139 L 61.5 140 L 56 139 Q 55 142.8 57.5 144 Q 61.8 144.8 62.5 142 L 63 144 L 56 145 L 55 150.5 L 55.5 152 Q 52 150.7 53 146 Q 49.7 144.7 51 149.5 L 50 149.5 L 49.5 145 L 49 150.5 L 49.5 152 L 46 151.5 L 47 146.5 Q 47.7 143.9 45 145 L 45 158.5 L 44 165 L 49 165 L 49 171.5 L 51.5 172 Q 58.8 169.4 57 175.5 L 56 175.5 L 56 173 L 50.5 173 L 49 176.5 L 50.5 178 Q 56 176.5 57.5 179 L 60.5 178 Q 58.7 180.2 63 182.5 L 64.5 186 L 76.5 186 L 83 185 L 83 190 L 85.5 190 L 89.5 188 L 91 188.5 L 91 184 L 97.5 184 L 97.5 185 L 92 185 L 92 191 L 83 191 L 83 197 L 88.5 197 L 89 198.5 L 86.5 203 L 83 203 L 83 197.5 L 82.5 197 L 66.5 197 L 63 198 L 63.5 192 L 64.5 197 L 66 191.5 L 58.5 191 L 58.5 192 L 61 193.5 L 57.5 198 L 51 195.5 L 53.5 194 L 54.5 196 L 57 195 L 56 189.5 L 57 184 L 51.5 183 L 51.5 184 L 54 184.5 L 51.5 185 L 49 183.5 L 51 190 L 45.5 191 L 44 187.5 L 45 185.5 L 44 183.5 L 45 180.5 L 44 179.5 L 44 172 L 38.5 172 L 38 171.5 L 38 152.5 L 40.5 146 Q 45.1 144.7 43 150.5 L 44 150.5 L 44 145.5 Q 47.3 144 46 139 L 49 139.5 L 47 140 Q 45.5 144.5 50 143 L 50.5 137 L 51 139 L 59 135.5 L 60 133.5 L 51 132.5 L 57 132 Q 54.3 124.5 62.5 127 L 71 125.5 Q 68.1 121.9 69 114.5 Q 71 111 73 115.5 L 74.5 120 L 76.5 113 L 79.5 115 L 82.5 113 L 82.5 114 L 81 114 Q 82.5 117.7 79.5 117 L 78.5 119 Q 84.8 121.2 83 115.5 L 84 115.5 Q 82.2 121.2 88.5 119 Q 91.3 120.3 90 125.5 L 87.5 126 Q 81.8 127.8 84 121.5 L 83 121.5 L 82 126.5 L 83 132 L 98 133 L 98.5 138 L 103 135.5 L 101.5 132 Q 95.4 133.8 98 126.5 L 99 125.5 L 99 119 L 92.5 119 L 91.5 120 L 91 117.5 L 91 106.5 L 89 106 L 88.5 112 L 88 109 L 77 110 L 76 106.5 L 77.5 107 Q 82 108 83 105.5 L 83.5 100 L 85.5 101 L 86.5 100 L 98.5 100 L 100.5 100 Q 107.3 102.3 105 95.5 Q 102.8 94.3 105.5 93 L 107.5 94 L 111 93 L 112 84 L 115 84.5 L 114.5 86 L 117.5 87 L 119.5 83 L 120 87 Q 127.6 88.7 131 85.5 L 130 81 L 138 81.5 L 137 85.5 Q 138.6 88.5 144 87 L 144.5 93 L 145.5 91 L 151 92 L 152 89.5 L 151.5 88 L 154.5 87 L 157 88.5 L 155.5 78 Z M 130 87 L 130 89 L 129 92 L 130 93 Q 127 94 128 91 L 125 93 L 118 94 L 117 97 L 118 100 Q 121 107 115 105 L 115 104 Q 117 105 116 101 Q 118 99 116 98 L 112 98 Q 113 101 110 100 L 108 103 L 108 105 L 112 105 L 111 107 L 106 106 L 104 110 L 100 107 Q 102 101 98 102 L 98 113 L 97 107 L 96 111 L 93 110 L 92 118 L 94 117 L 96 118 Q 99 119 98 116 L 101 115 L 103 116 L 102 115 L 103 113 L 104 113 L 103 117 L 103 132 L 104 133 L 104 139 L 98 139 L 98 145 L 104 146 L 105 147 L 105 152 L 110 152 L 112 153 L 111 158 L 118 157 L 119 154 L 114 154 L 118 152 L 131 152 Q 130 157 133 159 L 134 157 Q 133 153 136 154 L 136 152 L 138 152 L 138 147 L 135 147 L 139 145 L 143 147 Q 146 145 144 139 L 147 140 L 151 140 L 151 130 L 151 128 Q 154 127 152 132 L 156 133 L 158 133 L 157 120 L 156 119 L 157 107 L 151 106 L 152 103 Q 153 98 149 100 L 148 97 L 144 97 L 144 93 L 132 93 L 132 92 Q 134 86 130 87 Z M 90 104 L 92 106 L 94 106 L 90 104 Z M 69 127 Q 68 131 71 132 L 73 131 Q 75 125 69 127 Z M 70 132 L 69 133 Q 60 131 63 138 L 66 137 L 77 137 L 77 133 L 71 133 L 70 132 Z M 97 137 L 96 143 L 97 143 L 97 137 Z M 175 139 L 175 144 L 182 144 L 183 141 L 183 139 L 175 139 Z M 169 141 Q 167 146 173 144 Q 175 139 169 141 Z M 148 142 L 148 145 L 151 145 Q 152 140 148 142 Z M 147 143 L 145 145 L 147 145 L 147 143 Z M 160 144 L 160 145 L 162 145 L 160 144 Z M 55 145 L 54 150 L 55 150 L 55 145 Z M 99 146 L 99 155 Q 100 157 102 155 L 105 156 Q 107 150 102 152 L 102 151 Q 106 152 104 148 Q 103 145 102 147 L 99 146 Z M 144 149 L 143 152 L 145 152 L 144 149 Z M 123 153 L 123 154 L 130 154 L 123 153 Z M 96 158 L 95 163 L 96 163 L 96 158 Z M 134 158 L 133 161 L 134 163 L 132 164 L 137 164 L 137 158 L 134 158 Z M 129 159 L 129 160 L 131 160 L 129 159 Z M 50 179 L 51 183 L 53 182 L 54 180 L 50 179 Z " /><path fill="rgb(13,31,45)" stroke="rgb(13,31,45)" stroke-width="1" opacity="1" d="M 150.5 81 L 151 83.5 L 150 83.5 L 150.5 81 Z " /><path fill="rgb(13,31,45)" stroke="rgb(13,31,45)" stroke-width="1" opacity="1" d="M 105.5 82 L 106 86.5 L 105 86.5 L 105.5 82 Z " /><path fill="rgb(13,31,45)" stroke="rgb(13,31,45)" stroke-width="1" opacity="1" d="M 73.5 87 L 76 87.5 L 73.5 88 L 73.5 87 Z " /><path fill="rgb(13,31,45)" stroke="rgb(13,31,45)" stroke-width="1" opacity="1" d="M 208 88 L 210 88.5 L 208.5 94 L 208 88 Z " /><path fill="rgb(13,31,45)" stroke="rgb(13,31,45)" stroke-width="1" opacity="1" d="M 211 90 L 213 90.5 L 212 92.5 L 214 93.5 L 214.5 91 L 216.5 94 L 219 94.5 L 217 95 L 216.5 97 L 214 96.5 Q 214.8 94.3 212.5 95 Q 210 93.8 211 90 Z " /><path fill="rgb(13,31,45)" stroke="rgb(13,31,45)" stroke-width="1" opacity="1" d="M 81.5 93 L 82.5 95 L 81.5 93 Z " /><path fill="rgb(13,31,45)" stroke="rgb(13,31,45)" stroke-width="1" opacity="1" d="M 167.5 93 L 168 95.5 L 166 94.5 L 167.5 93 Z " /><path fill="rgb(13,31,45)" stroke="rgb(13,31,45)" stroke-width="1" opacity="1" d="M 63.5 94 L 64.5 96 L 65 94 L 69 94 L 69 95.5 L 67 95.5 Q 67.8 97.8 65.5 97 Q 64.3 99.2 63 96.5 L 63.5 94 Z " /><path fill="rgb(13,31,45)" stroke="rgb(13,31,45)" stroke-width="1" opacity="1" d="M 79.5 95 Q 82.5 94.1 81 98.5 L 81.5 100 L 76 100 L 76 105 L 74.5 105 L 69.5 108 L 69 101 L 76 100 Q 74.5 96.3 77.5 97 L 79.5 95 Z " /><path fill="rgb(13,31,45)" stroke="rgb(13,31,45)" stroke-width="1" opacity="1" d="M 179.5 95 L 180 97.5 L 178 97.5 Q 177.3 99.8 179.5 99 L 179.5 100 Q 175.8 101.3 177 97.5 L 179.5 95 Z " /><path fill="rgb(13,31,45)" stroke="rgb(13,31,45)" stroke-width="1" opacity="1" d="M 208.5 96 Q 213.5 98.5 208.5 101 L 203 102 L 203 106 Q 206.7 104.5 206 107.5 L 208.5 106 L 210 106.5 L 208 107 L 208 113 L 205.5 113 L 203.5 113 Q 200.9 113.8 202 110.5 L 201 107.5 L 202 102.5 L 201 100 L 208 100 L 208.5 96 Z " /><path fill="rgb(13,31,45)" stroke="rgb(13,31,45)" stroke-width="1" opacity="1" d="M 134.5 97 L 137 98.5 L 134.5 100 L 132.5 100 L 124 98.5 L 133.5 98 L 134.5 97 Z " /><path fill="rgb(13,31,45)" stroke="rgb(13,31,45)" stroke-width="1" opacity="1" d="M 204 97 Q 207 96 206 99 Q 203 100 204 97 Z " /><path fill="rgb(13,31,45)" stroke="rgb(13,31,45)" stroke-width="1" opacity="1" d="M 66.5 98 L 67 100 L 65 99.5 L 66.5 98 Z " /><path fill="rgb(13,31,45)" stroke="rgb(13,31,45)" stroke-width="1" opacity="1" d="M 141.5 99 L 147 99.5 L 144.5 101 L 143 100.5 L 143 105 L 138 105 L 139 101.5 L 138.5 100 L 141.5 99 Z " /><path fill="rgb(13,31,45)" stroke="rgb(13,31,45)" stroke-width="1" opacity="1" d="M 183.5 100 L 188 100 L 188 106.5 L 191.5 108 L 200 108.5 L 191 109 L 189 112.5 L 195 113 L 195 120 L 188 120 L 188 123.5 L 185.5 124 L 182.5 123 L 181 123.5 L 183 120.5 L 182 119.5 L 182 106.5 L 184 101.5 L 183.5 100 Z M 184 108 L 183 113 L 184 113 L 184 108 Z " /><path fill="rgb(13,31,45)" stroke="rgb(13,31,45)" stroke-width="1" opacity="1" d="M 192.5 100 L 200 100.5 L 192.5 101 L 192.5 100 Z " /><path fill="rgb(13,31,45)" stroke="rgb(13,31,45)" stroke-width="1" opacity="1" d="M 214.5 100 L 220 100.5 L 214.5 101 L 214.5 100 Z " /><path fill="rgb(13,31,45)" stroke="rgb(13,31,45)" stroke-width="1" opacity="1" d="M 213.5 102 L 214 106.5 L 213 106.5 L 213.5 102 Z " /><path fill="rgb(13,31,45)" stroke="rgb(13,31,45)" stroke-width="1" opacity="1" d="M 226.5 105 Q 228.8 104.3 228 106.5 L 226.5 105 Z " /><path fill="rgb(13,31,45)" stroke="rgb(13,31,45)" stroke-width="1" opacity="1" d="M 148.5 106 L 149.5 108 L 148.5 106 Z " /><path fill="rgb(13,31,45)" stroke="rgb(13,31,45)" stroke-width="1" opacity="1" d="M 53.5 107 L 57 107.5 L 53.5 108 L 53.5 107 Z " /><path fill="rgb(13,31,45)" stroke="rgb(13,31,45)" stroke-width="1" opacity="1" d="M 180.5 107 L 181 109.5 L 180 109.5 L 180.5 107 Z " /><path fill="rgb(13,31,45)" stroke="rgb(13,31,45)" stroke-width="1" opacity="1" d="M 110.5 108 L 111 112.5 L 110 112.5 L 110.5 108 Z " /><path fill="rgb(13,31,45)" stroke="rgb(13,31,45)" stroke-width="1" opacity="1" d="M 144 108 L 148 108 L 148 109.5 L 149 113 Q 141.5 115.5 144 108 Z " /><path fill="rgb(13,31,45)" stroke="rgb(13,31,45)" stroke-width="1" opacity="1" d="M 179.5 111 L 178.5 113 L 179.5 111 Z " /><path fill="rgb(13,31,45)" stroke="rgb(13,31,45)" stroke-width="1" opacity="1" d="M 150 113 L 152 113 L 152 119 L 150 119 L 150 113 Z " /><path fill="rgb(13,31,45)" stroke="rgb(13,31,45)" stroke-width="1" opacity="1" d="M 210 113 Q 216.4 110.9 214 118 L 210.5 119 L 210 113 Z " /><path fill="rgb(13,31,45)" stroke="rgb(13,31,45)" stroke-width="1" opacity="1" d="M 175.5 117 L 176 119.5 L 175 119.5 L 175.5 117 Z " /><path fill="rgb(13,31,45)" stroke="rgb(13,31,45)" stroke-width="1" opacity="1" d="M 59.5 119 Q 62.5 120.6 61 126 Q 56.9 127.7 58 123.5 L 57 121 Q 59.8 122 59.5 119 Z " /><path fill="rgb(13,31,45)" stroke="rgb(13,31,45)" stroke-width="1" opacity="1" d="M 150.5 121 L 151 126.5 L 150 126.5 L 150.5 121 Z " /><path fill="rgb(13,31,45)" stroke="rgb(13,31,45)" stroke-width="1" opacity="1" d="M 91.5 127 L 91 128.5 L 89.5 131 L 87 130.5 L 87.5 128 L 91.5 127 Z " /><path fill="rgb(13,31,45)" stroke="rgb(13,31,45)" stroke-width="1" opacity="1" d="M 226.5 131 Q 229.1 130.3 228 133 L 225.5 134 L 225 132.5 L 226.5 131 Z " /><path fill="rgb(13,31,45)" stroke="rgb(13,31,45)" stroke-width="1" opacity="1" d="M 219.5 134 L 224 134.5 L 219.5 135 L 219.5 134 Z " /><path fill="rgb(13,31,45)" stroke="rgb(13,31,45)" stroke-width="1" opacity="1" d="M 84 139 L 87 139 L 87 145 L 84.5 146 L 84 139 Z " /><path fill="rgb(13,31,45)" stroke="rgb(13,31,45)" stroke-width="1" opacity="1" d="M 106 139 L 111 139.5 L 110 145 L 106 145 L 106 143.5 L 105 141.5 L 106 139 Z " /><path fill="rgb(13,31,45)" stroke="rgb(13,31,45)" stroke-width="1" opacity="1" d="M 111.5 146 L 112 150.5 L 111 150.5 L 111.5 146 Z " /><path fill="rgb(13,31,45)" stroke="rgb(13,31,45)" stroke-width="1" opacity="1" d="M 121.5 146 L 124 146.5 L 121.5 147 L 121.5 146 Z " /><path fill="rgb(13,31,45)" stroke="rgb(13,31,45)" stroke-width="1" opacity="1" d="M 131.5 146 Q 133.8 145.3 133 147.5 L 131.5 146 Z " /><path fill="rgb(13,31,45)" stroke="rgb(13,31,45)" stroke-width="1" opacity="1" d="M 163.5 148 L 164 151 L 168 151.5 L 162.5 153 L 163 151.5 L 163.5 148 Z " /><path fill="rgb(13,31,45)" stroke="rgb(13,31,45)" stroke-width="1" opacity="1" d="M 47.5 153 L 49 156.5 L 47.5 156 L 46 155.5 L 47.5 153 Z " /><path fill="rgb(13,31,45)" stroke="rgb(13,31,45)" stroke-width="1" opacity="1" d="M 195 153 L 198 154.5 L 197 156.5 L 197.5 158 L 195 158 L 195 153 Z " /><path fill="rgb(13,31,45)" stroke="rgb(13,31,45)" stroke-width="1" opacity="1" d="M 204 153 L 207 154.5 Q 205.3 159.8 210.5 158 L 213 161.5 L 213 163.5 L 214 165.5 L 214 185 L 207 185 L 207 197 L 201 197 L 201 202.5 Q 199.8 205.3 198.5 203 Q 194.8 202.3 194 204.5 L 195 207.5 L 188.5 210 L 164.5 210 Q 161.5 209.5 162 205.5 L 163 203 L 159 204.5 Q 162.8 206.3 159.5 208 Q 154.9 209.3 157 203.5 L 155.5 200 L 153.5 203 L 150 201.5 L 149 197.5 L 150 196.5 L 150 185 Q 153.8 184 155 186.5 Q 157 193.3 151 191 L 151 196 L 162 196 L 162 191.5 L 163 191.5 Q 164 196 161.5 197 L 157 198 L 157 202 L 163 202 L 163 197 L 169.5 197 L 169.5 198 Q 162.2 195.4 164 201.5 L 165.5 201 L 168.5 203 L 180.5 203 L 181.5 204 L 184 203 L 184 199 L 185.5 199 Q 186.7 196.8 188 199.5 Q 187.3 201.8 189.5 201 L 196 197.5 L 194.5 195 L 199 196 Q 197.8 191.4 200.5 190 Q 202.8 190.8 202 188.5 L 200 188.5 L 201 179.5 L 202.5 178 L 207 178 L 207 183.5 L 208.5 184 L 208 182.5 L 208 165.5 L 207 162 Q 204 163.3 205 159.5 L 200 156.5 L 201.5 157 L 204 155.5 L 204 153 Z M 213 168 L 212 176 L 213 176 L 213 168 Z M 204 184 L 202 186 L 202 187 L 206 187 L 207 185 L 204 184 Z " /><path fill="rgb(13,31,45)" stroke="rgb(13,31,45)" stroke-width="1" opacity="1" d="M 150 158 L 156 158.5 L 155 160.5 L 156 162.5 L 155 164.5 L 156 167.5 L 155 167.5 L 155 165 L 150 165 L 150 162.5 L 150 160.5 L 150 158 Z " /><path fill="rgb(13,31,45)" stroke="rgb(13,31,45)" stroke-width="1" opacity="1" d="M 49.5 161 L 50 163.5 L 49 163.5 L 49.5 161 Z " /><path fill="rgb(13,31,45)" stroke="rgb(13,31,45)" stroke-width="1" opacity="1" d="M 201.5 161 L 203 161.5 L 203 172.5 L 202 172.5 L 201 165.5 L 202 162.5 L 200 162.5 L 201.5 161 Z " /><path fill="rgb(13,31,45)" stroke="rgb(13,31,45)" stroke-width="1" opacity="1" d="M 111.5 164 L 114 164.5 L 111.5 165 L 111.5 164 Z " /><path fill="rgb(13,31,45)" stroke="rgb(13,31,45)" stroke-width="1" opacity="1" d="M 152 169 Q 155.8 167.5 155 170.5 L 152 170.5 L 152 169 Z " /><path fill="rgb(13,31,45)" stroke="rgb(13,31,45)" stroke-width="1" opacity="1" d="M 205.5 169 L 207 177 L 204 175.5 Q 203.3 170.8 205.5 169 Z " /><path fill="rgb(13,31,45)" stroke="rgb(13,31,45)" stroke-width="1" opacity="1" d="M 220.5 171 Q 223.8 171.8 223 176.5 L 222 176.5 L 222 173 Q 218.8 174 220.5 171 Z " /><path fill="rgb(13,31,45)" stroke="rgb(13,31,45)" stroke-width="1" opacity="1" d="M 39 173 Q 43.1 171.3 42 175.5 L 41.5 178 Q 38.3 176.8 39 173 Z " /><path fill="rgb(13,31,45)" stroke="rgb(13,31,45)" stroke-width="1" opacity="1" d="M 155.5 173 L 156 177.5 L 155 177.5 L 155.5 173 Z " /><path fill="rgb(13,31,45)" stroke="rgb(13,31,45)" stroke-width="1" opacity="1" d="M 98.5 176 L 103.5 178 L 104.5 176 L 105 177.5 L 98.5 180 L 98.5 176 Z " /><path fill="rgb(13,31,45)" stroke="rgb(13,31,45)" stroke-width="1" opacity="1" d="M 88.5 177 L 92 177.5 L 88.5 178 L 88.5 177 Z " /><path fill="rgb(13,31,45)" stroke="rgb(13,31,45)" stroke-width="1" opacity="1" d="M 137 178 L 142 179 L 142 188 L 138 188 Q 136 184.9 137 178 Z " /><path fill="rgb(13,31,45)" stroke="rgb(13,31,45)" stroke-width="1" opacity="1" d="M 143.5 178 L 144 190.5 L 143 190.5 L 143.5 178 Z " /><path fill="rgb(13,31,45)" stroke="rgb(13,31,45)" stroke-width="1" opacity="1" d="M 155.5 179 L 157 185.5 L 155 184.5 L 155.5 179 Z " /><path fill="rgb(13,31,45)" stroke="rgb(13,31,45)" stroke-width="1" opacity="1" d="M 86 181 Q 88.7 179.9 88 182.5 L 86 183.5 L 86 181 Z " /><path fill="rgb(13,31,45)" stroke="rgb(13,31,45)" stroke-width="1" opacity="1" d="M 116.5 185 Q 121.1 183.8 119 189 L 117 189 Q 118.1 186.3 115.5 187 L 116.5 185 Z " /><path fill="rgb(13,31,45)" stroke="rgb(13,31,45)" stroke-width="1" opacity="1" d="M 213.5 186 L 219 188.5 L 217.5 191 Q 213 192 212 189.5 L 213.5 186 Z " /><path fill="rgb(13,31,45)" stroke="rgb(13,31,45)" stroke-width="1" opacity="1" d="M 117.5 190 L 121 190.5 L 117.5 191 L 117.5 190 Z " /><path fill="rgb(13,31,45)" stroke="rgb(13,31,45)" stroke-width="1" opacity="1" d="M 189 191 L 192 191.5 L 189.5 193 L 189 191 Z " /><path fill="rgb(13,31,45)" stroke="rgb(13,31,45)" stroke-width="1" opacity="1" d="M 110.5 196 L 111 198.5 Q 112.9 204.8 108 203 Q 106.8 197.5 110.5 196 Z " /><path fill="rgb(13,31,45)" stroke="rgb(13,31,45)" stroke-width="1" opacity="1" d="M 147.5 196 L 148 198 L 146 197.5 L 147.5 196 Z " /><path fill="rgb(13,31,45)" stroke="rgb(13,31,45)" stroke-width="1" opacity="1" d="M 93.5 197 Q 97.3 196.3 98 198.5 L 99 202.5 L 96.5 204 L 92.5 203 L 91 207 Q 88.3 208.1 89 205.5 L 88 203 Q 94 205.3 92 198.5 L 93.5 197 Z " /><path fill="rgb(13,31,45)" stroke="rgb(13,31,45)" stroke-width="1" opacity="1" d="M 188.5 197 L 191 197.5 L 188.5 198 L 188.5 197 Z " /><path fill="rgb(13,31,45)" stroke="rgb(13,31,45)" stroke-width="1" opacity="1" d="M 128 198 L 130 198.5 L 128 199.5 L 128 198 Z " /><path fill="rgb(13,31,45)" stroke="rgb(13,31,45)" stroke-width="1" opacity="1" d="M 177.5 198 Q 182 197 183 199.5 L 182.5 202 L 182 199 L 177.5 199 L 177.5 198 Z " /><path fill="rgb(13,31,45)" stroke="rgb(13,31,45)" stroke-width="1" opacity="1" d="M 15.5 199 L 16 202.5 L 15 202.5 L 15.5 199 Z " /><path fill="rgb(13,31,45)" stroke="rgb(13,31,45)" stroke-width="1" opacity="1" d="M 145.5 199 L 146 201 L 148 201.5 L 144 202 L 145.5 199 Z " /><path fill="rgb(13,31,45)" stroke="rgb(13,31,45)" stroke-width="1" opacity="1" d="M 68 200 Q 71.3 198.9 70 203 Q 66.7 204.1 68 200 Z " /><path fill="rgb(13,31,45)" stroke="rgb(13,31,45)" stroke-width="1" opacity="1" d="M 143 203 L 147 203.5 L 144 204 Q 142.3 208.1 146.5 207 L 149 206.5 L 148 203.5 L 150 203 L 150 209 L 144 209 L 143 203 Z " /><path fill="rgb(13,31,45)" stroke="rgb(13,31,45)" stroke-width="1" opacity="1" d="M 164 211 L 171 213.5 Q 169.4 216.5 164 215 L 164 211 Z " /><path fill="rgb(13,31,45)" stroke="rgb(13,31,45)" stroke-width="1" opacity="1" d="M 181.5 213 L 182 215 L 180 214.5 L 181.5 213 Z " /><path fill="rgb(13,31,45)" stroke="rgb(13,31,45)" stroke-width="1" opacity="1" d="M 225.5 213 L 227 216.5 L 226 222 L 213 221.5 L 222 219 Q 220.9 221.7 223.5 221 Q 221.9 219.3 225 217.5 L 225.5 213 Z " /><path fill="rgb(13,31,45)" stroke="rgb(13,31,45)" stroke-width="1" opacity="1" d="M 15.5 214 L 16 223.5 L 15 223.5 L 15.5 214 Z " /><path fill="rgb(13,31,45)" stroke="rgb(13,31,45)" stroke-width="1" opacity="1" d="M 17.5 215 L 18 221.5 L 17 221.5 L 17.5 215 Z " /><path fill="rgb(13,31,45)" stroke="rgb(13,31,45)" stroke-width="1" opacity="1" d="M 19.5 215 L 20 217.5 L 19 217.5 L 19.5 215 Z " /><path fill="rgb(13,31,45)" stroke="rgb(13,31,45)" stroke-width="1" opacity="1" d="M 26.5 215 L 33 215.5 L 26.5 216 L 26.5 215 Z " /><path fill="rgb(13,31,45)" stroke="rgb(13,31,45)" stroke-width="1" opacity="1" d="M 232.5 215 L 233 217.5 L 232 217.5 L 232.5 215 Z " /><path fill="rgb(13,31,45)" stroke="rgb(13,31,45)" stroke-width="1" opacity="1" d="M 14.5 227 L 18 227.5 L 14.5 228 L 14.5 227 Z " /><path fill="rgb(13,31,45)" stroke="rgb(13,31,45)" stroke-width="1" opacity="1" d="M 254.5 227 L 259 227.5 L 254.5 228 L 254.5 227 Z " /><path fill="rgb(13,31,45)" stroke="rgb(13,31,45)" stroke-width="1" opacity="1" d="M 251.5 229 L 252 232.5 L 251 232.5 L 251.5 229 Z " /><path fill="rgb(15,126,184)" stroke="rgb(15,126,184)" stroke-width="1" opacity="1" d="M 83 43 L 93 44.5 L 92 47 L 84.5 47 L 83.5 48 L 83 43 Z " /><path fill="rgb(15,126,184)" stroke="rgb(15,126,184)" stroke-width="1" opacity="1" d="M 198.5 44 Q 202.7 42.9 201 47 L 199 46.5 L 199.5 45 L 198.5 44 Z " /><path fill="rgb(15,126,184)" stroke="rgb(15,126,184)" stroke-width="1" opacity="1" d="M 76 49 L 81.5 50 L 83 49.5 L 83.5 54 L 84 51 L 90 51 L 90 53 L 87 53.5 L 91.5 55 L 92 50 L 84 49.5 L 98 49 L 98 55 L 105 55 L 105 61.5 L 106.5 61 L 111 62 L 110 70.5 L 111 71.5 L 111 81 L 105 81 L 105 87 L 98 87 L 98 93.5 L 96.5 94 L 94.5 94 L 92.5 93 L 91.5 94 L 82 94 L 82 87 L 77 87 L 78 89.5 L 77 91.5 L 77.5 93 L 76 92.5 L 76 81 L 69.5 81 L 69 80.5 L 69 61 L 75.5 62 Q 78 61 77 56.5 L 75 56.5 Q 74.3 54.3 76.5 55 L 76 53.5 L 76 49 Z M 91 56 L 90 57 L 83 57 L 83 61 L 79 63 L 76 67 L 77 76 L 80 75 L 82 80 L 83 81 L 88 81 L 88 86 L 92 87 Q 91 82 94 81 Q 100 83 98 77 Q 99 74 104 75 L 103 68 L 102 68 L 98 67 L 98 61 L 93 61 L 93 58 L 91 56 Z M 73 68 L 74 71 Q 75 73 72 72 Q 71 75 75 74 L 75 68 L 73 68 Z M 105 69 L 106 72 L 106 70 L 108 70 L 105 69 Z " /><path fill="rgb(15,126,184)" stroke="rgb(15,126,184)" stroke-width="1" opacity="1" d="M 101.5 49 Q 106.1 47.6 104 53.5 L 103 53.5 L 102.5 52 Q 101.2 54.3 100 51.5 L 101.5 49 Z " /><path fill="rgb(15,126,184)" stroke="rgb(15,126,184)" stroke-width="1" opacity="1" d="M 182 49 L 201.5 49 L 202 50.5 L 201 55 L 211.5 56 Q 212.8 53.7 214 56.5 L 213.5 69 L 211.5 69 L 210 69 L 210 74 Q 213.5 72.9 212 80.5 L 213 80.5 L 213.5 70 L 214.5 73 L 215 68 L 219 68 L 219 66.5 L 218 63 L 215 62.5 L 220 62 L 220 80.5 L 215 81 L 214.5 75 L 214 87 Q 208.6 85.5 207 88.5 L 207 94 L 201 94 L 201 100 L 188 100 L 188 93.5 L 186.5 93 L 184 94.5 L 186 95 L 186 100 L 182.5 100 L 183 98.5 L 181.5 86 L 179 87.5 Q 182 88.8 181 93 L 176 93 L 176 81.5 L 172.5 81 L 170 82 L 170.5 67 L 175 68 L 174.5 63 L 173.5 66 L 173 63 Q 170 61.8 171 65.5 L 170 65.5 Q 168.2 59.8 174.5 62 L 176 62.5 L 176 55 L 182 55 L 182 49 Z M 190 56 Q 187 57 188 62 Q 183 61 182 64 L 182 81 Q 182 81 187 81 Q 189 82 188 87 L 201 87 L 201 83 Q 202 80 207 81 L 207 63 L 207 62 L 201 62 L 201 58 L 200 56 L 190 56 Z M 177 68 L 176 74 L 179 74 L 178 70 L 180 70 L 177 68 Z " /><path fill="rgb(15,126,184)" stroke="rgb(15,126,184)" stroke-width="1" opacity="1" d="M 206.5 49 L 207 53.5 L 206 53.5 L 205.5 52 L 203 53 Q 201.3 48.9 205.5 50 L 206.5 49 Z " /><path fill="rgb(15,126,184)" stroke="rgb(15,126,184)" stroke-width="1" opacity="1" d="M 69 56 L 74 56 L 74 58.5 Q 72.3 56.9 70.5 60 L 69 58.5 L 69 56 Z " /><path fill="rgb(15,126,184)" stroke="rgb(15,126,184)" stroke-width="1" opacity="1" d="M 157 68 L 163 68 L 163 80.5 L 162 80.5 Q 164.5 72.3 157 75 L 157 68 Z " /><path fill="rgb(15,126,184)" stroke="rgb(15,126,184)" stroke-width="1" opacity="1" d="M 157.5 76 L 158 80.5 L 157 80.5 L 157.5 76 Z " /><path fill="rgb(15,126,184)" stroke="rgb(15,126,184)" stroke-width="1" opacity="1" d="M 13.5 81 L 14 102.5 L 13 102.5 L 13.5 81 Z " /><path fill="rgb(15,126,184)" stroke="rgb(15,126,184)" stroke-width="1" opacity="1" d="M 170.5 83 L 174 85.5 L 170 87 L 170.5 83 Z " /><path fill="rgb(15,126,184)" stroke="rgb(15,126,184)" stroke-width="1" opacity="1" d="M 164.5 87 Q 171.7 84.7 169 92.5 Q 170.4 95.1 175 94.5 L 170 95 L 169.5 100 L 169 93 L 163 93 L 163 88.5 L 164.5 87 Z " /><path fill="rgb(15,126,184)" stroke="rgb(15,126,184)" stroke-width="1" opacity="1" d="M 104.5 88 L 105 93 L 101 92.5 L 104 92 L 104.5 88 Z " /><path fill="rgb(15,126,184)" stroke="rgb(15,126,184)" stroke-width="1" opacity="1" d="M 83.5 95 L 84 98 L 90 99.5 L 83 100 L 83.5 95 Z " /><path fill="rgb(15,126,184)" stroke="rgb(15,126,184)" stroke-width="1" opacity="1" d="M 118 100 L 130.5 100 L 131 100.5 L 131 106 L 137.5 106 L 141.5 107 L 144 106 L 144 113 L 149.5 113 L 150 113.5 L 150 133 L 144 133 L 144 139 L 138 139 L 138 146 L 118.5 146 L 117.5 145 L 111 145 L 112 140.5 L 110.5 134 L 110 139 Q 102.5 141.5 105 134 L 110 133.5 L 104 133 L 104 113.5 L 104.5 113 L 111 113 L 111 107.5 L 113.5 107 L 118 107 L 118 100 Z M 123 107 L 123 109 L 123 113 L 118 113 L 118 118 Q 116 121 110 120 L 109 126 Q 112 128 117 127 L 117 133 L 112 133 L 112 139 L 118 139 L 118 133 L 123 133 L 123 139 L 131 139 L 131 133 L 137 133 L 137 128 Q 139 124 144 126 L 144 120 L 137 120 L 137 116 Q 139 114 137 113 L 131 113 L 131 107 L 123 107 Z M 112 113 L 111 118 L 112 118 L 112 113 Z M 144 116 L 144 119 L 149 119 L 144 116 Z M 137 135 L 134 139 L 138 139 L 138 135 L 137 135 Z M 116 140 L 116 144 L 117 144 Q 118 139 116 140 Z " /><path fill="rgb(15,126,184)" stroke="rgb(15,126,184)" stroke-width="1" opacity="1" d="M 133.5 100 L 137 100 L 137 105 Q 131.8 106.7 133 103 L 136 102.5 L 133.5 100 Z " /><path fill="rgb(15,126,184)" stroke="rgb(15,126,184)" stroke-width="1" opacity="1" d="M 157 101 L 163 101 L 163 104 L 157 106 L 157 101 Z M 160 102 L 161 104 Q 162 101 160 102 Z " /><path fill="rgb(15,126,184)" stroke="rgb(15,126,184)" stroke-width="1" opacity="1" d="M 13.5 114 L 14 128.5 L 13 128.5 L 13.5 114 Z " /><path fill="rgb(15,126,184)" stroke="rgb(15,126,184)" stroke-width="1" opacity="1" d="M 96.5 124 L 97.5 126 L 94 125.5 L 96.5 124 Z " /><path fill="rgb(15,126,184)" stroke="rgb(15,126,184)" stroke-width="1" opacity="1" d="M 63 139 L 76.5 139 L 78.5 140 L 83 139 Q 85.4 146.1 79 144 Q 80.3 139.9 77 141 L 78 143.5 L 77.5 145 Q 83.3 143.8 84.5 147 L 87.5 146 L 87 147.5 L 86 149.5 L 86.5 152 Q 91.9 151.4 92 152.5 L 92 171 Q 86.4 168.8 88 174.5 L 87 178 L 76.5 178 L 76 179.5 L 77 185 L 63 184 L 64 179.5 Q 62.4 176.5 57 178 L 57 171 L 51 171 L 51 165.5 Q 48.5 164 50 158.5 L 51 152 L 57 152 L 57 145 L 61.5 145 L 63 145.5 L 63 139 Z M 69 146 L 69 152 L 68 151 L 65 152 L 63 153 L 63 158 L 57 158 L 57 165 L 59 166 L 63 166 L 63 172 L 69 172 L 69 178 L 76 178 L 76 172 L 78 172 L 82 172 L 82 165 L 87 165 L 88 160 L 80 157 L 81 155 L 80 152 Q 75 153 76 151 L 76 149 L 76 146 L 69 146 Z M 56 155 L 53 157 L 56 157 L 56 155 Z M 91 159 L 90 164 L 91 164 L 91 159 Z " /><path fill="rgb(15,126,184)" stroke="rgb(15,126,184)" stroke-width="1" opacity="1" d="M 13.5 140 L 14 154.5 L 13 154.5 L 13.5 140 Z " /><path fill="rgb(15,126,184)" stroke="rgb(15,126,184)" stroke-width="1" opacity="1" d="M 170 146 L 176 146.5 L 171 147 L 170.5 150 L 170 146 Z " /><path fill="rgb(15,126,184)" stroke="rgb(15,126,184)" stroke-width="1" opacity="1" d="M 129.5 147 Q 132.1 146.2 131 149.5 L 130 149.5 L 129.5 147 Z " /><path fill="rgb(15,126,184)" stroke="rgb(15,126,184)" stroke-width="1" opacity="1" d="M 170.5 151 L 172.5 152 L 189 152 L 188 158 L 195 158 L 195 164 L 199.5 164 L 201 165.5 L 201 177.5 L 201 179.5 Q 203.7 187.3 196.5 185 Q 195.3 182.8 194 185.5 L 195 191 L 188 191 L 188 197 L 182.5 197 L 180.5 197 L 169 196.5 L 170 191 L 163 191 L 163 185 L 157.5 185 L 156 183.5 L 156 171.5 L 156 169.5 L 157 158 L 161 158 L 161 159.5 L 161 161.5 Q 161.8 164.1 158.5 163 L 158.5 164 Q 164.8 166.2 163 160.5 Q 160.8 159.3 163.5 158 L 170 157.5 Q 168.8 154.8 167.5 157 L 163 157 L 163 152 L 168.5 153 L 170.5 151 Z M 172 158 L 170 160 L 169 170 L 161 173 L 162 175 L 158 176 L 158 172 L 157 178 L 164 179 L 166 178 L 169 180 L 169 185 L 175 185 L 175 191 L 182 191 Q 184 190 183 185 Q 188 186 189 184 L 188 179 L 194 180 L 194 171 L 193 170 Q 195 164 190 166 L 190 169 L 188 160 Q 182 157 172 158 Z " /><path fill="rgb(15,126,184)" stroke="rgb(15,126,184)" stroke-width="1" opacity="1" d="M 197.5 158 L 201 158.5 Q 200.3 160.8 196.5 160 L 197.5 158 Z " /><path fill="rgb(15,126,184)" stroke="rgb(15,126,184)" stroke-width="1" opacity="1" d="M 151.5 171 L 152 173.5 L 151 173.5 L 151.5 171 Z " /><path fill="rgb(15,126,184)" stroke="rgb(15,126,184)" stroke-width="1" opacity="1" d="M 154.5 175 L 155 178 L 153 177.5 L 154.5 175 Z " /><path fill="rgb(15,126,184)" stroke="rgb(15,126,184)" stroke-width="1" opacity="1" d="M 81.5 179 L 82 184 L 79 183.5 L 81.5 179 Z " /><path fill="rgb(15,126,184)" stroke="rgb(15,126,184)" stroke-width="1" opacity="1" d="M 157.5 187 L 158 189.5 L 157 189.5 L 157.5 187 Z " /><path fill="rgb(15,126,184)" stroke="rgb(15,126,184)" stroke-width="1" opacity="1" d="M 163 192 Q 166.8 191 168 193.5 L 168 197 L 163 197 L 163 192 Z " /><path fill="rgb(15,126,184)" stroke="rgb(15,126,184)" stroke-width="1" opacity="1" d="M 97.5 241 L 122 241.5 L 97.5 242 L 97.5 241 Z " /><path fill="rgb(15,126,184)" stroke="rgb(15,126,184)" stroke-width="1" opacity="1" d="M 181.5 241 L 245 241.5 L 181.5 242 L 181.5 241 Z " /><path fill="rgb(8,45,85)" stroke="rgb(8,45,85)" stroke-width="1" opacity="1" d="M 28.5 4 L 245 4.5 L 28.5 5 L 28.5 4 Z " /><path fill="rgb(8,45,85)" stroke="rgb(8,45,85)" stroke-width="1" opacity="1" d="M 19.5 18 L 20 22.5 L 19 22.5 L 19.5 18 Z " /><path fill="rgb(8,45,85)" stroke="rgb(8,45,85)" stroke-width="1" opacity="1" d="M 183.5 37 L 184 42.5 Q 180.8 44 182 49 L 176 49 L 176 55 L 170 55 L 170 61 L 175.5 61 L 176 62.5 L 175 68 L 170.5 67 L 170 82 L 175.5 81 L 175.5 82 L 174 82.5 L 176 83 L 176 93 L 181 93 Q 182 88.8 179 87.5 L 182 87 Q 183.5 92.4 180.5 94 L 176 94 L 176 100 L 183 100 L 183 105.5 L 180 107 Q 181 111.7 177.5 113 Q 174.5 112.1 176 116.5 L 175 120 L 172.5 119 L 170 120 L 170 113 L 175.5 113 L 176 112.5 L 176 100 L 170 100 L 170 95 L 175 94.5 L 169.5 93 L 169 102.5 L 170 106 L 164.5 106 L 164 104.5 L 163 101 L 157 100.5 L 163 100 L 163 93 L 166.5 93 L 167.5 96 L 169.5 87 L 170 93 L 175 93 L 175 87 L 172 86.5 L 174 85.5 L 169 81.5 L 168.5 61 L 168 68 L 157 67 L 157 61 L 163 61 L 163 55 L 170 55 L 170 50.5 L 169.5 49 L 176 49 L 176 46.5 L 175 43 L 182.5 43 L 183 41.5 L 182 39.5 L 183.5 37 Z M 170 62 L 170 66 L 171 66 Q 170 62 173 63 L 174 66 L 175 63 L 170 62 Z " /><path fill="rgb(8,45,85)" stroke="rgb(8,45,85)" stroke-width="1" opacity="1" d="M 82.5 43 L 83.5 48 L 84.5 47 L 92 47 L 93 44.5 L 86 43.5 L 98 43 L 98 49 L 100.5 49 L 100 50.5 L 101.5 53 L 103 52.5 L 103.5 54 L 104.5 49 L 105 55 L 98 55 L 98 49 L 93.5 49 Q 92 46.5 86.5 48 L 83.5 49 L 82 47.5 L 82.5 43 Z " /><path fill="rgb(8,45,85)" stroke="rgb(8,45,85)" stroke-width="1" opacity="1" d="M 188 43 L 200.5 43 L 202 44.5 Q 202.8 48.3 200.5 49 L 192.5 48 L 188 49 L 189 46.5 L 188 43 Z M 199 44 L 200 45 L 199 47 L 201 47 Q 203 43 199 44 Z " /><path fill="rgb(8,45,85)" stroke="rgb(8,45,85)" stroke-width="1" opacity="1" d="M 206.5 43 L 207 46 L 203.5 48 L 203 44 L 205.5 45 L 206.5 43 Z " /><path fill="rgb(8,45,85)" stroke="rgb(8,45,85)" stroke-width="1" opacity="1" d="M 214 43 L 217 44.5 L 215 45.5 L 216 47.5 L 214 48.5 L 214 43 Z " /><path fill="rgb(8,45,85)" stroke="rgb(8,45,85)" stroke-width="1" opacity="1" d="M 170 44 L 174 44.5 L 170.5 46 L 170 44 Z " /><path fill="rgb(8,45,85)" stroke="rgb(8,45,85)" stroke-width="1" opacity="1" d="M 19.5 49 L 20 53.5 L 19 53.5 L 19.5 49 Z " /><path fill="rgb(8,45,85)" stroke="rgb(8,45,85)" stroke-width="1" opacity="1" d="M 202 49 L 206 49.5 L 203 50 Q 201.5 53.8 204.5 53 L 206 52.5 L 206.5 54 L 207.5 49 L 208 53.5 Q 206.8 56.3 201.5 55 L 201 52.5 L 202 49 Z " /><path fill="rgb(8,45,85)" stroke="rgb(8,45,85)" stroke-width="1" opacity="1" d="M 209 49 L 213 50.5 L 212.5 53 L 209 50.5 L 209 49 Z " /><path fill="rgb(8,45,85)" stroke="rgb(8,45,85)" stroke-width="1" opacity="1" d="M 215 52 L 220 54.5 L 220.5 56 L 222.5 56 L 227 56.5 L 221.5 60 L 220 56 L 214.5 55 L 213 55.5 L 215 52 Z " /><path fill="rgb(8,45,85)" stroke="rgb(8,45,85)" stroke-width="1" opacity="1" d="M 69.5 55 Q 75.6 53.8 75 56.5 L 76 62 L 69 61 L 69.5 59 L 70.5 60 Q 72.3 56.9 74 58.5 Q 75.3 53.9 69.5 56 L 69.5 55 Z " /><path fill="rgb(8,45,85)" stroke="rgb(8,45,85)" stroke-width="1" opacity="1" d="M 106.5 55 L 111 55 L 111 61.5 L 112.5 68 L 113 62 L 118 62.5 L 118 81.5 L 119.5 82 L 119 83.5 L 117.5 87 L 114 85.5 L 114.5 84 Q 110.8 82.8 112 86.5 L 111 93 L 107.5 94 L 105.5 93 Q 102.8 94.3 105 95.5 Q 107.3 102.3 100.5 100 L 98.5 100 Q 88.9 100.9 84 98 L 83.5 95 L 83 105.5 L 81.5 107 Q 77 108 76 105.5 Q 78.7 97.7 71.5 100 L 69 101 L 69 94 L 65 94 L 64.5 96 Q 61.7 93.3 63 86.5 L 64.5 87 L 69 87 L 69 81 L 76 81 L 75.5 87 L 73.5 86 L 71.5 87 Q 70.3 84.7 69 87.5 L 69 93 L 77.5 93 L 77 91.5 L 78 89.5 L 77 87 Q 84.5 84.3 82 92.5 Q 80.6 95.3 76 94 L 76 100 L 82 100 Q 80.8 95.4 83.5 94 L 91.5 94 L 92.5 93 L 94.5 94 L 96.5 94 Q 99.9 94.9 98 89.5 L 98.5 87 L 102.5 88 L 106 87 L 105 81.5 L 111 81 L 111 62.5 L 108.5 62 L 106.5 61 L 105 61.5 L 105 59.5 Q 104.3 55.8 106.5 55 Z M 113 75 L 112 81 L 113 81 L 113 75 Z M 105 88 L 104 92 L 101 93 L 105 93 L 105 88 Z " /><path fill="rgb(8,45,85)" stroke="rgb(8,45,85)" stroke-width="1" opacity="1" d="M 116.5 55 L 118 55 L 118 59 L 115 57.5 L 116.5 55 Z " /><path fill="rgb(8,45,85)" stroke="rgb(8,45,85)" stroke-width="1" opacity="1" d="M 208.5 55 L 212 55.5 L 208.5 56 L 208.5 55 Z " /><path fill="rgb(8,45,85)" stroke="rgb(8,45,85)" stroke-width="1" opacity="1" d="M 58.5 56 L 63 56.5 L 58.5 57 L 58.5 56 Z " /><path fill="rgb(8,45,85)" stroke="rgb(8,45,85)" stroke-width="1" opacity="1" d="M 63 61 L 68 61.5 L 68 81 Q 60.5 83.8 63 75.5 Q 60.2 73.7 62 67.5 L 63 61 Z " /><path fill="rgb(8,45,85)" stroke="rgb(8,45,85)" stroke-width="1" opacity="1" d="M 215.5 61 L 215.5 63 Q 219.3 61.8 218 65.5 L 219 68 Q 213 65.8 215 72.5 L 214 72.5 L 214 62.5 L 215.5 61 Z " /><path fill="rgb(8,45,85)" stroke="rgb(8,45,85)" stroke-width="1" opacity="1" d="M 226.5 66 L 227 69 L 232 69.5 L 230 70 L 229.5 72 L 228.5 70 L 226.5 78 Q 224 74.4 225 68 L 223 67.5 L 226.5 66 Z " /><path fill="rgb(8,45,85)" stroke="rgb(8,45,85)" stroke-width="1" opacity="1" d="M 57.5 67 L 60 67.5 Q 62.1 73.3 57.5 72 L 57.5 71 Q 59.8 71.8 59 69.5 L 57.5 67 Z " /><path fill="rgb(8,45,85)" stroke="rgb(8,45,85)" stroke-width="1" opacity="1" d="M 167.5 71 L 168 76.5 L 166.5 76 Q 164.3 76.8 165 74.5 L 167.5 71 Z " /><path fill="rgb(8,45,85)" stroke="rgb(8,45,85)" stroke-width="1" opacity="1" d="M 223.5 71 L 224 73.5 L 223 73.5 L 223.5 71 Z " /><path fill="rgb(8,45,85)" stroke="rgb(8,45,85)" stroke-width="1" opacity="1" d="M 123.5 73 L 124 80 L 121.5 81 L 121 79 L 123 79 L 123.5 73 Z " /><path fill="rgb(8,45,85)" stroke="rgb(8,45,85)" stroke-width="1" opacity="1" d="M 151.5 74 L 153.5 74 L 162 75 L 164 87.5 L 162.5 87 Q 154.3 89.8 157 81.5 L 158 76.5 L 157 76.5 L 156.5 80 L 155.5 78 L 155 81 L 150 81 L 150 87 L 144 87 L 144 81 L 150 81 L 150 75.5 L 151.5 74 Z " /><path fill="rgb(8,45,85)" stroke="rgb(8,45,85)" stroke-width="1" opacity="1" d="M 214.5 75 L 215 81 L 220 81.5 L 214 82 L 214.5 75 Z " /><path fill="rgb(8,45,85)" stroke="rgb(8,45,85)" stroke-width="1" opacity="1" d="M 220.5 83 L 221 86.5 L 219 96.5 L 220 100 L 214.5 100 L 214 101.5 L 213 107 L 208.5 106 L 206 107.5 Q 206.7 104.5 203 106 L 203 102 Q 208.9 102.9 211 98.5 L 208 96.5 L 207.5 100 L 205.5 97 Q 202.9 96.3 204 99 L 206 99.5 L 201 100 L 202 106.5 L 201 109.5 L 202 113 L 189 112.5 L 191 109 L 200 108.5 L 191.5 108 L 190.5 107 Q 189.3 109.3 188 106.5 L 188 100.5 L 186 100 L 186 95 L 184.5 95 L 184.5 94 L 188 93 L 188 100 L 191.5 100 Q 193.3 102.8 199.5 101 Q 202.5 99.4 201 94 L 207 94 L 207 88.5 Q 208.6 85.5 214 87 L 214.5 89 L 220 87 L 220.5 83 Z M 208 88 L 209 94 L 210 89 L 208 88 Z M 211 90 Q 210 94 213 95 Q 215 94 214 97 L 217 97 L 217 95 L 219 95 L 217 94 L 215 91 Q 212 92 214 94 L 212 93 L 213 91 L 211 90 Z " /><path fill="rgb(8,45,85)" stroke="rgb(8,45,85)" stroke-width="1" opacity="1" d="M 225 83 Q 228.7 81.8 227 87 Q 223.3 88.2 225 83 Z " /><path fill="rgb(8,45,85)" stroke="rgb(8,45,85)" stroke-width="1" opacity="1" d="M 129.5 87 Q 134.1 85.7 132 91.5 L 131.5 93 L 143.5 93 L 144 97 L 147.5 97 L 149 100 Q 153.1 98.3 152 102.5 L 151 106 L 156.5 107 L 161 104.5 L 159.5 102 Q 161.8 101.3 161 103.5 Q 164.5 105 163 111.5 L 162 111.5 L 161 107 Q 155 104.8 157 111.5 Q 154.5 113 156 118.5 L 157 119.5 L 157 131.5 L 153.5 133 Q 151 131.8 152 128 L 150 127.5 Q 152.3 126.2 151 121.5 L 150 119 L 152 119 L 152 113 Q 147.1 114.8 149 108.5 Q 151.3 107.3 148.5 106 L 146.5 107 L 143 106 L 143.5 100 L 145.5 100 L 147 99.5 L 141.5 99 L 138 100 L 138 106 L 141.5 106 L 141.5 107 L 131 106 L 131 100 L 118.5 100 Q 117.3 97.8 116 100.5 Q 117.5 104.9 114.5 104 Q 113.2 106.3 108.5 105 L 108 102.5 L 109.5 100 Q 113.3 101 112 98 L 115.5 98 L 117 98.5 L 118 94 L 130 92.5 L 129 89.5 L 129.5 87 Z M 135 97 L 134 98 L 124 99 L 132 100 L 134 99 L 133 101 L 136 102 L 136 103 Q 132 102 133 105 Q 139 107 137 101 L 137 99 L 135 97 Z " /><path fill="rgb(8,45,85)" stroke="rgb(8,45,85)" stroke-width="1" opacity="1" d="M 182.5 96 L 183 98.5 L 182 98.5 L 182.5 96 Z " /><path fill="rgb(8,45,85)" stroke="rgb(8,45,85)" stroke-width="1" opacity="1" d="M 98 102 Q 101.7 100.7 100 106.5 L 104 109.5 L 105.5 106 L 110.5 107 Q 111.8 104.8 116.5 106 L 116.5 107 Q 111.3 105.8 110 108.5 Q 112.3 115.7 104.5 113 L 103 112.5 L 102 114.5 L 102.5 116 L 100.5 115 L 98 116 Q 99.3 119 95.5 118 L 93.5 117 L 92 117.5 L 92 113 L 98 113 L 98 102 Z " /><path fill="rgb(8,45,85)" stroke="rgb(8,45,85)" stroke-width="1" opacity="1" d="M 89.5 104 L 94 105.5 L 91 106 L 91 112.5 L 89 113 L 89 106.5 L 87.5 106 L 87.5 105 L 89.5 104 Z " /><path fill="rgb(8,45,85)" stroke="rgb(8,45,85)" stroke-width="1" opacity="1" d="M 183.5 108 L 184 112.5 L 183 112.5 L 183.5 108 Z " /><path fill="rgb(8,45,85)" stroke="rgb(8,45,85)" stroke-width="1" opacity="1" d="M 203.5 111 L 204.5 113 L 203.5 111 Z " /><path fill="rgb(8,45,85)" stroke="rgb(8,45,85)" stroke-width="1" opacity="1" d="M 81 114 L 83 114 L 83 119 L 78 118.5 L 81 117 L 81 114 Z " /><path fill="rgb(8,45,85)" stroke="rgb(8,45,85)" stroke-width="1" opacity="1" d="M 144 116 L 149 118.5 L 144 119 L 144 116 Z " /><path fill="rgb(8,45,85)" stroke="rgb(8,45,85)" stroke-width="1" opacity="1" d="M 92.5 119 Q 100.8 116.3 98 124.5 L 95.5 125 L 94 125.5 L 98 126 L 98 132 L 101.5 132 L 103 135.5 L 98 137.5 Q 100.3 130.3 92.5 133 Q 90.3 132.3 91 128.5 L 91 126.5 Q 89.5 120.5 92.5 119 Z " /><path fill="rgb(8,45,85)" stroke="rgb(8,45,85)" stroke-width="1" opacity="1" d="M 159 120 Q 164.6 117.8 163 123.5 L 164 123.5 L 165.5 121 Q 169.3 120.3 170 122.5 L 168.5 126 L 159 126 L 159 120 Z " /><path fill="rgb(8,45,85)" stroke="rgb(8,45,85)" stroke-width="1" opacity="1" d="M 83.5 121 L 84 125.5 L 83 125.5 L 83.5 121 Z " /><path fill="rgb(8,45,85)" stroke="rgb(8,45,85)" stroke-width="1" opacity="1" d="M 73.5 126 L 73 127.5 Q 74.5 131.9 71.5 131 L 70.5 133 L 77 133 L 77 137 L 65.5 137 L 63 138 Q 60.3 130.5 68.5 133 Q 71.3 131.8 69 130.5 Q 67.3 125.3 72.5 127 L 73.5 126 Z " /><path fill="rgb(8,45,85)" stroke="rgb(8,45,85)" stroke-width="1" opacity="1" d="M 180.5 126 Q 183.9 125.1 182 130.5 L 180 129.5 Q 180.7 126.9 178 128 L 177.5 130 L 177 127 L 180.5 126 Z " /><path fill="rgb(8,45,85)" stroke="rgb(8,45,85)" stroke-width="1" opacity="1" d="M 192.5 126 Q 195.8 124.9 195 127.5 L 195 129.5 L 195 132 L 189 132 L 189 127 L 191.5 127 L 192.5 126 Z " /><path fill="rgb(8,45,85)" stroke="rgb(8,45,85)" stroke-width="1" opacity="1" d="M 150.5 129 L 151 140 L 144 139 L 144 146 L 139.5 146 Q 136.5 144.4 138 139 L 144 139 L 144 133 L 150 133 L 150.5 129 Z " /><path fill="rgb(8,45,85)" stroke="rgb(8,45,85)" stroke-width="1" opacity="1" d="M 51 133 L 60 133.5 L 57.5 137 L 51 139 L 51 133 Z " /><path fill="rgb(8,45,85)" stroke="rgb(8,45,85)" stroke-width="1" opacity="1" d="M 83 133 L 90 133 L 90 136.5 L 89 139 L 92 140.5 L 92 145 L 98 145 L 98 139 L 104 139 L 104 133 L 109.5 133 Q 112 134 111 138.5 L 110 138.5 L 110 134 L 105 134 L 105 145 L 117.5 145 L 117.5 146 L 111 146 L 111 151 L 118 151 L 118 147.5 L 120.5 146 L 123.5 147 Q 125 144.5 130.5 146 L 133 147.5 Q 132.3 145.3 134.5 146 L 138 147 L 138 152 L 131.5 152 L 129.5 152 Q 119.2 150.2 114 153.5 L 119 154 L 117.5 157 L 111 158 L 112 152 L 105 152 L 105 156 L 103.5 156 L 101.5 155 Q 100.3 157.2 99 154.5 L 99 152 L 105 152 L 105 146 L 98 145 L 97.5 156 L 96.5 154 L 95.5 156 L 95 154.5 L 95.5 153 L 86 151.5 L 87 148.5 L 87.5 147 L 88.5 149 L 91 148.5 L 92 145 L 84.5 147 Q 82.8 143.7 77 144.5 L 77 142.5 Q 76.3 139.9 79 141 Q 77.4 145.9 83 144 L 82 138.5 L 82.5 137 Q 79.9 137.7 81 135 Q 84 136 83 133 Z M 84 139 L 85 146 L 87 145 L 87 139 L 84 139 Z M 130 147 L 130 150 L 131 150 Q 132 146 130 147 Z " /><path fill="rgb(8,45,85)" stroke="rgb(8,45,85)" stroke-width="1" opacity="1" d="M 49.5 139 L 50 143 Q 45.5 144.5 47 140 L 49.5 139 Z " /><path fill="rgb(8,45,85)" stroke="rgb(8,45,85)" stroke-width="1" opacity="1" d="M 56 139 L 63 140 L 60.5 144 Q 56.8 144.8 56 142.5 L 56 139 Z " /><path fill="rgb(8,45,85)" stroke="rgb(8,45,85)" stroke-width="1" opacity="1" d="M 175 139 L 182.5 139 L 183 140.5 L 182 144 L 175 144 L 175 139 Z " /><path fill="rgb(8,45,85)" stroke="rgb(8,45,85)" stroke-width="1" opacity="1" d="M 115.5 140 Q 118.5 139.1 117 143.5 L 116 143.5 L 115.5 140 Z " /><path fill="rgb(8,45,85)" stroke="rgb(8,45,85)" stroke-width="1" opacity="1" d="M 169 141 Q 174.6 139.1 173 144 Q 167.4 145.9 169 141 Z " /><path fill="rgb(8,45,85)" stroke="rgb(8,45,85)" stroke-width="1" opacity="1" d="M 149 142 Q 152 140.8 151 144.5 L 149 143.5 L 149 142 Z " /><path fill="rgb(8,45,85)" stroke="rgb(8,45,85)" stroke-width="1" opacity="1" d="M 45 145 Q 47.7 143.9 47 146.5 L 47 150.5 L 45.5 152 L 45 145 Z " /><path fill="rgb(8,45,85)" stroke="rgb(8,45,85)" stroke-width="1" opacity="1" d="M 49.5 145 L 50 151 L 55 151.5 L 51 152 L 50.5 158 L 49.5 145 Z " /><path fill="rgb(8,45,85)" stroke="rgb(8,45,85)" stroke-width="1" opacity="1" d="M 54.5 145 L 55 149.5 L 54 149.5 L 54.5 145 Z " /><path fill="rgb(8,45,85)" stroke="rgb(8,45,85)" stroke-width="1" opacity="1" d="M 56.5 145 L 57 151.5 L 56 151.5 L 56.5 145 Z " /><path fill="rgb(8,45,85)" stroke="rgb(8,45,85)" stroke-width="1" opacity="1" d="M 163.5 145 L 168 146 L 168 148 L 163 148 L 163 152 L 158.5 152 Q 155 150.7 156 146 L 162.5 146 L 163.5 145 Z " /><path fill="rgb(8,45,85)" stroke="rgb(8,45,85)" stroke-width="1" opacity="1" d="M 169 145 L 183 145 L 183 149.5 L 182.5 152 Q 174.3 153.7 170.5 151 L 168 152.5 Q 171.5 151 169 149.5 L 169 145 Z M 170 146 L 171 150 L 171 147 L 176 147 L 170 146 Z " /><path fill="rgb(8,45,85)" stroke="rgb(8,45,85)" stroke-width="1" opacity="1" d="M 184 146 L 189 146.5 L 188 148.5 L 188 150.5 L 188 152 L 184 152 L 184 146 Z " /><path fill="rgb(8,45,85)" stroke="rgb(8,45,85)" stroke-width="1" opacity="1" d="M 143.5 149 L 145 151.5 L 143 152 L 143.5 149 Z " /><path fill="rgb(8,45,85)" stroke="rgb(8,45,85)" stroke-width="1" opacity="1" d="M 199.5 150 L 201.5 153 L 207 152 L 206.5 154 L 204 153 L 202.5 157 L 201 157.5 L 205 159.5 L 205 162 Q 208 160.8 207 164.5 L 208 165.5 L 208 182.5 L 209 183.5 L 206 185.5 L 206 187 L 202 187 L 203.5 184 L 207 184 L 207 178 L 202 178 L 202 173.5 L 203 172.5 L 203 161 L 200.5 162 L 199 161.5 L 201 164.5 L 199.5 164 Q 195.8 164.8 195 162.5 Q 197.3 155.8 190.5 158 L 188 157.5 L 189 152 L 199.5 150 Z M 195 153 L 195 158 L 197 158 L 197 160 Q 200 161 201 159 L 197 157 L 198 155 L 195 153 Z M 206 169 Q 203 171 204 176 L 207 177 L 206 169 Z " /><path fill="rgb(8,45,85)" stroke="rgb(8,45,85)" stroke-width="1" opacity="1" d="M 150 152 L 157 152 L 157 164.5 L 156 164.5 L 156 158 L 150 158 L 151 161.5 L 150 165 Q 157.1 162.6 155 169 Q 151.2 167.5 152 170.5 L 155 171.5 Q 155.6 176.1 153 177.5 L 155 178 L 155 185 L 150 185 L 150 191 L 144 191 L 144 178 L 137 178 L 137 171 L 144 171 L 144 166.5 L 143 163.5 L 143 161.5 L 144.5 158 L 150 158 L 150 152 Z M 144 171 Q 143 177 147 179 L 148 177 L 148 179 L 150 179 L 150 171 L 148 172 L 144 171 Z M 152 171 L 151 174 L 152 174 L 152 171 Z " /><path fill="rgb(8,45,85)" stroke="rgb(8,45,85)" stroke-width="1" opacity="1" d="M 55.5 155 L 56 157 L 53 156.5 L 55.5 155 Z " /><path fill="rgb(8,45,85)" stroke="rgb(8,45,85)" stroke-width="1" opacity="1" d="M 168.5 156 L 169.5 158 Q 163.5 156.5 162 159.5 L 163 164 L 158 163.5 L 161 163 L 160 160.5 L 161 158 L 168.5 156 Z " /><path fill="rgb(8,45,85)" stroke="rgb(8,45,85)" stroke-width="1" opacity="1" d="M 97.5 157 L 98 164.5 L 103.5 171 L 106 166.5 L 105.5 165 L 112 165.5 L 112 167.5 L 112 171 L 104 171 L 104 174.5 L 104 176.5 L 103.5 178 L 98.5 176 L 98 184 L 91 184 L 91 188.5 L 88.5 189 L 83 190 L 83 185 L 77 185 L 77 180.5 L 76 178 L 83 178 L 83 184 L 86.5 184 Q 89 183 88 178.5 L 87 175.5 L 88 175.5 Q 86.8 180.1 92 178 L 92 172 L 94.5 172 L 97 171.5 Q 98.7 165.3 96 163.5 L 97.5 157 Z M 82 179 L 79 184 L 82 184 L 82 179 Z " /><path fill="rgb(8,45,85)" stroke="rgb(8,45,85)" stroke-width="1" opacity="1" d="M 45.5 158 L 49 158 L 49 165 Q 41.5 167.8 44 159.5 L 45.5 158 Z " /><path fill="rgb(8,45,85)" stroke="rgb(8,45,85)" stroke-width="1" opacity="1" d="M 116.5 158 Q 119.3 157.4 118 163.5 L 114.5 165 L 112 164 L 112 159 L 115.5 159 L 116.5 158 Z " /><path fill="rgb(8,45,85)" stroke="rgb(8,45,85)" stroke-width="1" opacity="1" d="M 50.5 165 L 51 171 L 57 171.5 L 51.5 172 Q 48.4 170.4 50.5 165 Z " /><path fill="rgb(8,45,85)" stroke="rgb(8,45,85)" stroke-width="1" opacity="1" d="M 212.5 168 L 213 175.5 L 212 175.5 L 212.5 168 Z " /><path fill="rgb(8,45,85)" stroke="rgb(8,45,85)" stroke-width="1" opacity="1" d="M 88.5 171 L 91 171.5 L 88.5 172 L 88.5 171 Z " /><path fill="rgb(8,45,85)" stroke="rgb(8,45,85)" stroke-width="1" opacity="1" d="M 50 173 L 56 173 L 56 175.5 L 58 178.5 L 56.5 178 L 50 178 L 50 173 Z " /><path fill="rgb(8,45,85)" stroke="rgb(8,45,85)" stroke-width="1" opacity="1" d="M 220 173 Q 223 171.8 222 175.5 L 220 176.5 L 220 173 Z " /><path fill="rgb(8,45,85)" stroke="rgb(8,45,85)" stroke-width="1" opacity="1" d="M 51.5 183 L 54 183.5 L 51.5 184 L 51.5 183 Z " /><path fill="rgb(8,45,85)" stroke="rgb(8,45,85)" stroke-width="1" opacity="1" d="M 63.5 184 L 73 184.5 L 63.5 185 L 63.5 184 Z " /><path fill="rgb(8,45,85)" stroke="rgb(8,45,85)" stroke-width="1" opacity="1" d="M 156.5 184 L 163 185 L 163 191 L 170 191 L 170 195.5 L 168 196.5 Q 168.8 192.8 166.5 192 L 157.5 191 Q 154.8 192.3 157 193.5 L 157 196 L 151 196 L 151 191 L 156 191 L 156 186.5 L 156.5 184 Z M 158 187 L 157 190 L 158 190 L 158 187 Z " /><path fill="rgb(8,45,85)" stroke="rgb(8,45,85)" stroke-width="1" opacity="1" d="M 195.5 184 L 198.5 186 L 200 185.5 Q 202.4 193.3 196 191 L 195.5 185 L 194.5 187 L 194 185.5 L 195.5 184 Z " /><path fill="rgb(8,45,85)" stroke="rgb(8,45,85)" stroke-width="1" opacity="1" d="M 63.5 191 L 66 191.5 L 64.5 197 L 63.5 191 Z " /><path fill="rgb(8,45,85)" stroke="rgb(8,45,85)" stroke-width="1" opacity="1" d="M 188.5 191 L 189.5 193 L 194 191 L 195 194.5 L 194 195.5 L 195.5 198 L 188.5 197 L 184.5 198 L 184.5 197 L 188 197 L 188.5 191 Z " /><path fill="rgb(8,45,85)" stroke="rgb(8,45,85)" stroke-width="1" opacity="1" d="M 162.5 196 L 163 202 L 157 202 L 157 198 L 162.5 196 Z " /><path fill="rgb(8,45,85)" stroke="rgb(8,45,85)" stroke-width="1" opacity="1" d="M 170 197 L 181 197.5 L 172 198.5 L 182 199 L 183 202.5 Q 181.8 205.3 180.5 203 L 168 202.5 L 170 202 L 170 197 Z " /><path fill="rgb(8,45,85)" stroke="rgb(8,45,85)" stroke-width="1" opacity="1" d="M 147.5 203 L 149 206.5 L 146.5 207 Q 142.3 208.1 144 204 L 147.5 203 Z " /><path fill="rgb(8,45,85)" stroke="rgb(8,45,85)" stroke-width="1" opacity="1" d="M 29.5 241 L 97 241.5 L 29.5 242 L 29.5 241 Z " /><path fill="rgb(8,45,85)" stroke="rgb(8,45,85)" stroke-width="1" opacity="1" d="M 122.5 241 L 130 241.5 L 122.5 242 L 122.5 241 Z " /><path fill="rgb(8,45,85)" stroke="rgb(8,45,85)" stroke-width="1" opacity="1" d="M 131.5 241 L 181 241.5 L 131.5 242 L 131.5 241 Z " /><path fill="rgb(19,19,17)" stroke="rgb(19,19,17)" stroke-width="1" opacity="1" d="M 28 5 L 244.5 5 Q 245.6 5.1 245 10.5 Q 246.6 13.5 252 12 L 252 18 L 245 18 L 245 11.5 L 244.5 11 L 28.5 11 L 28 10.5 L 28 5 Z " /><path fill="rgb(19,19,17)" stroke="rgb(19,19,17)" stroke-width="1" opacity="1" d="M 20 12 L 27 12 L 27 15.5 L 26.5 18 L 20 18 L 20 12 Z " /><path fill="rgb(19,19,17)" stroke="rgb(19,19,17)" stroke-width="1" opacity="1" d="M 39 18 L 50.5 18 L 51 22 L 60 22 L 60.5 18 L 214 18 L 214.5 22 L 218.5 21 L 220 21.5 L 220.5 18 L 232 18 Q 233.9 22.3 233 30 L 245 30 L 245 43 Q 240.5 41.3 242 46.5 L 243 50.5 L 242 55 L 245 55.5 L 245 191 L 242 191.5 L 242 203 L 245 203.5 L 245 213.5 L 245.5 215 L 232.5 215 L 232 217.5 L 233 218.5 L 233 226.5 L 231.5 228 L 221.5 228 L 220 224 L 213 224 L 212.5 228 L 60 228 Q 61.8 223.5 56.5 225 L 51 224 L 51 228 L 39.5 228 L 38 226.5 L 38 217.5 L 38.5 216 L 26 215 L 26 205.5 L 27 204.5 L 26.5 203 L 29 202.5 L 29 191 L 26 190.5 L 26 55 L 29 54.5 L 29 43 L 26 42.5 L 26 30 L 38 30 L 38 22.5 L 39 18 Z M 195 24 L 195 25 L 201 25 L 201 28 L 203 29 L 202 29 L 202 30 L 208 30 L 205 29 L 205 28 Q 207 29 206 26 L 208 26 L 208 24 L 195 24 Z M 210 29 L 210 30 L 216 30 L 210 29 Z M 84 30 L 82 35 L 83 36 L 76 36 L 76 43 L 69 43 L 68 48 Q 64 47 63 50 L 63 55 L 57 55 L 57 62 L 56 62 Q 53 64 56 65 Q 58 64 57 67 Q 56 69 51 68 L 51 81 L 50 82 L 50 87 L 58 87 L 58 91 L 60 90 L 60 92 L 62 91 L 61 89 Q 60 86 63 87 L 63 97 L 65 98 L 67 97 L 68 95 L 69 97 L 70 108 L 76 105 L 77 110 L 88 109 L 90 113 Q 93 112 91 118 L 91 120 L 91 128 L 88 128 L 87 131 L 90 131 L 91 131 L 91 132 L 83 132 Q 84 127 81 126 L 82 124 L 82 126 L 90 126 L 90 121 Q 89 118 84 119 L 83 113 L 80 115 L 77 113 L 75 120 L 73 116 Q 71 111 69 115 Q 68 122 71 126 L 63 127 Q 54 125 57 132 L 51 132 L 50 138 L 50 139 L 46 139 Q 47 144 44 146 L 44 151 L 43 151 Q 45 145 41 146 L 38 153 L 38 172 L 39 172 L 44 172 L 44 180 L 45 181 L 44 184 L 45 186 L 44 188 L 46 191 L 51 190 L 49 185 L 50 179 L 54 180 L 53 182 L 50 184 L 54 185 L 55 183 L 57 184 L 56 190 L 57 195 L 55 196 L 54 194 L 51 196 L 58 198 L 61 194 L 59 192 L 59 191 L 63 191 L 63 198 L 67 197 L 83 197 L 83 191 L 92 191 L 92 185 L 98 185 L 98 181 L 105 178 L 105 171 L 112 171 L 112 165 L 131 165 L 131 172 L 137 171 L 137 186 L 138 187 L 138 188 L 142 188 L 142 180 L 141 179 L 141 178 L 143 179 L 143 191 L 150 191 L 149 198 L 150 202 L 154 203 L 156 200 L 157 204 Q 155 209 160 208 Q 163 206 159 205 L 163 203 L 162 206 Q 161 210 165 210 L 189 210 L 195 208 L 194 205 Q 195 202 199 203 Q 200 205 201 203 L 201 197 L 207 197 L 207 185 L 214 185 L 214 166 L 213 164 L 213 162 L 211 158 L 207 158 L 207 152 L 206 151 L 206 149 Q 200 151 202 146 L 199 146 L 195 142 L 195 139 L 188 139 L 188 133 L 195 133 L 195 126 L 190 126 Q 187 127 188 132 L 186 133 L 182 132 L 183 125 L 180 126 L 178 126 L 176 130 L 179 132 L 174 133 L 165 132 L 163 133 L 164 129 L 165 127 L 170 127 L 170 120 L 176 120 L 176 113 L 179 113 L 182 107 L 182 120 L 183 121 L 181 124 L 183 123 L 186 124 L 188 124 L 188 120 L 195 120 L 195 113 L 208 113 L 208 107 L 214 107 L 214 101 L 220 101 L 220 94 L 227 94 L 227 87 L 231 88 Q 235 81 233 68 L 230 68 L 232 67 L 231 65 Q 228 64 229 68 L 227 67 L 227 52 L 226 51 L 224 49 Q 222 53 220 50 L 220 43 L 213 43 L 213 49 Q 210 48 211 44 L 207 43 L 208 36 L 200 36 L 201 30 L 184 31 Q 181 32 182 37 L 178 36 L 176 37 L 176 43 L 169 43 L 169 50 L 168 49 Q 164 48 163 51 L 164 54 L 163 61 Q 158 59 156 63 L 157 67 L 156 70 L 156 74 L 150 74 L 150 81 L 144 81 L 144 87 L 151 87 L 150 86 L 151 82 L 153 82 L 156 81 L 157 89 L 156 88 L 155 90 L 154 90 Q 155 87 152 88 L 152 90 L 151 92 L 146 91 L 145 93 L 144 87 Q 139 88 137 86 L 138 82 L 130 81 L 131 86 L 129 87 L 120 87 L 120 83 L 125 80 L 124 78 L 124 65 L 125 63 L 122 61 L 126 59 L 125 58 L 124 56 L 125 57 L 137 57 L 136 69 L 135 69 Q 136 66 133 67 L 133 64 L 132 61 L 131 63 L 131 65 L 131 75 L 137 75 Q 139 74 137 73 L 138 62 L 142 61 L 144 61 L 144 56 L 138 55 Q 137 49 140 48 L 139 46 Q 141 44 139 43 L 136 55 L 134 56 L 125 55 L 124 53 Q 125 49 122 50 Q 119 51 121 53 L 121 54 L 118 47 L 113 48 L 114 46 L 114 43 L 105 43 L 106 40 L 106 37 L 98 37 L 98 30 L 95 31 L 86 30 L 84 30 Z M 39 31 Q 37 39 44 36 Q 47 29 39 31 Z M 222 31 L 222 36 L 223 34 L 223 36 L 225 35 L 226 37 L 226 33 L 223 33 L 222 31 Z M 228 31 L 227 36 L 228 37 L 230 36 L 229 32 L 232 32 L 228 31 Z M 112 37 L 111 39 L 114 40 L 112 37 Z M 209 37 L 209 42 L 212 42 L 214 39 L 214 37 L 209 37 Z M 239 37 L 238 43 L 239 43 L 239 37 Z M 157 43 Q 156 47 159 46 L 159 49 L 163 49 L 163 43 L 157 43 Z M 237 50 L 235 52 L 237 53 L 235 53 L 235 55 L 234 53 L 233 57 L 235 56 L 239 59 L 239 51 L 237 50 Z M 146 55 L 146 56 L 150 56 L 146 55 Z M 158 56 L 157 59 L 161 59 L 158 58 L 158 56 Z M 128 58 L 128 59 L 132 59 L 128 58 Z M 134 58 L 135 59 L 134 61 Q 133 63 136 62 Q 138 57 134 58 Z M 33 59 L 32 62 L 33 62 L 33 59 Z M 139 63 Q 138 66 142 65 Q 143 62 139 63 Z M 67 98 L 65 100 L 67 100 L 67 98 Z M 58 100 L 57 107 L 54 107 L 54 108 Q 57 107 56 110 Q 51 109 50 112 Q 50 115 57 113 L 56 115 L 58 119 L 60 116 L 59 114 L 63 113 L 65 113 Q 68 114 69 112 L 69 110 L 62 110 L 63 108 L 60 107 L 58 100 Z M 227 105 L 228 107 Q 229 104 227 105 Z M 210 113 L 211 119 L 214 118 Q 216 111 210 113 Z M 60 119 Q 60 122 57 121 L 56 125 L 56 126 L 61 126 Q 62 121 60 119 Z M 211 120 L 210 129 L 209 130 Q 206 129 207 132 L 205 133 L 202 132 L 201 134 L 210 134 L 210 139 L 214 140 L 214 134 L 220 135 Q 225 136 227 133 Q 229 134 228 131 L 225 133 L 222 132 Q 218 133 219 130 L 217 130 L 217 132 L 215 132 L 215 131 L 213 126 Q 215 119 211 120 Z M 214 141 L 213 146 L 214 146 L 214 141 Z M 222 165 L 220 167 Q 219 171 222 170 L 222 165 Z M 221 171 L 219 176 L 219 177 L 223 177 Q 224 172 221 171 Z M 39 173 L 39 176 Q 41 179 42 176 Q 43 171 39 173 Z M 121 178 L 121 180 L 124 179 L 121 178 Z M 121 184 L 121 190 Q 117 189 115 192 L 112 191 L 112 196 L 121 196 Q 119 201 123 203 Q 125 204 124 198 Q 125 195 130 196 L 131 193 L 131 191 L 124 191 L 124 184 L 121 184 Z M 117 185 L 116 187 Q 118 186 117 189 L 119 189 Q 121 184 117 185 Z M 214 186 L 212 190 Q 213 192 218 191 L 219 189 L 214 186 Z M 148 196 L 146 198 L 148 198 L 148 196 Z M 83 197 L 83 203 L 87 203 L 89 199 L 89 197 L 83 197 Z M 94 197 Q 91 198 92 203 L 97 204 L 99 203 L 98 199 Q 97 196 94 197 Z M 110 197 L 108 199 Q 106 205 111 203 Q 112 198 110 197 Z M 128 198 L 128 200 L 130 199 L 128 198 Z M 146 199 L 144 202 L 148 202 L 146 201 L 146 199 Z M 68 200 Q 67 204 70 203 Q 71 199 68 200 Z M 88 203 L 89 206 Q 88 208 91 207 L 92 204 L 88 203 Z M 143 203 L 144 208 L 145 209 L 150 209 L 150 203 L 143 203 Z M 231 210 L 232 212 Q 233 209 231 210 Z M 164 211 L 164 215 Q 169 216 171 214 L 164 211 Z M 182 213 L 180 215 L 182 215 L 182 213 Z M 226 213 L 225 218 L 224 221 Q 221 222 222 219 L 213 222 L 226 222 L 227 217 L 226 213 Z " /><path fill="rgb(19,19,17)" stroke="rgb(19,19,17)" stroke-width="1" opacity="1" d="M 14 19 L 19 19 L 19 31.5 L 20 34.5 L 20 42.5 L 19 43.5 L 19 73.5 L 20 74.5 L 20 214.5 L 19 217.5 L 20 218.5 L 20 227 Q 25.4 225.5 27 228.5 Q 28.3 233.8 25.5 235 L 23.5 234 L 20 235 L 20 227 L 14.5 227 L 14 226.5 L 14 19 Z M 16 199 L 15 203 L 16 203 L 16 199 Z M 16 214 L 15 224 L 16 224 L 16 214 Z M 18 215 L 17 222 L 18 222 L 18 215 Z " /><path fill="rgb(19,19,17)" stroke="rgb(19,19,17)" stroke-width="1" opacity="1" d="M 252 19 L 258.5 19 L 259 19.5 L 259 227 L 253.5 228 L 252 226.5 L 252 62.5 Q 254.2 61.3 253 56.5 L 253 54.5 L 252 49.5 L 252 19 Z " /><path fill="rgb(19,19,17)" stroke="rgb(19,19,17)" stroke-width="1" opacity="1" d="M 41.5 32 L 42 34 L 40 33.5 L 41.5 32 Z " /><path fill="rgb(19,19,17)" stroke="rgb(19,19,17)" stroke-width="1" opacity="1" d="M 99.5 43 L 101.5 47 L 104 47.5 Q 102.8 50 99 49 L 99.5 43 Z " /><path fill="rgb(19,19,17)" stroke="rgb(19,19,17)" stroke-width="1" opacity="1" d="M 81.5 46 L 82 49 L 77 48.5 L 81 48 L 81.5 46 Z " /><path fill="rgb(19,19,17)" stroke="rgb(19,19,17)" stroke-width="1" opacity="1" d="M 185.5 47 Q 188.8 45.9 188 48.5 L 186.5 48 L 183.5 49 L 183.5 48 L 185.5 47 Z " /><path fill="rgb(19,19,17)" stroke="rgb(19,19,17)" stroke-width="1" opacity="1" d="M 74 49 Q 77 47.8 76 51.5 L 74 50.5 L 74 49 Z " /><path fill="rgb(19,19,17)" stroke="rgb(19,19,17)" stroke-width="1" opacity="1" d="M 105.5 49 L 109 49.5 L 105.5 50 L 105.5 49 Z " /><path fill="rgb(19,19,17)" stroke="rgb(19,19,17)" stroke-width="1" opacity="1" d="M 177.5 49 L 179.5 50 L 181 49.5 L 182 55 L 176 54.5 L 178 54 L 176 50.5 L 177.5 49 Z " /><path fill="rgb(19,19,17)" stroke="rgb(19,19,17)" stroke-width="1" opacity="1" d="M 168.5 51 L 169 54.5 L 168 54.5 L 168.5 51 Z " /><path fill="rgb(19,19,17)" stroke="rgb(19,19,17)" stroke-width="1" opacity="1" d="M 208.5 51 L 209 54 L 211 54.5 L 208 55 L 208.5 51 Z " /><path fill="rgb(19,19,17)" stroke="rgb(19,19,17)" stroke-width="1" opacity="1" d="M 108.5 54 L 111 54.5 L 108.5 55 L 108.5 54 Z " /><path fill="rgb(19,19,17)" stroke="rgb(19,19,17)" stroke-width="1" opacity="1" d="M 112 56 Q 114.7 54.9 114 57.5 L 115 60 L 117 60.5 L 114.5 62 L 112 61.5 L 112 56 Z " /><path fill="rgb(19,19,17)" stroke="rgb(19,19,17)" stroke-width="1" opacity="1" d="M 172.5 56 Q 176.3 54.8 175 58.5 L 176 61 L 170 60.5 L 174 60 Q 175.5 56.2 172.5 57 L 172.5 56 Z " /><path fill="rgb(19,19,17)" stroke="rgb(19,19,17)" stroke-width="1" opacity="1" d="M 67.5 58 Q 70.5 57.2 69 61 L 65 60.5 L 67.5 58 Z " /><path fill="rgb(19,19,17)" stroke="rgb(19,19,17)" stroke-width="1" opacity="1" d="M 68.5 68 L 69 75.5 L 68 75.5 L 68.5 68 Z " /><path fill="rgb(19,19,17)" stroke="rgb(19,19,17)" stroke-width="1" opacity="1" d="M 55.5 69 L 56 80.5 L 55 80.5 L 55.5 69 Z " /><path fill="rgb(19,19,17)" stroke="rgb(19,19,17)" stroke-width="1" opacity="1" d="M 163 69 L 165 69.5 L 163 70.5 L 163 69 Z " /><path fill="rgb(19,19,17)" stroke="rgb(19,19,17)" stroke-width="1" opacity="1" d="M 168.5 77 L 169 81.5 L 168 81.5 L 168.5 77 Z " /><path fill="rgb(19,19,17)" stroke="rgb(19,19,17)" stroke-width="1" opacity="1" d="M 67.5 81 Q 70.9 80.1 69 85.5 L 68 85.5 L 67.5 81 Z " /><path fill="rgb(19,19,17)" stroke="rgb(19,19,17)" stroke-width="1" opacity="1" d="M 70 87 L 76 88.5 L 76 90.5 L 76 93 L 70 93 L 70 87 Z " /><path fill="rgb(19,19,17)" stroke="rgb(19,19,17)" stroke-width="1" opacity="1" d="M 161.5 87 L 163 95 Q 159 96.4 161 89.5 Q 158.7 88.3 161.5 87 Z " /><path fill="rgb(19,19,17)" stroke="rgb(19,19,17)" stroke-width="1" opacity="1" d="M 174.5 88 L 175 93 L 170 93 L 170 90.5 L 171 90.5 L 171.5 92 L 174 91 L 174.5 88 Z " /><path fill="rgb(19,19,17)" stroke="rgb(19,19,17)" stroke-width="1" opacity="1" d="M 126.5 91 Q 129.1 90.3 128 93 L 125 92.5 L 126.5 91 Z " /><path fill="rgb(19,19,17)" stroke="rgb(19,19,17)" stroke-width="1" opacity="1" d="M 76 94 L 82 94 L 82 98.5 L 81 98.5 Q 82.5 94.1 79.5 95 L 76 97 L 76 94 Z " /><path fill="rgb(19,19,17)" stroke="rgb(19,19,17)" stroke-width="1" opacity="1" d="M 176 94 L 182 94 L 182 100 L 178 99 L 177.5 97 L 176.5 100 L 176 94 Z M 180 95 L 178 97 L 180 98 L 180 95 Z " /><path fill="rgb(19,19,17)" stroke="rgb(19,19,17)" stroke-width="1" opacity="1" d="M 160.5 99 L 163 99.5 L 160.5 100 L 160.5 99 Z " /><path fill="rgb(19,19,17)" stroke="rgb(19,19,17)" stroke-width="1" opacity="1" d="M 170 100 Q 177.5 97.3 175 105.5 L 174 105.5 L 172.5 102 Q 168.8 103 170 100 Z " /><path fill="rgb(19,19,17)" stroke="rgb(19,19,17)" stroke-width="1" opacity="1" d="M 112.5 105 L 118 105.5 L 112.5 106 L 112.5 105 Z " /><path fill="rgb(19,19,17)" stroke="rgb(19,19,17)" stroke-width="1" opacity="1" d="M 138.5 105 L 143 105.5 L 138.5 106 L 138.5 105 Z " /><path fill="rgb(19,19,17)" stroke="rgb(19,19,17)" stroke-width="1" opacity="1" d="M 96.5 107 L 97 113 L 92 113 L 92 110.5 L 93.5 111 L 96 111 L 96.5 107 Z " /><path fill="rgb(19,19,17)" stroke="rgb(19,19,17)" stroke-width="1" opacity="1" d="M 144.5 107 Q 150.3 104.9 149 109.5 L 148 109.5 Q 148.9 106.5 144.5 108 L 144.5 107 Z " /><path fill="rgb(19,19,17)" stroke="rgb(19,19,17)" stroke-width="1" opacity="1" d="M 164 107 L 169 107 L 169 110.5 L 170 112.5 L 168.5 120 L 166 119 L 165.5 117 L 164 117.5 L 163 109.5 L 164 107 Z " /><path fill="rgb(19,19,17)" stroke="rgb(19,19,17)" stroke-width="1" opacity="1" d="M 59 108 L 61 108.5 L 59 109.5 L 59 108 Z " /><path fill="rgb(19,19,17)" stroke="rgb(19,19,17)" stroke-width="1" opacity="1" d="M 103.5 116 L 104 131.5 L 103 131.5 L 103.5 116 Z " /><path fill="rgb(19,19,17)" stroke="rgb(19,19,17)" stroke-width="1" opacity="1" d="M 98.5 119 L 99 125.5 L 98 125.5 L 98.5 119 Z " /><path fill="rgb(19,19,17)" stroke="rgb(19,19,17)" stroke-width="1" opacity="1" d="M 157.5 128 L 158 132.5 L 157 132.5 L 157.5 128 Z " /><path fill="rgb(19,19,17)" stroke="rgb(19,19,17)" stroke-width="1" opacity="1" d="M 96.5 137 L 97 142.5 L 96 142.5 L 96.5 137 Z " /><path fill="rgb(19,19,17)" stroke="rgb(19,19,17)" stroke-width="1" opacity="1" d="M 110.5 140 L 111 144.5 L 110 144.5 L 110.5 140 Z " /><path fill="rgb(19,19,17)" stroke="rgb(19,19,17)" stroke-width="1" opacity="1" d="M 148.5 142 L 149 144.5 L 148 144.5 L 148.5 142 Z " /><path fill="rgb(19,19,17)" stroke="rgb(19,19,17)" stroke-width="1" opacity="1" d="M 183.5 142 L 184 145.5 L 183 145.5 L 183.5 142 Z " /><path fill="rgb(19,19,17)" stroke="rgb(19,19,17)" stroke-width="1" opacity="1" d="M 146.5 143 L 147 145 L 145 144.5 L 146.5 143 Z " /><path fill="rgb(19,19,17)" stroke="rgb(19,19,17)" stroke-width="1" opacity="1" d="M 159.5 144 L 162 144.5 L 159.5 145 L 159.5 144 Z " /><path fill="rgb(19,19,17)" stroke="rgb(19,19,17)" stroke-width="1" opacity="1" d="M 51 146 Q 54.3 144.7 53 149.5 L 53.5 151 L 50 150.5 L 51 146 Z " /><path fill="rgb(19,19,17)" stroke="rgb(19,19,17)" stroke-width="1" opacity="1" d="M 99 146 L 101.5 147 Q 102.7 144.8 104 147.5 Q 105.7 152.3 101.5 151 L 99 152 L 99 146 Z " /><path fill="rgb(19,19,17)" stroke="rgb(19,19,17)" stroke-width="1" opacity="1" d="M 112 146 L 118 146 L 118 151 L 112 151 L 112 146 Z " /><path fill="rgb(19,19,17)" stroke="rgb(19,19,17)" stroke-width="1" opacity="1" d="M 168.5 147 L 169 151.5 L 167.5 151 Q 162.3 152.5 164 148 L 166.5 149 L 168.5 147 Z " /><path fill="rgb(19,19,17)" stroke="rgb(19,19,17)" stroke-width="1" opacity="1" d="M 45 152 L 50 152 L 50 160.5 L 49 160.5 Q 50.2 155.9 45 158 L 45 152 Z M 48 153 L 46 156 L 48 156 L 49 157 L 48 153 Z " /><path fill="rgb(19,19,17)" stroke="rgb(19,19,17)" stroke-width="1" opacity="1" d="M 131 152 L 133.5 153 Q 134.8 150.8 136 153.5 L 134 154 L 132.5 159 Q 130.1 156.7 131 152 Z " /><path fill="rgb(19,19,17)" stroke="rgb(19,19,17)" stroke-width="1" opacity="1" d="M 158 152 Q 161.8 151 163 153.5 L 163 158 L 157 158 L 158 152 Z " /><path fill="rgb(19,19,17)" stroke="rgb(19,19,17)" stroke-width="1" opacity="1" d="M 122.5 153 L 130 153.5 L 122.5 154 L 122.5 153 Z " /><path fill="rgb(19,19,17)" stroke="rgb(19,19,17)" stroke-width="1" opacity="1" d="M 149.5 153 L 150 157.5 L 149 157.5 L 149.5 153 Z " /><path fill="rgb(19,19,17)" stroke="rgb(19,19,17)" stroke-width="1" opacity="1" d="M 95.5 158 L 96 162.5 L 95 162.5 L 95.5 158 Z " /><path fill="rgb(19,19,17)" stroke="rgb(19,19,17)" stroke-width="1" opacity="1" d="M 105.5 158 L 111 159 L 112 163.5 Q 110.4 166.5 105 165 L 105.5 158 Z " /><path fill="rgb(19,19,17)" stroke="rgb(19,19,17)" stroke-width="1" opacity="1" d="M 134 158 L 137 158 L 137 164 L 132 163.5 L 134 163 L 133 160.5 L 134 158 Z " /><path fill="rgb(19,19,17)" stroke="rgb(19,19,17)" stroke-width="1" opacity="1" d="M 128.5 159 L 131 159.5 L 128.5 160 L 128.5 159 Z " /><path fill="rgb(19,19,17)" stroke="rgb(19,19,17)" stroke-width="1" opacity="1" d="M 201.5 162 L 202 164.5 L 200 163.5 L 201.5 162 Z " /><path fill="rgb(19,19,17)" stroke="rgb(19,19,17)" stroke-width="1" opacity="1" d="M 49.5 164 L 50 171.5 L 49 171.5 L 49.5 164 Z " /><path fill="rgb(19,19,17)" stroke="rgb(19,19,17)" stroke-width="1" opacity="1" d="M 142.5 166 L 143 171 L 140 170.5 L 142 170 L 142.5 166 Z " /><path fill="rgb(19,19,17)" stroke="rgb(19,19,17)" stroke-width="1" opacity="1" d="M 201.5 167 L 202 178.5 L 201 178.5 L 201.5 167 Z " /><path fill="rgb(19,19,17)" stroke="rgb(19,19,17)" stroke-width="1" opacity="1" d="M 155.5 168 L 156 172.5 L 155 172.5 L 155.5 168 Z " /><path fill="rgb(19,19,17)" stroke="rgb(19,19,17)" stroke-width="1" opacity="1" d="M 89 172 L 92 172 L 92 177 Q 86.8 179.1 88 174.5 L 89 172 Z " /><path fill="rgb(19,19,17)" stroke="rgb(19,19,17)" stroke-width="1" opacity="1" d="M 49.5 174 L 50 176.5 L 49 176.5 L 49.5 174 Z " /><path fill="rgb(19,19,17)" stroke="rgb(19,19,17)" stroke-width="1" opacity="1" d="M 61.5 178 Q 64.5 177.1 63 181.5 L 60 179.5 L 61.5 178 Z " /><path fill="rgb(19,19,17)" stroke="rgb(19,19,17)" stroke-width="1" opacity="1" d="M 83 178 L 88 178 L 88 181 Q 84.7 179.9 86 184 L 83 184 L 83 178 Z " /><path fill="rgb(19,19,17)" stroke="rgb(19,19,17)" stroke-width="1" opacity="1" d="M 64.5 185 L 77 185.5 L 64.5 186 L 64.5 185 Z " /><path fill="rgb(19,19,17)" stroke="rgb(19,19,17)" stroke-width="1" opacity="1" d="M 154.5 185 Q 157.3 184.4 156 190.5 L 155 190.5 L 154.5 185 Z " /><path fill="rgb(19,19,17)" stroke="rgb(19,19,17)" stroke-width="1" opacity="1" d="M 195.5 185 L 196 191 L 199 191 L 199 196 L 195 196 L 195.5 185 Z " /><path fill="rgb(19,19,17)" stroke="rgb(19,19,17)" stroke-width="1" opacity="1" d="M 201.5 188 L 202 190 L 200 189.5 L 201.5 188 Z " /><path fill="rgb(19,19,17)" stroke="rgb(19,19,17)" stroke-width="1" opacity="1" d="M 157 191 Q 164.5 188.5 162 196 Q 154.5 198.5 157 191 Z " /><path fill="rgb(19,19,17)" stroke="rgb(19,19,17)" stroke-width="1" opacity="1" d="M 191.5 197 Q 195.3 196 194 199 L 188 201 L 187 198.5 L 191.5 197 Z " /><path fill="rgb(19,19,17)" stroke="rgb(19,19,17)" stroke-width="1" opacity="1" d="M 164 198 L 170 198 L 170 202 L 165.5 201 L 164 201.5 L 164 198 Z " /><path fill="rgb(19,19,17)" stroke="rgb(19,19,17)" stroke-width="1" opacity="1" d="M 174.5 198 L 177 198.5 L 174.5 199 L 174.5 198 Z " /><path fill="rgb(19,19,17)" stroke="rgb(19,19,17)" stroke-width="1" opacity="1" d="M 182.5 198 L 186 198.5 L 184 199 L 183.5 203 L 182.5 198 Z " /><path fill="rgb(19,19,17)" stroke="rgb(19,19,17)" stroke-width="1" opacity="1" d="M 246.5 227 Q 251 226 252 228.5 L 251 232.5 L 252 235 L 245 235 L 245 240.5 L 244.5 241 L 27 241 L 27 235.5 L 27.5 235 L 244.5 235 Q 245.8 234.8 245 228.5 L 246.5 227 Z " /></svg>