<svg width="270" height="252" version="1.1" xmlns="http://www.w3.org/2000/svg" desc="Created with imagetracer.js version 1.2.6" ><path fill="rgb(59,157,8)" stroke="rgb(59,157,8)" stroke-width="1" opacity="1" d="M 23.5 5 L 24 18.5 L 23 18.5 L 23.5 5 Z " /><path fill="rgb(59,157,8)" stroke="rgb(59,157,8)" stroke-width="1" opacity="1" d="M 237.5 5 L 238 18.5 L 237 18.5 Q 238.5 11.5 235.5 12 L 235.5 11 L 237 10.5 L 237.5 5 Z " /><path fill="rgb(59,157,8)" stroke="rgb(59,157,8)" stroke-width="1" opacity="1" d="M 16.5 12 L 17 44.5 L 16 44.5 L 16.5 12 Z " /><path fill="rgb(59,157,8)" stroke="rgb(59,157,8)" stroke-width="1" opacity="1" d="M 224.5 19 L 225 21.5 L 224 21.5 L 224.5 19 Z " /><path fill="rgb(59,157,8)" stroke="rgb(59,157,8)" stroke-width="1" opacity="1" d="M 250.5 21 L 251 25.5 L 250 25.5 L 250.5 21 Z " /><path fill="rgb(59,157,8)" stroke="rgb(59,157,8)" stroke-width="1" opacity="1" d="M 36.5 31 L 41 31.5 L 36.5 32 L 36.5 31 Z " /><path fill="rgb(59,157,8)" stroke="rgb(59,157,8)" stroke-width="1" opacity="1" d="M 176.5 34 L 178 37 L 172 37 L 172 40.5 L 171 40.5 Q 170.3 36.8 172.5 36 Q 177 37.3 176.5 34 Z " /><path fill="rgb(59,157,8)" stroke="rgb(59,157,8)" stroke-width="1" opacity="1" d="M 36.5 36 L 40 36.5 L 36.5 37 L 36.5 36 Z " /><path fill="rgb(59,157,8)" stroke="rgb(59,157,8)" stroke-width="1" opacity="1" d="M 166.5 42 L 172 42.5 L 166.5 43 L 166.5 42 Z " /><path fill="rgb(59,157,8)" stroke="rgb(59,157,8)" stroke-width="1" opacity="1" d="M 180.5 42 Q 186.3 39.9 185 44.5 L 184 44.5 Q 184.9 41.5 180.5 43 L 180.5 42 Z " /><path fill="rgb(59,157,8)" stroke="rgb(59,157,8)" stroke-width="1" opacity="1" d="M 237.5 42 L 236.5 44 L 237.5 42 Z " /><path fill="rgb(59,157,8)" stroke="rgb(59,157,8)" stroke-width="1" opacity="1" d="M 178.5 44 L 179 49 Q 182.8 48 184 50.5 L 183 54.5 Q 183.8 56.8 187.5 56 L 190 55 L 190 62 L 196 62 L 196 64.5 L 197 64.5 L 197.5 63 L 198 64.5 L 196.5 67 L 203 67.5 L 202 72.5 L 203 72.5 Q 202.3 68.8 204.5 68 L 208 69.5 L 208 73 L 213 73 L 213 77.5 L 213.5 79 L 193 79 L 193 111.5 L 191 111.5 L 191 124 L 159 124 L 159 104.5 L 161 103.5 L 161 92 L 165 91.5 L 165 79 L 149.5 79 L 148 77.5 L 147.5 75 L 147 78 L 143.5 77 L 142.5 79 L 142 74 L 165.5 74 L 166 72.5 L 165 68 L 171 68 L 171 73 L 175.5 73 L 177 73.5 L 177 67 L 183 67 L 183 62.5 L 183 60.5 L 182.5 58 L 182 60 L 178 61 L 178.5 44 Z M 167 74 L 165 76 L 166 78 L 168 78 L 167 74 Z M 197 74 L 198 77 L 198 75 L 204 75 L 197 74 Z M 182 111 L 182 114 L 183 114 Q 184 110 182 111 Z M 179 112 L 178 116 L 179 116 L 179 112 Z M 180 118 L 180 119 L 184 119 L 180 118 Z M 186 118 L 187 119 L 189 121 Q 190 116 186 118 Z " /><path fill="rgb(59,157,8)" stroke="rgb(59,157,8)" stroke-width="1" opacity="1" d="M 232.5 44 L 235 44.5 L 232.5 45 L 232.5 44 Z " /><path fill="rgb(59,157,8)" stroke="rgb(59,157,8)" stroke-width="1" opacity="1" d="M 26.5 45 L 27 48.5 L 26 48.5 L 26.5 45 Z " /><path fill="rgb(59,157,8)" stroke="rgb(59,157,8)" stroke-width="1" opacity="1" d="M 16.5 47 L 17 58.5 L 16 58.5 L 16.5 47 Z " /><path fill="rgb(59,157,8)" stroke="rgb(59,157,8)" stroke-width="1" opacity="1" d="M 237.5 55 L 238 63.5 L 237 63.5 L 237.5 55 Z " /><path fill="rgb(59,157,8)" stroke="rgb(59,157,8)" stroke-width="1" opacity="1" d="M 154.5 57 L 155 59.5 L 154 59.5 L 154.5 57 Z " /><path fill="rgb(59,157,8)" stroke="rgb(59,157,8)" stroke-width="1" opacity="1" d="M 84.5 61 Q 87.3 62.3 86 67.5 L 85 67.5 L 84.5 61 Z " /><path fill="rgb(59,157,8)" stroke="rgb(59,157,8)" stroke-width="1" opacity="1" d="M 149.5 61 L 154 61.5 L 149.5 62 L 149.5 61 Z " /><path fill="rgb(59,157,8)" stroke="rgb(59,157,8)" stroke-width="1" opacity="1" d="M 200.5 64 L 201 66 L 199 65.5 L 200.5 64 Z " /><path fill="rgb(59,157,8)" stroke="rgb(59,157,8)" stroke-width="1" opacity="1" d="M 237.5 67 L 238 74.5 L 237 74.5 L 237.5 67 Z " /><path fill="rgb(59,157,8)" stroke="rgb(59,157,8)" stroke-width="1" opacity="1" d="M 144.5 68 L 145 71.5 L 142.5 73 L 142.5 72 L 144 72 L 144.5 68 Z " /><path fill="rgb(59,157,8)" stroke="rgb(59,157,8)" stroke-width="1" opacity="1" d="M 10.5 69 L 11 74.5 L 10 74.5 L 10.5 69 Z " /><path fill="rgb(59,157,8)" stroke="rgb(59,157,8)" stroke-width="1" opacity="1" d="M 77.5 72 L 84 74.5 L 82.5 74 Q 77 75 77.5 72 Z " /><path fill="rgb(59,157,8)" stroke="rgb(59,157,8)" stroke-width="1" opacity="1" d="M 83.5 76 L 84 78.5 L 83 78.5 L 83.5 76 Z " /><path fill="rgb(59,157,8)" stroke="rgb(59,157,8)" stroke-width="1" opacity="1" d="M 85.5 76 L 86 84.5 L 85 84.5 L 85.5 76 Z " /><path fill="rgb(59,157,8)" stroke="rgb(59,157,8)" stroke-width="1" opacity="1" d="M 10.5 85 L 11 91.5 L 10 91.5 L 10.5 85 Z " /><path fill="rgb(59,157,8)" stroke="rgb(59,157,8)" stroke-width="1" opacity="1" d="M 117 91 L 129.5 91 L 137 92.5 L 136 96 L 122.5 98 L 116 95.5 L 117 91 Z " /><path fill="rgb(59,157,8)" stroke="rgb(59,157,8)" stroke-width="1" opacity="1" d="M 138.5 92 Q 144.2 90.4 142 96 L 138 95.5 L 141 95 Q 142.3 92 138.5 93 L 138.5 92 Z " /><path fill="rgb(59,157,8)" stroke="rgb(59,157,8)" stroke-width="1" opacity="1" d="M 110.5 97 L 116 97.5 L 110.5 98 L 110.5 97 Z " /><path fill="rgb(59,157,8)" stroke="rgb(59,157,8)" stroke-width="1" opacity="1" d="M 135.5 97 Q 141.8 95.3 143.5 98 L 148 97 L 148 117.5 L 146.5 118 L 144 117.5 L 145 113.5 L 145 111.5 L 146 105 L 143.5 104 L 143 117.5 L 142 118.5 L 142 137 Q 136.6 135.5 135 138.5 L 136 142.5 Q 134.8 145.3 133.5 143 L 131 142.5 L 134 142 Q 136.1 135.6 129 138 L 130 144 L 123 144 L 123 151.5 L 126 149.5 L 126.5 148 L 128.5 148 Q 131.1 147.3 130 150 L 126 151 L 125 153.5 L 126 157 L 117.5 157 L 116.5 158 L 116 126.5 L 116.5 125 L 112 124.5 L 116 123.5 L 112 123 L 112.5 117 L 116 118 L 116 111 L 118.5 111 L 120.5 111 L 123 111 L 123 104 L 133.5 104 L 135.5 105 L 142 104 L 142 98 L 135.5 98 L 135.5 97 Z M 119 125 L 119 126 L 123 126 L 119 125 Z M 136 125 L 137 136 L 137 133 L 138 126 L 136 125 Z M 140 125 L 139 128 L 140 132 L 141 132 Q 142 124 140 125 Z " /><path fill="rgb(59,157,8)" stroke="rgb(59,157,8)" stroke-width="1" opacity="1" d="M 57.5 99 L 58 103 L 56 102.5 L 57.5 99 Z " /><path fill="rgb(59,157,8)" stroke="rgb(59,157,8)" stroke-width="1" opacity="1" d="M 59.5 105 L 60 109.5 L 59 109.5 L 59.5 105 Z " /><path fill="rgb(59,157,8)" stroke="rgb(59,157,8)" stroke-width="1" opacity="1" d="M 212.5 105 L 213 108.5 L 212 108.5 L 212.5 105 Z " /><path fill="rgb(59,157,8)" stroke="rgb(59,157,8)" stroke-width="1" opacity="1" d="M 65.5 108 L 64.5 110 L 65.5 108 Z " /><path fill="rgb(59,157,8)" stroke="rgb(59,157,8)" stroke-width="1" opacity="1" d="M 16.5 109 L 17 112.5 L 16 112.5 L 16.5 109 Z " /><path fill="rgb(59,157,8)" stroke="rgb(59,157,8)" stroke-width="1" opacity="1" d="M 56.5 111 L 57 113.5 L 56 113.5 L 56.5 111 Z " /><path fill="rgb(59,157,8)" stroke="rgb(59,157,8)" stroke-width="1" opacity="1" d="M 98.5 111 L 104 111.5 L 102.5 115 L 100.5 112 Q 97.5 112.5 98.5 111 Z " /><path fill="rgb(59,157,8)" stroke="rgb(59,157,8)" stroke-width="1" opacity="1" d="M 58.5 114 L 59 116 L 57 115.5 L 58.5 114 Z " /><path fill="rgb(59,157,8)" stroke="rgb(59,157,8)" stroke-width="1" opacity="1" d="M 237.5 115 L 238 123.5 L 237 123.5 L 237.5 115 Z " /><path fill="rgb(59,157,8)" stroke="rgb(59,157,8)" stroke-width="1" opacity="1" d="M 91.5 117 L 92 124 Q 96.5 124.8 98.5 122 L 100 122.5 Q 100.8 118.3 98 117.5 L 103 117 L 103 124 L 97 124 L 97 129.5 L 90.5 130 L 86 129 Q 87.1 126.3 84.5 127 L 80.5 126 L 81.5 129 L 79.5 130 Q 76.8 128.6 78 124 L 91 124 L 91.5 117 Z " /><path fill="rgb(59,157,8)" stroke="rgb(59,157,8)" stroke-width="1" opacity="1" d="M 110.5 117 L 111 123.5 L 110 123.5 L 110.5 117 Z " /><path fill="rgb(59,157,8)" stroke="rgb(59,157,8)" stroke-width="1" opacity="1" d="M 210.5 118 L 211 121.5 L 210 121.5 L 210.5 118 Z " /><path fill="rgb(59,157,8)" stroke="rgb(59,157,8)" stroke-width="1" opacity="1" d="M 193.5 120 L 194 123.5 L 193 123.5 L 193.5 120 Z " /><path fill="rgb(59,157,8)" stroke="rgb(59,157,8)" stroke-width="1" opacity="1" d="M 210.5 124 L 214 124.5 L 210.5 125 L 210.5 124 Z " /><path fill="rgb(59,157,8)" stroke="rgb(59,157,8)" stroke-width="1" opacity="1" d="M 49.5 129 L 52 129.5 L 49.5 130 L 49.5 129 Z " /><path fill="rgb(59,157,8)" stroke="rgb(59,157,8)" stroke-width="1" opacity="1" d="M 156.5 129 L 158 129.5 L 156 130 L 155.5 133 L 155 130.5 L 156.5 129 Z " /><path fill="rgb(59,157,8)" stroke="rgb(59,157,8)" stroke-width="1" opacity="1" d="M 149.5 132 L 149 133.5 L 148.5 135 L 148 133.5 L 149.5 132 Z " /><path fill="rgb(59,157,8)" stroke="rgb(59,157,8)" stroke-width="1" opacity="1" d="M 98 133 L 102 133 Q 100.8 138.3 104 137.5 L 104 157.5 L 104 159.5 Q 105.8 165.2 99.5 163 L 100 161.5 Q 101.3 156.7 98 158 L 97.5 163 L 72 163 L 72.5 138 L 73.5 157 L 76.5 156 L 78 156.5 L 79 144 L 85 144 L 85 138 L 96 138 L 96.5 140 Q 98.9 137.7 98 133 Z M 98 151 L 98 156 Q 106 159 103 151 L 101 152 L 98 151 Z " /><path fill="rgb(59,157,8)" stroke="rgb(59,157,8)" stroke-width="1" opacity="1" d="M 159.5 137 L 162 137.5 L 159.5 138 L 159.5 137 Z " /><path fill="rgb(59,157,8)" stroke="rgb(59,157,8)" stroke-width="1" opacity="1" d="M 180.5 137 L 191 137.5 L 180.5 138 L 180.5 137 Z " /><path fill="rgb(59,157,8)" stroke="rgb(59,157,8)" stroke-width="1" opacity="1" d="M 208.5 139 L 209 143.5 L 208 143.5 L 208.5 139 Z " /><path fill="rgb(59,157,8)" stroke="rgb(59,157,8)" stroke-width="1" opacity="1" d="M 65.5 144 Q 68.1 143.2 67 146.5 L 66 146.5 L 65.5 144 Z " /><path fill="rgb(59,157,8)" stroke="rgb(59,157,8)" stroke-width="1" opacity="1" d="M 148.5 144 L 149 150.5 L 148 150.5 L 148.5 144 Z " /><path fill="rgb(59,157,8)" stroke="rgb(59,157,8)" stroke-width="1" opacity="1" d="M 173 144 L 185 144.5 L 183.5 149 L 182 146.5 L 182.5 145 Q 179.9 144.2 181 147.5 L 178.5 148 L 173.5 149 L 173 144 Z " /><path fill="rgb(59,157,8)" stroke="rgb(59,157,8)" stroke-width="1" opacity="1" d="M 186 144 L 189 144.5 L 186.5 146 L 186 144 Z " /><path fill="rgb(59,157,8)" stroke="rgb(59,157,8)" stroke-width="1" opacity="1" d="M 171.5 145 L 172 148.5 L 171 148.5 L 171.5 145 Z " /><path fill="rgb(59,157,8)" stroke="rgb(59,157,8)" stroke-width="1" opacity="1" d="M 214.5 145 L 215 148.5 L 214 148.5 L 214.5 145 Z " /><path fill="rgb(59,157,8)" stroke="rgb(59,157,8)" stroke-width="1" opacity="1" d="M 154.5 146 L 155 149 L 158 149.5 L 153.5 151 L 154 147.5 L 154.5 146 Z " /><path fill="rgb(59,157,8)" stroke="rgb(59,157,8)" stroke-width="1" opacity="1" d="M 237.5 149 L 238 151.5 L 237 151.5 L 237.5 149 Z " /><path fill="rgb(59,157,8)" stroke="rgb(59,157,8)" stroke-width="1" opacity="1" d="M 143.5 150 L 142.5 152 L 143.5 150 Z " /><path fill="rgb(59,157,8)" stroke="rgb(59,157,8)" stroke-width="1" opacity="1" d="M 166.5 150 L 171 150.5 L 166.5 151 L 166.5 150 Z " /><path fill="rgb(59,157,8)" stroke="rgb(59,157,8)" stroke-width="1" opacity="1" d="M 178.5 150 L 183 150.5 L 178.5 151 L 178.5 150 Z " /><path fill="rgb(59,157,8)" stroke="rgb(59,157,8)" stroke-width="1" opacity="1" d="M 202.5 150 L 208 150.5 L 202.5 151 L 202.5 150 Z " /><path fill="rgb(59,157,8)" stroke="rgb(59,157,8)" stroke-width="1" opacity="1" d="M 74 151 L 77 151.5 L 74 153 L 74 151 Z " /><path fill="rgb(59,157,8)" stroke="rgb(59,157,8)" stroke-width="1" opacity="1" d="M 163.5 151 L 164 154.5 L 163 154.5 L 163.5 151 Z " /><path fill="rgb(59,157,8)" stroke="rgb(59,157,8)" stroke-width="1" opacity="1" d="M 65.5 152 L 67 155.5 Q 65.5 158.5 64 155.5 L 65.5 152 Z " /><path fill="rgb(59,157,8)" stroke="rgb(59,157,8)" stroke-width="1" opacity="1" d="M 74.5 154 L 77 154.5 L 74.5 155 L 74.5 154 Z " /><path fill="rgb(59,157,8)" stroke="rgb(59,157,8)" stroke-width="1" opacity="1" d="M 237.5 155 L 238 171.5 L 237 171.5 L 237.5 155 Z " /><path fill="rgb(59,157,8)" stroke="rgb(59,157,8)" stroke-width="1" opacity="1" d="M 155.5 156 L 158 156.5 L 155.5 157 L 155.5 156 Z " /><path fill="rgb(59,157,8)" stroke="rgb(59,157,8)" stroke-width="1" opacity="1" d="M 160.5 156 L 163 156.5 L 160.5 157 L 160.5 156 Z " /><path fill="rgb(59,157,8)" stroke="rgb(59,157,8)" stroke-width="1" opacity="1" d="M 68.5 157 L 71 162.5 L 67.5 163 L 68 161.5 L 68.5 157 Z " /><path fill="rgb(59,157,8)" stroke="rgb(59,157,8)" stroke-width="1" opacity="1" d="M 60.5 158 L 61 163 L 58 162.5 L 60 162 L 60.5 158 Z " /><path fill="rgb(59,157,8)" stroke="rgb(59,157,8)" stroke-width="1" opacity="1" d="M 142.5 160 L 143 162.5 L 142 162.5 L 142.5 160 Z " /><path fill="rgb(59,157,8)" stroke="rgb(59,157,8)" stroke-width="1" opacity="1" d="M 156.5 168 L 157 171.5 L 156 171.5 L 156.5 168 Z " /><path fill="rgb(59,157,8)" stroke="rgb(59,157,8)" stroke-width="1" opacity="1" d="M 208.5 169 L 209 181.5 L 208 181.5 L 208.5 169 Z " /><path fill="rgb(59,157,8)" stroke="rgb(59,157,8)" stroke-width="1" opacity="1" d="M 120.5 174 Q 124.9 172.5 124 175.5 L 122.5 175 Q 119.5 175.5 120.5 174 Z " /><path fill="rgb(59,157,8)" stroke="rgb(59,157,8)" stroke-width="1" opacity="1" d="M 131.5 174 L 132 177.5 L 131 177.5 L 131.5 174 Z " /><path fill="rgb(59,157,8)" stroke="rgb(59,157,8)" stroke-width="1" opacity="1" d="M 61.5 176 L 62 181.5 L 61 181.5 L 61.5 176 Z " /><path fill="rgb(59,157,8)" stroke="rgb(59,157,8)" stroke-width="1" opacity="1" d="M 163.5 176 L 164 178.5 L 163 178.5 L 163.5 176 Z " /><path fill="rgb(59,157,8)" stroke="rgb(59,157,8)" stroke-width="1" opacity="1" d="M 158.5 177 L 159 181.5 L 158 181.5 L 158.5 177 Z " /><path fill="rgb(59,157,8)" stroke="rgb(59,157,8)" stroke-width="1" opacity="1" d="M 148.5 178 L 149 189 L 151 189.5 L 148 190 L 148.5 178 Z " /><path fill="rgb(59,157,8)" stroke="rgb(59,157,8)" stroke-width="1" opacity="1" d="M 165.5 181 L 166 187.5 L 165 187.5 L 165.5 181 Z " /><path fill="rgb(59,157,8)" stroke="rgb(59,157,8)" stroke-width="1" opacity="1" d="M 54.5 183 L 55 185.5 L 54 185.5 L 54.5 183 Z " /><path fill="rgb(59,157,8)" stroke="rgb(59,157,8)" stroke-width="1" opacity="1" d="M 56 184 Q 60.1 182.3 59 186.5 L 60 187.5 L 60 195 L 56 195.5 L 60 196.5 L 56.5 197 L 52 196 L 52 193 Q 49 194 50 191 L 56 191 L 56 184 Z M 59 188 L 57 193 L 59 194 L 59 188 Z M 56 192 L 55 195 L 56 195 L 56 192 Z " /><path fill="rgb(59,157,8)" stroke="rgb(59,157,8)" stroke-width="1" opacity="1" d="M 61.5 184 L 62 186.5 L 61 186.5 L 61.5 184 Z " /><path fill="rgb(59,157,8)" stroke="rgb(59,157,8)" stroke-width="1" opacity="1" d="M 172.5 185 L 173 188.5 L 170.5 190 L 170.5 189 L 172 189 L 172.5 185 Z " /><path fill="rgb(59,157,8)" stroke="rgb(59,157,8)" stroke-width="1" opacity="1" d="M 54.5 188 L 53.5 190 L 48 189.5 L 54.5 188 Z " /><path fill="rgb(59,157,8)" stroke="rgb(59,157,8)" stroke-width="1" opacity="1" d="M 121.5 189 L 123 189.5 L 123 196.5 L 122 196.5 Q 122.5 190.5 121.5 189 Z " /><path fill="rgb(59,157,8)" stroke="rgb(59,157,8)" stroke-width="1" opacity="1" d="M 143.5 189 L 147 189.5 L 143.5 190 L 143.5 189 Z " /><path fill="rgb(59,157,8)" stroke="rgb(59,157,8)" stroke-width="1" opacity="1" d="M 178.5 189 L 186 189.5 L 178.5 190 L 178.5 189 Z " /><path fill="rgb(59,157,8)" stroke="rgb(59,157,8)" stroke-width="1" opacity="1" d="M 87.5 191 L 89 194.5 L 87 195.5 L 87.5 191 Z " /><path fill="rgb(59,157,8)" stroke="rgb(59,157,8)" stroke-width="1" opacity="1" d="M 116.5 191 L 117 195.5 L 116 195.5 L 116.5 191 Z " /><path fill="rgb(59,157,8)" stroke="rgb(59,157,8)" stroke-width="1" opacity="1" d="M 85.5 193 L 86 195.5 L 85 195.5 L 85.5 193 Z " /><path fill="rgb(59,157,8)" stroke="rgb(59,157,8)" stroke-width="1" opacity="1" d="M 90.5 193 L 91 195.5 L 90 195.5 L 90.5 193 Z " /><path fill="rgb(59,157,8)" stroke="rgb(59,157,8)" stroke-width="1" opacity="1" d="M 77.5 194 L 78 197.5 L 77 197.5 L 77.5 194 Z " /><path fill="rgb(59,157,8)" stroke="rgb(59,157,8)" stroke-width="1" opacity="1" d="M 45.5 196 L 46 198 L 43 197.5 L 45.5 196 Z " /><path fill="rgb(59,157,8)" stroke="rgb(59,157,8)" stroke-width="1" opacity="1" d="M 79.5 196 L 80 200.5 L 79 200.5 L 79.5 196 Z " /><path fill="rgb(59,157,8)" stroke="rgb(59,157,8)" stroke-width="1" opacity="1" d="M 114.5 196 L 114 197.5 L 113.5 199 L 113 197.5 L 114.5 196 Z " /><path fill="rgb(59,157,8)" stroke="rgb(59,157,8)" stroke-width="1" opacity="1" d="M 118.5 196 L 120 196.5 L 117.5 198 L 118.5 196 Z " /><path fill="rgb(59,157,8)" stroke="rgb(59,157,8)" stroke-width="1" opacity="1" d="M 110.5 197 L 111 200.5 L 110 200.5 L 110.5 197 Z " /><path fill="rgb(59,157,8)" stroke="rgb(59,157,8)" stroke-width="1" opacity="1" d="M 193.5 197 L 194 200.5 L 193 200.5 L 193.5 197 Z " /><path fill="rgb(59,157,8)" stroke="rgb(59,157,8)" stroke-width="1" opacity="1" d="M 37 198 Q 39.7 196.9 39 199.5 L 39.5 201 Q 35.3 202.1 37 198 Z " /><path fill="rgb(59,157,8)" stroke="rgb(59,157,8)" stroke-width="1" opacity="1" d="M 54.5 198 L 55 200.5 L 54 200.5 L 54.5 198 Z " /><path fill="rgb(59,157,8)" stroke="rgb(59,157,8)" stroke-width="1" opacity="1" d="M 122.5 198 L 123 200.5 L 120.5 201 L 119 199.5 L 122.5 198 Z " /><path fill="rgb(59,157,8)" stroke="rgb(59,157,8)" stroke-width="1" opacity="1" d="M 158.5 202 L 179 202.5 L 158.5 203 L 158.5 202 Z " /><path fill="rgb(59,157,8)" stroke="rgb(59,157,8)" stroke-width="1" opacity="1" d="M 181.5 202 L 186 202.5 L 181.5 203 L 181.5 202 Z " /><path fill="rgb(59,157,8)" stroke="rgb(59,157,8)" stroke-width="1" opacity="1" d="M 204.5 202 L 208 202.5 L 204.5 203 L 204.5 202 Z " /><path fill="rgb(59,157,8)" stroke="rgb(59,157,8)" stroke-width="1" opacity="1" d="M 237.5 204 L 238 214.5 L 237 214.5 L 237.5 204 Z " /><path fill="rgb(59,157,8)" stroke="rgb(59,157,8)" stroke-width="1" opacity="1" d="M 156.5 209 L 176 209.5 L 156.5 210 L 156.5 209 Z " /><path fill="rgb(59,157,8)" stroke="rgb(59,157,8)" stroke-width="1" opacity="1" d="M 187.5 209 L 194 209.5 L 187.5 210 L 187.5 209 Z " /><path fill="rgb(59,157,8)" stroke="rgb(59,157,8)" stroke-width="1" opacity="1" d="M 37 210 L 41 211.5 Q 42.6 217.2 37 215 L 37 210 Z M 40 211 L 38 213 Q 37 215 40 214 L 40 211 Z " /><path fill="rgb(59,157,8)" stroke="rgb(59,157,8)" stroke-width="1" opacity="1" d="M 223 212 L 225 212.5 L 223 213.5 L 223 212 Z " /><path fill="rgb(59,157,8)" stroke="rgb(59,157,8)" stroke-width="1" opacity="1" d="M 26.5 215 L 36 215.5 L 26.5 216 L 26.5 215 Z " /><path fill="rgb(59,157,8)" stroke="rgb(59,157,8)" stroke-width="1" opacity="1" d="M 35.5 223 L 36 227.5 L 35 227.5 L 35.5 223 Z " /><path fill="rgb(59,157,8)" stroke="rgb(59,157,8)" stroke-width="1" opacity="1" d="M 16.5 227 L 17 234.5 L 16 234.5 L 16.5 227 Z " /><path fill="rgb(59,157,8)" stroke="rgb(59,157,8)" stroke-width="1" opacity="1" d="M 237.5 230 L 238 233.5 L 237 233.5 L 237.5 230 Z " /><path fill="rgb(59,157,8)" stroke="rgb(59,157,8)" stroke-width="1" opacity="1" d="M 244.5 232 L 245 234.5 L 244 234.5 L 244.5 232 Z " /><path fill="rgb(59,157,8)" stroke="rgb(59,157,8)" stroke-width="1" opacity="1" d="M 237.5 235 L 238 240.5 L 236.5 242 L 194.5 242 L 194.5 241 L 236.5 241 L 237 240.5 L 237.5 235 Z " /><path fill="rgb(59,157,8)" stroke="rgb(59,157,8)" stroke-width="1" opacity="1" d="M 23.5 241 L 38 241.5 L 23.5 242 L 23.5 241 Z " /><path fill="rgb(59,157,8)" stroke="rgb(59,157,8)" stroke-width="1" opacity="1" d="M 52.5 241 L 192 241.5 L 52.5 242 L 52.5 241 Z " /><path fill="rgb(0,0,0)" stroke="rgb(0,0,0)" stroke-width="1" opacity="0" d="M 0 0 L 270 0 L 270 252 L 0 252 L 0 0 Z M 23 5 L 23 11 L 16 11 L 16 18 L 10 18 L 10 228 L 14 228 L 16 229 L 16 235 L 22 235 Q 20 240 24 242 L 238 242 L 238 242 L 238 235 L 245 235 L 245 228 L 251 228 L 251 19 L 251 18 L 245 18 L 245 11 L 238 11 L 238 6 L 238 5 L 23 5 Z " /><path fill="rgb(31,27,16)" stroke="rgb(31,27,16)" stroke-width="1" opacity="1" d="M 25 5 L 52 5.5 L 27 6.5 L 31 7 Q 29.6 10.7 35.5 9 L 35.5 10 L 26.5 10 L 25.5 11 L 25 5 Z " /><path fill="rgb(31,27,16)" stroke="rgb(31,27,16)" stroke-width="1" opacity="1" d="M 99.5 5 L 109 5.5 L 99.5 6 L 99.5 5 Z " /><path fill="rgb(31,27,16)" stroke="rgb(31,27,16)" stroke-width="1" opacity="1" d="M 111.5 5 L 123 5.5 L 111.5 6 L 111.5 5 Z " /><path fill="rgb(31,27,16)" stroke="rgb(31,27,16)" stroke-width="1" opacity="1" d="M 144.5 5 L 150 5.5 L 144.5 6 L 144.5 5 Z " /><path fill="rgb(31,27,16)" stroke="rgb(31,27,16)" stroke-width="1" opacity="1" d="M 156.5 5 L 162 5.5 L 156.5 6 L 156.5 5 Z " /><path fill="rgb(31,27,16)" stroke="rgb(31,27,16)" stroke-width="1" opacity="1" d="M 173.5 5 L 180 5.5 L 173.5 6 L 173.5 5 Z " /><path fill="rgb(31,27,16)" stroke="rgb(31,27,16)" stroke-width="1" opacity="1" d="M 38.5 7 L 71 7.5 L 66 8.5 L 99 9 L 99.5 7 L 109.5 7 L 109.5 8 L 101 8.5 L 144.5 9 L 144.5 8 L 138 7.5 L 156.5 7 L 156.5 8 L 150 8.5 L 171.5 9 L 171.5 8 L 168 7.5 L 182.5 7 L 182.5 8 L 180 8.5 L 205 9.5 L 38.5 10 L 38.5 9 L 40 8.5 L 38.5 7 Z " /><path fill="rgb(31,27,16)" stroke="rgb(31,27,16)" stroke-width="1" opacity="1" d="M 78.5 7 L 87 7.5 L 78.5 8 L 78.5 7 Z " /><path fill="rgb(31,27,16)" stroke="rgb(31,27,16)" stroke-width="1" opacity="1" d="M 112.5 7 L 125 7.5 L 112.5 8 L 112.5 7 Z " /><path fill="rgb(31,27,16)" stroke="rgb(31,27,16)" stroke-width="1" opacity="1" d="M 213.5 7 L 226.5 7 L 227 9 L 228.5 9 L 228.5 10 L 215 9.5 L 217 8.5 Q 212.6 8.9 213.5 7 Z " /><path fill="rgb(31,27,16)" stroke="rgb(31,27,16)" stroke-width="1" opacity="1" d="M 18 13 L 22 13.5 L 18.5 15 L 18 13 Z " /><path fill="rgb(31,27,16)" stroke="rgb(31,27,16)" stroke-width="1" opacity="1" d="M 239 13 Q 245 10.8 243 17.5 L 243.5 19 L 238 18.5 L 239 13 Z " /><path fill="rgb(31,27,16)" stroke="rgb(31,27,16)" stroke-width="1" opacity="1" d="M 18.5 18 L 22 18.5 L 18.5 19 L 18.5 18 Z " /><path fill="rgb(31,27,16)" stroke="rgb(31,27,16)" stroke-width="1" opacity="1" d="M 10.5 19 L 11 68.5 L 10 68.5 L 10.5 19 Z " /><path fill="rgb(31,27,16)" stroke="rgb(31,27,16)" stroke-width="1" opacity="1" d="M 55.5 19 L 56 21.5 L 55 21.5 L 55.5 19 Z " /><path fill="rgb(31,27,16)" stroke="rgb(31,27,16)" stroke-width="1" opacity="1" d="M 12 20 L 15 20.5 L 15 228 L 12 227.5 L 12 20 Z M 14 33 L 13 41 L 14 41 L 14 33 Z M 14 51 L 13 55 L 14 55 L 14 51 Z M 14 101 L 13 112 L 14 112 L 14 101 Z M 14 118 L 13 121 L 14 121 L 14 118 Z M 14 128 L 13 140 L 14 140 L 14 128 Z M 14 147 L 13 155 L 14 155 L 14 147 Z M 14 166 L 13 172 L 14 172 L 14 166 Z M 14 186 L 13 192 L 14 192 L 14 186 Z M 14 203 L 13 214 L 14 214 L 14 203 Z " /><path fill="rgb(31,27,16)" stroke="rgb(31,27,16)" stroke-width="1" opacity="1" d="M 37 20 L 45 20.5 L 41 22.5 L 45.5 24 L 47.5 23 L 49.5 24 L 51.5 24 L 219.5 24 L 220 25.5 L 220 27.5 L 221 36 Q 227 38.3 225 31.5 L 224 30.5 L 224 22.5 L 225 22.5 L 225 30.5 L 226.5 36 L 227.5 31 L 228.5 32 L 236 32 L 235.5 39 L 234.5 36 L 232 37 Q 230.2 40.8 231 48.5 L 232 48.5 Q 230.3 43.7 234.5 45 L 234.5 44 L 232 43.5 L 236 43 L 235 49.5 L 236 56 L 232 56.5 L 236 57 L 235.5 66 L 235 63 Q 231.7 64.3 233 59.5 L 232 59.5 L 232 177.5 L 233 181.5 L 232 182.5 L 232 193.5 L 233 193.5 L 234 190 L 237 190 L 237 196 Q 233 194.6 235 201.5 L 234 201.5 L 233.5 196 L 232 201.5 L 232 209.5 L 236 212 L 235.5 214 L 225 214 L 225 226.5 L 223.5 228 L 215.5 228 L 214.5 226 L 215.5 227 L 224 227 L 223.5 215 L 221.5 215 L 219 215 L 219 220.5 L 217.5 222 L 50.5 222 L 48.5 222 L 46.5 223 L 44.5 223 L 42.5 224 L 42 216 Q 36.6 217.5 35 214.5 L 34.5 210 L 34 214 L 28 213.5 L 32 210.5 L 29 210 L 29 202.5 L 30.5 202 Q 32.7 206.2 35 204.5 L 35 206.5 L 36 215 Q 43.5 217.5 41 210 L 38 209.5 L 42 209 L 42.5 204 L 66.5 204 L 66 205.5 Q 66.9 208.9 61.5 207 L 60.5 208 L 50 208 L 49.5 206 L 47.5 209 L 62.5 209 L 63.5 210 L 65.5 210 L 71.5 209 Q 72.8 211.3 77.5 210 Q 79 207.5 84.5 209 L 86.5 209 Q 94.3 211.4 92 205 L 90 204.5 L 104 204 L 103 208.5 L 113.5 210 L 118.5 209 L 120.5 209 L 131.5 210 Q 133.3 207.3 139.5 209 L 140.5 210 L 148 210 L 148 203 L 142 203 L 139.5 208 L 135.5 206 L 122.5 206 L 116 204.5 L 136 203.5 L 129 203 L 128.5 201 L 128 203 L 112 202.5 L 123 202 L 122.5 198 L 118 199 L 117.5 201 L 117 198 L 123 197 L 123.5 183 L 124.5 188 L 125.5 163 L 126 188 L 130 188 L 130 196 L 136 196 L 136 203 L 138.5 203 L 139.5 202 L 147.5 202 L 148.5 203 L 156 203 Q 157.5 208.4 154.5 210 L 148 210 L 148 215 L 154.5 216 L 201.5 216 Q 204.3 214.7 202 213.5 Q 203.8 208.3 198.5 210 L 196.5 209 Q 193.8 210.2 196 211.5 L 194.5 214 L 191.5 213 L 190.5 214 L 157.5 214 L 157.5 213 Q 160.1 213.7 159 211 L 156 210.5 L 166.5 210 L 167.5 211 L 175.5 211 L 176.5 210 L 194.5 210 L 196 208.5 Q 195 204 197.5 203 Q 202 202 203 204.5 Q 204.5 208.9 201.5 208 L 202.5 210 L 209 207.5 L 208 202.5 L 209 190 L 213 190.5 L 211.5 193 L 213 193.5 L 210 194 Q 208.3 196.4 209 202.5 L 211.5 203 L 215 201.5 Q 214 197 216.5 196 Q 222.6 197.8 220 190.5 L 220 188.5 L 220 151.5 L 216.5 151 L 216.5 150 L 220 150 L 220 144 L 214.5 145 L 214 140.5 L 215 137 L 209.5 137 L 209 135.5 L 208 131 L 203 132 L 202.5 134 L 196 134 Q 194.7 130.3 200.5 132 L 202 132.5 Q 203.3 126.4 200.5 127 Q 199.4 129.8 196 129 L 196.5 120 L 197.5 122 L 198.5 120 L 199.5 123 L 200 117.5 L 198 112.5 L 201 110.5 Q 203.2 105.8 202 97.5 L 200.5 95 L 199.5 97 L 199 95.5 L 201 92.5 L 199.5 93 Q 196.5 93.5 198 86.5 Q 199.3 83.8 200.5 86 L 214 85 Q 212.8 80.4 215.5 79 L 218 79 L 218 73 L 214 71.5 Q 214.5 67.5 211.5 67 L 208 66 Q 209 62.2 206.5 61 L 203 61 L 203 67 Q 207.6 65.8 209 68.5 L 208.5 70 L 208 68 Q 203.4 69.3 202 66.5 Q 204.3 59.3 196.5 62 L 196.5 61 Q 204.3 63.7 202 56.5 L 202.5 55 Q 195.2 52.4 197 58.5 L 196 58.5 L 196 50.5 L 194.5 49 Q 188.4 47.2 191 54.5 L 190 54.5 L 190 43.5 L 188.5 42 L 185 43 L 184 38.5 Q 186.3 37.3 183.5 36 Q 180.2 34.9 181 37.5 L 179.5 37 L 178 36.5 L 181 35.5 L 179 31 L 172.5 30 Q 170 31 171 35.5 L 171.5 37 L 167.5 36 L 166 37.5 L 165.5 48 Q 166.1 43.4 163.5 42 L 160 43.5 L 161.5 46 Q 165.3 45 164 48 L 161.5 47 L 160 48.5 L 159.5 55 L 158.5 49 L 157.5 51 L 155 50 L 155 54.5 Q 152 55.8 153 60 L 150 59.5 L 152 58.5 L 148 58 L 149 61.5 L 142 62 L 142 68 L 144 68 Q 142.3 63.9 146.5 65 L 146.5 66 L 145 66.5 L 148 67.5 L 143 69.5 L 141.5 73 L 136 73 L 136 79 L 143 79 L 143 82.5 L 142 85 L 153.5 85 L 154 85.5 L 154 128.5 L 151.5 127 Q 146.3 128.8 148 123.5 L 147 119.5 L 149 117.5 L 149 98.5 L 147 93.5 L 148 91 L 138 92.5 L 141 93 Q 142.3 96 138.5 95 L 136 96 L 137 92.5 L 129.5 91 L 117 91 L 116.5 95 L 116 91 L 110 91 L 110 94.5 L 111 94.5 L 111.5 93 L 113 95.5 L 110 96 L 109 99.5 L 109 124.5 L 110.5 124 L 112 124.5 L 110 125 L 109 130.5 L 111 131 L 110 133.5 L 110 157 L 106 156.5 L 109 156 L 109 133.5 L 107.5 132 L 104.5 130 L 102.5 130 Q 99.3 132.3 92.5 131 L 90.5 131 L 71 131 L 71 161.5 L 71.5 163 L 68.5 157 L 67 162.5 L 67.5 164 L 61 163 L 62 165.5 L 61 168 L 42.5 168 L 42 166.5 L 40.5 163 Q 32.3 160.3 35 168.5 L 36 169.5 L 36 195.5 L 35 195.5 L 34.5 189 L 33.5 193 L 32 185.5 L 33.5 177 L 34.5 180 L 35 169 L 31 169.5 L 31 195.5 L 31 197.5 L 30.5 199 L 28.5 195 L 26.5 199 L 26 195 L 23.5 196 L 23 182.5 L 24 182.5 L 24 189.5 L 25.5 190 L 27.5 190 L 29 189.5 L 29 48.5 L 29 46.5 L 29.5 36 L 35 37 L 35.5 31 L 36 38 L 42 37.5 Q 39.7 36.2 41 31.5 L 42 27.5 L 40.5 25 L 37.5 30 L 37 20 Z M 43 31 L 42 37 L 43 37 L 43 31 Z M 58 31 L 58 32 L 60 32 L 58 31 Z M 62 31 L 62 32 L 65 32 L 62 31 Z M 200 31 L 200 32 L 205 32 L 200 31 Z M 214 33 L 213 39 L 214 39 L 214 33 Z M 229 33 Q 227 36 230 35 L 229 33 Z M 192 35 L 192 36 L 196 36 L 192 35 Z M 222 37 L 222 38 L 225 38 L 222 37 Z M 225 43 L 224 52 L 225 52 L 225 43 Z M 113 53 L 113 56 L 116 54 L 113 53 Z M 118 55 L 117 58 L 118 58 L 118 55 Z M 84 60 L 84 62 Q 85 67 83 68 Q 76 66 78 72 L 78 75 L 82 74 Q 84 75 83 79 L 84 80 L 79 79 Q 78 83 83 81 L 83 86 L 85 85 L 87 86 L 87 75 L 90 75 L 86 74 L 90 73 L 90 68 L 87 68 L 87 63 L 86 62 L 86 61 L 84 60 Z M 37 61 L 36 64 L 37 64 L 37 61 Z M 83 61 L 82 66 L 79 67 L 83 67 L 83 61 Z M 37 65 L 36 68 L 37 68 L 37 65 Z M 98 65 L 98 68 L 104 67 L 98 65 Z M 136 68 L 137 72 L 137 71 L 139 69 L 141 71 L 141 68 L 136 68 Z M 84 88 L 83 91 L 84 91 L 84 88 Z M 87 88 L 86 91 L 87 91 L 87 88 Z M 37 89 L 36 92 L 37 92 L 37 89 Z M 56 97 L 56 98 L 59 98 L 56 97 Z M 58 99 L 56 103 L 58 103 L 58 99 Z M 91 102 L 90 105 L 91 105 L 91 102 Z M 211 103 L 211 104 L 215 104 L 211 103 Z M 56 104 L 54 105 L 54 107 L 54 111 Q 54 106 52 105 L 51 107 L 52 108 L 50 107 L 51 109 Q 53 108 52 112 L 55 113 L 56 111 L 56 114 L 53 115 L 55 115 Q 56 118 58 116 L 60 117 L 61 111 L 60 106 Q 59 103 56 104 Z M 210 105 L 209 111 L 210 111 L 210 105 Z M 211 105 L 211 111 Q 210 113 206 112 L 206 118 L 210 118 Q 208 124 212 126 L 214 125 L 215 117 L 216 114 Q 222 116 221 112 Q 216 113 214 111 Q 216 103 211 105 Z M 216 107 L 215 111 L 221 111 L 216 110 L 216 107 Z M 99 111 Q 98 113 101 112 L 103 115 L 104 112 L 99 111 Z M 205 112 L 204 117 L 205 117 L 205 112 Z M 92 117 L 91 124 L 78 124 Q 77 129 80 130 L 82 129 L 81 126 L 85 127 Q 87 126 86 129 L 91 130 L 97 130 L 97 124 L 103 124 L 103 117 L 98 118 Q 101 118 100 123 L 99 122 Q 96 125 92 124 L 92 117 Z M 46 123 L 46 125 L 45 128 L 44 125 L 43 128 Q 42 130 38 129 L 39 131 L 45 131 L 45 136 L 45 137 Q 49 139 48 135 L 50 131 L 52 132 L 54 131 L 52 128 Q 47 129 49 125 L 48 125 L 48 124 L 46 123 Z M 40 127 L 40 128 L 42 128 L 40 127 Z M 67 133 L 66 137 L 67 137 L 67 133 Z M 66 144 L 66 147 L 67 147 Q 68 143 66 144 Z M 68 147 L 67 151 L 68 151 L 68 147 Z M 222 150 L 221 189 L 226 189 L 226 151 L 222 150 Z M 66 152 L 64 156 Q 66 159 67 156 L 66 152 Z M 61 158 L 60 162 L 59 162 L 59 164 L 58 163 L 45 165 L 60 165 L 61 163 L 61 158 Z M 131 197 L 130 202 L 131 202 L 131 197 Z M 150 204 L 149 209 L 154 209 L 150 208 L 150 204 Z M 98 208 L 98 209 L 102 209 L 98 208 Z M 224 210 Q 221 215 225 214 L 224 210 Z M 63 213 L 61 215 L 64 215 L 63 213 Z " /><path fill="rgb(31,27,16)" stroke="rgb(31,27,16)" stroke-width="1" opacity="1" d="M 136.5 20 L 140 20.5 L 136.5 21 L 136.5 20 Z " /><path fill="rgb(31,27,16)" stroke="rgb(31,27,16)" stroke-width="1" opacity="1" d="M 222.5 20 L 223 26.5 L 222 26.5 L 222.5 20 Z " /><path fill="rgb(31,27,16)" stroke="rgb(31,27,16)" stroke-width="1" opacity="1" d="M 246 20 L 249 20.5 L 249 226.5 L 250 226.5 L 250.5 26 L 251 228 L 245 227.5 L 247 226.5 Q 244.4 225.1 245 220.5 L 246 217 L 248 216.5 L 248 209.5 L 246 209.5 Q 244.8 203.5 248 204.5 L 248 195 L 246 194.5 L 246 187.5 L 248 184.5 L 248 163.5 L 247 160.5 L 248 159.5 L 248 137.5 Q 245.4 134.6 246 128.5 L 247 127.5 L 247 117.5 L 246 112.5 L 247 112.5 L 247.5 115 L 248 109 L 246 108.5 L 247 105.5 L 246 104.5 L 246 38.5 Q 249.2 37.1 248 32 L 246 31.5 L 246 20 Z M 248 57 L 247 64 L 248 64 L 248 57 Z M 248 85 L 247 91 L 248 91 L 248 85 Z " /><path fill="rgb(31,27,16)" stroke="rgb(31,27,16)" stroke-width="1" opacity="1" d="M 214.5 21 L 213.5 23 L 214.5 21 Z " /><path fill="rgb(31,27,16)" stroke="rgb(31,27,16)" stroke-width="1" opacity="1" d="M 23.5 31 L 24 41.5 L 23 41.5 L 23.5 31 Z " /><path fill="rgb(31,27,16)" stroke="rgb(31,27,16)" stroke-width="1" opacity="1" d="M 176.5 33 L 177.5 35 L 176 34.5 L 175.5 36 L 175 34.5 L 176.5 33 Z " /><path fill="rgb(31,27,16)" stroke="rgb(31,27,16)" stroke-width="1" opacity="1" d="M 184.5 45 L 185 48 L 187 48.5 L 185.5 49 Q 183 48 184.5 45 Z " /><path fill="rgb(31,27,16)" stroke="rgb(31,27,16)" stroke-width="1" opacity="1" d="M 26.5 49 L 27 56 L 23 55.5 L 26 55 L 26.5 49 Z " /><path fill="rgb(31,27,16)" stroke="rgb(31,27,16)" stroke-width="1" opacity="1" d="M 156 52 Q 159 51 158 54 Q 155 55 156 52 Z " /><path fill="rgb(31,27,16)" stroke="rgb(31,27,16)" stroke-width="1" opacity="1" d="M 25.5 69 L 26 73.5 L 25 73.5 L 25.5 69 Z " /><path fill="rgb(31,27,16)" stroke="rgb(31,27,16)" stroke-width="1" opacity="1" d="M 213.5 73 L 214 77.5 L 213 77.5 L 213.5 73 Z " /><path fill="rgb(31,27,16)" stroke="rgb(31,27,16)" stroke-width="1" opacity="1" d="M 10.5 75 L 11 84.5 L 10 84.5 L 10.5 75 Z " /><path fill="rgb(31,27,16)" stroke="rgb(31,27,16)" stroke-width="1" opacity="1" d="M 207.5 79 L 211 79.5 L 207.5 80 L 207.5 79 Z " /><path fill="rgb(31,27,16)" stroke="rgb(31,27,16)" stroke-width="1" opacity="1" d="M 152 81 Q 155 80 154 83 Q 151 84 152 81 Z " /><path fill="rgb(31,27,16)" stroke="rgb(31,27,16)" stroke-width="1" opacity="1" d="M 235.5 81 L 236 85.5 L 235 85.5 L 235.5 81 Z " /><path fill="rgb(31,27,16)" stroke="rgb(31,27,16)" stroke-width="1" opacity="1" d="M 23.5 82 L 24 86.5 L 23 86.5 L 23.5 82 Z " /><path fill="rgb(31,27,16)" stroke="rgb(31,27,16)" stroke-width="1" opacity="1" d="M 158.5 84 L 159 89.5 L 158 89.5 L 158.5 84 Z " /><path fill="rgb(31,27,16)" stroke="rgb(31,27,16)" stroke-width="1" opacity="1" d="M 235.5 87 L 236 98.5 L 235 98.5 L 235.5 87 Z " /><path fill="rgb(31,27,16)" stroke="rgb(31,27,16)" stroke-width="1" opacity="1" d="M 25.5 90 L 26 94.5 L 25 94.5 L 25.5 90 Z " /><path fill="rgb(31,27,16)" stroke="rgb(31,27,16)" stroke-width="1" opacity="1" d="M 10.5 92 L 11 227.5 L 10 227.5 L 10.5 92 Z " /><path fill="rgb(31,27,16)" stroke="rgb(31,27,16)" stroke-width="1" opacity="1" d="M 157.5 93 L 158 100.5 L 156 99.5 Q 155.3 94.8 157.5 93 Z " /><path fill="rgb(31,27,16)" stroke="rgb(31,27,16)" stroke-width="1" opacity="1" d="M 195 94 Q 198.7 92.7 197 98.5 L 197.5 100 L 196 99.5 L 197 103.5 L 195.5 107 L 195 94 Z " /><path fill="rgb(31,27,16)" stroke="rgb(31,27,16)" stroke-width="1" opacity="1" d="M 235.5 105 L 236 108.5 L 235 108.5 L 235.5 105 Z " /><path fill="rgb(31,27,16)" stroke="rgb(31,27,16)" stroke-width="1" opacity="1" d="M 23.5 108 L 24 116.5 L 23 116.5 L 23.5 108 Z " /><path fill="rgb(31,27,16)" stroke="rgb(31,27,16)" stroke-width="1" opacity="1" d="M 117.5 124 L 116.5 126 L 117.5 124 Z " /><path fill="rgb(31,27,16)" stroke="rgb(31,27,16)" stroke-width="1" opacity="1" d="M 159 124 L 165 126.5 L 159.5 128 L 159 124 Z " /><path fill="rgb(31,27,16)" stroke="rgb(31,27,16)" stroke-width="1" opacity="1" d="M 189.5 125 L 190 127 L 185 126.5 L 189.5 125 Z " /><path fill="rgb(31,27,16)" stroke="rgb(31,27,16)" stroke-width="1" opacity="1" d="M 147 128 L 149 128.5 L 147.5 131 L 147 128 Z " /><path fill="rgb(31,27,16)" stroke="rgb(31,27,16)" stroke-width="1" opacity="1" d="M 158.5 129 L 183 129.5 L 158.5 130 L 158.5 129 Z " /><path fill="rgb(31,27,16)" stroke="rgb(31,27,16)" stroke-width="1" opacity="1" d="M 112.5 132 L 115 132.5 Q 116.3 137.8 113.5 139 L 112 135.5 L 113 133.5 L 112.5 132 Z " /><path fill="rgb(31,27,16)" stroke="rgb(31,27,16)" stroke-width="1" opacity="1" d="M 150.5 132 L 154 132.5 L 150.5 133 L 150.5 132 Z " /><path fill="rgb(31,27,16)" stroke="rgb(31,27,16)" stroke-width="1" opacity="1" d="M 235.5 133 L 236 144.5 L 235 144.5 L 234.5 139 L 233 139.5 L 233 136 Q 236.1 137.1 235.5 133 Z " /><path fill="rgb(31,27,16)" stroke="rgb(31,27,16)" stroke-width="1" opacity="1" d="M 144.5 135 L 147 135.5 L 144.5 136 L 144.5 135 Z " /><path fill="rgb(31,27,16)" stroke="rgb(31,27,16)" stroke-width="1" opacity="1" d="M 23.5 136 L 24 178.5 L 23 178.5 L 23.5 136 Z " /><path fill="rgb(31,27,16)" stroke="rgb(31,27,16)" stroke-width="1" opacity="1" d="M 107.5 136 L 107 137.5 L 108 146.5 L 107 148.5 L 108 151.5 L 106.5 155 L 105.5 148 L 104 148.5 L 105 145.5 L 104.5 144 Q 107.5 144.5 106 137.5 L 107.5 136 Z " /><path fill="rgb(31,27,16)" stroke="rgb(31,27,16)" stroke-width="1" opacity="1" d="M 136.5 137 L 143 137.5 L 136 138 L 135.5 142 L 135 138.5 L 136.5 137 Z " /><path fill="rgb(31,27,16)" stroke="rgb(31,27,16)" stroke-width="1" opacity="1" d="M 158.5 138 L 163.5 139 L 164.5 138 L 174.5 138 L 175.5 139 L 185.5 139 L 187.5 139 L 190.5 138 L 191 144 L 199.5 144 L 201 145.5 L 200 149.5 L 202 150.5 L 187.5 151 L 185.5 151 L 178.5 150 Q 177.3 152.3 172.5 151 Q 169.8 149.8 172 148.5 L 172 144 L 158 144 L 158 149 L 155 149 L 154.5 146 L 153 148.5 Q 154.4 151.3 159 150 Q 157.5 155.4 160.5 157 Q 163.8 158.1 163 155.5 L 164.5 150 L 165 154.5 L 164 157.5 L 163 160.5 Q 165.3 161.7 162.5 163 L 160 163 L 160 157.5 L 158 157 L 158 151 L 155 151 L 154.5 155 L 153.5 150 L 149.5 151 L 149 148.5 L 149 144 L 158 144 L 158.5 138 Z M 173 144 L 173 150 L 184 149 L 185 145 L 173 144 Z M 186 144 L 187 146 L 189 145 L 186 144 Z " /><path fill="rgb(31,27,16)" stroke="rgb(31,27,16)" stroke-width="1" opacity="1" d="M 137 139 L 142 139 L 142 142.5 Q 140.8 145.3 139.5 143 L 137 141.5 L 137 139 Z " /><path fill="rgb(31,27,16)" stroke="rgb(31,27,16)" stroke-width="1" opacity="1" d="M 130.5 142 L 134 143.5 L 130 144 L 129.5 148 L 129 144.5 L 130.5 142 Z " /><path fill="rgb(31,27,16)" stroke="rgb(31,27,16)" stroke-width="1" opacity="1" d="M 181 145 L 183 145.5 L 182.5 148 Q 179.5 148.7 181 145 Z " /><path fill="rgb(31,27,16)" stroke="rgb(31,27,16)" stroke-width="1" opacity="1" d="M 104.5 150 L 105 152.5 L 104 152.5 L 104.5 150 Z " /><path fill="rgb(31,27,16)" stroke="rgb(31,27,16)" stroke-width="1" opacity="1" d="M 112 150 Q 115 149 114 152 Q 111 153 112 150 Z " /><path fill="rgb(31,27,16)" stroke="rgb(31,27,16)" stroke-width="1" opacity="1" d="M 128.5 150 L 136 150.5 L 130.5 152 L 128.5 150 Z " /><path fill="rgb(31,27,16)" stroke="rgb(31,27,16)" stroke-width="1" opacity="1" d="M 144.5 151 L 147 151.5 L 147 159.5 L 148 163 Q 151.8 162 153 164.5 L 153 168 Q 155.7 166.9 155 169.5 L 156 172 Q 151.1 170.4 153 176 L 147 176 L 147 182.5 L 146 182.5 L 145.5 181 L 144 181.5 L 143.5 177 L 142.5 187 L 142 163.5 L 143 160.5 L 142 157.5 L 144 155.5 L 143 152.5 L 144.5 151 Z M 144 165 L 143 174 L 144 174 L 144 165 Z " /><path fill="rgb(31,27,16)" stroke="rgb(31,27,16)" stroke-width="1" opacity="1" d="M 205.5 151 L 208 152 L 207 155.5 L 207 170 L 204 168.5 L 203.5 163 L 202.5 170 L 202 156.5 L 201 155.5 L 203 155.5 Q 201.5 151.1 204.5 152 L 205.5 151 Z " /><path fill="rgb(31,27,16)" stroke="rgb(31,27,16)" stroke-width="1" opacity="1" d="M 128.5 152 L 130 155 Q 126.5 156.1 128.5 152 Z " /><path fill="rgb(31,27,16)" stroke="rgb(31,27,16)" stroke-width="1" opacity="1" d="M 174 152 Q 178.9 150.2 177 156.5 L 176 156.5 L 175.5 155 L 174 155.5 L 174 152 Z " /><path fill="rgb(31,27,16)" stroke="rgb(31,27,16)" stroke-width="1" opacity="1" d="M 125.5 153 L 126.5 155 L 125.5 153 Z " /><path fill="rgb(31,27,16)" stroke="rgb(31,27,16)" stroke-width="1" opacity="1" d="M 117.5 157 L 119 157.5 L 117 158 L 116.5 161 L 116 158.5 L 117.5 157 Z " /><path fill="rgb(31,27,16)" stroke="rgb(31,27,16)" stroke-width="1" opacity="1" d="M 120.5 157 L 125 157.5 L 120.5 158 L 120.5 157 Z " /><path fill="rgb(31,27,16)" stroke="rgb(31,27,16)" stroke-width="1" opacity="1" d="M 174.5 158 L 175.5 161 L 176.5 158 Q 179.2 164.3 178 174.5 Q 177.3 176.8 173.5 176 L 171.5 176 Q 166.3 177.8 168 172.5 L 165 171.5 L 165 169.5 L 165.5 168 L 166.5 170 L 169.5 163 L 174 163 L 174.5 158 Z M 169 168 L 169 170 L 171 169 L 169 168 Z M 170 174 L 170 175 L 172 175 L 170 174 Z " /><path fill="rgb(31,27,16)" stroke="rgb(31,27,16)" stroke-width="1" opacity="1" d="M 192 158 L 194 158.5 L 194 168 L 188 168 L 188 164 L 190 164 L 190 160 Q 193 161 192 158 Z " /><path fill="rgb(31,27,16)" stroke="rgb(31,27,16)" stroke-width="1" opacity="1" d="M 120.5 159 Q 122.8 158.3 122 160.5 L 122.5 162 L 120.5 159 Z " /><path fill="rgb(31,27,16)" stroke="rgb(31,27,16)" stroke-width="1" opacity="1" d="M 127.5 160 L 128.5 164 L 129.5 160 L 130 168.5 L 129 168.5 L 129 167 L 127 166.5 L 127.5 160 Z " /><path fill="rgb(31,27,16)" stroke="rgb(31,27,16)" stroke-width="1" opacity="1" d="M 67 165 Q 70.8 164 72 166.5 L 72 168 L 67 168 L 67 165 Z " /><path fill="rgb(31,27,16)" stroke="rgb(31,27,16)" stroke-width="1" opacity="1" d="M 103.5 170 L 104 203 L 98 203 L 98 196.5 L 96 196 L 96 203 L 79.5 203 L 79.5 202 L 93 201.5 L 80 201 L 80 196 L 86 196 L 86 191.5 L 85.5 190 L 90 190.5 L 87 191 Q 84.6 198.1 91 196 L 91 189.5 L 92 188.5 L 91 184.5 L 95 183 L 95.5 178 L 96 188 L 93 188.5 L 96 189 L 96.5 193 L 98 188.5 L 97 183.5 L 98 182.5 L 98 171 L 102 171 L 102 181.5 L 103 181.5 L 103.5 170 Z M 103 198 L 102 202 L 103 202 L 103 198 Z " /><path fill="rgb(31,27,16)" stroke="rgb(31,27,16)" stroke-width="1" opacity="1" d="M 117.5 170 L 118 173 L 124 173.5 L 119.5 175 L 118 174.5 L 117.5 178 L 117.5 170 Z " /><path fill="rgb(31,27,16)" stroke="rgb(31,27,16)" stroke-width="1" opacity="1" d="M 216.5 170 L 217 173.5 L 216 173.5 L 216.5 170 Z " /><path fill="rgb(31,27,16)" stroke="rgb(31,27,16)" stroke-width="1" opacity="1" d="M 197.5 175 L 207 175 L 207 188 L 201 189 L 202 195.5 L 198.5 196 L 195.5 195 L 192 196 L 191.5 201 L 159.5 201 L 158 201.5 Q 159.3 196.3 156.5 195 L 152.5 196 L 149 194.5 L 150 191 L 154 191 L 154 182 L 158.5 182 L 160.5 182 L 162 181.5 L 160 181 L 159 176.5 L 163 176 L 162 179.5 L 163.5 179 Q 165.8 178.3 165 180.5 L 164 185.5 L 165 189 L 170 189.5 L 166 190.5 L 173 191 Q 171.8 194 175.5 193 Q 177.5 189 185.5 191 L 185.5 195 Q 189.3 196.3 188 192.5 L 186 189.5 L 186 176.5 L 187 176.5 L 187.5 190 L 190 189 L 190 178.5 L 189 177.5 L 190.5 176 Q 196 177.5 197.5 175 Z M 198 176 L 198 177 L 202 177 L 198 176 Z M 196 180 L 192 182 L 196 182 L 196 180 Z M 155 183 L 156 190 L 159 189 L 159 183 L 155 183 Z " /><path fill="rgb(31,27,16)" stroke="rgb(31,27,16)" stroke-width="1" opacity="1" d="M 235.5 175 L 236 183.5 L 235 183.5 L 234 176.5 L 235.5 175 Z " /><path fill="rgb(31,27,16)" stroke="rgb(31,27,16)" stroke-width="1" opacity="1" d="M 62 176 L 67 176 L 67 177.5 L 66.5 180 L 65 180.5 L 67 181 L 67 191.5 L 68 192.5 L 67 197.5 Q 69.8 205.8 61.5 203 L 62 201.5 L 61 189.5 L 62 186.5 L 61 182.5 L 62 176 Z " /><path fill="rgb(31,27,16)" stroke="rgb(31,27,16)" stroke-width="1" opacity="1" d="M 172.5 177 L 173 184.5 L 172 184.5 L 172.5 177 Z " /><path fill="rgb(31,27,16)" stroke="rgb(31,27,16)" stroke-width="1" opacity="1" d="M 55 183 L 60 183 L 60 186.5 L 59 186.5 Q 60.1 182.3 56 184 L 56 191 L 50 191 L 50 193 Q 53.3 191.9 52 196 L 48 196 L 48 190 Q 53.4 191.5 55 188.5 L 54 186.5 L 55 183 Z " /><path fill="rgb(31,27,16)" stroke="rgb(31,27,16)" stroke-width="1" opacity="1" d="M 216.5 183 L 218 185.5 L 216 186.5 L 216.5 183 Z " /><path fill="rgb(31,27,16)" stroke="rgb(31,27,16)" stroke-width="1" opacity="1" d="M 174 184 L 178 185.5 L 177.5 189 L 175.5 189 L 174 189 L 174 184 Z " /><path fill="rgb(31,27,16)" stroke="rgb(31,27,16)" stroke-width="1" opacity="1" d="M 117.5 189 L 122 190 L 122 196 L 118.5 196 L 117 196.5 Q 118.2 191.8 116 190.5 L 117.5 189 Z " /><path fill="rgb(31,27,16)" stroke="rgb(31,27,16)" stroke-width="1" opacity="1" d="M 72.5 190 L 73 194.5 L 72 194.5 L 72.5 190 Z " /><path fill="rgb(31,27,16)" stroke="rgb(31,27,16)" stroke-width="1" opacity="1" d="M 55.5 192 L 56 194.5 L 55 194.5 L 55.5 192 Z " /><path fill="rgb(31,27,16)" stroke="rgb(31,27,16)" stroke-width="1" opacity="1" d="M 54 196 L 60 197 Q 62.2 202.6 56.5 201 L 56.5 202 L 60 202.5 L 36.5 203 L 36.5 202 L 54.5 202 L 55 198.5 L 54 196 Z " /><path fill="rgb(31,27,16)" stroke="rgb(31,27,16)" stroke-width="1" opacity="1" d="M 37.5 197 Q 42.8 195.3 41 200.5 L 39 199.5 Q 39.8 197.3 37.5 198 L 37.5 197 Z " /><path fill="rgb(31,27,16)" stroke="rgb(31,27,16)" stroke-width="1" opacity="1" d="M 114.5 197 L 115 201 Q 112.3 202.1 113 199.5 L 114.5 197 Z " /><path fill="rgb(31,27,16)" stroke="rgb(31,27,16)" stroke-width="1" opacity="1" d="M 75.5 202 L 78 202.5 L 75.5 203 L 75.5 202 Z " /><path fill="rgb(31,27,16)" stroke="rgb(31,27,16)" stroke-width="1" opacity="1" d="M 23.5 204 L 24 210.5 L 23 210.5 L 23.5 204 Z " /><path fill="rgb(31,27,16)" stroke="rgb(31,27,16)" stroke-width="1" opacity="1" d="M 111 204 Q 113.7 202.9 113 205.5 L 111.5 208 L 111 204 Z " /><path fill="rgb(31,27,16)" stroke="rgb(31,27,16)" stroke-width="1" opacity="1" d="M 39.5 211 L 40 214 Q 37.3 215.1 38 212.5 L 39.5 211 Z " /><path fill="rgb(31,27,16)" stroke="rgb(31,27,16)" stroke-width="1" opacity="1" d="M 23.5 212 L 27 213.5 L 23 214 L 23.5 212 Z " /><path fill="rgb(31,27,16)" stroke="rgb(31,27,16)" stroke-width="1" opacity="1" d="M 37 217 L 39 217.5 L 37.5 226 L 37 217 Z " /><path fill="rgb(31,27,16)" stroke="rgb(31,27,16)" stroke-width="1" opacity="1" d="M 207.5 224 L 208 227 L 204.5 228 L 56.5 228 L 56.5 227 L 204.5 227 L 207 226 L 207.5 224 Z " /><path fill="rgb(31,27,16)" stroke="rgb(31,27,16)" stroke-width="1" opacity="1" d="M 62.5 225 L 73 225.5 L 62.5 226 L 62.5 225 Z " /><path fill="rgb(31,27,16)" stroke="rgb(31,27,16)" stroke-width="1" opacity="1" d="M 107.5 225 L 135 225.5 L 107.5 226 L 107.5 225 Z " /><path fill="rgb(31,27,16)" stroke="rgb(31,27,16)" stroke-width="1" opacity="1" d="M 162.5 225 L 182 225.5 L 162.5 226 L 162.5 225 Z " /><path fill="rgb(31,27,16)" stroke="rgb(31,27,16)" stroke-width="1" opacity="1" d="M 37.5 227 L 48 227.5 L 37.5 228 L 37.5 227 Z " /><path fill="rgb(31,27,16)" stroke="rgb(31,27,16)" stroke-width="1" opacity="1" d="M 240 229 Q 244.1 227.7 243 231 Q 238.9 232.3 240 229 Z " /><path fill="rgb(31,27,16)" stroke="rgb(31,27,16)" stroke-width="1" opacity="1" d="M 18.5 233 L 19.5 235 L 18.5 233 Z " /><path fill="rgb(31,27,16)" stroke="rgb(31,27,16)" stroke-width="1" opacity="1" d="M 237.5 234 L 236 236.5 L 235.5 240 L 101.5 240 L 101.5 239 L 103 238.5 L 98 238 L 97.5 240 L 23 240 L 24 236.5 L 23.5 235 L 236.5 235 L 237.5 234 Z M 32 236 Q 31 238 35 237 L 35 239 L 41 239 L 39 238 L 43 237 L 32 236 Z M 60 236 L 60 237 L 85 237 L 60 236 Z M 91 236 L 91 237 L 129 237 L 91 236 Z M 138 236 L 138 237 L 148 237 L 138 236 Z M 150 236 L 150 237 L 180 237 L 150 236 Z M 184 236 L 184 237 L 189 237 L 184 236 Z M 200 236 L 200 237 L 207 237 L 200 236 Z M 218 236 L 218 237 L 226 237 L 218 236 Z M 216 238 L 216 239 L 223 239 L 216 238 Z " /><path fill="rgb(217,182,31)" stroke="rgb(217,182,31)" stroke-width="1" opacity="1" d="M 16.5 11 L 23 11.5 L 16.5 12 L 16.5 11 Z " /><path fill="rgb(217,182,31)" stroke="rgb(217,182,31)" stroke-width="1" opacity="1" d="M 24 11 L 234.5 11 L 237 12 L 237 19 L 244.5 19 Q 245.7 16.8 250.5 18 L 250.5 19 Q 245.1 18.4 245 19.5 L 245 227.5 Q 244.9 228.6 239.5 228 Q 238.2 225.7 237 228.5 Q 237.8 234.8 236.5 235 L 23.5 235 Q 22.4 235.1 23 240.5 L 22 240.5 L 23 228 Q 17.6 229.5 16 226.5 L 16 211.5 L 17 209.5 L 16 208.5 L 16 113.5 L 17 109.5 L 16 108.5 L 16 79.5 L 17 77.5 L 16 76.5 L 16 59.5 L 17 58.5 L 17 47.5 L 16 45.5 L 17 44.5 L 17 19 L 24 19 L 24 11 Z M 36 19 L 36 21 L 36 31 L 23 31 L 23 43 L 27 43 L 26 46 L 26 55 L 23 56 L 23 196 L 26 198 L 26 202 L 23 203 L 23 215 Q 27 217 36 216 L 35 218 L 36 220 L 35 228 L 48 228 L 48 226 Q 49 223 51 225 L 54 224 L 55 228 L 206 228 L 207 227 Q 209 228 208 226 L 212 224 Q 216 223 214 228 L 225 228 L 225 215 L 238 215 L 238 205 L 235 203 L 235 196 L 238 196 L 237 195 L 237 173 L 238 172 L 238 156 L 237 155 L 238 152 L 237 147 L 237 145 L 237 125 L 238 124 L 238 116 L 237 115 L 237 76 L 238 75 Q 240 68 237 67 L 238 64 L 238 56 L 236 48 L 237 46 L 237 40 L 237 31 L 225 31 L 225 19 L 215 19 L 214 22 L 210 22 L 208 19 L 56 19 L 55 22 L 48 22 L 48 19 L 36 19 Z " /><path fill="rgb(217,182,31)" stroke="rgb(217,182,31)" stroke-width="1" opacity="1" d="M 238.5 11 L 245 11 L 245 16.5 L 244 16.5 Q 246.3 9.3 238.5 12 L 238.5 11 Z " /><path fill="rgb(217,182,31)" stroke="rgb(217,182,31)" stroke-width="1" opacity="1" d="M 10.5 18 L 16 18.5 L 10.5 19 L 10.5 18 Z " /><path fill="rgb(217,182,31)" stroke="rgb(217,182,31)" stroke-width="1" opacity="1" d="M 221 31 L 225 32 Q 227 38 221 36 L 221 31 Z " /><path fill="rgb(217,182,31)" stroke="rgb(217,182,31)" stroke-width="1" opacity="1" d="M 36 32 L 41 32 L 41 36.5 L 39.5 36 Q 33.8 37.6 36 32 Z " /><path fill="rgb(217,182,31)" stroke="rgb(217,182,31)" stroke-width="1" opacity="1" d="M 172 37 L 180 37 L 180 43 L 184 43 L 184 49 L 190 49 L 190 55 L 196 55 L 196 62 L 202 62 L 202 67 L 196 66.5 L 196 64.5 L 196 62 L 190 62 L 190 55.5 L 188.5 55 L 184.5 56 L 183 55.5 L 182.5 57 L 182 55.5 L 184 50.5 Q 182.8 48 179 49 L 178.5 44 L 178 61 L 182 60 L 182.5 58 L 184 61.5 L 183 67 L 177 67 L 177 73.5 L 175.5 73 L 171 73 L 171 68 L 165 68 L 165 71.5 L 168 77.5 L 166 78 L 165 75.5 L 165.5 74 L 142 73.5 L 145 71.5 Q 143.5 66.3 148 68 L 148 62 L 153.5 62 Q 155.8 61.3 155 57.5 Q 152.8 56.3 155.5 55 L 160 55 L 160 49 L 166 49 L 166 43 L 172 43 L 172 37 Z M 201 64 L 199 66 L 201 66 L 201 64 Z " /><path fill="rgb(217,182,31)" stroke="rgb(217,182,31)" stroke-width="1" opacity="1" d="M 84.5 62 L 85 68 Q 92.5 65.5 90 73 Q 84.8 70.9 86 75.5 L 85 76.5 L 84.5 85 L 84 76.5 L 83 75.5 Q 85.3 74.3 82.5 73 L 78 73 L 78 68 L 84 68 L 84.5 62 Z " /><path fill="rgb(217,182,31)" stroke="rgb(217,182,31)" stroke-width="1" opacity="1" d="M 202 68 L 204 68.5 L 202.5 73 L 202 68 Z " /><path fill="rgb(217,182,31)" stroke="rgb(217,182,31)" stroke-width="1" opacity="1" d="M 147.5 75 L 149 78.5 L 143 79 L 143.5 77 L 147 78 L 147.5 75 Z " /><path fill="rgb(217,182,31)" stroke="rgb(217,182,31)" stroke-width="1" opacity="1" d="M 159 79 L 165 79 L 165 92 L 161 92 L 161 103.5 L 159 104 L 159 79 Z " /><path fill="rgb(217,182,31)" stroke="rgb(217,182,31)" stroke-width="1" opacity="1" d="M 116.5 97 L 125.5 98 L 126.5 97 L 134.5 97 L 135.5 98 L 142 98 L 142 104 L 136.5 104 L 134.5 105 L 133.5 104 L 123 104 L 123 111 L 120.5 111 L 118.5 111 L 116 111 L 116 118 L 113.5 118 L 112 117.5 Q 109.4 124.8 115.5 123 L 115.5 124 L 111 124 L 111 117.5 L 110 116.5 L 110 98 L 116.5 97 Z " /><path fill="rgb(217,182,31)" stroke="rgb(217,182,31)" stroke-width="1" opacity="1" d="M 55.5 104 L 59 104 L 59 113.5 L 57 114.5 Q 58.5 109.3 54 111 L 54 106.5 L 53.5 105 L 55.5 104 Z " /><path fill="rgb(217,182,31)" stroke="rgb(217,182,31)" stroke-width="1" opacity="1" d="M 211.5 105 L 212.5 109 L 213.5 105 Q 212.6 110.4 215.5 112 Q 222.4 110 221 114 L 215 114 L 215 116.5 L 214 117.5 L 214 124 L 210 124 L 210 122.5 L 211 118.5 Q 209.8 116 206 117 L 206 112 L 209.5 112 Q 212.4 110.4 211.5 105 Z " /><path fill="rgb(217,182,31)" stroke="rgb(217,182,31)" stroke-width="1" opacity="1" d="M 45 125 Q 49.5 123.3 48 128.5 L 51.5 130 L 53 129.5 L 53 131 L 48 131 L 48 136.5 L 46.5 137 L 45 133.5 L 46 131 L 40 131 L 40 129 Q 47.1 131.4 45 125 Z " /><path fill="rgb(217,182,31)" stroke="rgb(217,182,31)" stroke-width="1" opacity="1" d="M 156 130 L 195.5 130 L 196 134 L 201.5 134 L 202.5 137 Q 207.8 135.8 209 138.5 L 208 144 L 214 144 L 214 148.5 L 215 151 L 220 151.5 L 220 187.5 Q 218.8 190.3 217.5 188 L 214 189.5 L 214 196 L 210 196 Q 208.8 193 212.5 194 L 212.5 193 L 211 192.5 L 212.5 190 Q 206.4 188.2 209 195.5 L 208 202 L 197.5 203 L 196 202.5 Q 197.5 208.5 194.5 210 Q 193 207.5 187.5 209 L 184.5 210 L 181.5 209 L 178.5 210 L 175.5 209 L 156 209 L 156 203 L 149.5 203 L 148.5 202 L 142 202 L 142 196 L 136 196 L 136 188 L 132.5 188 L 131 186.5 L 131 178.5 L 132 174.5 L 131 173.5 L 131 151 Q 138.5 153.8 136 145.5 Q 137.4 142.8 142 144 L 142 138.5 L 143.5 138 L 148 137 L 149 133 L 156 133 L 156 130 Z M 160 137 L 158 139 L 158 144 L 172 144 L 171 146 Q 170 151 173 152 L 173 163 L 168 163 Q 170 169 165 167 L 165 172 L 168 174 Q 167 178 172 176 L 172 189 L 166 189 L 166 188 L 166 182 L 164 176 Q 159 175 158 178 Q 160 184 154 182 L 154 189 L 149 189 L 149 179 Q 147 177 150 176 Q 155 178 153 172 L 157 172 Q 158 168 156 167 Q 151 168 153 163 L 148 163 L 148 151 L 144 150 Q 141 151 143 153 L 142 157 L 142 189 Q 144 192 149 190 L 148 194 L 149 196 L 158 196 L 158 203 L 179 203 L 180 202 L 182 203 L 189 202 L 191 202 Q 196 204 194 198 L 194 196 L 202 196 L 202 189 L 209 189 L 208 188 Q 207 183 209 182 L 209 170 L 208 169 L 208 150 L 202 150 L 202 144 L 191 144 L 191 137 L 181 137 L 180 138 L 163 138 L 160 137 Z M 148 144 L 148 151 L 154 151 L 154 157 L 159 157 L 159 163 L 164 163 L 165 151 L 163 152 Q 165 158 159 156 L 158 150 L 158 144 L 148 144 Z M 167 150 L 167 151 L 171 151 L 167 150 Z M 215 153 L 215 155 L 217 154 L 215 153 Z M 217 170 L 216 174 L 217 174 L 217 170 Z M 217 183 L 215 186 Q 217 189 218 186 L 217 183 Z M 203 196 L 204 198 L 207 197 L 203 196 Z " /><path fill="rgb(217,182,31)" stroke="rgb(217,182,31)" stroke-width="1" opacity="1" d="M 72 131 L 103.5 131 L 104 131.5 L 104 137 Q 100.3 138.2 102 133 L 98 133 Q 98.9 137.7 96.5 140 L 96 138 L 85 138 L 85 144 L 79 144 L 79 149.5 L 77.5 157 L 74.5 156 L 73 156.5 L 73 138.5 L 72 137.5 L 72 131 Z M 74 151 L 74 153 L 77 152 L 74 151 Z M 75 154 L 75 155 L 77 155 L 75 154 Z " /><path fill="rgb(217,182,31)" stroke="rgb(217,182,31)" stroke-width="1" opacity="1" d="M 174.5 148 L 183 148.5 L 173.5 150 L 174.5 148 Z " /><path fill="rgb(217,182,31)" stroke="rgb(217,182,31)" stroke-width="1" opacity="1" d="M 178 151 L 201.5 151 L 202 154.5 L 202 156.5 L 202 174.5 Q 201.9 175.6 196.5 175 L 195.5 176 L 186 176 L 186 189 L 178 189 L 178 151 Z M 186 157 L 187 160 L 187 169 L 195 169 L 195 159 L 196 158 L 186 157 Z " /><path fill="rgb(217,182,31)" stroke="rgb(217,182,31)" stroke-width="1" opacity="1" d="M 110 163 L 125 163 L 125 186.5 L 124 186.5 L 123.5 182 L 123 189 L 120.5 190 L 117.5 189 Q 114.8 190.3 116 195.5 L 117.5 201 L 118.5 199 L 123 201.5 L 110.5 202 L 111 200.5 L 110 196.5 L 110 163 Z M 118 170 L 117 179 L 118 179 Q 116 173 123 175 L 124 176 L 124 173 L 118 173 L 118 170 Z M 120 170 L 120 171 L 124 171 L 120 170 Z M 115 196 L 113 198 Q 112 202 115 201 L 115 196 Z " /><path fill="rgb(217,182,31)" stroke="rgb(217,182,31)" stroke-width="1" opacity="1" d="M 36 169 L 66.5 169 L 67 169.5 L 67 176 L 61 176 L 61 187.5 L 61 189.5 Q 60.3 197.5 62 202 L 56 201.5 L 60 201 L 60 196 L 56.5 196 L 56.5 195 L 60 194.5 L 60 182.5 L 58.5 183 L 54 183 L 54 189 L 48 189 L 48 196 L 54 196 L 54 200.5 L 54.5 202 L 36 202 L 36 169 Z M 40 196 L 37 197 Q 35 203 41 201 L 41 196 L 40 196 Z M 46 196 L 43 198 L 46 198 L 46 196 Z " /><path fill="rgb(217,182,31)" stroke="rgb(217,182,31)" stroke-width="1" opacity="1" d="M 73 169 L 103 169 L 103 181.5 L 102 181.5 L 102 171 L 98 171 L 98 182.5 L 96.5 191 L 95.5 178 L 95 183 L 91 184.5 L 92 188.5 L 90 196 L 88 195.5 L 89 193.5 L 88 191 L 90 190.5 L 85 190 L 86 192.5 L 85 196 L 79 196 L 79 201 L 93 201.5 L 73 202 L 73 169 Z M 78 194 L 77 198 L 78 198 L 78 194 Z " /><path fill="rgb(217,182,31)" stroke="rgb(217,182,31)" stroke-width="1" opacity="1" d="M 58.5 188 L 59 193.5 L 57 192.5 L 58.5 188 Z " /><path fill="rgb(217,182,31)" stroke="rgb(217,182,31)" stroke-width="1" opacity="1" d="M 96 196 L 98 196 L 98 202 L 96 202 L 96 196 Z " /><path fill="rgb(217,182,31)" stroke="rgb(217,182,31)" stroke-width="1" opacity="1" d="M 120.5 196 L 122 196.5 L 118.5 198 L 118.5 197 L 120.5 196 Z " /><path fill="rgb(217,182,31)" stroke="rgb(217,182,31)" stroke-width="1" opacity="1" d="M 130.5 197 L 131 201.5 L 130 201.5 L 130.5 197 Z " /><path fill="rgb(217,182,31)" stroke="rgb(217,182,31)" stroke-width="1" opacity="1" d="M 102.5 198 L 103 201.5 L 102 201.5 L 102.5 198 Z " /><path fill="rgb(217,182,31)" stroke="rgb(217,182,31)" stroke-width="1" opacity="1" d="M 149.5 204 L 150 208 L 154 208.5 L 149 209 L 149.5 204 Z " /><path fill="rgb(217,182,31)" stroke="rgb(217,182,31)" stroke-width="1" opacity="1" d="M 36.5 210 L 37 214.5 L 36 214.5 L 36.5 210 Z " /><path fill="rgb(217,182,31)" stroke="rgb(217,182,31)" stroke-width="1" opacity="1" d="M 156.5 211 Q 158.8 210.3 158 212.5 L 156.5 211 Z " /><path fill="rgb(217,182,31)" stroke="rgb(217,182,31)" stroke-width="1" opacity="1" d="M 244.5 229 L 245 231.5 L 244 231.5 L 244.5 229 Z " /><path fill="rgb(217,182,31)" stroke="rgb(217,182,31)" stroke-width="1" opacity="1" d="M 38.5 241 L 52 241.5 L 38.5 242 L 38.5 241 Z " /><path fill="rgb(8,10,4)" stroke="rgb(8,10,4)" stroke-width="1" opacity="1" d="M 24.5 5 L 25 10.5 L 24 10.5 L 24.5 5 Z " /><path fill="rgb(8,10,4)" stroke="rgb(8,10,4)" stroke-width="1" opacity="1" d="M 52.5 5 L 98.5 5 L 99.5 6 L 108.5 6 L 110.5 5 L 111.5 6 L 122.5 6 L 123.5 5 L 143.5 5 Q 144.8 7.3 149.5 6 Q 150.7 3.7 155.5 5 Q 156.7 7.3 161.5 6 L 162.5 5 L 172.5 5 Q 174 7.5 179.5 6 L 180.5 5 L 215.5 5 L 217.5 6 L 218.5 5 L 237 5 L 237 10.5 L 236.5 11 L 26.5 11 L 26.5 10 L 36 9.5 L 31 9 Q 32.3 5.7 27.5 7 L 27.5 6 L 51.5 6 L 52.5 5 Z M 39 7 L 40 9 L 39 9 L 39 10 L 205 10 L 180 9 L 183 8 L 183 7 L 168 8 L 172 8 L 172 9 L 150 9 L 157 8 L 157 7 L 138 8 L 145 8 L 145 9 L 101 9 L 110 8 L 110 7 L 100 7 L 99 9 L 66 9 L 71 8 L 39 7 Z M 79 7 L 79 8 L 87 8 L 79 7 Z M 113 7 L 113 8 L 125 8 L 113 7 Z M 214 7 Q 213 9 217 9 L 215 10 L 229 10 L 229 9 L 227 9 L 227 7 L 214 7 Z " /><path fill="rgb(8,10,4)" stroke="rgb(8,10,4)" stroke-width="1" opacity="1" d="M 17 12 L 23 12 L 23 18.5 L 21.5 18 L 17.5 19 L 17 12 Z M 18 13 L 19 15 L 22 14 L 18 13 Z " /><path fill="rgb(8,10,4)" stroke="rgb(8,10,4)" stroke-width="1" opacity="1" d="M 238 12 L 244 12 L 244 17.5 L 243 17.5 Q 245 10.8 239 13 L 238.5 18 L 238 12 Z " /><path fill="rgb(8,10,4)" stroke="rgb(8,10,4)" stroke-width="1" opacity="1" d="M 11 19 L 16 19.5 L 16 227.5 L 15 227.5 L 15 20.5 L 12 20 L 11.5 228 L 11 19 Z " /><path fill="rgb(8,10,4)" stroke="rgb(8,10,4)" stroke-width="1" opacity="1" d="M 36 19 L 46.5 19 L 47 20.5 L 48.5 22 L 56 22 L 56.5 19 L 208 19 Q 206.2 23.9 212.5 22 Q 213.8 24.3 215 21.5 L 215.5 19 L 224 19 L 224 30.5 L 221.5 31 L 220 27.5 L 220 25.5 L 219.5 24 L 51.5 24 L 49.5 24 L 46.5 23 L 43.5 24 L 41 22.5 L 45 20.5 L 37 20 L 37.5 30 L 40.5 25 L 43 31.5 L 43 36.5 Q 41.8 39.3 36.5 38 L 36.5 37 L 42 37 L 42 31 L 36 31 L 36 19 Z M 137 20 L 137 21 L 140 21 L 137 20 Z M 223 20 L 222 27 L 223 27 L 223 20 Z " /><path fill="rgb(8,10,4)" stroke="rgb(8,10,4)" stroke-width="1" opacity="1" d="M 245 19 L 250 19.5 L 250 226.5 L 249 226.5 L 249 20.5 L 246 20 L 246 31.5 Q 249.2 30.5 248 36.5 L 246 38.5 L 246 104.5 L 247 107.5 L 246.5 109 Q 249.3 108.4 248 114.5 L 247 114.5 L 246.5 112 L 246 116.5 L 247 117.5 L 247 127.5 L 246 132.5 L 248 137.5 L 248 159.5 L 247 162.5 L 248 163.5 L 248 184.5 Q 244.4 187.6 246 195 L 248 195.5 L 248 205 Q 244.3 203.7 246 209.5 L 248 209.5 L 248 216.5 L 246 217 L 246 219.5 L 245 219.5 L 245 19 Z " /><path fill="rgb(8,10,4)" stroke="rgb(8,10,4)" stroke-width="1" opacity="1" d="M 172.5 30 L 179 31 L 181.5 36 L 185 37.5 L 184 40.5 L 184.5 42 Q 178.2 44.2 180 38.5 L 181 36 Q 177.3 37.5 178 34.5 Q 176.5 31.5 175 34.5 L 175 36 L 171 36 L 171 42 L 166 42 Q 164.8 37.4 167.5 36 Q 173.2 37.8 171 31.5 L 172.5 30 Z " /><path fill="rgb(8,10,4)" stroke="rgb(8,10,4)" stroke-width="1" opacity="1" d="M 24 31 L 35 31 L 35 37 L 29.5 36 L 29 46.5 L 29 48.5 L 29 189.5 L 27.5 190 L 25.5 190 L 24 189.5 L 24 182.5 L 23 179.5 L 24 178.5 L 24 136.5 L 23 135.5 L 23 121.5 L 23 119.5 L 24 108.5 L 23 107.5 L 23 93.5 L 23 91.5 L 24 82.5 L 23 81.5 L 23 56 L 27 55.5 L 27 43 L 23 42.5 L 24 41.5 L 24 31 Z M 26 69 L 25 74 L 26 74 L 26 69 Z M 26 90 L 25 95 L 26 95 L 26 90 Z " /><path fill="rgb(8,10,4)" stroke="rgb(8,10,4)" stroke-width="1" opacity="1" d="M 57.5 31 L 60 31.5 L 57.5 32 L 57.5 31 Z " /><path fill="rgb(8,10,4)" stroke="rgb(8,10,4)" stroke-width="1" opacity="1" d="M 61.5 31 L 65 31.5 L 61.5 32 L 61.5 31 Z " /><path fill="rgb(8,10,4)" stroke="rgb(8,10,4)" stroke-width="1" opacity="1" d="M 199.5 31 L 205 31.5 L 199.5 32 L 199.5 31 Z " /><path fill="rgb(8,10,4)" stroke="rgb(8,10,4)" stroke-width="1" opacity="1" d="M 226.5 31 L 227 35.5 L 226 35.5 L 226.5 31 Z " /><path fill="rgb(8,10,4)" stroke="rgb(8,10,4)" stroke-width="1" opacity="1" d="M 228.5 31 L 237 31 L 237 43 Q 229.5 40.3 232 48.5 L 231 48.5 Q 230.2 40.8 232 37 L 234.5 36 L 235.5 39 L 236 32 L 228.5 32 L 228.5 31 Z " /><path fill="rgb(8,10,4)" stroke="rgb(8,10,4)" stroke-width="1" opacity="1" d="M 13.5 33 L 14 40.5 L 13 40.5 L 13.5 33 Z " /><path fill="rgb(8,10,4)" stroke="rgb(8,10,4)" stroke-width="1" opacity="1" d="M 213.5 33 L 214 38.5 L 213 38.5 L 213.5 33 Z " /><path fill="rgb(8,10,4)" stroke="rgb(8,10,4)" stroke-width="1" opacity="1" d="M 228.5 33 L 229.5 35 Q 226.7 35.7 228.5 33 Z " /><path fill="rgb(8,10,4)" stroke="rgb(8,10,4)" stroke-width="1" opacity="1" d="M 191.5 35 L 196 35.5 L 191.5 36 L 191.5 35 Z " /><path fill="rgb(8,10,4)" stroke="rgb(8,10,4)" stroke-width="1" opacity="1" d="M 221.5 37 L 225 37.5 L 221.5 38 L 221.5 37 Z " /><path fill="rgb(8,10,4)" stroke="rgb(8,10,4)" stroke-width="1" opacity="1" d="M 161.5 42 L 165 43.5 L 166 48.5 L 160.5 49 L 161.5 47 L 164 48 Q 165.3 45 161.5 46 L 160 43.5 L 161.5 42 Z " /><path fill="rgb(8,10,4)" stroke="rgb(8,10,4)" stroke-width="1" opacity="1" d="M 188.5 42 Q 191.5 43.6 190 49 L 185 48 L 185 43 L 187.5 43 L 188.5 42 Z " /><path fill="rgb(8,10,4)" stroke="rgb(8,10,4)" stroke-width="1" opacity="1" d="M 224.5 43 L 225 51.5 L 224 51.5 L 224.5 43 Z " /><path fill="rgb(8,10,4)" stroke="rgb(8,10,4)" stroke-width="1" opacity="1" d="M 158.5 49 L 159 55 Q 152.6 57.1 155 50 L 157.5 51 L 158.5 49 Z M 156 52 Q 155 55 158 54 Q 159 51 156 52 Z " /><path fill="rgb(8,10,4)" stroke="rgb(8,10,4)" stroke-width="1" opacity="1" d="M 191 49 Q 194.8 48 196 50.5 L 196 55 L 191 55 L 191 49 Z " /><path fill="rgb(8,10,4)" stroke="rgb(8,10,4)" stroke-width="1" opacity="1" d="M 235.5 49 L 237 49.5 L 237 190 Q 233.2 188.5 234 191.5 L 232.5 194 L 232 182.5 L 233 178.5 L 232 177.5 L 232 59.5 L 233 59.5 L 233 63 Q 236 61.8 235 65.5 L 236 65.5 L 236 57 L 232.5 57 L 232.5 56 Q 238.6 57.8 236 50.5 L 235.5 49 Z M 236 81 L 235 86 L 236 86 L 236 81 Z M 236 87 L 235 99 L 236 99 L 236 87 Z M 236 105 L 235 109 L 236 109 L 236 105 Z M 236 133 Q 236 137 233 136 L 233 140 L 235 139 L 235 145 L 236 145 L 236 133 Z M 236 175 L 234 177 L 235 184 L 236 184 L 236 175 Z " /><path fill="rgb(8,10,4)" stroke="rgb(8,10,4)" stroke-width="1" opacity="1" d="M 13.5 51 L 14 54.5 L 13 54.5 L 13.5 51 Z " /><path fill="rgb(8,10,4)" stroke="rgb(8,10,4)" stroke-width="1" opacity="1" d="M 113 53 Q 116.8 52.3 118 55.5 L 117.5 58 L 115.5 54 L 113 55.5 L 113 53 Z " /><path fill="rgb(8,10,4)" stroke="rgb(8,10,4)" stroke-width="1" opacity="1" d="M 197 55 L 203 55.5 L 202 61 L 196.5 61 L 196 59.5 L 197 55 Z " /><path fill="rgb(8,10,4)" stroke="rgb(8,10,4)" stroke-width="1" opacity="1" d="M 153.5 56 L 154 61 L 148 61 L 148 58 L 152 58.5 L 150 59.5 L 153 60 L 153.5 56 Z " /><path fill="rgb(8,10,4)" stroke="rgb(8,10,4)" stroke-width="1" opacity="1" d="M 247.5 57 L 248 63.5 L 247 63.5 L 247.5 57 Z " /><path fill="rgb(8,10,4)" stroke="rgb(8,10,4)" stroke-width="1" opacity="1" d="M 83.5 60 L 86 60.5 L 83 61 L 83 67 L 79.5 67 L 79.5 66 Q 84.1 67.3 82 61.5 L 83.5 60 Z " /><path fill="rgb(8,10,4)" stroke="rgb(8,10,4)" stroke-width="1" opacity="1" d="M 36.5 61 L 37 63.5 L 36 63.5 L 36.5 61 Z " /><path fill="rgb(8,10,4)" stroke="rgb(8,10,4)" stroke-width="1" opacity="1" d="M 203 61 Q 206.8 60 208 62.5 Q 206.5 66.9 209.5 66 L 214 69.5 L 215.5 73 L 218 73 L 218 79 L 214 80.5 L 214 85 L 206.5 85 Q 205.2 87.2 200.5 86 Q 199.3 83.8 198 86.5 Q 196.5 93.5 199.5 93 L 201 92.5 L 200 94.5 Q 204 98 202 107.5 L 199.5 112 L 198 112.5 Q 200.7 115.8 200 122.5 L 199 122.5 L 198.5 120 L 197.5 122 L 196.5 120 L 196 129 L 202 127 L 201.5 133 L 196 132 L 195.5 130 L 183.5 130 L 182.5 129 L 155 129 L 154.5 133 L 148 132 L 148 137 L 142 137 L 142 125.5 L 143 123.5 L 142 118.5 L 143 117.5 L 143.5 104 L 146 105 L 144 112.5 L 144 114.5 L 144.5 118 L 146.5 118 L 148 117.5 L 148 98.5 L 149 98.5 L 149 117.5 Q 146.3 118.3 147 122.5 L 148 127 Q 152.3 126 153.5 129 L 154 85 L 142.5 85 L 142 83.5 L 143 79 L 158.5 79 Q 159.5 79 159 83.5 Q 156.8 84.8 158 89.5 L 159 90.5 L 159.5 128 L 165 126.5 L 161 124.5 L 163.5 124 L 165.5 124 L 191 124 L 191 111.5 L 193 111.5 L 193 79 L 206.5 79 L 210.5 80 L 214 79 L 214 73 L 208 73 L 208 70.5 L 209 68.5 Q 207.6 65.8 203 67 L 203 61 Z M 152 81 Q 151 84 154 83 Q 155 80 152 81 Z M 158 93 Q 155 95 156 100 L 158 101 L 158 93 Z M 195 94 L 196 107 L 196 105 L 196 103 L 197 99 Q 199 93 195 94 Z M 194 120 L 193 124 L 195 124 L 194 120 Z M 190 125 L 185 127 L 190 127 L 190 125 Z M 147 128 L 148 131 L 149 129 L 147 128 Z M 145 135 L 145 136 L 147 136 L 145 135 Z " /><path fill="rgb(8,10,4)" stroke="rgb(8,10,4)" stroke-width="1" opacity="1" d="M 86.5 62 L 87 67.5 L 86 67.5 L 86.5 62 Z " /><path fill="rgb(8,10,4)" stroke="rgb(8,10,4)" stroke-width="1" opacity="1" d="M 142 62 L 148 62 L 148 67 L 145 66.5 L 147 65.5 L 144 65 Q 145.3 69.1 142 68 L 142 62 Z " /><path fill="rgb(8,10,4)" stroke="rgb(8,10,4)" stroke-width="1" opacity="1" d="M 36.5 65 L 37 67.5 L 36 67.5 L 36.5 65 Z " /><path fill="rgb(8,10,4)" stroke="rgb(8,10,4)" stroke-width="1" opacity="1" d="M 98 65 L 104 66.5 L 98 68 L 98 65 Z " /><path fill="rgb(8,10,4)" stroke="rgb(8,10,4)" stroke-width="1" opacity="1" d="M 136 68 L 141 68 L 141 70.5 L 138.5 69 L 137 70.5 L 136.5 72 L 136 68 Z " /><path fill="rgb(8,10,4)" stroke="rgb(8,10,4)" stroke-width="1" opacity="1" d="M 143.5 69 L 144 71.5 L 143 71.5 L 143.5 69 Z " /><path fill="rgb(8,10,4)" stroke="rgb(8,10,4)" stroke-width="1" opacity="1" d="M 136 73 L 142 73 L 142 79 L 136 79 L 136 73 Z " /><path fill="rgb(8,10,4)" stroke="rgb(8,10,4)" stroke-width="1" opacity="1" d="M 86 74 L 90 74.5 L 87 75 L 86.5 86 L 86 74 Z " /><path fill="rgb(8,10,4)" stroke="rgb(8,10,4)" stroke-width="1" opacity="1" d="M 196.5 74 L 204 74.5 L 198 75 L 197.5 77 L 196.5 74 Z " /><path fill="rgb(8,10,4)" stroke="rgb(8,10,4)" stroke-width="1" opacity="1" d="M 79 79 Q 82.8 78 84 80.5 L 83.5 86 L 83 81 Q 77.8 82.7 79 79 Z " /><path fill="rgb(8,10,4)" stroke="rgb(8,10,4)" stroke-width="1" opacity="1" d="M 247.5 85 L 248 90.5 L 247 90.5 L 247.5 85 Z " /><path fill="rgb(8,10,4)" stroke="rgb(8,10,4)" stroke-width="1" opacity="1" d="M 83.5 88 L 84 90.5 L 83 90.5 L 83.5 88 Z " /><path fill="rgb(8,10,4)" stroke="rgb(8,10,4)" stroke-width="1" opacity="1" d="M 86.5 88 L 87 90.5 L 86 90.5 L 86.5 88 Z " /><path fill="rgb(8,10,4)" stroke="rgb(8,10,4)" stroke-width="1" opacity="1" d="M 36.5 89 L 37 91.5 L 36 91.5 L 36.5 89 Z " /><path fill="rgb(8,10,4)" stroke="rgb(8,10,4)" stroke-width="1" opacity="1" d="M 110 91 L 116 91 L 116 97 L 110 96.5 L 113 95.5 L 111.5 93 L 110.5 95 L 110 91 Z " /><path fill="rgb(8,10,4)" stroke="rgb(8,10,4)" stroke-width="1" opacity="1" d="M 142 91 L 147.5 91 L 148 92.5 L 148 94.5 Q 149.3 98.7 144.5 97 L 142.5 97 L 133 96.5 L 143 95.5 L 142 91 Z " /><path fill="rgb(8,10,4)" stroke="rgb(8,10,4)" stroke-width="1" opacity="1" d="M 55.5 97 L 59 97.5 L 55.5 98 L 55.5 97 Z " /><path fill="rgb(8,10,4)" stroke="rgb(8,10,4)" stroke-width="1" opacity="1" d="M 109.5 99 L 110 125 L 115.5 125 L 116 125.5 L 116 160.5 L 117 160.5 Q 115.9 157.2 118.5 158 L 120.5 158 Q 125 159 126 156.5 L 127 154.5 L 126 151 Q 129.8 150 131 152.5 L 131 187.5 L 133.5 188 L 136 189 L 136 196 L 142 196 L 142 202 L 135.5 204 L 116 204.5 L 122.5 206 L 135.5 206 L 139.5 208 L 142 203 L 148 203 L 148 210 L 154.5 210 L 156 209.5 Q 155.3 213.3 157.5 214 L 190.5 214 L 191.5 213 L 194.5 214 L 196 211.5 Q 193.8 210.2 196.5 209 L 202 210 L 203 204.5 L 202.5 203 L 209 203 L 209 196 L 215 196 L 215 189 L 221 189 L 221 150.5 L 222.5 151 L 226 151.5 L 226 189 Q 221.4 187.8 220 190.5 Q 222.6 197.8 216.5 196 L 213.5 203 L 210.5 202 L 208 204.5 L 209 207.5 L 207.5 209 L 202 210 L 203 214.5 L 201.5 216 L 154.5 216 L 148 215 L 148 210 L 140.5 210 Q 138.7 207.3 132.5 209 L 129.5 210 L 128.5 209 L 120.5 209 L 118.5 209 L 111.5 210 L 103 208.5 L 104 204 L 90 204.5 L 92 205 Q 94.3 211.4 86.5 209 L 84.5 209 L 72.5 210 L 67.5 209 L 65.5 210 L 62.5 209 L 47 208.5 L 50 206.5 L 50.5 208 L 60.5 208 L 66 207 L 67 204.5 L 42 204 L 43 210.5 L 42 210.5 Q 42.9 207.5 38.5 209 L 36 210 Q 35.4 204.6 30.5 202 L 29 202.5 L 29 210 L 32 210.5 L 28 213.5 L 34 214 L 34.5 210 L 35 215 L 23 214.5 L 27 213.5 L 23 211.5 Q 25.5 210 24 204.5 L 23.5 203 Q 27.7 204.3 26 199.5 L 28.5 195 L 29.5 197 L 31 195.5 L 31 169 L 35 169 L 35 163 L 40.5 163 L 42 166.5 L 42.5 168 L 61 168 L 62 165.5 L 61 163 L 67.5 164 L 68.5 163 L 104 163 L 105 156.5 L 104 153.5 L 105 150.5 L 104 147.5 L 104.5 145 L 106.5 155 L 108 151.5 L 107 148.5 L 108 143.5 L 106.5 137 L 106 144 L 104 143.5 L 104 130.5 L 106.5 132 L 109 133.5 L 109 155.5 L 106.5 156 L 106.5 157 L 110 156.5 L 110 133.5 L 111 131 L 109 130.5 L 110 125.5 L 109 124.5 L 109.5 99 Z M 115 132 L 112 136 L 113 139 L 115 138 L 115 132 Z M 112 150 Q 111 153 114 152 Q 115 149 112 150 Z M 129 152 Q 126 156 130 155 L 129 152 Z M 121 159 L 122 161 Q 123 158 121 159 Z M 128 160 L 127 167 L 129 167 L 129 169 L 130 169 L 130 160 L 129 164 L 128 160 Z M 110 163 L 110 203 L 136 203 L 136 196 L 130 196 L 130 188 L 126 188 L 126 163 L 110 163 Z M 67 165 L 67 168 L 72 168 L 72 167 Q 71 164 67 165 Z M 35 169 L 35 180 L 34 177 L 32 186 L 34 193 L 35 189 L 36 203 L 67 203 Q 68 203 67 198 L 67 192 L 67 169 L 35 169 Z M 73 169 L 73 190 L 72 191 L 73 196 L 73 203 L 74 203 L 104 203 L 104 169 L 73 169 Z M 111 204 L 112 208 L 113 206 Q 114 203 111 204 Z " /><path fill="rgb(8,10,4)" stroke="rgb(8,10,4)" stroke-width="1" opacity="1" d="M 13.5 101 L 14 111.5 L 13 111.5 L 13.5 101 Z " /><path fill="rgb(8,10,4)" stroke="rgb(8,10,4)" stroke-width="1" opacity="1" d="M 210.5 103 L 215 103.5 L 210.5 104 L 210.5 103 Z " /><path fill="rgb(8,10,4)" stroke="rgb(8,10,4)" stroke-width="1" opacity="1" d="M 65.5 104 L 68 105.5 L 66.5 105 L 65.5 104 Z " /><path fill="rgb(8,10,4)" stroke="rgb(8,10,4)" stroke-width="1" opacity="1" d="M 51.5 105 Q 54.3 106.4 53 111 Q 56 110 55 113 L 52.5 112 L 51 112.5 L 52 109 L 49 107.5 L 51 107 L 51.5 105 Z " /><path fill="rgb(8,10,4)" stroke="rgb(8,10,4)" stroke-width="1" opacity="1" d="M 209.5 105 L 210 110.5 L 209 110.5 L 209.5 105 Z " /><path fill="rgb(8,10,4)" stroke="rgb(8,10,4)" stroke-width="1" opacity="1" d="M 215.5 107 L 216 110 L 221 110.5 L 215 111 L 215.5 107 Z " /><path fill="rgb(8,10,4)" stroke="rgb(8,10,4)" stroke-width="1" opacity="1" d="M 59 110 L 61 110.5 L 59.5 117 L 59 110 Z " /><path fill="rgb(8,10,4)" stroke="rgb(8,10,4)" stroke-width="1" opacity="1" d="M 181.5 111 Q 184.1 110.2 183 113.5 L 182 113.5 L 181.5 111 Z " /><path fill="rgb(8,10,4)" stroke="rgb(8,10,4)" stroke-width="1" opacity="1" d="M 178.5 112 L 179 115.5 L 178 115.5 L 178.5 112 Z " /><path fill="rgb(8,10,4)" stroke="rgb(8,10,4)" stroke-width="1" opacity="1" d="M 204.5 112 L 205 116.5 L 204 116.5 L 204.5 112 Z " /><path fill="rgb(8,10,4)" stroke="rgb(8,10,4)" stroke-width="1" opacity="1" d="M 53.5 114 Q 58.3 112.3 57 116.5 L 54.5 115 L 53.5 114 Z " /><path fill="rgb(8,10,4)" stroke="rgb(8,10,4)" stroke-width="1" opacity="1" d="M 206.5 117 L 210 117.5 L 206.5 118 L 206.5 117 Z " /><path fill="rgb(8,10,4)" stroke="rgb(8,10,4)" stroke-width="1" opacity="1" d="M 13.5 118 L 14 120.5 L 13 120.5 L 13.5 118 Z " /><path fill="rgb(8,10,4)" stroke="rgb(8,10,4)" stroke-width="1" opacity="1" d="M 179.5 118 L 184 118.5 L 179.5 119 L 179.5 118 Z " /><path fill="rgb(8,10,4)" stroke="rgb(8,10,4)" stroke-width="1" opacity="1" d="M 185.5 118 Q 190.3 116.3 189 120.5 L 186.5 119 L 185.5 118 Z " /><path fill="rgb(8,10,4)" stroke="rgb(8,10,4)" stroke-width="1" opacity="1" d="M 45.5 123 L 49 124.5 Q 47.3 129.3 51.5 128 L 51.5 129 L 48 129 L 48 124 L 45.5 124 Q 43 125.2 44 129 L 39 127.5 L 41.5 127 L 43 127.5 Q 42.5 123.5 45.5 123 Z " /><path fill="rgb(8,10,4)" stroke="rgb(8,10,4)" stroke-width="1" opacity="1" d="M 118.5 125 L 123 125.5 L 118.5 126 L 118.5 125 Z " /><path fill="rgb(8,10,4)" stroke="rgb(8,10,4)" stroke-width="1" opacity="1" d="M 136 125 L 138 125.5 L 137 132.5 L 136.5 136 L 136 125 Z " /><path fill="rgb(8,10,4)" stroke="rgb(8,10,4)" stroke-width="1" opacity="1" d="M 139.5 125 Q 142.5 124.5 141 131.5 L 140 131.5 L 139 127.5 L 139.5 125 Z " /><path fill="rgb(8,10,4)" stroke="rgb(8,10,4)" stroke-width="1" opacity="1" d="M 13.5 128 L 14 139.5 L 13 139.5 L 13.5 128 Z " /><path fill="rgb(8,10,4)" stroke="rgb(8,10,4)" stroke-width="1" opacity="1" d="M 71.5 131 L 72 161.5 L 71 161.5 L 71.5 131 Z " /><path fill="rgb(8,10,4)" stroke="rgb(8,10,4)" stroke-width="1" opacity="1" d="M 205.5 131 Q 209.7 129.7 208 134.5 L 209 137 L 215 137 L 215 139.5 L 214 144 L 209 144 L 209 137 L 203 137 L 203 132 L 205.5 131 Z " /><path fill="rgb(8,10,4)" stroke="rgb(8,10,4)" stroke-width="1" opacity="1" d="M 66.5 133 L 67 136.5 L 66 136.5 L 66.5 133 Z " /><path fill="rgb(8,10,4)" stroke="rgb(8,10,4)" stroke-width="1" opacity="1" d="M 129 138 Q 136.1 135.6 134 142 Q 126.9 144.4 129 138 Z " /><path fill="rgb(8,10,4)" stroke="rgb(8,10,4)" stroke-width="1" opacity="1" d="M 136 138 L 142 138.5 L 137 139 L 138.5 143 L 140 143.5 L 136 144 L 136 150 L 130 150 L 130 144 L 136 144 L 136 138 Z " /><path fill="rgb(8,10,4)" stroke="rgb(8,10,4)" stroke-width="1" opacity="1" d="M 159.5 138 L 164 138.5 L 159.5 139 L 159.5 138 Z " /><path fill="rgb(8,10,4)" stroke="rgb(8,10,4)" stroke-width="1" opacity="1" d="M 175.5 138 L 186 138.5 L 175.5 139 L 175.5 138 Z " /><path fill="rgb(8,10,4)" stroke="rgb(8,10,4)" stroke-width="1" opacity="1" d="M 187.5 138 L 190 138.5 L 187.5 139 L 187.5 138 Z " /><path fill="rgb(8,10,4)" stroke="rgb(8,10,4)" stroke-width="1" opacity="1" d="M 123 144 L 129 144 L 129 147.5 L 126 148.5 L 124.5 151 L 123 150.5 L 123 144 Z " /><path fill="rgb(8,10,4)" stroke="rgb(8,10,4)" stroke-width="1" opacity="1" d="M 200.5 144 L 202 144.5 L 202 150 L 200 149.5 L 201 145.5 L 200.5 144 Z " /><path fill="rgb(8,10,4)" stroke="rgb(8,10,4)" stroke-width="1" opacity="1" d="M 215 144 L 220 144 L 220 150 L 215.5 151 L 215 144 Z " /><path fill="rgb(8,10,4)" stroke="rgb(8,10,4)" stroke-width="1" opacity="1" d="M 13.5 147 L 14 154.5 L 13 154.5 L 13.5 147 Z " /><path fill="rgb(8,10,4)" stroke="rgb(8,10,4)" stroke-width="1" opacity="1" d="M 67.5 147 L 68 150.5 L 67 150.5 L 67.5 147 Z " /><path fill="rgb(8,10,4)" stroke="rgb(8,10,4)" stroke-width="1" opacity="1" d="M 98 151 L 100.5 152 L 103 151 Q 105.5 158.5 98 156 L 98 151 Z " /><path fill="rgb(8,10,4)" stroke="rgb(8,10,4)" stroke-width="1" opacity="1" d="M 147.5 151 L 148 159.5 L 147 159.5 L 147.5 151 Z " /><path fill="rgb(8,10,4)" stroke="rgb(8,10,4)" stroke-width="1" opacity="1" d="M 155 151 L 158 151 L 158 156 L 154 155.5 L 155 151 Z " /><path fill="rgb(8,10,4)" stroke="rgb(8,10,4)" stroke-width="1" opacity="1" d="M 173 151 L 178 151 L 178 162.5 L 177 162.5 L 176.5 158 L 175.5 161 L 174.5 158 L 173.5 163 L 173 151 Z M 174 152 L 174 156 L 176 155 L 176 157 L 177 157 Q 179 150 174 152 Z " /><path fill="rgb(8,10,4)" stroke="rgb(8,10,4)" stroke-width="1" opacity="1" d="M 202 151 L 205 151.5 L 203 152 L 202.5 156 L 202 151 Z " /><path fill="rgb(8,10,4)" stroke="rgb(8,10,4)" stroke-width="1" opacity="1" d="M 143.5 153 L 144 155.5 L 143 155.5 L 143.5 153 Z " /><path fill="rgb(8,10,4)" stroke="rgb(8,10,4)" stroke-width="1" opacity="1" d="M 207.5 155 L 208 189 L 203 188.5 L 207 188 L 207 175 L 202 175 L 202 172.5 L 203 169.5 L 203.5 163 Q 202.6 168.4 205.5 170 L 207 169.5 L 207.5 155 Z " /><path fill="rgb(8,10,4)" stroke="rgb(8,10,4)" stroke-width="1" opacity="1" d="M 159.5 157 L 160 162.5 L 159 162.5 L 159.5 157 Z " /><path fill="rgb(8,10,4)" stroke="rgb(8,10,4)" stroke-width="1" opacity="1" d="M 187 157 L 195 157 L 195 169 L 187 169 L 187 157 Z M 192 158 Q 193 161 190 160 L 190 164 L 188 164 L 188 168 L 194 168 L 194 159 L 192 158 Z " /><path fill="rgb(8,10,4)" stroke="rgb(8,10,4)" stroke-width="1" opacity="1" d="M 98 158 Q 101.7 156.8 100 162 Q 96.3 163.2 98 158 Z " /><path fill="rgb(8,10,4)" stroke="rgb(8,10,4)" stroke-width="1" opacity="1" d="M 51.5 163 Q 57 161.5 58.5 164 L 60 163.5 L 59.5 165 L 45.5 165 L 45.5 164 Q 50.2 165.3 51.5 163 Z " /><path fill="rgb(8,10,4)" stroke="rgb(8,10,4)" stroke-width="1" opacity="1" d="M 143.5 165 L 144 173.5 L 143 173.5 L 143.5 165 Z " /><path fill="rgb(8,10,4)" stroke="rgb(8,10,4)" stroke-width="1" opacity="1" d="M 13.5 166 L 14 171.5 L 13 171.5 L 13.5 166 Z " /><path fill="rgb(8,10,4)" stroke="rgb(8,10,4)" stroke-width="1" opacity="1" d="M 153.5 167 Q 157.3 165.8 156 169.5 L 155 169.5 Q 155.8 167.3 153.5 168 L 153.5 167 Z " /><path fill="rgb(8,10,4)" stroke="rgb(8,10,4)" stroke-width="1" opacity="1" d="M 166 167 L 168 167.5 L 166.5 170 L 166 167 Z " /><path fill="rgb(8,10,4)" stroke="rgb(8,10,4)" stroke-width="1" opacity="1" d="M 169.5 174 L 176.5 176 L 178 175.5 L 177.5 185 L 174 184 L 174 189 L 175.5 189 Q 177 186.5 178.5 190 L 187 190 L 187 176.5 L 189.5 176 L 190 178.5 L 190 188.5 L 188.5 189 L 187 191.5 L 188 195 L 185 194.5 L 185.5 191 L 177.5 191 Q 176.4 193.8 173 193 Q 174.1 189.5 166.5 191 L 166.5 190 L 173 190 L 173 176.5 L 169.5 175 L 169.5 174 Z " /><path fill="rgb(8,10,4)" stroke="rgb(8,10,4)" stroke-width="1" opacity="1" d="M 147.5 176 L 148 189 L 143 189 L 143 177.5 L 144 177.5 L 144.5 182 L 146 181.5 L 146.5 183 L 147.5 176 Z " /><path fill="rgb(8,10,4)" stroke="rgb(8,10,4)" stroke-width="1" opacity="1" d="M 197.5 176 L 202 176.5 L 197.5 177 L 197.5 176 Z " /><path fill="rgb(8,10,4)" stroke="rgb(8,10,4)" stroke-width="1" opacity="1" d="M 159.5 177 L 160 181 L 162 181.5 L 159 183.5 L 159 189 L 156.5 189 L 155 189.5 L 155 183 L 159 183 L 159.5 177 Z " /><path fill="rgb(8,10,4)" stroke="rgb(8,10,4)" stroke-width="1" opacity="1" d="M 195.5 180 L 196 182 L 192 181.5 L 195.5 180 Z " /><path fill="rgb(8,10,4)" stroke="rgb(8,10,4)" stroke-width="1" opacity="1" d="M 164.5 181 L 165 185.5 L 164 185.5 L 164.5 181 Z " /><path fill="rgb(8,10,4)" stroke="rgb(8,10,4)" stroke-width="1" opacity="1" d="M 13.5 186 L 14 191.5 L 13 191.5 L 13.5 186 Z " /><path fill="rgb(8,10,4)" stroke="rgb(8,10,4)" stroke-width="1" opacity="1" d="M 201.5 189 L 202 194.5 L 201 194.5 L 201.5 189 Z " /><path fill="rgb(8,10,4)" stroke="rgb(8,10,4)" stroke-width="1" opacity="1" d="M 149 190 L 154 190.5 L 150 191 L 149.5 194 L 149 190 Z " /><path fill="rgb(8,10,4)" stroke="rgb(8,10,4)" stroke-width="1" opacity="1" d="M 149.5 195 L 152 195.5 L 149.5 196 L 149.5 195 Z " /><path fill="rgb(8,10,4)" stroke="rgb(8,10,4)" stroke-width="1" opacity="1" d="M 195.5 195 L 198 195.5 L 195.5 196 L 195.5 195 Z " /><path fill="rgb(8,10,4)" stroke="rgb(8,10,4)" stroke-width="1" opacity="1" d="M 192.5 196 L 193 202 L 159 201.5 L 192 201 L 192.5 196 Z " /><path fill="rgb(8,10,4)" stroke="rgb(8,10,4)" stroke-width="1" opacity="1" d="M 233.5 196 L 234 202.5 L 235.5 204 L 237 204.5 L 237 215 L 225 214.5 L 236 214 Q 237.1 211.3 234.5 212 Q 230 210 232 201.5 L 233.5 196 Z " /><path fill="rgb(8,10,4)" stroke="rgb(8,10,4)" stroke-width="1" opacity="1" d="M 13.5 203 L 14 213.5 L 13 213.5 L 13.5 203 Z " /><path fill="rgb(8,10,4)" stroke="rgb(8,10,4)" stroke-width="1" opacity="1" d="M 97.5 208 L 102 208.5 L 97.5 209 L 97.5 208 Z " /><path fill="rgb(8,10,4)" stroke="rgb(8,10,4)" stroke-width="1" opacity="1" d="M 167.5 210 L 176 210.5 L 167.5 211 L 167.5 210 Z " /><path fill="rgb(8,10,4)" stroke="rgb(8,10,4)" stroke-width="1" opacity="1" d="M 62.5 213 L 63.5 215 L 61 214.5 L 62.5 213 Z " /><path fill="rgb(8,10,4)" stroke="rgb(8,10,4)" stroke-width="1" opacity="1" d="M 219 215 L 222.5 216 L 224 215.5 L 224 227 L 215 227 L 215 224 L 207.5 224 L 205 225 L 204.5 227 L 55 227 L 55 224 L 48 224 L 47.5 227 L 37.5 227 L 36 227.5 L 36 216 L 42 216 L 42.5 224 L 45.5 222 L 47.5 222 L 49.5 221 L 50.5 222 L 217.5 222 Q 220.5 220.4 219 215 Z M 37 217 L 38 226 L 39 218 L 37 217 Z M 63 225 L 63 226 L 73 226 L 63 225 Z M 108 225 L 108 226 L 135 226 L 108 225 Z M 163 225 L 163 226 L 182 226 L 163 225 Z " /><path fill="rgb(8,10,4)" stroke="rgb(8,10,4)" stroke-width="1" opacity="1" d="M 246.5 223 L 246 224.5 L 247 226.5 L 245 227 L 246.5 223 Z " /><path fill="rgb(8,10,4)" stroke="rgb(8,10,4)" stroke-width="1" opacity="1" d="M 17 228 L 23 228 L 23 235 L 19.5 234 L 17 235 L 17 228 Z " /><path fill="rgb(8,10,4)" stroke="rgb(8,10,4)" stroke-width="1" opacity="1" d="M 238 228 L 244 228 L 244 235 L 238 235 L 238 228 Z M 240 229 Q 239 232 243 231 Q 244 228 240 229 Z " /><path fill="rgb(8,10,4)" stroke="rgb(8,10,4)" stroke-width="1" opacity="1" d="M 31.5 236 L 43 236.5 L 39 237.5 L 41 238.5 L 34.5 239 L 34.5 237 Q 30.5 237.8 31.5 236 Z " /><path fill="rgb(8,10,4)" stroke="rgb(8,10,4)" stroke-width="1" opacity="1" d="M 59.5 236 L 85 236.5 L 59.5 237 L 59.5 236 Z " /><path fill="rgb(8,10,4)" stroke="rgb(8,10,4)" stroke-width="1" opacity="1" d="M 90.5 236 L 129 236.5 L 90.5 237 L 90.5 236 Z " /><path fill="rgb(8,10,4)" stroke="rgb(8,10,4)" stroke-width="1" opacity="1" d="M 137.5 236 L 148 236.5 L 137.5 237 L 137.5 236 Z " /><path fill="rgb(8,10,4)" stroke="rgb(8,10,4)" stroke-width="1" opacity="1" d="M 149.5 236 L 180 236.5 L 149.5 237 L 149.5 236 Z " /><path fill="rgb(8,10,4)" stroke="rgb(8,10,4)" stroke-width="1" opacity="1" d="M 183.5 236 L 189 236.5 L 183.5 237 L 183.5 236 Z " /><path fill="rgb(8,10,4)" stroke="rgb(8,10,4)" stroke-width="1" opacity="1" d="M 199.5 236 L 207 236.5 L 199.5 237 L 199.5 236 Z " /><path fill="rgb(8,10,4)" stroke="rgb(8,10,4)" stroke-width="1" opacity="1" d="M 217.5 236 L 226 236.5 L 217.5 237 L 217.5 236 Z " /><path fill="rgb(8,10,4)" stroke="rgb(8,10,4)" stroke-width="1" opacity="1" d="M 236.5 236 L 237 241 L 23 240.5 L 98 240 Q 96.7 236.3 102.5 238 L 102.5 239 L 101 239.5 L 236 240 L 236.5 236 Z " /><path fill="rgb(8,10,4)" stroke="rgb(8,10,4)" stroke-width="1" opacity="1" d="M 215.5 238 L 223 238.5 L 215.5 239 L 215.5 238 Z " /></svg>