<svg width="269" height="249" version="1.1" xmlns="http://www.w3.org/2000/svg" desc="Created with imagetracer.js version 1.2.6" ><path fill="rgb(91,76,42)" stroke="rgb(91,76,42)" stroke-width="1" opacity="1" d="M 28.5 5 L 239 5.5 L 28.5 6 L 27.5 7 L 28.5 5 Z " /><path fill="rgb(91,76,42)" stroke="rgb(91,76,42)" stroke-width="1" opacity="1" d="M 27.5 8 L 28 11 L 238 11.5 L 28 12 L 27.5 16 L 27 12.5 L 27 10.5 L 27.5 8 Z " /><path fill="rgb(91,76,42)" stroke="rgb(91,76,42)" stroke-width="1" opacity="1" d="M 21.5 12 L 22 18.5 L 21 18.5 L 21.5 12 Z " /><path fill="rgb(91,76,42)" stroke="rgb(91,76,42)" stroke-width="1" opacity="1" d="M 39.5 19 L 40 31 L 44 31.5 L 43.5 33 Q 46.5 32.1 45 36.5 L 44 36.5 L 43.5 35 L 39.5 37 L 38 31.5 L 39 30.5 L 39.5 19 Z " /><path fill="rgb(91,76,42)" stroke="rgb(91,76,42)" stroke-width="1" opacity="1" d="M 52.5 19 L 53 21 L 59 21.5 L 52 22 L 52.5 19 Z " /><path fill="rgb(91,76,42)" stroke="rgb(91,76,42)" stroke-width="1" opacity="1" d="M 227.5 19 L 228 32 Q 224.7 30.7 226 35.5 L 226.5 37 Q 222.8 37.8 222 35.5 L 223 31 L 227 31 L 227.5 19 Z " /><path fill="rgb(91,76,42)" stroke="rgb(91,76,42)" stroke-width="1" opacity="1" d="M 247.5 19 L 248 132.5 L 247 132.5 L 247.5 19 Z " /><path fill="rgb(91,76,42)" stroke="rgb(91,76,42)" stroke-width="1" opacity="1" d="M 253.5 19 L 254 227.5 L 253 227.5 L 253.5 19 Z " /><path fill="rgb(91,76,42)" stroke="rgb(91,76,42)" stroke-width="1" opacity="1" d="M 210.5 21 L 215 21.5 L 210.5 22 L 210.5 21 Z " /><path fill="rgb(91,76,42)" stroke="rgb(91,76,42)" stroke-width="1" opacity="1" d="M 28.5 31 L 32 31.5 L 28.5 32 L 28.5 31 Z " /><path fill="rgb(91,76,42)" stroke="rgb(91,76,42)" stroke-width="1" opacity="1" d="M 125.5 43 L 126 75.5 L 125 75.5 L 125.5 43 Z " /><path fill="rgb(91,76,42)" stroke="rgb(91,76,42)" stroke-width="1" opacity="1" d="M 30 46 Q 32.7 44.9 32 47.5 L 31 49.5 L 32 56 Q 28.3 57.5 29 54.5 L 28 51.5 Q 31 50.3 30 46 Z " /><path fill="rgb(91,76,42)" stroke="rgb(91,76,42)" stroke-width="1" opacity="1" d="M 90.5 49 L 102 49.5 L 90.5 50 L 90.5 49 Z " /><path fill="rgb(91,76,42)" stroke="rgb(91,76,42)" stroke-width="1" opacity="1" d="M 237.5 50 L 240 51.5 L 239 54.5 L 239.5 56 Q 234.9 57.2 237 52 L 239 51.5 L 237.5 50 Z " /><path fill="rgb(91,76,42)" stroke="rgb(91,76,42)" stroke-width="1" opacity="1" d="M 81.5 61 L 80.5 63 Q 72.7 60.3 75 67.5 L 74 67.5 Q 73 63 75.5 62 Q 80.3 63.3 81.5 61 Z " /><path fill="rgb(91,76,42)" stroke="rgb(91,76,42)" stroke-width="1" opacity="1" d="M 69.5 69 L 74 69.5 L 69.5 70 L 69.5 69 Z " /><path fill="rgb(91,76,42)" stroke="rgb(91,76,42)" stroke-width="1" opacity="1" d="M 119.5 71 L 120 73.5 L 119 73.5 L 119.5 71 Z " /><path fill="rgb(91,76,42)" stroke="rgb(91,76,42)" stroke-width="1" opacity="1" d="M 68.5 76 L 69 84 L 63 83.5 L 68 83 L 68.5 76 Z " /><path fill="rgb(91,76,42)" stroke="rgb(91,76,42)" stroke-width="1" opacity="1" d="M 74.5 81 L 75 89.5 L 74 89.5 L 74.5 81 Z " /><path fill="rgb(91,76,42)" stroke="rgb(91,76,42)" stroke-width="1" opacity="1" d="M 92.5 97 L 93 114.5 L 92 114.5 L 91 98.5 L 92.5 97 Z " /><path fill="rgb(91,76,42)" stroke="rgb(91,76,42)" stroke-width="1" opacity="1" d="M 101.5 97 L 102 99.5 L 101 99.5 L 101.5 97 Z " /><path fill="rgb(91,76,42)" stroke="rgb(91,76,42)" stroke-width="1" opacity="1" d="M 65.5 127 L 69 127.5 L 65.5 128 L 65.5 127 Z " /><path fill="rgb(91,76,42)" stroke="rgb(91,76,42)" stroke-width="1" opacity="1" d="M 83.5 129 L 82.5 131 L 83.5 129 Z " /><path fill="rgb(91,76,42)" stroke="rgb(91,76,42)" stroke-width="1" opacity="1" d="M 95.5 129 L 96 134 L 106 134.5 L 101 135 L 102 149.5 L 101 150.5 L 100.5 163 L 97.5 162 Q 94.5 162.9 96 158.5 L 95 157.5 L 94.5 135 L 93 135.5 Q 91.8 129.4 94.5 130 L 95.5 129 Z M 97 135 L 97 136 L 100 136 L 97 135 Z M 101 142 L 100 149 L 101 149 L 101 142 Z " /><path fill="rgb(91,76,42)" stroke="rgb(91,76,42)" stroke-width="1" opacity="1" d="M 168.5 129 L 202 129 L 202 156.5 Q 202.1 157.6 207.5 157 L 207 158.5 L 206 164 L 202 164 L 202 157.5 L 201 156.5 L 200.5 135 L 196 135.5 L 196 157.5 L 198.5 158 L 200 162 Q 194.8 164.1 196 159.5 L 195 159.5 L 195 164 L 183 164 Q 181.8 159.4 184.5 158 L 195 157 L 195 135.5 L 194.5 135 L 189 135 L 189 131 L 194 131 L 194 133.5 L 195 133.5 L 194.5 130 L 168.5 130 L 168.5 129 Z M 186 160 L 185 162 L 185 163 Q 190 165 189 161 L 187 162 L 186 160 Z " /><path fill="rgb(91,76,42)" stroke="rgb(91,76,42)" stroke-width="1" opacity="1" d="M 62.5 131 L 63 157 L 72.5 157 L 74.5 159 L 84.5 157 L 89.5 158 L 94 157 L 92.5 163 L 90.5 162 L 87.5 164 L 84.5 163 L 74.5 163 L 74 161.5 L 72.5 159 L 72 162 L 70 162 Q 71.5 158.3 68.5 159 L 63 158 L 62.5 164 L 62.5 131 Z " /><path fill="rgb(91,76,42)" stroke="rgb(91,76,42)" stroke-width="1" opacity="1" d="M 163.5 131 L 164 138.5 L 163 138.5 L 163.5 131 Z " /><path fill="rgb(91,76,42)" stroke="rgb(91,76,42)" stroke-width="1" opacity="1" d="M 247.5 134 L 248 226.5 L 247 226.5 L 247.5 134 Z " /><path fill="rgb(91,76,42)" stroke="rgb(91,76,42)" stroke-width="1" opacity="1" d="M 103.5 136 L 106 136.5 L 105 143 Q 101.3 144.3 103 138.5 L 103.5 136 Z " /><path fill="rgb(91,76,42)" stroke="rgb(91,76,42)" stroke-width="1" opacity="1" d="M 203 137 Q 206.7 135.5 206 138.5 L 205.5 141 L 203 140.5 L 203 137 Z " /><path fill="rgb(91,76,42)" stroke="rgb(91,76,42)" stroke-width="1" opacity="1" d="M 163.5 140 L 164 142.5 L 163 142.5 L 163.5 140 Z " /><path fill="rgb(91,76,42)" stroke="rgb(91,76,42)" stroke-width="1" opacity="1" d="M 93.5 145 L 94 154.5 L 93 154.5 L 93.5 145 Z " /><path fill="rgb(91,76,42)" stroke="rgb(91,76,42)" stroke-width="1" opacity="1" d="M 27.5 155 L 28 160.5 L 27 160.5 L 27.5 155 Z " /><path fill="rgb(91,76,42)" stroke="rgb(91,76,42)" stroke-width="1" opacity="1" d="M 163.5 157 L 164 163.5 L 163 163.5 L 163.5 157 Z " /><path fill="rgb(91,76,42)" stroke="rgb(91,76,42)" stroke-width="1" opacity="1" d="M 169.5 157 L 181.5 157 L 182 158.5 L 180.5 158 Q 177.2 156.9 178 159.5 L 179 162 L 176 162.5 L 180 163.5 L 169.5 164 L 170 162.5 L 169.5 157 Z " /><path fill="rgb(91,76,42)" stroke="rgb(91,76,42)" stroke-width="1" opacity="1" d="M 65.5 159 L 66 161.5 L 65 161.5 L 65.5 159 Z " /><path fill="rgb(91,76,42)" stroke="rgb(91,76,42)" stroke-width="1" opacity="1" d="M 239.5 160 L 240 169.5 L 239 169.5 L 239.5 160 Z " /><path fill="rgb(91,76,42)" stroke="rgb(91,76,42)" stroke-width="1" opacity="1" d="M 27.5 162 L 28 174.5 L 27 174.5 L 27.5 162 Z " /><path fill="rgb(91,76,42)" stroke="rgb(91,76,42)" stroke-width="1" opacity="1" d="M 69.5 176 L 76 176.5 L 69.5 177 L 69.5 176 Z " /><path fill="rgb(91,76,42)" stroke="rgb(91,76,42)" stroke-width="1" opacity="1" d="M 83.5 176 Q 88.8 174.8 90 177.5 L 89.5 190 L 89 177 L 83.5 177 L 83.5 176 Z " /><path fill="rgb(91,76,42)" stroke="rgb(91,76,42)" stroke-width="1" opacity="1" d="M 164.5 176 Q 169 175 170 177.5 L 168.5 177 Q 163.5 178 164.5 176 Z " /><path fill="rgb(91,76,42)" stroke="rgb(91,76,42)" stroke-width="1" opacity="1" d="M 181.5 176 Q 189.3 173.3 187 180.5 L 186 180.5 Q 187.8 174.8 181.5 177 L 181.5 176 Z " /><path fill="rgb(91,76,42)" stroke="rgb(91,76,42)" stroke-width="1" opacity="1" d="M 196.5 176 L 201 176.5 L 196.5 177 L 196.5 176 Z " /><path fill="rgb(91,76,42)" stroke="rgb(91,76,42)" stroke-width="1" opacity="1" d="M 65.5 177 L 68 177 L 68 183 L 64 182.5 L 64 180.5 L 65.5 177 Z " /><path fill="rgb(91,76,42)" stroke="rgb(91,76,42)" stroke-width="1" opacity="1" d="M 96 177 L 100 178.5 Q 102.1 184.3 97.5 183 Q 94.8 181.6 96 177 Z " /><path fill="rgb(91,76,42)" stroke="rgb(91,76,42)" stroke-width="1" opacity="1" d="M 157.5 178 L 158 180.5 L 157 180.5 L 157.5 178 Z " /><path fill="rgb(91,76,42)" stroke="rgb(91,76,42)" stroke-width="1" opacity="1" d="M 181.5 178 L 182 182.5 L 181 182.5 L 181.5 178 Z " /><path fill="rgb(91,76,42)" stroke="rgb(91,76,42)" stroke-width="1" opacity="1" d="M 201.5 179 L 202 181.5 L 201 181.5 L 201.5 179 Z " /><path fill="rgb(91,76,42)" stroke="rgb(91,76,42)" stroke-width="1" opacity="1" d="M 177.5 182 L 180 182.5 L 177 183 L 176.5 197 L 176 183.5 L 177.5 182 Z " /><path fill="rgb(91,76,42)" stroke="rgb(91,76,42)" stroke-width="1" opacity="1" d="M 82.5 183 L 83 196.5 L 82 196.5 L 82.5 183 Z " /><path fill="rgb(91,76,42)" stroke="rgb(91,76,42)" stroke-width="1" opacity="1" d="M 101.5 183 L 102 190 L 108 190 L 108 202.5 L 107 202.5 L 107 196 Q 99.9 198.4 102 192 L 104 191.5 L 101 189.5 L 101.5 183 Z " /><path fill="rgb(91,76,42)" stroke="rgb(91,76,42)" stroke-width="1" opacity="1" d="M 154.5 183 L 155 190.5 L 154 190.5 L 154.5 183 Z " /><path fill="rgb(91,76,42)" stroke="rgb(91,76,42)" stroke-width="1" opacity="1" d="M 207.5 183 L 208 197 L 205 196.5 L 207 196 L 207.5 183 Z " /><path fill="rgb(91,76,42)" stroke="rgb(91,76,42)" stroke-width="1" opacity="1" d="M 75.5 184 L 76 189.5 L 75 189.5 L 75.5 184 Z " /><path fill="rgb(91,76,42)" stroke="rgb(91,76,42)" stroke-width="1" opacity="1" d="M 77 190 L 81 190 L 81 191.5 L 80 196 L 77 196 L 77 190 Z " /><path fill="rgb(91,76,42)" stroke="rgb(91,76,42)" stroke-width="1" opacity="1" d="M 196 190 L 201 190 L 201 191.5 L 203 201.5 L 201 202 L 200.5 192 L 200 195 Q 195.9 193.3 197 197.5 L 196 197.5 L 195 192.5 L 196 190 Z " /><path fill="rgb(91,76,42)" stroke="rgb(91,76,42)" stroke-width="1" opacity="1" d="M 238.5 190 L 238 191.5 L 237.5 196 L 237 191.5 L 238.5 190 Z " /><path fill="rgb(91,76,42)" stroke="rgb(91,76,42)" stroke-width="1" opacity="1" d="M 70.5 191 L 71 194.5 L 70 194.5 L 70.5 191 Z " /><path fill="rgb(91,76,42)" stroke="rgb(91,76,42)" stroke-width="1" opacity="1" d="M 64.5 196 L 67 196.5 L 64.5 197 L 64.5 196 Z " /><path fill="rgb(91,76,42)" stroke="rgb(91,76,42)" stroke-width="1" opacity="1" d="M 70.5 196 L 71 200.5 L 70 200.5 L 70.5 196 Z " /><path fill="rgb(91,76,42)" stroke="rgb(91,76,42)" stroke-width="1" opacity="1" d="M 90.5 196 L 95 196 L 95 202 L 91 201.5 L 92 199.5 L 91.5 198 L 94 197.5 Q 89.6 197.9 90.5 196 Z " /><path fill="rgb(91,76,42)" stroke="rgb(91,76,42)" stroke-width="1" opacity="1" d="M 113.5 196 L 114 202.5 L 113 204.5 L 114 208.5 L 113 208.5 L 112.5 205 L 111.5 207 L 111 205.5 Q 114.2 202.7 113.5 196 Z " /><path fill="rgb(91,76,42)" stroke="rgb(91,76,42)" stroke-width="1" opacity="1" d="M 155.5 196 L 157 197.5 L 157 208.5 L 156 208.5 L 156 197.5 L 155.5 196 Z " /><path fill="rgb(91,76,42)" stroke="rgb(91,76,42)" stroke-width="1" opacity="1" d="M 180.5 196 L 182 197.5 Q 180.6 206.4 183 211.5 L 182 211.5 Q 179.6 206.4 181 197.5 L 180.5 196 Z " /><path fill="rgb(91,76,42)" stroke="rgb(91,76,42)" stroke-width="1" opacity="1" d="M 82.5 198 L 83 202.5 L 82 202.5 L 82.5 198 Z " /><path fill="rgb(91,76,42)" stroke="rgb(91,76,42)" stroke-width="1" opacity="1" d="M 176 198 Q 182.4 195.9 180 203 L 176 201.5 L 176 198 Z " /><path fill="rgb(91,76,42)" stroke="rgb(91,76,42)" stroke-width="1" opacity="1" d="M 30.5 201 L 29.5 203 L 30.5 201 Z " /><path fill="rgb(91,76,42)" stroke="rgb(91,76,42)" stroke-width="1" opacity="1" d="M 70.5 202 L 74 207.5 L 71 208 L 72 204.5 L 70.5 202 Z " /><path fill="rgb(91,76,42)" stroke="rgb(91,76,42)" stroke-width="1" opacity="1" d="M 185.5 203 L 186 205.5 L 185 205.5 L 185.5 203 Z " /><path fill="rgb(91,76,42)" stroke="rgb(91,76,42)" stroke-width="1" opacity="1" d="M 87.5 204 Q 90.1 203.2 89 206.5 L 88 206.5 L 87.5 204 Z " /><path fill="rgb(91,76,42)" stroke="rgb(91,76,42)" stroke-width="1" opacity="1" d="M 90.5 205 L 91 207.5 L 90 207.5 L 90.5 205 Z " /><path fill="rgb(91,76,42)" stroke="rgb(91,76,42)" stroke-width="1" opacity="1" d="M 195.5 205 L 196 208.5 L 195 208.5 L 195.5 205 Z " /><path fill="rgb(91,76,42)" stroke="rgb(91,76,42)" stroke-width="1" opacity="1" d="M 88.5 208 L 91 209 L 90.5 211 L 88.5 208 Z " /><path fill="rgb(91,76,42)" stroke="rgb(91,76,42)" stroke-width="1" opacity="1" d="M 84.5 209 L 87 209.5 L 86 212.5 L 86.5 214 L 84.5 215 L 84.5 209 Z " /><path fill="rgb(91,76,42)" stroke="rgb(91,76,42)" stroke-width="1" opacity="1" d="M 222.5 209 L 227 209 L 227 214 L 221 213.5 L 221 211.5 L 222.5 209 Z " /><path fill="rgb(91,76,42)" stroke="rgb(91,76,42)" stroke-width="1" opacity="1" d="M 40.5 210 Q 47.3 208 45 214 L 41 215 L 39 211.5 L 40.5 210 Z " /><path fill="rgb(91,76,42)" stroke="rgb(91,76,42)" stroke-width="1" opacity="1" d="M 39.5 215 L 40 226.5 L 39 226.5 L 39.5 215 Z " /><path fill="rgb(91,76,42)" stroke="rgb(91,76,42)" stroke-width="1" opacity="1" d="M 227.5 215 L 228 227.5 L 227 227.5 L 227.5 215 Z " /><path fill="rgb(91,76,42)" stroke="rgb(91,76,42)" stroke-width="1" opacity="1" d="M 58.5 224 L 59 227.5 L 58 227.5 L 58.5 224 Z " /><path fill="rgb(91,76,42)" stroke="rgb(91,76,42)" stroke-width="1" opacity="1" d="M 209.5 224 L 209 225.5 L 208.5 228 L 208 225.5 L 209.5 224 Z " /><path fill="rgb(91,76,42)" stroke="rgb(91,76,42)" stroke-width="1" opacity="1" d="M 21.5 228 L 22 234.5 L 21 234.5 L 21.5 228 Z " /><path fill="rgb(91,76,42)" stroke="rgb(91,76,42)" stroke-width="1" opacity="1" d="M 27.5 228 L 28 235.5 L 27 235.5 L 27.5 228 Z " /><path fill="rgb(91,76,42)" stroke="rgb(91,76,42)" stroke-width="1" opacity="1" d="M 239.5 228 L 240 232.5 L 239 232.5 L 239.5 228 Z " /><path fill="rgb(91,76,42)" stroke="rgb(91,76,42)" stroke-width="1" opacity="1" d="M 27.5 237 L 28 240.5 L 27 240.5 L 27.5 237 Z " /><path fill="rgb(23,20,19)" stroke="rgb(23,20,19)" stroke-width="1" opacity="1" d="M 239.5 6 L 240 8.5 L 238.5 12 L 236.5 10 L 226 9.5 L 228 8.5 L 219.5 8 L 219.5 9 L 223 9.5 L 29 10 L 28 7.5 L 238.5 7 L 239.5 6 Z " /><path fill="rgb(23,20,19)" stroke="rgb(23,20,19)" stroke-width="1" opacity="1" d="M 23 13 L 26 13 L 26 18 L 23.5 19 L 23 13 Z " /><path fill="rgb(23,20,19)" stroke="rgb(23,20,19)" stroke-width="1" opacity="1" d="M 242.5 13 L 246 14.5 Q 247.8 20.2 241.5 18 L 241.5 17 Q 245.9 18.5 245 15.5 L 243.5 16 Q 240.4 16.7 242.5 13 Z " /><path fill="rgb(23,20,19)" stroke="rgb(23,20,19)" stroke-width="1" opacity="1" d="M 27.5 16 L 28 18.5 L 27 18.5 L 27.5 16 Z " /><path fill="rgb(23,20,19)" stroke="rgb(23,20,19)" stroke-width="1" opacity="1" d="M 15.5 19 L 19.5 20 L 21 19.5 L 20 20.5 L 20 31.5 L 21 33.5 L 20 34.5 L 20 64.5 L 21 66.5 L 19 74.5 L 20 75.5 L 20 105.5 L 19 107.5 Q 21.3 108.7 20 113.5 L 19 114.5 L 19 128 Q 22.7 126.7 21 132.5 Q 17 134.5 19 142.5 Q 21.3 143.8 20 148.5 L 19 149.5 L 19 160.5 L 20 161.5 L 20 181.5 L 19 186.5 L 20 187.5 L 20 202.5 Q 17.8 203.8 19 208.5 L 20 209.5 L 20 227 L 16 228 L 15 191.5 L 16 190.5 L 16 52.5 L 15 49.5 L 16 48.5 L 16 20.5 L 15.5 19 Z " /><path fill="rgb(23,20,19)" stroke="rgb(23,20,19)" stroke-width="1" opacity="1" d="M 59 19 L 61.5 20 L 74 20.5 L 68.5 23 L 66.5 23 L 65 23.5 L 220 24 Q 221.1 21.3 218.5 22 L 216 20.5 L 226 20 L 225.5 28 L 225 26 L 221.5 25 L 221 31.5 L 223 31.5 L 222 37 L 227 37 L 227 32.5 L 228.5 31 L 237.5 31 L 237.5 32 L 228 32 L 228 37 L 234 37 L 234 40.5 L 235 45.5 L 234 49 Q 237.7 47.6 236 53.5 L 235.5 56 Q 233.3 55.3 234 57.5 Q 236.3 58.7 235 63.5 L 235 65.5 L 234 68.5 L 234 74.5 L 235 83.5 L 234 84.5 L 234 102.5 L 234 106.5 L 235 113.5 L 234 115.5 L 235 116.5 L 235 135.5 L 234 138.5 L 234 140.5 L 234 151.5 L 235 152.5 Q 232.8 153.8 234 158.5 L 235 161.5 L 235 189.5 L 236 196 Q 232 194.6 234 201.5 L 235 203.5 L 235 207.5 Q 234.3 211.3 236.5 212 L 237.5 209 L 238 214 L 229.5 214 L 229 211.5 L 230.5 212 L 234 210.5 L 233.5 209 L 229.5 210 L 228 209.5 Q 229 214 226.5 215 L 221 215 L 221 222 L 214.5 222 L 213.5 223 L 205 223.5 L 207 224 L 206.5 226 L 195 226 L 194.5 222 L 134.5 222 L 132.5 223 L 131.5 222 L 114.5 222 L 113.5 223 L 100.5 223 L 97.5 222 L 87.5 222 L 86.5 223 Q 85 220.5 79.5 222 L 78.5 223 L 64.5 223 L 60.5 222 L 59.5 223 L 51 223.5 L 52 225.5 L 51 225.5 L 50.5 224 L 50 226 L 44 225.5 L 46 224.5 L 45.5 223 L 48 222.5 L 45 222 L 45 215.5 L 43.5 215 L 43.5 214 L 45 214 L 45 210 L 39.5 211 Q 38.1 207.8 33 209 L 31.5 204 L 29.5 208 L 29 204 L 31 203.5 L 30.5 202 L 32 202.5 Q 32.7 199.9 30 201 L 30 199 Q 33.3 200.3 32 195.5 L 33 193.5 L 28 191.5 L 29 190.5 L 29.5 116 L 30 132.5 Q 33.5 134 32 140.5 L 30 140.5 L 30.5 169 L 31.5 166 L 32 173.5 L 32 175.5 L 31.5 180 L 30.5 176 L 30 181 L 32 181.5 L 32 189 L 30 189.5 L 32.5 191 L 33 56.5 L 31.5 57 L 28 55.5 L 28.5 54 L 29 56 L 32 55.5 L 32 44 L 29 43.5 L 32 42.5 L 29 42 L 29 33 L 34.5 33 L 35 35.5 Q 34.2 38.1 37.5 37 L 39.5 37 L 46 37 L 46 33.5 Q 42.5 32 45 30.5 L 45 24 L 61.5 24 L 61 22.5 L 60.5 21 L 59 21.5 L 59 19 Z M 130 36 L 126 37 L 126 41 L 125 37 L 103 37 Q 101 37 102 44 L 100 44 L 90 43 Q 91 48 89 50 L 87 49 L 83 51 Q 84 53 82 52 Q 78 54 82 56 L 80 56 L 75 56 L 75 63 L 74 62 L 70 63 L 69 76 Q 66 77 67 82 L 65 77 L 63 81 L 63 84 L 58 84 L 57 85 L 57 156 Q 59 157 56 159 L 57 161 L 57 164 L 62 164 L 62 170 L 68 170 L 68 166 L 86 166 L 97 164 L 102 164 L 102 170 L 108 170 L 108 164 L 114 164 L 114 164 L 114 129 L 108 129 L 108 133 L 101 133 L 102 131 Q 103 128 107 129 L 108 128 L 108 98 L 110 96 L 114 97 L 114 91 L 113 90 L 113 89 L 115 90 L 126 90 Q 128 89 126 88 L 127 85 L 151 85 L 150 84 Q 149 79 151 78 Q 148 76 149 70 L 150 70 L 150 76 L 156 76 L 155 78 L 157 81 L 152 81 L 152 79 L 151 79 L 151 84 L 158 84 L 159 81 L 160 82 L 159 82 L 159 83 Q 163 81 162 85 L 162 87 L 163 90 L 162 90 Q 163 86 160 87 L 160 89 L 159 86 L 157 93 L 158 96 Q 157 98 164 97 L 163 99 L 164 103 Q 165 107 163 109 L 164 110 L 164 128 Q 162 132 161 129 L 158 130 L 158 164 Q 163 163 164 166 Q 162 172 169 170 Q 171 169 170 165 L 190 165 L 191 164 L 196 165 L 202 165 L 202 170 L 208 170 L 208 166 L 208 164 L 209 161 L 209 164 L 210 164 Q 209 161 213 162 Q 214 164 215 162 L 214 160 L 214 88 L 213 87 L 213 84 L 208 84 L 208 83 L 208 77 L 205 76 L 205 72 Q 207 70 205 69 L 202 69 L 202 75 L 201 75 L 201 64 L 198 63 L 196 63 Q 195 68 197 70 L 195 69 L 195 56 L 190 56 L 190 62 L 189 57 L 189 55 L 189 50 L 182 50 L 182 44 L 181 44 L 176 43 Q 168 46 170 39 L 169 37 L 145 37 L 145 43 L 144 38 L 143 36 L 130 36 Z M 32 38 L 31 41 L 32 41 L 32 38 Z M 41 38 L 41 39 L 44 39 L 41 38 Z M 64 69 L 64 76 L 68 76 L 68 70 L 67 70 L 64 69 Z M 151 85 L 151 90 L 157 90 L 157 85 L 151 85 Z M 91 167 L 90 171 L 92 175 L 92 173 L 93 173 L 92 177 L 96 177 L 95 183 L 97 183 L 95 188 L 97 187 L 97 189 Q 101 187 100 191 L 102 190 L 104 192 L 102 192 Q 100 198 107 196 L 106 198 L 106 203 L 108 209 L 112 210 L 111 209 L 112 207 L 112 209 L 115 209 L 115 185 L 108 182 L 108 178 Q 111 176 110 172 Q 107 171 108 175 Q 107 178 103 177 L 102 175 L 102 170 L 95 170 L 94 167 L 91 167 Z M 68 170 L 69 177 L 63 179 L 65 182 L 62 183 L 63 186 L 62 187 L 62 197 L 64 196 L 63 198 L 65 198 L 67 204 L 70 205 L 71 203 L 71 208 L 74 208 L 72 204 L 72 192 L 75 191 L 74 193 L 76 195 L 76 194 L 77 194 Q 76 198 80 196 L 81 192 L 79 188 L 77 192 L 76 192 L 77 190 L 76 186 L 77 183 L 76 177 Q 72 175 75 174 Q 74 171 77 172 L 81 174 L 81 170 L 68 170 Z M 170 170 L 170 177 L 169 176 L 164 177 L 160 176 Q 157 175 158 178 L 156 178 L 158 183 L 157 182 L 153 184 L 153 196 L 155 196 L 155 198 L 155 200 L 155 209 L 162 209 L 163 204 L 167 205 L 169 200 Q 170 195 165 197 L 165 194 L 164 196 L 163 192 Q 164 189 169 190 L 170 178 L 171 185 L 171 175 L 176 176 L 178 172 Q 184 170 183 174 Q 187 175 186 173 L 187 173 Q 188 177 183 175 Q 180 176 181 183 L 180 182 L 175 183 L 176 198 L 180 197 L 181 199 L 181 208 L 181 210 Q 180 213 183 212 L 183 215 L 184 215 L 186 212 L 185 212 L 185 211 L 187 208 L 187 206 L 189 203 Q 191 204 190 201 L 188 201 Q 187 196 190 196 L 190 186 L 191 185 L 188 182 L 186 183 Q 185 180 188 181 L 188 176 L 193 177 Q 192 185 196 191 L 195 193 L 196 198 L 197 198 Q 196 193 200 195 L 201 192 L 201 202 Q 205 203 204 201 L 202 201 L 203 197 L 208 198 L 209 197 L 209 183 L 206 182 L 203 182 L 203 177 L 202 177 L 202 176 Q 203 170 202 170 L 170 170 Z M 83 176 L 81 189 L 82 191 L 81 193 Q 80 198 82 200 Q 81 205 84 204 L 84 212 L 82 212 L 85 215 L 87 214 L 85 210 L 88 209 L 91 211 L 92 209 L 90 205 L 90 197 L 94 198 L 92 198 L 92 200 L 91 202 L 95 202 L 95 190 L 91 189 L 91 177 L 90 177 L 83 176 Z M 195 197 L 193 199 Q 194 201 192 200 L 192 201 Q 194 200 193 203 L 195 204 L 195 197 Z M 176 198 L 176 202 L 180 203 Q 182 196 176 198 Z M 197 203 L 198 205 L 202 204 L 197 203 Z M 196 205 L 195 209 L 196 209 L 196 205 Z M 223 209 L 221 210 L 222 213 L 221 214 L 227 214 L 227 209 L 223 209 Z M 90 211 L 88 213 L 89 215 L 90 215 L 90 211 Z M 80 214 L 80 215 L 83 215 L 80 214 Z " /><path fill="rgb(23,20,19)" stroke="rgb(23,20,19)" stroke-width="1" opacity="1" d="M 249 19 L 252 19.5 L 252 227 L 249 226.5 L 249 216.5 Q 253 214.5 251 206.5 L 249 206.5 L 249 200.5 L 251 196.5 L 249 193.5 L 249 184 L 251 183.5 L 251 176 Q 247.7 177.3 249 172.5 Q 252.4 169.7 251 163 Q 247.5 164.1 249 156.5 L 250 153.5 L 249 152.5 L 249 139.5 L 249 137.5 L 251 134.5 L 249 134 Q 247.5 127.7 251 128.5 L 251 123 L 249 122.5 L 249 101 L 251 100.5 L 251 91.5 L 249 91.5 L 249 71.5 L 251 68.5 Q 248 67.5 249 62.5 Q 251.8 60.8 251 55.5 L 249 53.5 L 249 41 L 251 40.5 L 251 31.5 Q 248.3 30.4 249 27 Q 251.7 28.1 251 25.5 L 249 25.5 L 249 19 Z " /><path fill="rgb(23,20,19)" stroke="rgb(23,20,19)" stroke-width="1" opacity="1" d="M 100.5 20 L 119 20.5 L 100.5 21 L 100.5 20 Z " /><path fill="rgb(23,20,19)" stroke="rgb(23,20,19)" stroke-width="1" opacity="1" d="M 128.5 20 L 173 20.5 L 128.5 21 L 128.5 20 Z " /><path fill="rgb(23,20,19)" stroke="rgb(23,20,19)" stroke-width="1" opacity="1" d="M 174.5 20 L 182 20.5 L 174.5 21 L 174.5 20 Z " /><path fill="rgb(23,20,19)" stroke="rgb(23,20,19)" stroke-width="1" opacity="1" d="M 189.5 20 L 203 20.5 L 189.5 21 L 189.5 20 Z " /><path fill="rgb(23,20,19)" stroke="rgb(23,20,19)" stroke-width="1" opacity="1" d="M 32.5 31 L 38 31.5 L 32.5 32 L 32.5 31 Z " /><path fill="rgb(23,20,19)" stroke="rgb(23,20,19)" stroke-width="1" opacity="1" d="M 239.5 32 L 240 41.5 L 239 41.5 L 239.5 32 Z " /><path fill="rgb(23,20,19)" stroke="rgb(23,20,19)" stroke-width="1" opacity="1" d="M 237.5 33 L 238 41.5 L 237 41.5 L 237.5 33 Z " /><path fill="rgb(23,20,19)" stroke="rgb(23,20,19)" stroke-width="1" opacity="1" d="M 126.5 42 L 143 42.5 L 126.5 43 L 126.5 42 Z " /><path fill="rgb(23,20,19)" stroke="rgb(23,20,19)" stroke-width="1" opacity="1" d="M 146.5 43 L 150 43.5 L 150 45.5 L 149.5 64 L 148.5 46 L 147 52.5 L 148 53.5 L 148 63.5 L 148 67.5 L 146.5 70 L 146 46.5 L 145 44.5 L 146.5 43 Z " /><path fill="rgb(23,20,19)" stroke="rgb(23,20,19)" stroke-width="1" opacity="1" d="M 108.5 50 L 111 50.5 L 108.5 51 L 108.5 50 Z " /><path fill="rgb(23,20,19)" stroke="rgb(23,20,19)" stroke-width="1" opacity="1" d="M 119.5 50 L 120 70.5 L 119 70.5 L 119.5 50 Z " /><path fill="rgb(23,20,19)" stroke="rgb(23,20,19)" stroke-width="1" opacity="1" d="M 144.5 50 L 145 69.5 L 144 69.5 L 144.5 50 Z " /><path fill="rgb(23,20,19)" stroke="rgb(23,20,19)" stroke-width="1" opacity="1" d="M 88 51 Q 90.7 49.9 90 52.5 L 88.5 56 L 84 55.5 L 89 54.5 L 87 53.5 L 88 51 Z " /><path fill="rgb(23,20,19)" stroke="rgb(23,20,19)" stroke-width="1" opacity="1" d="M 170 56 L 172 56.5 L 170 57.5 L 170 56 Z " /><path fill="rgb(23,20,19)" stroke="rgb(23,20,19)" stroke-width="1" opacity="1" d="M 239.5 56 L 240 159.5 L 239 159.5 L 239.5 56 Z " /><path fill="rgb(23,20,19)" stroke="rgb(23,20,19)" stroke-width="1" opacity="1" d="M 102.5 57 L 105 57.5 L 102.5 58 L 102.5 57 Z " /><path fill="rgb(23,20,19)" stroke="rgb(23,20,19)" stroke-width="1" opacity="1" d="M 29 58 L 32 58.5 L 32 68 L 30 68.5 L 30 81.5 L 29 81.5 L 29 58 Z " /><path fill="rgb(23,20,19)" stroke="rgb(23,20,19)" stroke-width="1" opacity="1" d="M 79.5 59 L 80 61 L 78 60.5 L 79.5 59 Z " /><path fill="rgb(23,20,19)" stroke="rgb(23,20,19)" stroke-width="1" opacity="1" d="M 237.5 59 L 238 63.5 L 237 63.5 L 236 61.5 L 237.5 59 Z " /><path fill="rgb(23,20,19)" stroke="rgb(23,20,19)" stroke-width="1" opacity="1" d="M 110.5 63 L 111 66.5 L 108 66.5 Q 106.9 63.2 109.5 64 L 110.5 63 Z " /><path fill="rgb(23,20,19)" stroke="rgb(23,20,19)" stroke-width="1" opacity="1" d="M 237.5 65 L 238 67.5 L 237 67.5 L 237.5 65 Z " /><path fill="rgb(23,20,19)" stroke="rgb(23,20,19)" stroke-width="1" opacity="1" d="M 187.5 66 L 188 68.5 L 187 68.5 L 187.5 66 Z " /><path fill="rgb(23,20,19)" stroke="rgb(23,20,19)" stroke-width="1" opacity="1" d="M 144.5 75 L 145 82.5 L 143.5 84 L 129 84 L 129.5 82 L 130.5 83 L 144 83 L 143.5 77 L 143 81 L 133.5 82 L 131 78 Q 128.3 76.9 129 79.5 L 128 79.5 L 126 76.5 L 129.5 76 L 134.5 77 L 144.5 75 Z " /><path fill="rgb(23,20,19)" stroke="rgb(23,20,19)" stroke-width="1" opacity="1" d="M 107.5 76 L 108 81.5 L 107 81.5 L 107.5 76 Z " /><path fill="rgb(23,20,19)" stroke="rgb(23,20,19)" stroke-width="1" opacity="1" d="M 193.5 77 L 195 83 L 190 83 L 190 80.5 L 191.5 81 L 193 81 L 193.5 77 Z " /><path fill="rgb(23,20,19)" stroke="rgb(23,20,19)" stroke-width="1" opacity="1" d="M 146 81 Q 150.1 79.7 149 83 Q 144.9 84.3 146 81 Z " /><path fill="rgb(23,20,19)" stroke="rgb(23,20,19)" stroke-width="1" opacity="1" d="M 114 82 L 117.5 83 L 119.5 83 L 122 83.5 L 114 84 L 113.5 86 L 113 84.5 L 114 82 Z " /><path fill="rgb(23,20,19)" stroke="rgb(23,20,19)" stroke-width="1" opacity="1" d="M 106.5 83 L 111 84.5 L 109 85 L 108.5 88 L 107 85.5 L 107.5 84 L 106.5 83 Z " /><path fill="rgb(23,20,19)" stroke="rgb(23,20,19)" stroke-width="1" opacity="1" d="M 203.5 83 L 206 83.5 L 203.5 84 L 203.5 83 Z " /><path fill="rgb(23,20,19)" stroke="rgb(23,20,19)" stroke-width="1" opacity="1" d="M 101.5 84 L 103 91.5 L 102 95 L 105 95.5 L 101.5 97 L 101 91.5 L 101 89.5 L 101.5 84 Z " /><path fill="rgb(23,20,19)" stroke="rgb(23,20,19)" stroke-width="1" opacity="1" d="M 196 84 L 200 85.5 L 201 102.5 Q 198.5 104 200 109.5 L 201 110.5 L 201 122.5 L 200 128 L 194.5 129 L 182.5 129 Q 181.3 126.8 176.5 128 L 171.5 129 L 172.5 127 L 179.5 126 L 184.5 127 L 186 126.5 L 186.5 128 L 191.5 127 L 195 128 Q 196.8 122.8 196 113.5 L 195 108.5 L 195.5 104 L 197 104.5 L 196 102.5 L 196 84 Z M 197 86 L 197 92 L 199 92 L 199 86 L 197 86 Z M 199 93 L 198 96 L 199 96 L 199 93 Z " /><path fill="rgb(23,20,19)" stroke="rgb(23,20,19)" stroke-width="1" opacity="1" d="M 29.5 88 L 30 111.5 L 29 111.5 L 29.5 88 Z " /><path fill="rgb(23,20,19)" stroke="rgb(23,20,19)" stroke-width="1" opacity="1" d="M 62.5 89 L 63 122.5 L 62 122.5 L 62.5 89 Z " /><path fill="rgb(23,20,19)" stroke="rgb(23,20,19)" stroke-width="1" opacity="1" d="M 108.5 89 L 108 90.5 Q 108.7 93.1 106 92 Q 104.9 89.3 107.5 90 L 108.5 89 Z " /><path fill="rgb(23,20,19)" stroke="rgb(23,20,19)" stroke-width="1" opacity="1" d="M 96 102 L 102 102 L 102 116.5 L 102 118.5 L 101 126 L 99 126.5 L 102 128.5 L 98.5 129 L 98.5 127 Q 96.3 126.3 97 128.5 L 96 128.5 L 97 123.5 L 95.5 121 L 97.5 122 L 100 121.5 L 101 118.5 L 100.5 116 L 97.5 115 L 96 115.5 L 96 102 Z M 101 107 L 99 109 L 101 110 L 101 107 Z M 98 112 Q 97 115 100 114 Q 101 111 98 112 Z " /><path fill="rgb(23,20,19)" stroke="rgb(23,20,19)" stroke-width="1" opacity="1" d="M 74.5 105 L 77 105.5 L 75.5 109 L 74.5 105 Z " /><path fill="rgb(23,20,19)" stroke="rgb(23,20,19)" stroke-width="1" opacity="1" d="M 79.5 107 L 79.5 110 Q 76.5 108.5 79.5 107 Z " /><path fill="rgb(23,20,19)" stroke="rgb(23,20,19)" stroke-width="1" opacity="1" d="M 91.5 108 L 92 111.5 L 91 111.5 L 91.5 108 Z " /><path fill="rgb(23,20,19)" stroke="rgb(23,20,19)" stroke-width="1" opacity="1" d="M 167.5 115 L 168 122.5 L 166.5 122 L 165 121.5 L 167 121 L 167.5 115 Z " /><path fill="rgb(23,20,19)" stroke="rgb(23,20,19)" stroke-width="1" opacity="1" d="M 68.5 116 L 70 121.5 L 68 122 L 68.5 116 Z " /><path fill="rgb(23,20,19)" stroke="rgb(23,20,19)" stroke-width="1" opacity="1" d="M 75 117 L 77 117 Q 75.9 119.7 78.5 119 L 78.5 120 L 75 119 L 75 117 Z " /><path fill="rgb(23,20,19)" stroke="rgb(23,20,19)" stroke-width="1" opacity="1" d="M 86.5 117 L 87.5 119 L 86.5 117 Z " /><path fill="rgb(23,20,19)" stroke="rgb(23,20,19)" stroke-width="1" opacity="1" d="M 76.5 121 L 82 121.5 L 76.5 122 L 76.5 121 Z " /><path fill="rgb(23,20,19)" stroke="rgb(23,20,19)" stroke-width="1" opacity="1" d="M 90.5 122 L 90 123.5 L 91 127.5 L 80.5 128 L 80.5 127 Q 85.3 128.2 86.5 126 L 88 126.5 Q 87.5 122.5 90.5 122 Z " /><path fill="rgb(23,20,19)" stroke="rgb(23,20,19)" stroke-width="1" opacity="1" d="M 68.5 123 L 69 127 L 71 127.5 L 69.5 128 Q 66.8 126.8 68.5 123 Z " /><path fill="rgb(23,20,19)" stroke="rgb(23,20,19)" stroke-width="1" opacity="1" d="M 86.5 123 L 87 125 L 85 124.5 L 86.5 123 Z " /><path fill="rgb(23,20,19)" stroke="rgb(23,20,19)" stroke-width="1" opacity="1" d="M 60.5 129 L 61 131.5 L 60 131.5 L 60.5 129 Z " /><path fill="rgb(23,20,19)" stroke="rgb(23,20,19)" stroke-width="1" opacity="1" d="M 62.5 129 L 65 130.5 L 62 131 L 62.5 129 Z " /><path fill="rgb(23,20,19)" stroke="rgb(23,20,19)" stroke-width="1" opacity="1" d="M 202.5 129 Q 210.8 126.3 208 134.5 L 209 135.5 L 209 156.5 L 208 156.5 L 208 135.5 Q 208 134.5 203.5 135 L 202 133.5 L 202.5 129 Z " /><path fill="rgb(23,20,19)" stroke="rgb(23,20,19)" stroke-width="1" opacity="1" d="M 68.5 130 L 72 130.5 L 68.5 131 L 68.5 130 Z " /><path fill="rgb(23,20,19)" stroke="rgb(23,20,19)" stroke-width="1" opacity="1" d="M 161.5 131 L 162 135.5 L 161 135.5 L 161.5 131 Z " /><path fill="rgb(23,20,19)" stroke="rgb(23,20,19)" stroke-width="1" opacity="1" d="M 94.5 135 L 95 139.5 L 93.5 145 L 93 138.5 L 94.5 135 Z " /><path fill="rgb(23,20,19)" stroke="rgb(23,20,19)" stroke-width="1" opacity="1" d="M 196.5 135 L 201 135.5 L 200 136.5 L 200 155.5 L 200.5 157 L 196 156.5 L 198 155.5 L 196 150.5 L 197 149.5 L 197 136.5 L 196.5 135 Z " /><path fill="rgb(23,20,19)" stroke="rgb(23,20,19)" stroke-width="1" opacity="1" d="M 100.5 142 L 101 148.5 L 100 148.5 L 100.5 142 Z " /><path fill="rgb(23,20,19)" stroke="rgb(23,20,19)" stroke-width="1" opacity="1" d="M 60.5 146 L 61 150.5 L 60 150.5 L 60.5 146 Z " /><path fill="rgb(23,20,19)" stroke="rgb(23,20,19)" stroke-width="1" opacity="1" d="M 94.5 149 L 95 157 Q 92.3 158.1 93 155.5 L 94.5 149 Z " /><path fill="rgb(23,20,19)" stroke="rgb(23,20,19)" stroke-width="1" opacity="1" d="M 161.5 153 L 162 155.5 L 161 155.5 L 161.5 153 Z " /><path fill="rgb(23,20,19)" stroke="rgb(23,20,19)" stroke-width="1" opacity="1" d="M 73.5 157 L 74.5 159 L 73.5 157 Z " /><path fill="rgb(23,20,19)" stroke="rgb(23,20,19)" stroke-width="1" opacity="1" d="M 80.5 157 L 83 157.5 L 80.5 158 L 80.5 157 Z " /><path fill="rgb(23,20,19)" stroke="rgb(23,20,19)" stroke-width="1" opacity="1" d="M 85.5 157 L 90 157.5 L 85.5 158 L 85.5 157 Z " /><path fill="rgb(23,20,19)" stroke="rgb(23,20,19)" stroke-width="1" opacity="1" d="M 237.5 165 L 238 171.5 L 237 171.5 L 237.5 165 Z " /><path fill="rgb(23,20,19)" stroke="rgb(23,20,19)" stroke-width="1" opacity="1" d="M 239.5 170 L 240 189.5 L 239 189.5 L 239.5 170 Z " /><path fill="rgb(23,20,19)" stroke="rgb(23,20,19)" stroke-width="1" opacity="1" d="M 237.5 175 L 238 188.5 L 237 188.5 L 237.5 175 Z " /><path fill="rgb(23,20,19)" stroke="rgb(23,20,19)" stroke-width="1" opacity="1" d="M 99.5 177 Q 102.1 176.2 101 179.5 L 100 179.5 L 99.5 177 Z " /><path fill="rgb(23,20,19)" stroke="rgb(23,20,19)" stroke-width="1" opacity="1" d="M 239.5 203 L 240 214.5 L 239 214.5 L 239.5 203 Z " /><path fill="rgb(23,20,19)" stroke="rgb(23,20,19)" stroke-width="1" opacity="1" d="M 80.5 225 L 91 225.5 L 80.5 226 L 80.5 225 Z " /><path fill="rgb(23,20,19)" stroke="rgb(23,20,19)" stroke-width="1" opacity="1" d="M 110.5 225 L 113 225.5 L 110.5 226 L 110.5 225 Z " /><path fill="rgb(23,20,19)" stroke="rgb(23,20,19)" stroke-width="1" opacity="1" d="M 126.5 225 L 129 225.5 L 126.5 226 L 126.5 225 Z " /><path fill="rgb(23,20,19)" stroke="rgb(23,20,19)" stroke-width="1" opacity="1" d="M 216.5 225 L 220 226.5 L 216 227 L 216.5 225 Z " /><path fill="rgb(23,20,19)" stroke="rgb(23,20,19)" stroke-width="1" opacity="1" d="M 203.5 227 L 207 227.5 L 203.5 228 L 203.5 227 Z " /><path fill="rgb(23,20,19)" stroke="rgb(23,20,19)" stroke-width="1" opacity="1" d="M 23 229 L 26 229.5 L 26 231.5 Q 26.8 233.8 24.5 233 L 24.5 234 L 26 234.5 L 23 235 L 23 229 Z " /><path fill="rgb(23,20,19)" stroke="rgb(23,20,19)" stroke-width="1" opacity="1" d="M 243.5 230 L 245 233 L 241 232.5 L 243.5 230 Z " /><path fill="rgb(23,20,19)" stroke="rgb(23,20,19)" stroke-width="1" opacity="1" d="M 241.5 234 L 247 234.5 L 241.5 235 L 241.5 234 Z " /><path fill="rgb(23,20,19)" stroke="rgb(23,20,19)" stroke-width="1" opacity="1" d="M 29 235 Q 32 237 39.5 236 L 41 237.5 Q 41.8 240.1 38.5 239 L 38.5 240 L 54 239.5 L 52 239 Q 50.6 235.3 56.5 237 L 58.5 236 L 69.5 238 L 70.5 237 L 91.5 237 L 91.5 238 L 61 239.5 L 232.5 240 L 232.5 239 L 227 238.5 L 228 236 L 240 235 L 239.5 237 L 238 236.5 L 238.5 240 L 240 239.5 L 238.5 241 L 28.5 241 L 29 239.5 L 29 235 Z M 235 239 L 235 240 L 237 240 L 235 239 Z " /><path fill="rgb(23,20,19)" stroke="rgb(23,20,19)" stroke-width="1" opacity="1" d="M 215.5 236 L 218 237 L 217.5 239 L 207.5 239 L 207.5 238 Q 213.2 238.7 215.5 236 Z " /><path fill="rgb(23,20,19)" stroke="rgb(23,20,19)" stroke-width="1" opacity="1" d="M 96.5 237 L 99 237.5 L 96.5 238 L 96.5 237 Z " /><path fill="rgb(23,20,19)" stroke="rgb(23,20,19)" stroke-width="1" opacity="1" d="M 117.5 237 L 128.5 237 L 131 238.5 L 116.5 239 L 117.5 237 Z " /><path fill="rgb(23,20,19)" stroke="rgb(23,20,19)" stroke-width="1" opacity="1" d="M 149.5 237 L 156.5 237 L 157 238.5 L 155.5 238 L 149.5 238 L 149.5 237 Z " /><path fill="rgb(23,20,19)" stroke="rgb(23,20,19)" stroke-width="1" opacity="1" d="M 172.5 237 L 179 238.5 L 160.5 239 L 160.5 238 L 171.5 238 L 172.5 237 Z " /><path fill="rgb(23,20,19)" stroke="rgb(23,20,19)" stroke-width="1" opacity="1" d="M 184.5 238 L 192 238.5 L 184.5 239 L 184.5 238 Z " /><path fill="rgb(0,0,0)" stroke="rgb(0,0,0)" stroke-width="1" opacity="0" d="M 0 0 L 269 0 L 269 249 L 0 249 L 0 0 Z M 27 5 L 27 11 L 23 11 Q 19 13 21 18 L 14 19 L 14 228 L 15 228 L 21 228 L 21 235 L 27 235 L 27 241 L 240 241 L 240 241 L 240 235 L 248 235 L 248 228 L 254 228 L 254 20 L 254 19 L 248 19 L 248 13 L 247 11 L 240 11 L 240 6 L 240 5 L 27 5 Z " /><path fill="rgb(224,154,35)" stroke="rgb(224,154,35)" stroke-width="1" opacity="1" d="M 22.5 11 Q 27.3 9.7 28.5 12 L 239.5 12 Q 241 9.5 246.5 11 Q 249.5 12.5 248 18.5 L 247 19.5 L 247 132.5 L 247 134.5 L 247 227.5 Q 249.5 229 248 234.5 L 247 234.5 L 247 228 L 239 228 L 240 233.5 L 238.5 235 L 28 235 L 28 228 L 21.5 228 L 21 227.5 L 21 19.5 L 17.5 19 L 17.5 18 L 28 19 L 28 12 L 22.5 12 L 22.5 11 Z M 240 12 L 240 19 L 247 19 L 247 12 L 240 12 Z M 39 19 L 39 31 L 28 31 L 28 44 L 32 44 Q 33 47 30 46 L 30 50 L 28 50 L 28 155 Q 26 156 27 161 L 27 163 L 27 175 L 28 176 L 28 197 Q 31 196 30 202 L 27 205 L 28 206 Q 29 212 27 215 L 39 215 L 39 213 L 41 214 L 41 215 L 39 216 L 39 228 L 52 228 L 52 224 L 58 224 L 58 228 L 209 228 L 209 226 Q 210 223 214 224 L 215 228 L 228 228 L 228 215 L 240 215 L 240 203 L 237 202 L 238 192 L 240 190 L 240 56 L 239 53 Q 241 51 239 50 L 237 50 L 237 44 L 240 43 L 240 31 L 228 31 L 228 19 L 216 19 L 215 21 L 210 22 L 208 19 L 60 19 L 59 21 L 53 21 L 53 19 L 39 19 Z " /><path fill="rgb(224,154,35)" stroke="rgb(224,154,35)" stroke-width="1" opacity="1" d="M 14.5 19 L 15 227.5 L 14 227.5 L 14.5 19 Z " /><path fill="rgb(224,154,35)" stroke="rgb(224,154,35)" stroke-width="1" opacity="1" d="M 226.5 32 L 227 35.5 L 226 35.5 L 226.5 32 Z " /><path fill="rgb(224,154,35)" stroke="rgb(224,154,35)" stroke-width="1" opacity="1" d="M 43.5 35 L 44 37 L 40 36.5 L 43.5 35 Z " /><path fill="rgb(224,154,35)" stroke="rgb(224,154,35)" stroke-width="1" opacity="1" d="M 102 43 L 118.5 43 L 120 44.5 L 120 50 L 108.5 50 L 108.5 51 L 115 51 L 115 53.5 L 116 53.5 Q 114.9 49.3 119 51 L 119 76 L 107 76 L 107 83 L 101 83 L 101 90 L 95 90 L 95 96 Q 91.3 94.5 92 97.5 L 91 97.5 L 90.5 96 L 90 120.5 L 91 120.5 Q 90 116 92.5 115 L 93 122 L 84 121.5 L 88 121 L 89 109.5 L 87.5 110 L 83.5 109 L 80 110 L 80 103 L 74 103 Q 75.7 106.5 75 113.5 L 73 120.5 L 73.5 122 Q 69.1 123.5 70 120.5 L 68.5 116 L 68 127 L 64.5 128 L 63 126.5 L 63 90.5 L 63 88.5 L 63 84 L 69 84 L 69 70 L 73.5 70 Q 76.5 68.4 75 63 Q 80.4 64.5 82 61.5 L 81 56 L 90 56 L 90 50.5 L 90.5 50 L 102 50 L 102 43 Z M 96 56 L 97 62 L 97 58 Q 104 59 108 57 L 96 56 Z M 116 59 L 115 63 L 108 63 L 108 70 L 101 71 L 102 75 L 102 76 L 108 75 L 107 74 L 107 73 Q 109 74 108 71 L 111 70 L 113 71 L 112 70 L 114 67 L 114 69 L 118 70 L 118 64 L 117 63 L 117 62 L 116 59 Z M 84 63 L 85 69 L 85 64 L 89 64 L 84 63 Z M 77 76 L 77 78 L 79 77 L 77 76 Z M 90 76 L 90 84 L 87 84 L 87 86 L 85 86 L 86 90 L 86 88 L 87 88 Q 86 90 91 89 L 93 93 Q 96 91 95 84 L 95 82 L 98 78 Q 96 74 90 76 Z M 85 77 L 86 79 Q 87 76 85 77 Z M 103 78 L 103 81 L 106 80 Q 107 77 103 78 Z M 75 81 L 74 90 L 75 90 L 75 81 Z M 99 85 L 97 87 Q 96 91 100 89 L 100 85 L 99 85 Z M 82 96 L 80 98 L 81 101 L 82 101 Q 81 98 84 99 L 83 98 Q 84 95 82 96 Z " /><path fill="rgb(224,154,35)" stroke="rgb(224,154,35)" stroke-width="1" opacity="1" d="M 126.5 43 L 128.5 44 L 129.5 43 L 144 43 L 144 50 L 126 50 L 126.5 43 Z " /><path fill="rgb(224,154,35)" stroke="rgb(224,154,35)" stroke-width="1" opacity="1" d="M 126.5 52 L 127.5 57 L 130 55.5 L 130 62.5 L 128.5 63 L 126 62.5 L 126.5 52 Z " /><path fill="rgb(224,154,35)" stroke="rgb(224,154,35)" stroke-width="1" opacity="1" d="M 100.5 107 L 101 109.5 L 100 109.5 L 100.5 107 Z " /><path fill="rgb(224,154,35)" stroke="rgb(224,154,35)" stroke-width="1" opacity="1" d="M 80 111 Q 83.7 109.5 83 112.5 L 80 114 L 80 111 Z " /><path fill="rgb(224,154,35)" stroke="rgb(224,154,35)" stroke-width="1" opacity="1" d="M 86.5 114 L 87 116 L 84 115.5 L 86.5 114 Z " /><path fill="rgb(224,154,35)" stroke="rgb(224,154,35)" stroke-width="1" opacity="1" d="M 101.5 123 L 102 128 L 100 127.5 L 101.5 123 Z " /><path fill="rgb(224,154,35)" stroke="rgb(224,154,35)" stroke-width="1" opacity="1" d="M 84.5 129 L 92.5 129 L 93 129.5 L 93 157 L 63 157 L 63 131 L 82.5 131 L 84.5 129 Z " /><path fill="rgb(224,154,35)" stroke="rgb(224,154,35)" stroke-width="1" opacity="1" d="M 164.5 129 L 168.5 130 L 195 130 L 194.5 134 L 194 131 Q 186.9 128.6 189 135 L 194.5 135 L 195 135.5 L 195 157 L 184.5 158 L 183 159.5 Q 185.1 165.3 180.5 164 L 176 162.5 L 179 162 L 178 158 L 181.5 159 L 182 157 L 169 157.5 L 170 162.5 Q 168.6 165.3 164 164 L 163 151.5 L 163 149.5 L 164 140.5 L 164 138.5 Q 165.8 132.3 163 130.5 L 164.5 129 Z " /><path fill="rgb(224,154,35)" stroke="rgb(224,154,35)" stroke-width="1" opacity="1" d="M 106.5 134 L 108 135.5 L 108 164 L 88 163.5 L 91.5 162 L 93 162.5 L 94.5 157 Q 97 158.2 96 162 L 98.5 163 L 101 162.5 L 102 142.5 L 101 141.5 L 101 135 L 106.5 134 Z M 104 136 L 103 139 Q 101 144 105 143 L 106 137 L 104 136 Z " /><path fill="rgb(224,154,35)" stroke="rgb(224,154,35)" stroke-width="1" opacity="1" d="M 96.5 135 L 100 135.5 L 96.5 136 L 96.5 135 Z " /><path fill="rgb(224,154,35)" stroke="rgb(224,154,35)" stroke-width="1" opacity="1" d="M 202 135 L 207.5 135 L 208 135.5 L 208 157 L 202 157 L 202 164 L 195 164 L 195.5 159 L 196 162 Q 201.2 164.1 200 159.5 L 198 159.5 L 198.5 158 L 196 157.5 L 202 157 L 202 135 Z M 203 137 L 203 141 L 206 139 Q 207 136 203 137 Z " /><path fill="rgb(224,154,35)" stroke="rgb(224,154,35)" stroke-width="1" opacity="1" d="M 63 158 L 70 159 Q 68.7 163.1 72 162 L 72.5 159 L 74 163 L 85 163.5 L 72.5 164 L 70.5 164 L 65.5 163 L 63 164 L 63 158 Z M 66 159 L 65 162 L 66 162 L 66 159 Z " /><path fill="rgb(224,154,35)" stroke="rgb(224,154,35)" stroke-width="1" opacity="1" d="M 207.5 158 L 208 164 Q 205.3 165.1 206 162.5 L 207.5 158 Z " /><path fill="rgb(224,154,35)" stroke="rgb(224,154,35)" stroke-width="1" opacity="1" d="M 186.5 159 L 186 160.5 L 186.5 162 L 189 160.5 Q 190.3 165.1 184.5 163 L 185 161.5 L 186.5 159 Z " /><path fill="rgb(224,154,35)" stroke="rgb(224,154,35)" stroke-width="1" opacity="1" d="M 68 177 L 76 177 L 76 183.5 L 75 190 L 70 190 L 70 200.5 Q 72.3 201.8 69.5 203 L 67 203 L 67 196 L 63 196 L 63 183 L 68 183 L 68 177 Z " /><path fill="rgb(224,154,35)" stroke="rgb(224,154,35)" stroke-width="1" opacity="1" d="M 83 177 L 89 177 L 89 190 L 93.5 190 Q 96.3 191.4 95 196 L 90 196 L 90 207.5 L 90.5 209 L 88.5 208 L 84 209 L 85 203 L 83 202.5 L 83 177 Z M 88 204 L 88 207 L 89 207 Q 90 203 88 204 Z " /><path fill="rgb(224,154,35)" stroke="rgb(224,154,35)" stroke-width="1" opacity="1" d="M 101 177 L 108 177 L 108 183 L 114 183 L 114 195.5 L 113 196.5 L 113 203 L 108 203 L 108 190.5 L 107.5 190 L 102 190 L 102 183.5 L 101 177 Z " /><path fill="rgb(224,154,35)" stroke="rgb(224,154,35)" stroke-width="1" opacity="1" d="M 158 177 L 162.5 178 L 169 177 L 169 190 L 163 190 L 163 202.5 L 160.5 203 L 158 202 L 157.5 209 L 157 197.5 L 155.5 196 Q 152.1 196.9 154 191.5 L 155 190.5 L 155 183 L 158 183 L 158 177 Z " /><path fill="rgb(224,154,35)" stroke="rgb(224,154,35)" stroke-width="1" opacity="1" d="M 181.5 177 L 186 177 L 186 183 L 189 183 L 189 195.5 L 188 196.5 L 188 203 L 185 203 L 185 210.5 L 183 211.5 Q 180.6 206.4 182 197.5 L 180.5 196 L 177 197 L 177 183.5 L 182 183 L 182 178.5 L 181.5 177 Z " /><path fill="rgb(224,154,35)" stroke="rgb(224,154,35)" stroke-width="1" opacity="1" d="M 195 177 L 201.5 177 L 202 178.5 L 201 181.5 Q 202.4 184.3 207 183 L 207 195.5 L 205.5 196 L 202 197 L 201 190 L 195 190 L 195 177 Z " /><path fill="rgb(224,154,35)" stroke="rgb(224,154,35)" stroke-width="1" opacity="1" d="M 112.5 205 L 113 208.5 L 112 208.5 L 112.5 205 Z " /><path fill="rgb(4,86,179)" stroke="rgb(4,86,179)" stroke-width="1" opacity="1" d="M 126 37 L 139.5 37 L 141.5 38 L 144 37 L 145 47.5 L 144 47.5 Q 145 43 142.5 42 L 126.5 42 L 126 37 Z " /><path fill="rgb(4,86,179)" stroke="rgb(4,86,179)" stroke-width="1" opacity="1" d="M 150.5 43 L 169.5 43 Q 170.8 43.3 170 49.5 L 171.5 49 L 177.5 50 L 179.5 50 L 181.5 49 Q 184.5 50.6 183 56 L 189 56 L 189 62 L 195 62 L 195 68.5 Q 196.3 71.3 197.5 69 Q 203.6 67.2 201 74.5 L 202 75.5 L 202 84 L 207.5 84 L 208 84.5 L 208 129 L 201.5 129 L 201 128.5 L 201 93.5 L 200 92.5 L 200 84 L 196 84.5 L 196 103.5 L 195 108.5 L 196 123.5 L 195 128 L 187.5 127 L 186 127.5 L 185.5 126 L 180.5 127 L 176.5 126 L 170.5 128 L 169 126.5 L 168.5 96 L 163 97 L 164 91.5 Q 161.3 89.8 163 83.5 L 161.5 82 L 158.5 81 L 157.5 84 L 151 84 L 151 78.5 L 152 78.5 L 152 81 L 157 81 L 157 76 L 150.5 76 L 150 75.5 L 150 45.5 Q 147.7 44.3 150.5 43 Z M 170 56 L 170 58 L 172 57 L 170 56 Z M 188 66 L 187 69 L 188 69 L 188 66 Z M 194 77 L 193 81 L 192 81 L 190 81 L 190 83 L 195 83 L 194 77 Z " /><path fill="rgb(4,86,179)" stroke="rgb(4,86,179)" stroke-width="1" opacity="1" d="M 126 50 L 144 50 L 144 76 L 130.5 77 L 126 76 L 126 63.5 L 127.5 62 L 130 63 L 129.5 55 L 127 56.5 L 126 50 Z " /><path fill="rgb(4,86,179)" stroke="rgb(4,86,179)" stroke-width="1" opacity="1" d="M 143.5 77 L 144 83 L 130.5 83 L 129 81.5 Q 127.7 76.7 131 78 L 133.5 82 L 143 81 L 143.5 77 Z " /><path fill="rgb(4,86,179)" stroke="rgb(4,86,179)" stroke-width="1" opacity="1" d="M 158.5 86 L 159.5 89 L 160 87 Q 163.3 85.9 162 90 Q 155.8 92 158.5 86 Z " /><path fill="rgb(4,86,179)" stroke="rgb(4,86,179)" stroke-width="1" opacity="1" d="M 197 86 L 199 86 L 199 92 L 197 92 L 197 86 Z " /><path fill="rgb(4,86,179)" stroke="rgb(4,86,179)" stroke-width="1" opacity="1" d="M 198.5 93 L 199 95.5 L 198 95.5 L 198.5 93 Z " /><path fill="rgb(13,5,5)" stroke="rgb(13,5,5)" stroke-width="1" opacity="1" d="M 28.5 6 L 239 6.5 L 28.5 7 L 28.5 6 Z " /><path fill="rgb(13,5,5)" stroke="rgb(13,5,5)" stroke-width="1" opacity="1" d="M 28.5 8 L 29 10 L 223 9.5 L 219 8.5 L 227.5 8 L 227.5 9 L 226 9.5 L 237 10.5 L 28 11 L 28.5 8 Z " /><path fill="rgb(13,5,5)" stroke="rgb(13,5,5)" stroke-width="1" opacity="1" d="M 22 12 L 27 12 L 27 19 L 24 18.5 L 26 18 L 26 13 L 23 13 L 22.5 19 L 22 12 Z " /><path fill="rgb(13,5,5)" stroke="rgb(13,5,5)" stroke-width="1" opacity="1" d="M 240 12 L 247 12 L 247 19 L 240 19 L 240 12 Z M 243 13 Q 240 17 244 16 L 245 16 Q 246 18 242 17 L 242 18 Q 248 20 246 15 L 243 13 Z " /><path fill="rgb(13,5,5)" stroke="rgb(13,5,5)" stroke-width="1" opacity="1" d="M 17.5 19 L 21 20.5 L 20.5 32 L 20 20 Q 16.7 20.8 17.5 19 Z " /><path fill="rgb(13,5,5)" stroke="rgb(13,5,5)" stroke-width="1" opacity="1" d="M 40 19 L 51.5 19 L 52 22 L 59.5 22 L 61 21.5 L 62 23.5 L 45 24 L 45 30.5 L 46 31.5 L 44.5 31 L 40 31 L 40 19 Z " /><path fill="rgb(13,5,5)" stroke="rgb(13,5,5)" stroke-width="1" opacity="1" d="M 61.5 19 L 207.5 19 L 208 22 L 215 22 L 215.5 19 L 227 19 L 227 31 L 222.5 31 L 220 32.5 L 221.5 25 L 225 26 L 225.5 28 L 226 20 L 216 20.5 L 220 22 L 219.5 24 L 65.5 24 L 65.5 23 L 67.5 22 L 69.5 22 Q 73.3 22.8 74 20.5 L 61.5 20 L 61.5 19 Z M 101 20 L 101 21 L 119 21 L 101 20 Z M 129 20 L 129 21 L 173 21 L 129 20 Z M 175 20 L 175 21 L 182 21 L 175 20 Z M 190 20 L 190 21 L 203 21 L 190 20 Z " /><path fill="rgb(13,5,5)" stroke="rgb(13,5,5)" stroke-width="1" opacity="1" d="M 248.5 19 L 249.5 26 L 251 25.5 Q 251.7 28.1 249 27 L 249 29.5 L 250 29.5 L 250.5 28 L 251 29.5 L 251 31.5 L 251 40.5 L 249 41.5 L 249 53.5 Q 252 54.5 251 59.5 Q 248.2 61.2 249 66.5 L 251 69.5 L 249 71.5 L 249 91.5 L 251 91.5 L 251 100.5 L 249 101.5 L 249 123 L 251 123 L 251 129 L 249 129 L 249 134 L 251 134.5 L 251 136.5 L 249 139.5 L 249 152.5 L 250 155.5 L 249 156.5 L 249 163 Q 252.5 161.9 251 169.5 Q 248.2 171.5 249 176 L 251 176.5 L 251 184 L 249 184.5 L 249 193.5 L 251 198.5 Q 247.5 200 249 206.5 L 251 206.5 Q 253 214.5 249 216.5 L 249 227 L 252 226.5 L 252 19.5 L 253 19.5 L 253 227.5 L 248 228 L 248.5 19 Z " /><path fill="rgb(13,5,5)" stroke="rgb(13,5,5)" stroke-width="1" opacity="1" d="M 15.5 20 L 16 48.5 L 15 48.5 L 15.5 20 Z " /><path fill="rgb(13,5,5)" stroke="rgb(13,5,5)" stroke-width="1" opacity="1" d="M 28 32 L 39 32 L 39 37.5 L 37.5 37 Q 34.2 38.1 35 35.5 L 34.5 33 L 29 33 L 29 42 L 32 42.5 L 28 43 L 28 32 Z " /><path fill="rgb(13,5,5)" stroke="rgb(13,5,5)" stroke-width="1" opacity="1" d="M 228 32 L 239 32 L 239 41.5 L 239.5 43 L 237 43.5 L 237 56 L 239 56.5 L 239 190 L 237 190.5 L 237 198.5 L 236 201.5 L 237.5 203 L 239 203.5 L 239 215 L 227 215 L 227 228 L 215 228 L 215 224 L 208 224 L 207.5 228 L 203.5 227 L 202.5 228 L 59 228 L 59 224 L 51 224 L 51 228 L 40 228 L 40 215 L 45 215 L 45 222 L 47.5 222 L 47.5 223 L 45 223.5 L 45.5 225 L 44 225.5 L 50 226 L 51.5 223 L 63.5 222 L 64.5 223 L 78.5 223 Q 80 220.5 85.5 222 L 87.5 222 L 97.5 222 L 98.5 223 L 100.5 223 L 131.5 222 L 133.5 223 L 134.5 222 L 195 222 L 195 226 L 207 226 Q 208.1 223.3 205.5 224 L 205.5 223 L 221 222 L 221 215 L 226.5 215 Q 229.1 213.6 228.5 209 L 232.5 210 L 234 209.5 L 232.5 212 L 229.5 211 L 229 214 L 238 214 L 238 209.5 L 237 209.5 L 236.5 212 L 234 206.5 L 235 203.5 L 234 196 Q 238 197.4 236 190.5 L 235 189.5 L 235 161.5 L 234 160.5 L 234 158.5 Q 232.8 153.8 235 152.5 L 234 151.5 L 234 140.5 L 234 138.5 L 235 135.5 L 235 116.5 L 234 114.5 L 235 111.5 L 234 106.5 L 234 102.5 L 234 84.5 L 235 81.5 Q 232.5 80 234 74.5 L 235 67.5 L 234 64.5 Q 236.3 63.3 235 58.5 L 234 56 L 236 55.5 L 236 53.5 L 236 49.5 L 234 49 L 234 46.5 L 235 41.5 L 234 37 L 227.5 38 L 228 36.5 L 228 32 Z M 238 33 L 237 42 L 238 42 L 238 33 Z M 238 59 L 236 62 L 237 64 L 238 64 L 238 59 Z M 238 65 L 237 68 L 238 68 L 238 65 Z M 238 165 L 237 172 L 238 172 L 238 165 Z M 238 175 L 237 189 L 238 189 L 238 175 Z M 81 225 L 81 226 L 91 226 L 81 225 Z M 111 225 L 111 226 L 113 226 L 111 225 Z M 127 225 L 127 226 L 129 226 L 127 225 Z M 217 225 L 216 227 L 220 227 L 217 225 Z " /><path fill="rgb(13,5,5)" stroke="rgb(13,5,5)" stroke-width="1" opacity="1" d="M 45.5 33 L 46 36.5 L 45 36.5 L 45.5 33 Z " /><path fill="rgb(13,5,5)" stroke="rgb(13,5,5)" stroke-width="1" opacity="1" d="M 20.5 34 L 21 64.5 L 20 64.5 L 20.5 34 Z " /><path fill="rgb(13,5,5)" stroke="rgb(13,5,5)" stroke-width="1" opacity="1" d="M 129.5 36 L 143 36.5 L 129.5 37 L 129.5 36 Z " /><path fill="rgb(13,5,5)" stroke="rgb(13,5,5)" stroke-width="1" opacity="1" d="M 102 37 L 124.5 37 L 125 40.5 L 126 42.5 L 125 43.5 L 125 75.5 Q 129.9 77.7 129 84 L 143.5 84 L 145 82.5 L 144 72.5 L 145 69.5 L 145.5 46 L 146.5 70 L 148 67.5 L 148 63.5 Q 149.3 55.3 147 50.5 L 148.5 46 L 150 68.5 Q 147.5 70 149 75.5 Q 152.5 77 150 78.5 Q 148.8 83.8 151.5 85 Q 159.8 82.5 157 90 L 151 90 L 150.5 85 L 126 85 L 127 88.5 L 125.5 90 L 114 90 L 114 97 L 110.5 97 Q 109.3 94.8 108 97.5 L 108 127.5 L 106.5 129 Q 100.7 126.9 102 131.5 L 101.5 133 L 107.5 133 L 108 129 L 114 129 L 114 163.5 L 113.5 164 L 108 164 L 108 170 L 102 170 L 102 174.5 Q 104.3 175.8 101.5 177 L 92 176.5 L 93 172.5 L 92 172.5 L 91.5 175 L 90 170.5 L 91 167 L 94 167 L 94.5 170 L 102 170 L 102 164 L 107.5 164 L 108 163.5 L 108 134 L 96 134 L 95.5 129 L 82 129 L 81.5 131 L 79.5 131 L 68.5 130 L 65.5 131 L 62.5 129 L 62 164 L 96 164.5 L 86.5 165 L 85.5 166 L 68 166 L 68 170 L 80.5 170 L 81 173.5 L 76.5 172 Q 74.3 171.3 75 173.5 L 74.5 176 L 68 176 L 68 170 L 62 170 L 62 164 L 57 164 L 57 160.5 L 56 158.5 Q 59.5 157 57 155.5 L 57 84.5 L 57.5 84 L 63 84 L 62 89.5 L 62 122.5 L 63 124.5 L 62.5 128 L 71 127.5 L 69 127 L 68 122.5 L 74 121.5 L 74 119.5 L 75 109.5 L 77 107.5 L 76.5 105 Q 72.8 106 74 103 L 80 103 L 80 106.5 L 79.5 110 Q 86.5 108.5 86 111.5 L 87 111.5 Q 86.3 109.3 88.5 110 L 89 112.5 L 88 115.5 L 88 119.5 L 87.5 121 L 76.5 121 L 76.5 122 L 89.5 122 L 90.5 123 L 93 122.5 L 93 97.5 L 96 97 L 96 95.5 L 94.5 90 L 92.5 93 L 90.5 89 Q 86.1 90.5 87 87.5 L 86 87.5 L 85.5 90 L 85 86 L 87 85.5 L 86.5 84 L 90 84 L 90 76 L 96.5 76 L 98 78.5 L 95 81.5 L 95 83.5 L 95 90 L 102 90 L 101 83.5 L 105.5 83 L 108 84 L 108 76 L 112.5 76 L 114.5 76 Q 119.9 76.6 120 75.5 L 120 43 L 102 43 L 102 37 Z M 146 81 Q 145 84 149 83 Q 150 80 146 81 Z M 114 82 L 114 84 L 122 84 L 120 83 L 118 83 L 114 82 Z M 109 84 L 107 86 L 109 88 L 109 85 L 111 85 L 109 84 Z M 103 90 L 101 92 L 101 102 L 96 103 L 96 116 L 98 115 L 101 116 L 101 119 L 100 122 L 98 122 L 96 123 L 96 129 L 102 129 L 102 129 L 102 96 L 108 96 L 102 95 L 103 92 L 103 90 Z M 106 90 Q 105 93 108 92 Q 109 89 106 90 Z M 80 111 L 80 114 L 83 113 Q 84 109 80 111 Z M 87 114 L 84 116 L 87 116 L 87 114 Z M 75 117 Q 74 120 77 119 Q 78 116 75 117 Z M 87 123 L 85 125 L 87 125 L 87 123 Z M 88 123 L 88 127 L 87 126 L 80 128 L 91 128 L 90 127 Q 91 122 88 123 Z M 61 129 L 60 132 L 61 132 L 61 129 Z M 61 146 L 60 151 L 61 151 L 61 146 Z " /><path fill="rgb(13,5,5)" stroke="rgb(13,5,5)" stroke-width="1" opacity="1" d="M 145 37 L 168.5 37 L 170 38.5 Q 167.7 45.7 175.5 43 L 180.5 44 L 182 43.5 L 182 49 L 170 49 L 170 43.5 L 169.5 43 L 146.5 43 L 145 43.5 L 145 37 Z " /><path fill="rgb(13,5,5)" stroke="rgb(13,5,5)" stroke-width="1" opacity="1" d="M 31.5 38 L 32 40.5 L 31 40.5 L 31.5 38 Z " /><path fill="rgb(13,5,5)" stroke="rgb(13,5,5)" stroke-width="1" opacity="1" d="M 40.5 38 L 44 38.5 L 40.5 39 L 40.5 38 Z " /><path fill="rgb(13,5,5)" stroke="rgb(13,5,5)" stroke-width="1" opacity="1" d="M 90 43 L 99.5 44 L 101 43.5 L 101 49 L 90 49 Q 91.1 52.3 87 51 L 87 54 L 89 54.5 L 82.5 56 L 81 55.5 L 81 62 L 75 62 L 75 56 L 79.5 56 L 81.5 52 Q 83.8 52.8 83 50.5 L 86.5 49 L 88.5 50 Q 91.5 48.4 90 43 Z M 80 59 L 78 61 L 80 61 L 80 59 Z " /><path fill="rgb(13,5,5)" stroke="rgb(13,5,5)" stroke-width="1" opacity="1" d="M 111.5 50 L 119 50.5 L 116 51 L 115.5 54 L 115 51 Q 110.6 52 111.5 50 Z " /><path fill="rgb(13,5,5)" stroke="rgb(13,5,5)" stroke-width="1" opacity="1" d="M 183 50 L 189 50 L 189 54.5 Q 187.6 57.3 183 56 L 183 50 Z " /><path fill="rgb(13,5,5)" stroke="rgb(13,5,5)" stroke-width="1" opacity="1" d="M 15.5 52 L 16 190.5 L 15 190.5 L 15.5 52 Z " /><path fill="rgb(13,5,5)" stroke="rgb(13,5,5)" stroke-width="1" opacity="1" d="M 28.5 56 L 31.5 57 L 33 56.5 L 32.5 191 L 30 189.5 L 32 189 L 32 181.5 Q 28.8 182.5 30 176.5 L 31 176.5 L 31.5 180 L 32 175.5 L 32 173.5 L 31.5 166 L 30.5 169 L 30 140.5 L 32 140.5 Q 33.5 134 30 132.5 L 29.5 116 L 28.5 191 L 28.5 56 Z M 29 58 L 29 82 L 30 82 L 30 69 L 32 68 L 32 59 L 29 58 Z M 30 88 L 29 112 L 30 112 L 30 88 Z " /><path fill="rgb(13,5,5)" stroke="rgb(13,5,5)" stroke-width="1" opacity="1" d="M 98.5 56 L 108 56.5 L 97 58 L 96.5 62 L 96 57 L 98.5 56 Z " /><path fill="rgb(13,5,5)" stroke="rgb(13,5,5)" stroke-width="1" opacity="1" d="M 190 56 L 195 56 L 195 62 L 190 62 L 190 56 Z " /><path fill="rgb(13,5,5)" stroke="rgb(13,5,5)" stroke-width="1" opacity="1" d="M 115.5 59 L 117 61.5 L 116.5 63 L 118 63.5 L 118 70 L 114 68.5 L 113.5 67 L 112 69.5 L 112.5 71 L 110.5 70 L 108 71 Q 109.1 73.7 106.5 73 L 106.5 74 L 108 74.5 L 101.5 76 L 102 74.5 L 101 70.5 L 108 70 L 109.5 66 L 111 66.5 Q 109.3 61.7 113.5 63 L 115 63.5 L 115.5 59 Z " /><path fill="rgb(13,5,5)" stroke="rgb(13,5,5)" stroke-width="1" opacity="1" d="M 73.5 62 L 74 69 L 69 68.5 L 70 63 L 73.5 62 Z " /><path fill="rgb(13,5,5)" stroke="rgb(13,5,5)" stroke-width="1" opacity="1" d="M 196.5 62 L 201 63 L 201 69 L 196 69 L 196.5 62 Z " /><path fill="rgb(13,5,5)" stroke="rgb(13,5,5)" stroke-width="1" opacity="1" d="M 84 63 L 89 63.5 L 85 64 L 84.5 69 L 84 63 Z " /><path fill="rgb(13,5,5)" stroke="rgb(13,5,5)" stroke-width="1" opacity="1" d="M 20.5 67 L 21 128 L 19 127.5 L 19 114.5 Q 21.3 113.2 20 108.5 L 19 106.5 L 20 105.5 L 20 75.5 L 19 72.5 L 20.5 67 Z " /><path fill="rgb(13,5,5)" stroke="rgb(13,5,5)" stroke-width="1" opacity="1" d="M 64 69 L 66.5 70 L 68 69.5 L 68 76 L 64 76 L 64 69 Z " /><path fill="rgb(13,5,5)" stroke="rgb(13,5,5)" stroke-width="1" opacity="1" d="M 202 69 L 206 70.5 L 205 76 L 208 76 L 208 82.5 Q 206.7 85.3 205.5 83 L 202.5 84 L 202 69 Z " /><path fill="rgb(13,5,5)" stroke="rgb(13,5,5)" stroke-width="1" opacity="1" d="M 156.5 76 L 157 78.5 L 155 77.5 L 156.5 76 Z " /><path fill="rgb(13,5,5)" stroke="rgb(13,5,5)" stroke-width="1" opacity="1" d="M 64.5 77 L 66.5 82 L 67.5 77 L 68 83 L 63 83 L 63 80.5 L 64.5 77 Z " /><path fill="rgb(13,5,5)" stroke="rgb(13,5,5)" stroke-width="1" opacity="1" d="M 84.5 77 Q 86.8 76.3 86 78.5 L 84.5 77 Z " /><path fill="rgb(13,5,5)" stroke="rgb(13,5,5)" stroke-width="1" opacity="1" d="M 103 78 Q 106.7 76.5 106 79.5 L 103 81 L 103 78 Z " /><path fill="rgb(13,5,5)" stroke="rgb(13,5,5)" stroke-width="1" opacity="1" d="M 158.5 82 Q 162.3 81.3 163 83.5 L 162.5 85 L 162 83 Q 157.6 84 158.5 82 Z " /><path fill="rgb(13,5,5)" stroke="rgb(13,5,5)" stroke-width="1" opacity="1" d="M 208 84 L 213 84 L 213 86.5 L 214 87.5 L 214 159.5 L 215 161.5 Q 213.8 164.3 212.5 162 Q 209.2 160.9 210 163.5 Q 206.8 164.9 208 170 L 202 170 L 202 175.5 L 203 182 L 206 182.5 L 202 183 L 202 176 L 195 176 L 194.5 187 L 193 177 L 188 176 L 187.5 181 L 187 176 L 182 175.5 L 187 175 L 186.5 172 L 186 174 Q 181.8 175 182.5 172 L 177.5 172 L 176 176 L 171 175 L 170.5 185 L 170 170 L 201.5 170 L 202 165 L 195 164.5 L 209 164 L 208 157.5 L 209 156.5 L 209 135.5 L 208 134.5 L 208 84 Z " /><path fill="rgb(13,5,5)" stroke="rgb(13,5,5)" stroke-width="1" opacity="1" d="M 98.5 85 L 100 85 L 100 89 Q 95.9 90.7 97 86.5 L 98.5 85 Z " /><path fill="rgb(13,5,5)" stroke="rgb(13,5,5)" stroke-width="1" opacity="1" d="M 158.5 90 L 163 90 L 163 97 L 158 97 L 158 95.5 L 157 92.5 L 158.5 90 Z " /><path fill="rgb(13,5,5)" stroke="rgb(13,5,5)" stroke-width="1" opacity="1" d="M 81.5 96 Q 83.8 95.3 83 97.5 L 83.5 99 L 82 98.5 L 81.5 101 L 80 97.5 L 81.5 96 Z " /><path fill="rgb(13,5,5)" stroke="rgb(13,5,5)" stroke-width="1" opacity="1" d="M 90.5 96 L 91 111.5 L 92 112.5 L 92 114.5 L 90.5 121 L 90.5 96 Z " /><path fill="rgb(13,5,5)" stroke="rgb(13,5,5)" stroke-width="1" opacity="1" d="M 164.5 97 Q 169 96.5 169 97.5 L 169 127.5 L 170.5 128 L 170.5 129 L 163.5 129 L 163 129.5 L 163 164 L 190 164.5 L 170 165 Q 171 168.8 168.5 170 Q 161.8 172.3 164 165.5 Q 162.6 162.8 158 164 L 158 129.5 L 160.5 129 Q 162.3 131.7 164 127.5 L 164 109.5 L 163 108.5 Q 165.3 107.2 164 102.5 L 163 98.5 L 164.5 97 Z M 168 115 L 167 121 L 165 122 L 167 122 L 168 123 L 168 115 Z M 162 131 L 161 136 L 162 136 L 162 131 Z M 162 153 L 161 156 L 162 156 L 162 153 Z " /><path fill="rgb(13,5,5)" stroke="rgb(13,5,5)" stroke-width="1" opacity="1" d="M 200.5 103 L 201 109.5 L 200 109.5 L 200.5 103 Z " /><path fill="rgb(13,5,5)" stroke="rgb(13,5,5)" stroke-width="1" opacity="1" d="M 98 112 Q 101 111 100 114 Q 97 115 98 112 Z " /><path fill="rgb(13,5,5)" stroke="rgb(13,5,5)" stroke-width="1" opacity="1" d="M 200.5 123 L 201 129 L 195 128.5 L 200 128 L 200.5 123 Z " /><path fill="rgb(13,5,5)" stroke="rgb(13,5,5)" stroke-width="1" opacity="1" d="M 176.5 128 L 182 128.5 L 176.5 129 L 176.5 128 Z " /><path fill="rgb(13,5,5)" stroke="rgb(13,5,5)" stroke-width="1" opacity="1" d="M 20.5 133 L 21 228 L 18 227.5 L 20 227 L 19 203.5 L 20 202.5 L 20 187.5 L 19 182.5 L 20 181.5 L 20 161.5 L 19 160.5 L 19 149.5 Q 21.3 148.3 20 143.5 L 19 142.5 L 19 134.5 L 20.5 133 Z " /><path fill="rgb(13,5,5)" stroke="rgb(13,5,5)" stroke-width="1" opacity="1" d="M 196.5 136 L 197 149.5 L 196 149.5 L 196.5 136 Z " /><path fill="rgb(13,5,5)" stroke="rgb(13,5,5)" stroke-width="1" opacity="1" d="M 200.5 136 L 201 155.5 L 200 155.5 L 200.5 136 Z " /><path fill="rgb(13,5,5)" stroke="rgb(13,5,5)" stroke-width="1" opacity="1" d="M 94.5 140 L 95 148.5 L 94 148.5 L 94.5 140 Z " /><path fill="rgb(13,5,5)" stroke="rgb(13,5,5)" stroke-width="1" opacity="1" d="M 196.5 152 L 198 155.5 L 196 156 L 196.5 152 Z " /><path fill="rgb(13,5,5)" stroke="rgb(13,5,5)" stroke-width="1" opacity="1" d="M 74.5 157 L 80 157.5 L 74.5 158 L 74.5 157 Z " /><path fill="rgb(13,5,5)" stroke="rgb(13,5,5)" stroke-width="1" opacity="1" d="M 108 172 Q 111.3 170.7 110 175.5 Q 108.5 178.5 107 175.5 L 108 172 Z " /><path fill="rgb(13,5,5)" stroke="rgb(13,5,5)" stroke-width="1" opacity="1" d="M 90.5 176 L 91 189 L 95 189.5 L 90 190 L 90.5 176 Z " /><path fill="rgb(13,5,5)" stroke="rgb(13,5,5)" stroke-width="1" opacity="1" d="M 76.5 178 L 77 182.5 L 76 182.5 L 76.5 178 Z " /><path fill="rgb(13,5,5)" stroke="rgb(13,5,5)" stroke-width="1" opacity="1" d="M 82.5 178 L 83 182.5 L 82 182.5 L 82.5 178 Z " /><path fill="rgb(13,5,5)" stroke="rgb(13,5,5)" stroke-width="1" opacity="1" d="M 95.5 180 L 96 183 L 101 183 L 101 190.5 L 100 190.5 Q 100.9 187.5 96.5 189 L 95 186.5 L 96 183.5 L 95.5 180 Z " /><path fill="rgb(13,5,5)" stroke="rgb(13,5,5)" stroke-width="1" opacity="1" d="M 154.5 182 L 157 182.5 L 154 183 L 153.5 196 L 153 183.5 L 154.5 182 Z " /><path fill="rgb(13,5,5)" stroke="rgb(13,5,5)" stroke-width="1" opacity="1" d="M 187.5 182 L 191 184.5 L 190 185.5 L 189.5 196 L 189 183 L 187.5 182 Z " /><path fill="rgb(13,5,5)" stroke="rgb(13,5,5)" stroke-width="1" opacity="1" d="M 175.5 183 L 176 197.5 L 175 197.5 L 175.5 183 Z " /><path fill="rgb(13,5,5)" stroke="rgb(13,5,5)" stroke-width="1" opacity="1" d="M 208.5 183 L 209 196.5 Q 208 199 203.5 198 L 203.5 197 L 208 197 L 208.5 183 Z " /><path fill="rgb(13,5,5)" stroke="rgb(13,5,5)" stroke-width="1" opacity="1" d="M 114.5 184 L 115 208.5 L 114 208.5 L 114.5 184 Z " /><path fill="rgb(13,5,5)" stroke="rgb(13,5,5)" stroke-width="1" opacity="1" d="M 62.5 186 L 63 197 Q 68.6 194.8 67 200.5 L 66 200.5 L 64.5 198 L 62 196.5 L 62.5 186 Z " /><path fill="rgb(13,5,5)" stroke="rgb(13,5,5)" stroke-width="1" opacity="1" d="M 76.5 186 L 77 189.5 L 76 191.5 L 76 193.5 L 75.5 195 L 74 192.5 L 74.5 191 L 72 191.5 L 72 202.5 L 71 202.5 L 71 190.5 L 76 190 L 76.5 186 Z " /><path fill="rgb(13,5,5)" stroke="rgb(13,5,5)" stroke-width="1" opacity="1" d="M 78.5 188 L 79.5 190 Q 76.7 190.7 78.5 188 Z " /><path fill="rgb(13,5,5)" stroke="rgb(13,5,5)" stroke-width="1" opacity="1" d="M 28 192 Q 31.8 191 33 193.5 L 32 199 L 30 198.5 L 31 196 Q 26.1 197.6 28 192 Z " /><path fill="rgb(13,5,5)" stroke="rgb(13,5,5)" stroke-width="1" opacity="1" d="M 81.5 192 L 82 198.5 L 81 198.5 L 81.5 192 Z " /><path fill="rgb(13,5,5)" stroke="rgb(13,5,5)" stroke-width="1" opacity="1" d="M 164.5 194 L 165 197 Q 170.2 194.9 169 199.5 L 166.5 205 L 163 204 L 162 209 L 158 209 L 158 203 L 163.5 203 L 164 201.5 L 163 196.5 L 164.5 194 Z " /><path fill="rgb(13,5,5)" stroke="rgb(13,5,5)" stroke-width="1" opacity="1" d="M 106.5 197 L 107 203 Q 113.4 200.7 111 208.5 L 112.5 211 L 108 209 L 106 202.5 L 106.5 197 Z " /><path fill="rgb(13,5,5)" stroke="rgb(13,5,5)" stroke-width="1" opacity="1" d="M 194.5 197 L 195 203.5 L 193 202.5 Q 193.8 200.3 191.5 201 L 191.5 200 Q 193.8 200.8 193 198.5 L 194.5 197 Z " /><path fill="rgb(13,5,5)" stroke="rgb(13,5,5)" stroke-width="1" opacity="1" d="M 15.5 199 L 16 227.5 L 15 227.5 L 15.5 199 Z " /><path fill="rgb(13,5,5)" stroke="rgb(13,5,5)" stroke-width="1" opacity="1" d="M 155.5 199 L 156 208.5 L 155 208.5 L 155.5 199 Z " /><path fill="rgb(13,5,5)" stroke="rgb(13,5,5)" stroke-width="1" opacity="1" d="M 189.5 200 L 190 202.5 L 189 202.5 L 189.5 200 Z " /><path fill="rgb(13,5,5)" stroke="rgb(13,5,5)" stroke-width="1" opacity="1" d="M 31.5 201 L 32 202.5 L 32 204.5 L 33 209 Q 37.6 207.8 39 210.5 L 38 212.5 Q 40.3 213.8 37.5 215 L 28 215 L 28 203 Q 31.8 204.3 31.5 201 Z M 29 204 L 29 208 L 31 207 Q 32 203 29 204 Z " /><path fill="rgb(13,5,5)" stroke="rgb(13,5,5)" stroke-width="1" opacity="1" d="M 67.5 203 Q 70.8 201.9 70 204.5 L 68.5 204 L 67.5 203 Z " /><path fill="rgb(13,5,5)" stroke="rgb(13,5,5)" stroke-width="1" opacity="1" d="M 186 203 L 188 203.5 L 187 205.5 L 187 207.5 Q 187.8 209.8 185.5 209 L 186 207.5 L 186 203 Z " /><path fill="rgb(13,5,5)" stroke="rgb(13,5,5)" stroke-width="1" opacity="1" d="M 197 203 L 202 203.5 L 197.5 205 L 197 203 Z " /><path fill="rgb(13,5,5)" stroke="rgb(13,5,5)" stroke-width="1" opacity="1" d="M 91.5 206 L 92 208.5 L 91 208.5 L 91.5 206 Z " /><path fill="rgb(13,5,5)" stroke="rgb(13,5,5)" stroke-width="1" opacity="1" d="M 180.5 208 L 182 211.5 L 181 211.5 L 180.5 208 Z " /><path fill="rgb(13,5,5)" stroke="rgb(13,5,5)" stroke-width="1" opacity="1" d="M 82.5 211 L 84 213.5 Q 83.3 215.8 79.5 215 L 79.5 214 L 83 213.5 L 82.5 211 Z " /><path fill="rgb(13,5,5)" stroke="rgb(13,5,5)" stroke-width="1" opacity="1" d="M 89.5 211 L 90 214.5 L 89 214.5 L 88 212.5 L 89.5 211 Z " /><path fill="rgb(13,5,5)" stroke="rgb(13,5,5)" stroke-width="1" opacity="1" d="M 185.5 211 L 186 213 Q 183.3 211.9 184 214.5 L 183 214.5 Q 181.9 211.2 184.5 212 L 185.5 211 Z " /><path fill="rgb(13,5,5)" stroke="rgb(13,5,5)" stroke-width="1" opacity="1" d="M 22 228 L 27 228 L 27 234.5 L 25.5 234 L 24 233.5 L 26 233 L 25 230.5 L 25.5 229 L 23 229 L 23 234.5 L 22 234.5 L 22 228 Z " /><path fill="rgb(13,5,5)" stroke="rgb(13,5,5)" stroke-width="1" opacity="1" d="M 240 228 L 247 228 L 247 234 L 240.5 235 L 240 228 Z M 244 230 L 241 233 L 245 233 L 244 230 Z " /><path fill="rgb(13,5,5)" stroke="rgb(13,5,5)" stroke-width="1" opacity="1" d="M 28.5 235 L 29 239.5 L 28 239.5 L 28.5 235 Z " /><path fill="rgb(13,5,5)" stroke="rgb(13,5,5)" stroke-width="1" opacity="1" d="M 31.5 235 L 236 235.5 L 228 236 L 227 238.5 L 233 239.5 L 61.5 240 L 61.5 239 L 84.5 239 L 92 237.5 L 70.5 237 L 68.5 237 Q 61 238.5 57.5 236 L 52 237 Q 50.9 239.7 53.5 239 L 53.5 240 L 38 239.5 L 41 239 L 39.5 236 L 31.5 236 L 31.5 235 Z M 216 236 Q 213 239 208 238 L 208 239 L 218 239 L 218 237 L 216 236 Z M 97 237 L 97 238 L 99 238 L 97 237 Z M 118 237 L 117 239 L 131 239 L 129 237 L 118 237 Z M 150 237 L 150 238 L 156 238 L 157 239 L 157 237 L 150 237 Z M 173 237 L 172 238 L 161 238 L 161 239 L 179 239 L 173 237 Z M 185 238 L 185 239 L 192 239 L 185 238 Z " /><path fill="rgb(13,5,5)" stroke="rgb(13,5,5)" stroke-width="1" opacity="1" d="M 238.5 236 L 239 239.5 L 238 239.5 L 238.5 236 Z " /><path fill="rgb(13,5,5)" stroke="rgb(13,5,5)" stroke-width="1" opacity="1" d="M 234.5 239 L 237 239.5 L 234.5 240 L 234.5 239 Z " /></svg>