<svg width="266" height="260" version="1.1" xmlns="http://www.w3.org/2000/svg" desc="Created with imagetracer.js version 1.2.6" ><path fill="rgb(0,0,0)" stroke="rgb(0,0,0)" stroke-width="1" opacity="0" d="M 0 0 L 266 0 L 266 260 L 0 260 L 0 0 Z M 26 12 L 26 19 L 19 19 L 19 26 L 13 26 L 13 236 L 14 236 L 19 236 L 19 243 L 26 243 L 26 250 L 241 250 L 241 250 L 241 243 L 248 243 L 248 236 L 254 236 L 254 27 L 254 26 L 248 26 L 248 19 L 241 19 L 241 12 L 26 12 Z " /><path fill="rgb(31,29,28)" stroke="rgb(31,29,28)" stroke-width="1" opacity="1" d="M 28 14 L 37 14.5 L 35 15.5 L 35.5 17 L 29 17.5 L 33 18.5 L 27.5 19 L 28 17.5 L 28 14 Z " /><path fill="rgb(31,29,28)" stroke="rgb(31,29,28)" stroke-width="1" opacity="1" d="M 51.5 14 L 76 14.5 L 68 15.5 L 71 16.5 L 62.5 17 L 62.5 16 L 65 15.5 L 51.5 15 L 51.5 14 Z " /><path fill="rgb(31,29,28)" stroke="rgb(31,29,28)" stroke-width="1" opacity="1" d="M 86.5 14 L 90 14.5 L 86.5 15 L 86.5 14 Z " /><path fill="rgb(31,29,28)" stroke="rgb(31,29,28)" stroke-width="1" opacity="1" d="M 159.5 14 L 170 14.5 L 159.5 15 L 159.5 14 Z " /><path fill="rgb(31,29,28)" stroke="rgb(31,29,28)" stroke-width="1" opacity="1" d="M 185.5 14 L 193 14.5 L 185.5 15 L 185.5 14 Z " /><path fill="rgb(31,29,28)" stroke="rgb(31,29,28)" stroke-width="1" opacity="1" d="M 203.5 14 L 213 14.5 L 208 15 Q 209.3 18.7 203.5 17 L 203.5 16 L 206 15.5 Q 202.7 15.6 203.5 14 Z " /><path fill="rgb(31,29,28)" stroke="rgb(31,29,28)" stroke-width="1" opacity="1" d="M 226.5 14 L 238.5 14 L 239 16.5 L 238 16.5 Q 238.8 13.9 235.5 15 L 235.5 16 L 237 16.5 L 226.5 17 L 226.5 16 L 228 15.5 L 226.5 14 Z " /><path fill="rgb(31,29,28)" stroke="rgb(31,29,28)" stroke-width="1" opacity="1" d="M 20.5 19 L 26 19.5 L 20.5 20 L 20.5 19 Z " /><path fill="rgb(31,29,28)" stroke="rgb(31,29,28)" stroke-width="1" opacity="1" d="M 241.5 19 L 247 19.5 L 241.5 20 L 241.5 19 Z " /><path fill="rgb(31,29,28)" stroke="rgb(31,29,28)" stroke-width="1" opacity="1" d="M 243.5 24 L 246 24.5 L 243.5 25 L 243.5 24 Z " /><path fill="rgb(31,29,28)" stroke="rgb(31,29,28)" stroke-width="1" opacity="1" d="M 14.5 26 L 17 26.5 L 13.5 28 L 14.5 26 Z " /><path fill="rgb(31,29,28)" stroke="rgb(31,29,28)" stroke-width="1" opacity="1" d="M 39.5 26 L 50.5 26 L 51 28.5 L 50 28.5 L 49.5 27 L 39.5 27 L 39.5 26 Z " /><path fill="rgb(31,29,28)" stroke="rgb(31,29,28)" stroke-width="1" opacity="1" d="M 62.5 26 L 175 26.5 L 62.5 27 L 62.5 26 Z " /><path fill="rgb(31,29,28)" stroke="rgb(31,29,28)" stroke-width="1" opacity="1" d="M 176.5 26 L 207 26.5 L 176.5 27 L 176.5 26 Z " /><path fill="rgb(31,29,28)" stroke="rgb(31,29,28)" stroke-width="1" opacity="1" d="M 218.5 26 L 227 26.5 L 218.5 27 L 218.5 26 Z " /><path fill="rgb(31,29,28)" stroke="rgb(31,29,28)" stroke-width="1" opacity="1" d="M 248.5 26 Q 253 25 254 27.5 L 253.5 171 L 253 27 L 248.5 27 L 248.5 26 Z " /><path fill="rgb(31,29,28)" stroke="rgb(31,29,28)" stroke-width="1" opacity="1" d="M 15 28 Q 20.3 26.2 18 33.5 L 17 33.5 L 16.5 31 L 15 31.5 L 15 28 Z " /><path fill="rgb(31,29,28)" stroke="rgb(31,29,28)" stroke-width="1" opacity="1" d="M 249.5 28 L 252 28.5 L 249.5 29 L 249.5 28 Z " /><path fill="rgb(31,29,28)" stroke="rgb(31,29,28)" stroke-width="1" opacity="1" d="M 45 32 L 222.5 32 L 223 33.5 Q 220.8 34.8 222 39.5 L 223 46 L 229.5 46 L 230.5 47 L 233.5 46 L 236 50.5 L 234 54 Q 231.3 52.9 232 55.5 L 230 59.5 L 232 59.5 L 231.5 63 Q 234.8 64.1 234 61.5 L 234.5 57 Q 237.3 58.4 236 63 Q 233.3 61.9 234 64.5 L 235 65.5 L 235 73.5 L 233.5 76 L 229 75.5 L 229 51 L 217.5 51 L 217 49.5 L 218 44.5 L 217 38 L 193.5 38 L 193 38.5 L 193 45 L 204 45 L 204 51.5 L 205.5 52 L 212 51 L 211 54.5 L 212 57 L 215.5 56 Q 218.8 57.7 218 63.5 L 217 66 L 212.5 67 L 210.5 63 L 207.5 64 L 205 63.5 L 206 57 L 200.5 57 L 200 55.5 L 199 51 L 189 51 L 189 44.5 L 188.5 44 L 157 44 L 157 51 L 148 51 L 148 54.5 Q 146.7 58 142 57 L 142 62 L 139.5 62 L 135 64.5 L 135 68 L 129 68 Q 131.5 60.5 124 63 L 124 57 L 119.5 57 L 120 55.5 L 119 52.5 Q 120.6 49.5 126 51 L 126 57 L 129 57 L 128 54.5 L 129.5 52 L 130 55 Q 132.7 53.9 132 56.5 L 134.5 57 Q 138.3 57.8 139 55.5 L 139 51 Q 141.7 52.1 141 49.5 L 142 49.5 Q 141.3 52.1 144 51 L 145 46.5 L 142.5 46 L 140.5 46 L 139 46.5 L 139.5 48 L 137.5 48 Q 131.7 50.1 133 45.5 L 134 45.5 L 134.5 47 L 136.5 47 L 138 46.5 L 137.5 45 Q 147.1 46.3 151 43 L 151.5 41 L 152 43 L 155 41.5 Q 156.3 37.8 152.5 39 L 150.5 40 L 147.5 38 L 116.5 38 L 113 39 Q 112 42.8 114.5 44 L 116.5 43 L 116.5 45 Q 122.2 43.2 120 49.5 L 118.5 51 L 107 51 L 107 44.5 L 106.5 44 L 75 44 L 75 51 L 72.5 51 L 71.5 52 L 64 52 L 64 57 L 61.5 57 L 60 56.5 L 59.5 58 L 57 57 L 56 51 Q 59.8 52.5 59 49.5 L 59.5 48 L 56 46.5 Q 55.2 43.9 58.5 45 L 58.5 43 L 60.5 44 Q 62 41.5 63.5 45 L 68.5 47 L 71.5 43 L 76 43 L 76 38 L 55.5 38 L 51 39 L 51.5 41 L 57 40 L 56 44 Q 52.6 44.8 51.5 42 L 51 51 L 44.5 51 L 43.5 52 L 39 51 L 38 58.5 L 39 59.5 L 39 69 Q 42.8 70.5 42 67.5 L 42 65.5 L 41 61.5 L 43.5 63 L 45 62.5 L 45 60.5 L 45.5 57 L 46 59 Q 49.7 57.8 48 63 L 51 63 L 51.5 59 L 52.5 62 L 54.5 62 Q 56.8 62.8 56 60.5 Q 53.7 59.3 56.5 58 L 57 63 L 51 63 L 51 68.5 Q 53.8 70.3 52 76.5 L 51 76.5 L 50.5 69 L 47 70 L 47 76 L 45 76.5 L 45 81.5 Q 43.8 84.3 42.5 82 Q 36.8 80.2 39 86.5 L 40 87.5 L 40 109.5 L 39 112.5 L 40 123.5 L 39 126.5 L 39.5 128 L 45 128 L 45 139.5 L 48.5 141 Q 49.7 138.8 51 141.5 L 51 147 L 56 147 L 56 153.5 L 57.5 154 L 59 153.5 L 60 160 L 65 160 L 65 166 L 71 166 L 71 173 L 74.5 173 L 76.5 172 L 80 173 Q 78.5 178.4 81.5 180 L 86 179 Q 84.5 184.4 87.5 186 Q 95.8 183.3 93 191.5 Q 94 194 98.5 193 L 100 192.5 L 100 199 L 106 199 L 106 205 L 113 205 L 113 211 L 119 211 L 119 216.5 Q 120.3 219.3 121.5 217 L 125.5 216 L 126 224 L 139 224 L 139 217 L 144.5 217 L 146 214.5 L 145 212.5 Q 146.6 209.5 152 211 L 152 206 L 155.5 206 L 158.5 201 L 162 199.5 L 162.5 198 L 163.5 199 L 174 199 L 174 218 L 178 218 L 178 224 L 184.5 224 Q 185.8 226.3 190.5 225 L 203 223 L 202 219.5 L 206 217.5 L 205 199 L 222.5 199 L 224 197.5 L 225.5 195 L 229 194.5 L 229 171.5 L 222.5 166 L 206 166 L 205 159.5 L 207.5 153 L 210 151.5 Q 211.3 147.8 207.5 149 L 207.5 148 L 210.5 149 Q 209.6 143.6 212.5 142 L 216 140.5 L 217 136.5 L 216.5 135 Q 219.5 135.5 218 128.5 L 221 122.5 L 220.5 121 L 224 120.5 L 224 83 L 219.5 82 L 218 82.5 L 219 78.5 L 218 73.5 L 219 73.5 Q 217.5 77.9 220.5 77 L 224.5 76 L 227 77 L 228.5 80 L 231.5 81 L 233.5 77 L 234 94.5 L 235 95.5 L 235 198.5 L 236 201.5 L 234 204.5 L 235 205.5 L 235 215.5 L 233.5 217 L 226.5 218 L 226.5 217 L 228 216.5 L 223.5 216 L 223.5 218 L 222 217.5 L 222.5 222 L 223.5 219 L 225 222.5 L 222 223 L 223 229.5 Q 219.9 231.9 213.5 231 L 211.5 230 L 210.5 231 L 208 229.5 L 207.5 231 L 206.5 230 L 145.5 230 L 140.5 231 L 139.5 230 L 52.5 230 L 51.5 231 L 45 231 L 44 216 L 39 216.5 L 39 218.5 L 38.5 220 L 38 218.5 L 38.5 217 L 32 217 L 32 212.5 Q 34.3 211.3 33 206.5 L 32 205.5 L 32 133 Q 34.7 134.1 34 131.5 L 35 128 L 32.5 129 L 32 59.5 Q 34.3 58.3 33 53.5 L 32 52.5 L 32 45 L 38 45 L 38 40.5 L 39 40.5 L 38 45.5 L 44 46 L 44.5 42 L 45.5 45 L 46 39 L 44 38.5 L 45 32 Z M 233 88 Q 233 91 229 90 L 228 94 L 229 95 L 226 94 L 225 97 L 226 99 L 228 98 L 230 99 L 229 98 L 231 98 Q 230 94 233 93 L 233 88 Z M 228 132 L 223 135 L 221 134 L 219 135 Q 221 136 220 141 L 222 142 L 224 139 L 224 141 L 226 140 L 226 144 L 226 145 Q 230 146 231 143 Q 228 141 229 135 L 229 133 L 228 132 Z M 37 135 L 37 136 L 39 136 L 37 135 Z M 39 145 L 38 173 L 40 174 L 39 176 L 39 178 L 38 180 L 38 188 L 39 189 L 38 211 L 41 212 L 44 211 L 47 212 L 50 211 L 51 213 L 51 224 L 81 224 L 82 223 Q 83 226 88 225 L 88 223 L 89 224 L 109 224 L 111 224 L 115 225 L 115 223 L 118 225 L 119 226 L 118 224 L 120 223 L 121 225 L 122 223 L 121 220 L 116 221 L 113 220 L 116 219 Q 114 216 108 217 L 106 214 L 106 211 L 100 211 L 101 209 L 101 205 L 94 205 L 93 202 L 93 198 L 87 198 L 87 192 L 81 192 L 81 186 Q 76 187 75 185 Q 78 176 70 179 L 70 173 L 64 173 L 64 167 L 61 166 L 57 166 L 57 160 L 51 160 L 51 154 L 50 154 L 47 153 L 45 153 L 45 148 Q 42 149 43 146 L 39 145 Z M 227 149 L 227 152 L 224 156 L 224 158 Q 223 161 229 159 L 228 158 L 229 156 L 231 156 Q 232 152 229 153 L 229 150 L 227 149 Z M 214 159 L 214 161 L 217 160 L 214 159 Z M 230 180 L 231 188 L 234 183 L 230 180 Z M 210 200 L 210 202 L 210 203 L 212 202 L 214 203 L 213 202 Q 214 198 210 200 Z M 219 206 L 220 209 L 220 210 L 219 209 L 218 209 Q 219 211 216 210 Q 214 208 213 211 Q 214 213 216 211 L 216 214 Q 217 220 215 219 L 213 219 L 214 222 L 210 223 Q 212 225 217 224 L 217 214 L 218 213 L 219 211 L 228 211 L 227 208 L 226 210 L 222 210 L 221 208 Q 222 205 219 206 Z M 158 212 L 158 214 L 157 216 Q 158 219 154 217 L 154 220 L 152 218 L 151 223 Q 156 225 167 224 L 169 224 L 168 221 Q 171 219 167 217 L 164 218 L 161 214 Q 162 211 158 212 Z M 213 212 L 211 217 L 213 217 L 214 215 L 213 212 Z M 163 225 L 161 227 L 163 227 L 163 225 Z " /><path fill="rgb(31,29,28)" stroke="rgb(31,29,28)" stroke-width="1" opacity="1" d="M 13.5 34 L 14 54.5 L 13 54.5 L 13.5 34 Z " /><path fill="rgb(31,29,28)" stroke="rgb(31,29,28)" stroke-width="1" opacity="1" d="M 251.5 35 L 252 40.5 L 251 40.5 L 251.5 35 Z " /><path fill="rgb(31,29,28)" stroke="rgb(31,29,28)" stroke-width="1" opacity="1" d="M 40.5 38 L 43 38.5 L 40.5 39 L 40.5 38 Z " /><path fill="rgb(31,29,28)" stroke="rgb(31,29,28)" stroke-width="1" opacity="1" d="M 15.5 39 L 16 44.5 L 15 44.5 L 15.5 39 Z " /><path fill="rgb(31,29,28)" stroke="rgb(31,29,28)" stroke-width="1" opacity="1" d="M 17.5 39 L 18 44.5 L 17 44.5 L 17.5 39 Z " /><path fill="rgb(31,29,28)" stroke="rgb(31,29,28)" stroke-width="1" opacity="1" d="M 228.5 40 L 229 42.5 L 228 42.5 L 228.5 40 Z " /><path fill="rgb(31,29,28)" stroke="rgb(31,29,28)" stroke-width="1" opacity="1" d="M 251.5 49 L 252 224.5 L 251 224.5 L 250.5 208 L 249 208.5 L 249 197.5 L 251 196.5 L 251 188.5 L 249 185.5 L 249.5 183 L 251 182.5 L 250 179.5 L 251 178.5 L 251 148.5 L 250 147.5 L 250 139.5 L 251 138.5 L 251 125.5 Q 248.3 123.7 250 117.5 L 251 116.5 L 251 83.5 L 250 83.5 L 249.5 99 L 249 73.5 L 250 73.5 L 250.5 77 L 251 58.5 L 250 58.5 L 249.5 62 L 249 51.5 L 251 51.5 L 251.5 49 Z " /><path fill="rgb(31,29,28)" stroke="rgb(31,29,28)" stroke-width="1" opacity="1" d="M 131.5 50 L 134 51 L 133.5 54 L 131 53.5 L 131 51.5 L 131.5 50 Z " /><path fill="rgb(31,29,28)" stroke="rgb(31,29,28)" stroke-width="1" opacity="1" d="M 136.5 53 L 136.5 56 Q 134.3 56.8 135 54.5 L 136.5 53 Z " /><path fill="rgb(31,29,28)" stroke="rgb(31,29,28)" stroke-width="1" opacity="1" d="M 17.5 54 L 18 66.5 L 17 66.5 L 16.5 62 L 15.5 65 L 15 57.5 L 17 57.5 L 17.5 54 Z " /><path fill="rgb(31,29,28)" stroke="rgb(31,29,28)" stroke-width="1" opacity="1" d="M 146.5 58 L 147 62.5 L 146 62.5 L 146.5 58 Z " /><path fill="rgb(31,29,28)" stroke="rgb(31,29,28)" stroke-width="1" opacity="1" d="M 26.5 63 L 29 63.5 L 26.5 64 L 26.5 63 Z " /><path fill="rgb(31,29,28)" stroke="rgb(31,29,28)" stroke-width="1" opacity="1" d="M 249.5 63 L 250 68.5 L 249 68.5 L 249.5 63 Z " /><path fill="rgb(31,29,28)" stroke="rgb(31,29,28)" stroke-width="1" opacity="1" d="M 13.5 65 L 14 86.5 L 13 86.5 L 13.5 65 Z " /><path fill="rgb(31,29,28)" stroke="rgb(31,29,28)" stroke-width="1" opacity="1" d="M 215.5 67 Q 217.8 66.3 217 68.5 Q 215.8 71.3 214.5 69 L 213 68.5 L 215.5 67 Z " /><path fill="rgb(31,29,28)" stroke="rgb(31,29,28)" stroke-width="1" opacity="1" d="M 17.5 75 L 18 87.5 L 17 87.5 L 17.5 75 Z " /><path fill="rgb(31,29,28)" stroke="rgb(31,29,28)" stroke-width="1" opacity="1" d="M 15.5 78 L 16 81.5 L 15 81.5 L 15.5 78 Z " /><path fill="rgb(31,29,28)" stroke="rgb(31,29,28)" stroke-width="1" opacity="1" d="M 17.5 89 L 18 96.5 L 17 96.5 L 17.5 89 Z " /><path fill="rgb(31,29,28)" stroke="rgb(31,29,28)" stroke-width="1" opacity="1" d="M 13.5 100 L 14 139.5 L 13 139.5 L 13.5 100 Z " /><path fill="rgb(31,29,28)" stroke="rgb(31,29,28)" stroke-width="1" opacity="1" d="M 17.5 114 L 18 124.5 L 17 124.5 L 17.5 114 Z " /><path fill="rgb(31,29,28)" stroke="rgb(31,29,28)" stroke-width="1" opacity="1" d="M 15.5 116 L 16 121.5 L 15 121.5 L 15.5 116 Z " /><path fill="rgb(31,29,28)" stroke="rgb(31,29,28)" stroke-width="1" opacity="1" d="M 17.5 139 L 18 141.5 L 17 141.5 L 17.5 139 Z " /><path fill="rgb(31,29,28)" stroke="rgb(31,29,28)" stroke-width="1" opacity="1" d="M 13.5 143 L 14 235 L 19 235.5 L 14.5 236 L 13 234.5 L 13.5 143 Z " /><path fill="rgb(31,29,28)" stroke="rgb(31,29,28)" stroke-width="1" opacity="1" d="M 17.5 147 L 18 149.5 L 17 149.5 L 17.5 147 Z " /><path fill="rgb(31,29,28)" stroke="rgb(31,29,28)" stroke-width="1" opacity="1" d="M 199.5 147 L 200 155.5 L 199 155.5 L 199.5 147 Z " /><path fill="rgb(31,29,28)" stroke="rgb(31,29,28)" stroke-width="1" opacity="1" d="M 199.5 171 L 204 172.5 L 200.5 173 L 199.5 171 Z " /><path fill="rgb(31,29,28)" stroke="rgb(31,29,28)" stroke-width="1" opacity="1" d="M 253.5 172 L 254 234.5 Q 252.8 237 249 236 L 249 232 Q 251.7 233.1 251 230.5 L 252 230.5 L 252.5 235 L 253.5 172 Z " /><path fill="rgb(31,29,28)" stroke="rgb(31,29,28)" stroke-width="1" opacity="1" d="M 41.5 173 L 43.5 173 L 53.5 173 L 54 175.5 Q 51.8 176.8 54.5 178 L 56.5 177 L 56.5 179 L 59 180.5 L 58.5 182 L 57.5 180 L 56.5 182 L 54.5 179 L 52 180.5 L 54 181 Q 52.6 184.7 58.5 183 L 60 183.5 Q 59 179.8 62 181 L 62 185 L 60.5 185 L 58.5 185 L 53 186 Q 54.1 183.3 51.5 184 L 51.5 183 L 53 182.5 L 51 182 L 50.5 179 L 47.5 180 L 44.5 179 Q 43.3 181.3 42 178.5 L 43 175.5 L 41.5 173 Z " /><path fill="rgb(31,29,28)" stroke="rgb(31,29,28)" stroke-width="1" opacity="1" d="M 55 173 Q 58.3 171.9 57 176 Q 53.7 177.1 55 173 Z " /><path fill="rgb(31,29,28)" stroke="rgb(31,29,28)" stroke-width="1" opacity="1" d="M 46 185 Q 49 183.8 48 187.5 L 48 189.5 L 45.5 192 L 45 188.5 L 46 185 Z " /><path fill="rgb(31,29,28)" stroke="rgb(31,29,28)" stroke-width="1" opacity="1" d="M 49.5 189 L 50 191 L 55 192.5 L 51.5 193 Q 47.9 191.9 49.5 189 Z " /><path fill="rgb(31,29,28)" stroke="rgb(31,29,28)" stroke-width="1" opacity="1" d="M 64.5 189 L 66.5 189 L 69 190.5 L 65.5 191 L 64.5 189 Z " /><path fill="rgb(31,29,28)" stroke="rgb(31,29,28)" stroke-width="1" opacity="1" d="M 59 192 L 64 192 L 64 194 L 59.5 196 L 59 192 Z " /><path fill="rgb(31,29,28)" stroke="rgb(31,29,28)" stroke-width="1" opacity="1" d="M 54.5 194 L 55 195.5 L 54.5 198 L 53 198.5 L 53.5 200 L 52 196 Q 54.8 197 54.5 194 Z " /><path fill="rgb(31,29,28)" stroke="rgb(31,29,28)" stroke-width="1" opacity="1" d="M 17.5 198 L 18 207.5 L 17 207.5 L 17.5 198 Z " /><path fill="rgb(31,29,28)" stroke="rgb(31,29,28)" stroke-width="1" opacity="1" d="M 65 199 L 70.5 200 L 72 199.5 L 70.5 202 L 73.5 200 L 74.5 202 Q 70.8 200.8 72 204.5 L 71 206.5 L 72.5 206 Q 75.1 205.3 74 208 Q 71 210.7 65 210 L 66 207.5 L 64 201.5 L 65 199 Z M 66 200 L 67 203 L 67 201 L 70 201 L 66 200 Z " /><path fill="rgb(31,29,28)" stroke="rgb(31,29,28)" stroke-width="1" opacity="1" d="M 15.5 200 L 16 203.5 L 15 203.5 L 15.5 200 Z " /><path fill="rgb(31,29,28)" stroke="rgb(31,29,28)" stroke-width="1" opacity="1" d="M 54 205 Q 56.7 203.9 56 206.5 L 56.5 208 L 54 206.5 L 54 205 Z " /><path fill="rgb(31,29,28)" stroke="rgb(31,29,28)" stroke-width="1" opacity="1" d="M 17.5 210 L 18 224.5 L 17 224.5 L 16.5 219 L 15.5 224 L 15 211.5 L 16 211.5 L 16.5 215 L 17.5 210 Z " /><path fill="rgb(31,29,28)" stroke="rgb(31,29,28)" stroke-width="1" opacity="1" d="M 40.5 224 Q 43.3 225.3 41 226.5 L 40.5 230 L 40.5 224 Z " /><path fill="rgb(31,29,28)" stroke="rgb(31,29,28)" stroke-width="1" opacity="1" d="M 225.5 229 L 226 233.5 L 225 233.5 L 225.5 229 Z " /><path fill="rgb(31,29,28)" stroke="rgb(31,29,28)" stroke-width="1" opacity="1" d="M 15.5 232 L 18 233.5 L 15 234 L 15.5 232 Z " /><path fill="rgb(31,29,28)" stroke="rgb(31,29,28)" stroke-width="1" opacity="1" d="M 208.5 234 L 207.5 236 L 208.5 234 Z " /><path fill="rgb(31,29,28)" stroke="rgb(31,29,28)" stroke-width="1" opacity="1" d="M 140.5 235 L 145 235.5 L 140.5 236 L 140.5 235 Z " /><path fill="rgb(31,29,28)" stroke="rgb(31,29,28)" stroke-width="1" opacity="1" d="M 219.5 235 L 225 235.5 L 219.5 236 L 219.5 235 Z " /><path fill="rgb(31,29,28)" stroke="rgb(31,29,28)" stroke-width="1" opacity="1" d="M 21 237 Q 27 234.8 25 241.5 L 24 241.5 Q 25.3 236.7 22 238 L 23 241.5 L 21 242 L 21 237 Z " /><path fill="rgb(31,29,28)" stroke="rgb(31,29,28)" stroke-width="1" opacity="1" d="M 233.5 243 L 239 243.5 L 233.5 244 L 233.5 243 Z " /><path fill="rgb(31,29,28)" stroke="rgb(31,29,28)" stroke-width="1" opacity="1" d="M 61 245 L 70 245.5 L 66 246.5 L 72 247.5 L 60.5 248 L 61 246.5 L 61 245 Z " /><path fill="rgb(31,29,28)" stroke="rgb(31,29,28)" stroke-width="1" opacity="1" d="M 233 245 L 239 245 L 239 248 L 233 248 L 233 245 Z " /><path fill="rgb(31,29,28)" stroke="rgb(31,29,28)" stroke-width="1" opacity="1" d="M 199.5 247 L 214 247.5 L 199.5 248 L 199.5 247 Z " /><path fill="rgb(233,184,50)" stroke="rgb(233,184,50)" stroke-width="1" opacity="1" d="M 19.5 19 L 20 24.5 L 19 24.5 L 19.5 19 Z " /><path fill="rgb(233,184,50)" stroke="rgb(233,184,50)" stroke-width="1" opacity="1" d="M 26 19 L 239.5 19 L 240 19.5 L 240 26 L 247 26 L 247.5 19 L 248 25.5 L 248 27.5 L 247 46.5 L 248 47.5 L 248 211.5 L 247 214.5 L 248 215.5 L 248 229.5 L 247 233.5 L 248 236.5 L 247.5 243 L 247 236 L 242 234.5 L 246 233.5 L 242 232.5 L 246 232 L 246 230 L 241 230 L 240 243 L 26.5 243 L 26 242.5 L 26 235 L 20 235 L 19.5 243 L 19 233.5 L 20 230.5 L 19 229.5 L 19 192.5 Q 21.5 191 20 185.5 L 19 183.5 Q 21.8 181.7 20 175.5 Q 17.8 174.3 19 169.5 L 20 168.5 L 20 160.5 L 19 159.5 L 19 26 L 26 26 L 26 19 Z M 38 26 L 39 30 L 39 38 L 26 38 L 26 51 L 29 51 L 29 57 L 26 57 L 26 199 L 28 199 L 28 211 L 26 212 L 26 224 L 39 225 L 38 226 L 38 236 L 51 236 L 51 233 L 57 233 L 58 236 L 208 236 L 210 236 Q 213 237 211 233 L 217 233 L 217 236 L 228 236 L 228 223 L 241 223 L 241 212 L 238 211 L 238 200 L 240 199 L 240 188 L 241 187 L 240 128 L 241 125 L 240 120 L 240 58 L 238 57 L 237 53 L 237 51 L 241 51 L 241 49 L 240 46 L 241 42 L 241 40 L 240 38 L 228 38 L 228 28 L 227 26 L 218 26 L 217 29 L 216 29 Q 217 25 214 26 L 212 26 L 59 26 Q 59 30 53 28 L 53 30 L 51 30 L 51 26 L 38 26 Z M 243 211 L 243 216 L 244 216 Q 246 210 243 211 Z M 236 236 L 237 242 L 238 237 L 238 240 L 239 240 Q 241 234 236 236 Z M 51 237 L 49 241 L 51 242 L 51 237 Z M 88 237 L 88 238 L 97 238 L 88 237 Z M 108 237 L 108 238 L 115 238 L 108 237 Z M 128 237 L 128 238 L 132 238 L 128 237 Z M 151 237 L 151 238 L 177 238 L 151 237 Z M 191 237 L 191 238 L 202 238 L 202 240 L 204 239 L 205 241 L 206 238 L 191 237 Z M 210 237 L 209 241 L 210 241 L 210 237 Z M 34 238 L 33 242 L 34 242 L 34 238 Z " /><path fill="rgb(233,184,50)" stroke="rgb(233,184,50)" stroke-width="1" opacity="1" d="M 75 51 L 106.5 51 Q 107.5 51 107 55.5 L 105.5 57 L 76 57 L 76 63 L 73.5 63 L 72.5 64 L 64 64.5 L 65 70 L 58 70 L 58 73.5 L 58 75.5 L 58 83 L 52.5 83 L 52 83.5 L 52 114.5 Q 51.9 115.6 46.5 115 L 45 113.5 L 45 82 L 52 82 L 52 69 L 58 69 L 58 64.5 Q 59.4 61.8 64 63 L 64 57 L 75.5 57 L 76 54.5 L 75 51 Z " /><path fill="rgb(233,184,50)" stroke="rgb(233,184,50)" stroke-width="1" opacity="1" d="M 157 51 L 180.5 51 L 181 56 L 188 56 Q 189.8 51.1 183.5 53 L 182.5 51 L 189 51 L 189 57 L 158.5 57 L 157 58.5 Q 159.3 65.3 152.5 63 L 147 64 L 147 57 L 157 57 L 157 51 Z " /><path fill="rgb(233,184,50)" stroke="rgb(233,184,50)" stroke-width="1" opacity="1" d="M 107 57 L 113.5 57 L 114 58.5 L 113 63 L 107 63 L 107 57 Z M 109 61 L 109 62 L 112 62 L 109 61 Z " /><path fill="rgb(233,184,50)" stroke="rgb(233,184,50)" stroke-width="1" opacity="1" d="M 141.5 63 L 146 63 L 146 70 L 141 70 L 141 76 L 136 76 L 135 69 L 140 69 L 140 66.5 L 141.5 63 Z " /><path fill="rgb(233,184,50)" stroke="rgb(233,184,50)" stroke-width="1" opacity="1" d="M 76 69 L 94 69 L 94 76 L 100 76 L 100 82 L 94 82 L 94 89 L 88 89 L 88 95 L 82 95 L 82 101 L 76 101 L 76 108 L 70 108 L 70 101 L 64.5 101 L 64 100.5 L 64 82 L 70 82 L 70 76 L 74.5 76 Q 77.5 74.4 76 69 Z M 70 95 L 67 96 L 67 97 Q 70 96 69 99 L 70 99 L 70 95 Z " /><path fill="rgb(233,184,50)" stroke="rgb(233,184,50)" stroke-width="1" opacity="1" d="M 158 69 Q 163.4 67.5 165 70.5 L 164 73.5 L 164 75.5 L 164 82 L 159.5 82 L 159.5 81 L 163 81 L 163 76 L 158 76 L 158 78.5 L 158 80.5 L 158 83 L 152 83 L 152 89 L 145 89 L 145 92.5 L 146 95 L 139.5 95 L 138.5 96 L 139 94.5 L 139 89 L 145 89 L 145 83.5 Q 146.4 80.8 151 82 L 151 76 L 158 76 L 158 69 Z " /><path fill="rgb(233,184,50)" stroke="rgb(233,184,50)" stroke-width="1" opacity="1" d="M 159.5 77 L 162 77.5 L 159.5 78 L 159.5 77 Z " /><path fill="rgb(233,184,50)" stroke="rgb(233,184,50)" stroke-width="1" opacity="1" d="M 52 121 L 58 121 L 58 134 L 52 134 L 52 121 Z M 55 122 L 53 124 L 53 132 L 56 132 L 57 124 L 55 122 Z " /><path fill="rgb(233,184,50)" stroke="rgb(233,184,50)" stroke-width="1" opacity="1" d="M 63.5 141 L 64 145.5 L 63 145.5 L 63.5 141 Z " /><path fill="rgb(233,184,50)" stroke="rgb(233,184,50)" stroke-width="1" opacity="1" d="M 180 147 L 199 147 L 199 172.5 Q 199.1 173.6 204.5 173 L 205.5 172 L 223 172 L 223 191.5 L 220.5 192 L 220.5 191 L 222 190.5 L 222 179 Q 215.6 176.7 218 184.5 L 219 185.5 L 219 192 L 199 192 L 199 211.5 L 197.5 211 L 195 210.5 L 195 208.5 L 195.5 200 L 198 201 Q 199.2 197.3 194 199 L 194 212 L 187.5 212 L 187.5 213 Q 191.9 211.5 191 214.5 L 190.5 216 L 193 215.5 L 192 213 Q 195.7 211.8 194 217 L 180 217 L 180 192 L 156 192 L 156 173.5 L 157.5 172 L 174.5 172 L 177.5 173 L 180 172.5 L 180 147 Z M 200 186 L 200 187 L 206 187 L 206 191 L 208 190 L 211 191 L 213 191 L 217 190 L 217 186 L 200 186 Z " /><path fill="rgb(233,184,50)" stroke="rgb(233,184,50)" stroke-width="1" opacity="1" d="M 51 186 L 57 186 L 57 191.5 L 56 191.5 L 56 190 L 51 190 L 51 186 Z " /><path fill="rgb(233,184,50)" stroke="rgb(233,184,50)" stroke-width="1" opacity="1" d="M 198.5 213 L 199 217 L 195 216.5 L 198 216 L 198.5 213 Z " /><path fill="rgb(233,184,50)" stroke="rgb(233,184,50)" stroke-width="1" opacity="1" d="M 53.5 249 L 67 249.5 L 53.5 250 L 53.5 249 Z " /><path fill="rgb(233,184,50)" stroke="rgb(233,184,50)" stroke-width="1" opacity="1" d="M 235.5 249 L 239 249.5 L 235.5 250 L 235.5 249 Z " /><path fill="rgb(13,12,10)" stroke="rgb(13,12,10)" stroke-width="1" opacity="1" d="M 27 13 L 239.5 13 L 240 13.5 L 240 19 L 234.5 18 L 233.5 19 L 33.5 19 L 29 17.5 L 36 16.5 L 35.5 15 L 37 14.5 L 28 14 L 27.5 18 L 27 13 Z M 52 14 L 52 15 L 65 16 L 63 16 L 63 17 L 71 17 L 68 16 L 76 15 L 52 14 Z M 87 14 L 87 15 L 90 15 L 87 14 Z M 160 14 L 160 15 L 170 15 L 160 14 Z M 186 14 L 186 15 L 193 15 L 186 14 Z M 204 14 Q 203 16 206 16 L 204 16 L 204 17 Q 209 19 208 15 L 213 15 L 204 14 Z M 227 14 L 228 16 L 227 16 L 227 17 L 237 17 L 236 16 L 236 15 Q 239 14 238 17 L 239 17 L 239 14 L 227 14 Z " /><path fill="rgb(13,12,10)" stroke="rgb(13,12,10)" stroke-width="1" opacity="1" d="M 20 20 L 26 20 L 26 26 L 20 26 L 20 20 Z " /><path fill="rgb(13,12,10)" stroke="rgb(13,12,10)" stroke-width="1" opacity="1" d="M 241 20 L 247 20 L 247 26 L 241 26 L 241 20 Z M 244 24 L 244 25 L 246 25 L 244 24 Z " /><path fill="rgb(13,12,10)" stroke="rgb(13,12,10)" stroke-width="1" opacity="1" d="M 59 26 L 62.5 27 L 174.5 27 L 176.5 27 L 207 27.5 L 207 29.5 L 207.5 31 L 210.5 27 L 211 30 L 218 30 L 218.5 27 L 227 27 L 227 37.5 L 224.5 40 L 222 40 L 222 34.5 L 223 32 L 45.5 32 L 45 32.5 L 45 38 L 40.5 38 Q 36.8 39.5 38 45 L 44 45.5 L 38.5 46 L 32 45 L 33 58.5 L 32 59.5 L 32 128.5 L 33.5 128 Q 36.1 127.2 35 130.5 L 34 133 L 32 133.5 L 32 205.5 Q 34.3 206.8 33 211.5 L 32 217 L 43.5 216 L 43.5 217 Q 39 216 38 218.5 L 39 220.5 Q 36.8 221.8 39.5 223 Q 44.9 221.1 44 224.5 L 45 231 L 51.5 231 L 52.5 230 L 139.5 230 L 144.5 231 L 145.5 230 L 206.5 230 L 208 230.5 L 208.5 229 Q 210 232.5 211.5 230 L 219.5 231 L 223 229.5 L 222 223 L 227 223 L 227 235 L 219.5 235 L 218.5 236 L 218 232 L 211.5 232 L 210 233.5 L 209.5 235 Q 208 232.5 206.5 236 L 145.5 236 L 140.5 235 L 139.5 236 L 58 236 L 58 232 L 51 232 L 49.5 236 L 47.5 236 L 39 236 L 39 223 L 26 223 L 26 211 L 29 210.5 L 29 198 L 26 197.5 L 26 64 Q 30.9 65.8 29 59.5 L 30 58.5 L 30 51 L 27.5 50 L 26 50.5 L 26 39 L 39 39 L 39 27 L 50 27 L 51 31 Q 57.1 32.8 59 29.5 L 59 26 Z M 41 224 L 41 230 L 41 227 Q 43 225 41 224 Z M 226 229 L 225 234 L 226 234 L 226 229 Z " /><path fill="rgb(13,12,10)" stroke="rgb(13,12,10)" stroke-width="1" opacity="1" d="M 14 27 L 19 27.5 L 19 235 L 14 234.5 L 14 27 Z M 15 28 L 15 32 L 17 31 L 17 34 L 18 34 Q 20 26 15 28 Z M 16 39 L 15 45 L 16 45 L 16 39 Z M 18 39 L 17 45 L 18 45 L 18 39 Z M 18 54 L 17 58 L 15 58 L 16 65 L 17 62 L 17 67 L 18 67 L 18 54 Z M 18 75 L 17 88 L 18 88 L 18 75 Z M 16 78 L 15 82 L 16 82 L 16 78 Z M 18 89 L 17 97 L 18 97 L 18 89 Z M 18 114 L 17 125 L 18 125 L 18 114 Z M 16 116 L 15 122 L 16 122 L 16 116 Z M 18 139 L 17 142 L 18 142 L 18 139 Z M 18 147 L 17 150 L 18 150 L 18 147 Z M 18 198 L 17 208 L 18 208 L 18 198 Z M 16 200 L 15 204 L 16 204 L 16 200 Z M 18 210 L 17 215 L 16 212 L 15 212 L 16 224 L 17 219 L 17 225 L 18 225 L 18 210 Z M 16 232 L 15 234 L 18 234 L 16 232 Z " /><path fill="rgb(13,12,10)" stroke="rgb(13,12,10)" stroke-width="1" opacity="1" d="M 248 27 L 253 27.5 L 253 234.5 L 252 234.5 L 251.5 230 L 251 232 Q 247.7 230.7 249 235.5 L 248 235.5 L 248 27 Z M 250 28 L 250 29 L 252 29 L 250 28 Z M 252 35 L 251 41 L 252 41 L 252 35 Z M 252 49 L 251 52 L 249 52 L 250 62 L 250 59 L 251 59 L 251 77 L 250 74 L 249 74 L 250 99 L 250 84 L 251 84 L 251 117 L 250 118 Q 248 124 251 126 L 251 139 L 250 140 L 250 148 L 251 149 L 251 179 L 250 180 L 251 183 L 250 183 L 249 186 L 251 189 L 251 197 L 249 198 L 249 209 L 251 208 L 251 225 L 252 225 L 252 49 Z M 250 63 L 249 69 L 250 69 L 250 63 Z " /><path fill="rgb(13,12,10)" stroke="rgb(13,12,10)" stroke-width="1" opacity="1" d="M 55.5 38 L 75.5 38 L 76 43 Q 70.5 41.8 69 45.5 L 68.5 47 L 61.5 43 L 56 45 L 57.5 48 L 60 48.5 L 59 51 Q 54.5 49.3 56 54.5 L 57 57 L 59.5 58 L 60.5 56 L 64 57 L 64 52 L 71.5 52 L 75 51 L 75 44.5 L 75.5 44 L 107 44 L 107 51 L 118.5 51 Q 121.3 49.6 120 45 L 116 44.5 L 116.5 43 L 114.5 44 Q 112 42.8 113 39 L 116.5 38 L 147.5 38 L 151.5 40 L 155 39 L 153.5 43 Q 151.3 43.8 152 41.5 L 151 41.5 Q 151.8 43.8 149.5 43 L 146.5 45 L 137 45.5 Q 138.3 48.3 139.5 46 L 141.5 47 L 144.5 46 L 144 47.5 Q 145.3 52.3 142 51 L 141.5 49 L 141 51 Q 137.3 49.6 139 55.5 Q 138.3 57.8 134.5 57 L 132 56.5 Q 132.7 53.9 130 55 L 130 52.5 L 129 52.5 L 128 54.5 L 129 57 L 126 57 L 126 51 L 120.5 51 L 119 53.5 L 120 55.5 L 118.5 57 L 107 57 L 107 51.5 L 106.5 51 L 75 51 L 75 57 L 64 57 L 64 60.5 L 63.5 63 L 58 63 L 58 69 L 51 69 L 51 82 L 45.5 82 L 45 82.5 L 45 128 L 51 127 L 51 141 L 58 141 L 58 147.5 L 59 152.5 L 56 154 L 56 147 Q 48.5 149.8 51 141.5 Q 49.7 138.8 48.5 141 L 45 139.5 L 45 128 L 39.5 128 L 39 126.5 L 40 123.5 L 39 112.5 L 40 109.5 L 40 87.5 L 39 82 L 43.5 83 Q 46.5 81.4 45 76 L 47 76 L 47 70 L 49.5 70 Q 52.5 68.4 51 63 L 48 63 L 48 59 Q 45.3 60.1 46 57.5 L 45 57.5 L 44 61.5 L 44.5 63 L 42.5 62 L 42 65.5 L 42 67.5 Q 42.7 70.5 39 69 L 38 54.5 L 39 51 L 43.5 52 L 44.5 51 L 51 51 L 51.5 42 Q 52.6 44.8 56 44 L 57 40 L 51.5 41 L 51 39 L 55.5 38 Z M 134 45 L 133 48 L 138 48 L 137 47 L 135 47 L 134 45 Z M 132 50 Q 130 53 134 54 L 134 51 L 132 50 Z M 136 54 Q 134 57 137 56 L 136 54 Z M 57 58 Q 54 59 56 61 Q 57 63 55 62 L 53 62 L 52 60 L 51 60 L 51 63 L 57 63 L 57 58 Z " /><path fill="rgb(13,12,10)" stroke="rgb(13,12,10)" stroke-width="1" opacity="1" d="M 193 38 L 216.5 38 Q 217.6 38.1 217 43.5 L 218 48.5 L 217 51 L 229 51 L 229 75.5 L 234 75.5 Q 236.3 72.3 235 65.5 L 234 63 L 231 62.5 Q 233.5 61 230 59.5 L 232 54 Q 234.7 55.1 234 52.5 Q 237.5 51 235 49.5 L 233.5 46 L 230.5 47 L 223 45.5 L 228 45 L 229 40.5 L 228.5 39 L 240 39 L 240 51 L 237 51 L 237 59.5 L 236 59.5 L 235.5 58 L 234 61.5 Q 233.1 64.5 237.5 63 L 240 63.5 L 240 197.5 L 237 198.5 L 237 212 L 239.5 211 L 240 223 L 228 223 L 228 217 L 223 217 L 222.5 222 L 222 217.5 Q 223 215 227.5 216 Q 228.8 218.3 233.5 217 L 235 215.5 L 235 205.5 L 235 203.5 L 236 199.5 L 235 198.5 L 235 95.5 L 234 94.5 L 233.5 77 L 232 80.5 L 232.5 82 L 227 78.5 Q 227.8 76.3 225.5 77 L 221.5 76 L 219 77 L 218.5 73 L 218 77.5 L 220.5 83 L 224 83.5 L 224 121 L 220 121.5 L 221 124.5 Q 216.5 127.3 218 135 L 216 135.5 L 217 138.5 L 214.5 142 L 211 143.5 Q 211.9 150.4 208.5 153 L 206 154.5 L 205 162.5 L 206 166 L 222.5 166 L 229 171.5 L 229 194.5 L 225.5 195 L 222.5 199 L 205 199 L 205 210.5 Q 207.5 212 206 217.5 L 202 219.5 L 203 223 L 199.5 224 L 185.5 225 L 184.5 224 L 178 224 L 178 218 L 174 217.5 L 174 199 L 163.5 199 L 162 198.5 L 160.5 201 L 157 202.5 L 155.5 206 L 152 206 L 152 211 L 146.5 211 L 145 213.5 L 146 215.5 Q 144.4 218.5 139 217 L 139 224 L 126 224 L 126 217 L 138 217 L 138 211 L 145 211 L 145 205 L 150.5 205 Q 153.3 203.8 151 202.5 L 151 199 L 157 199 L 157 197 L 152 197 L 152 193.5 L 151 192.5 L 151 173.5 L 152 169.5 L 151 167.5 Q 152.3 164.8 153.5 167 L 160.5 166 L 162.5 166 L 174 166 L 174 147.5 Q 174.1 146.4 179.5 147 Q 182.3 145.6 181 141 L 203.5 141 Q 204.5 141 204 145.5 L 206 146.5 L 206 141 L 211.5 141 L 212 139.5 L 211 134.5 L 212.5 127 L 216.5 128 L 218 126.5 L 219 117.5 L 218 112.5 L 219 111.5 L 219 93.5 L 218 88.5 L 219 82 L 212 82 L 212 70.5 L 208.5 70 L 206 69 L 206 63 L 200 63 L 200 57 L 190 57 L 190 51 L 200.5 50 L 200.5 51 Q 197.5 50.1 199 54.5 L 200 57 L 206.5 56 L 206 57.5 Q 204.8 62.8 207.5 64 L 210.5 63 L 212.5 67 L 217 66 L 218 59.5 L 215.5 56 L 212 57 L 211 54.5 L 212 51 L 204 52 L 204 45 L 193 45 L 193 38 Z M 216 67 L 213 69 L 215 69 Q 216 71 217 69 Q 218 66 216 67 Z M 180 147 L 180 172 L 156 172 L 156 193 L 180 193 L 180 218 L 200 218 L 200 193 L 224 193 L 224 172 L 200 172 L 200 147 L 180 147 Z M 208 148 L 208 149 L 210 149 L 208 148 Z " /><path fill="rgb(13,12,10)" stroke="rgb(13,12,10)" stroke-width="1" opacity="1" d="M 45.5 39 L 46 44.5 L 45 44.5 L 45.5 39 Z " /><path fill="rgb(13,12,10)" stroke="rgb(13,12,10)" stroke-width="1" opacity="1" d="M 157 44 L 188.5 44 L 189 44.5 L 189 51 L 157.5 51 L 157 51.5 L 157 57 L 147.5 57 Q 144.8 58.4 146 63 L 140 63 L 140 69 L 135 69 L 135 76 L 130 76 L 129 69 L 124 69 L 124 63 L 120 63 L 120 57 L 124 57 L 124 63 L 129 63 L 129 68 L 135 68 Q 134 64.2 136.5 63 L 142 62 L 142 57 L 145.5 57 Q 149 55.7 148 51 L 157 51 L 157 44 Z " /><path fill="rgb(13,12,10)" stroke="rgb(13,12,10)" stroke-width="1" opacity="1" d="M 40.5 47 L 43 47.5 Q 40.9 50.8 40.5 47 Z " /><path fill="rgb(13,12,10)" stroke="rgb(13,12,10)" stroke-width="1" opacity="1" d="M 232.5 88 L 233 92.5 L 232.5 95 L 231 94.5 Q 231.8 98.3 229.5 99 L 227.5 98 L 226 98.5 L 225 96.5 L 226 94 Q 228.7 95.1 228 92.5 L 229 90 Q 232.8 91.3 232.5 88 Z " /><path fill="rgb(13,12,10)" stroke="rgb(13,12,10)" stroke-width="1" opacity="1" d="M 210.5 103 L 211 109.5 L 210 109.5 L 210.5 103 Z " /><path fill="rgb(13,12,10)" stroke="rgb(13,12,10)" stroke-width="1" opacity="1" d="M 227.5 132 L 229 132.5 L 229 134.5 Q 228.1 139.9 230.5 142 L 231.5 140 L 232 141.5 Q 231.2 145.8 225.5 145 L 226 143.5 L 225.5 140 L 223.5 142 L 220 140.5 Q 221.2 135.7 219 134.5 L 220.5 134 L 222.5 135 L 227.5 132 Z " /><path fill="rgb(13,12,10)" stroke="rgb(13,12,10)" stroke-width="1" opacity="1" d="M 36.5 135 L 39 135.5 L 36.5 136 L 36.5 135 Z " /><path fill="rgb(13,12,10)" stroke="rgb(13,12,10)" stroke-width="1" opacity="1" d="M 38.5 145 L 43 146 Q 42 149 45 148 L 45 153 L 46.5 153 L 49.5 154 L 51 153.5 L 51 160 L 57 160 L 57 166 L 60.5 166 L 64 167 L 64 173 L 70 173 L 70 179 Q 77.5 176.3 75 184.5 Q 76.4 187.3 81 186 L 81 192 L 87 192 L 87 198 L 93 198 L 93 201.5 L 94 205 L 101 205 L 101 208.5 L 100 211 L 106 211 L 106 213.5 L 107.5 217 Q 113 218.5 114.5 216 L 114.5 218 L 116 218.5 L 113 219.5 L 115.5 221 L 121 220 L 122 222.5 L 120.5 225 L 120 223 L 118 223.5 L 119 225.5 Q 117.3 229.7 115.5 227 L 114 226.5 L 115.5 226 Q 116.8 228.3 118 225.5 L 115.5 224 L 112.5 225 L 110.5 224 L 108.5 224 L 88.5 224 L 84.5 225 L 81.5 223 L 80.5 224 L 51 224 L 51 212.5 L 49.5 211 L 46.5 212 L 43.5 211 L 40.5 212 L 38 211 L 39 188.5 L 38 187.5 L 38 179.5 L 39 177.5 L 39 175.5 L 40 173.5 L 38 173 L 38.5 145 Z M 44 173 Q 41 174 43 176 L 42 179 Q 43 181 45 179 L 48 180 L 51 179 L 51 182 L 53 183 L 51 184 L 53 185 L 51 185 L 50 192 Q 51 194 55 193 L 56 193 Q 54 199 58 198 L 59 192 L 60 196 L 64 194 L 65 190 L 64 185 L 61 186 L 61 185 L 62 185 L 62 181 Q 59 180 60 184 L 58 183 L 59 181 L 57 179 L 57 178 L 56 177 Q 54 180 52 176 L 54 176 L 54 173 L 44 173 Z M 55 173 Q 54 177 57 176 Q 58 172 55 173 Z M 46 185 L 45 189 L 46 192 L 48 190 L 48 188 Q 49 184 46 185 Z M 67 189 L 66 191 L 69 191 L 67 189 Z M 52 196 L 53 199 L 55 198 L 52 196 Z M 65 199 L 64 202 L 65 207 L 67 206 L 67 209 L 66 208 L 65 210 Q 71 211 74 208 Q 73 205 76 204 L 75 203 L 72 205 Q 73 201 71 202 L 71 201 Q 70 198 65 199 Z M 74 200 L 72 202 L 75 202 L 74 200 Z M 54 205 L 54 207 L 57 208 L 56 207 Q 57 204 54 205 Z " /><path fill="rgb(13,12,10)" stroke="rgb(13,12,10)" stroke-width="1" opacity="1" d="M 226.5 149 L 229 150 L 229 153 Q 232 151.8 231 155.5 L 229 155.5 L 230 157.5 Q 228.6 160.3 224 159 L 223 156.5 L 225 153.5 L 224.5 152 Q 225.8 154.3 227 151.5 L 226.5 149 Z " /><path fill="rgb(13,12,10)" stroke="rgb(13,12,10)" stroke-width="1" opacity="1" d="M 60.5 153 Q 64.3 152.3 65 154.5 L 65 160 L 71 160 L 71 166 L 74.5 166 L 81 167 L 81 173 L 87 173 L 87 180 L 93 180 L 93 186 L 100 186 L 100 191.5 Q 99 194 94.5 193 Q 91.5 191.4 93 186 Q 87.6 187.5 86 184.5 L 86 179 L 83.5 179 L 81.5 180 Q 78.5 178.4 80 173 L 77 172.5 L 80 172 Q 82 166 76 168 Q 77 171.8 74.5 173 L 71 173 L 71 166 L 65 166 L 65 160 L 60 160 L 60 158.5 L 59 154.5 L 60.5 153 Z " /><path fill="rgb(13,12,10)" stroke="rgb(13,12,10)" stroke-width="1" opacity="1" d="M 214 159 L 217 159.5 L 214 161 L 214 159 Z " /><path fill="rgb(13,12,10)" stroke="rgb(13,12,10)" stroke-width="1" opacity="1" d="M 146 173 L 148 173.5 L 146.5 176 L 146 173 Z " /><path fill="rgb(13,12,10)" stroke="rgb(13,12,10)" stroke-width="1" opacity="1" d="M 54.5 179 L 57 182.5 L 54 183 Q 55.1 180.3 52.5 181 L 52.5 180 L 54.5 179 Z " /><path fill="rgb(13,12,10)" stroke="rgb(13,12,10)" stroke-width="1" opacity="1" d="M 230 180 L 234 182.5 L 230.5 188 L 230 180 Z " /><path fill="rgb(13,12,10)" stroke="rgb(13,12,10)" stroke-width="1" opacity="1" d="M 100 193 L 106 193 L 106 199 L 113 199 L 113 205 L 119 205 L 119 211 L 124.5 211 Q 126.8 211.8 126 215.5 L 120.5 218 Q 117.5 216.4 119 211 L 113 211 L 113 205 L 106 205 L 106 199 L 100 199 L 100 193 Z " /><path fill="rgb(13,12,10)" stroke="rgb(13,12,10)" stroke-width="1" opacity="1" d="M 210 200 Q 213.7 198.5 213 201.5 L 213.5 203 L 211.5 202 L 209.5 203 L 210 201.5 L 210 200 Z " /><path fill="rgb(13,12,10)" stroke="rgb(13,12,10)" stroke-width="1" opacity="1" d="M 218.5 206 Q 221.8 204.9 221 207.5 L 223.5 210 L 226 209.5 L 226.5 208 L 228 211 L 218.5 211 L 218 212.5 L 217 213.5 L 217 224 Q 212.3 224.9 210 222.5 L 214 221.5 L 213 218.5 L 214.5 219 Q 217.3 219.6 216 213.5 Q 210.8 211.2 214.5 209 L 218 210 L 219 207.5 L 218.5 206 Z " /><path fill="rgb(13,12,10)" stroke="rgb(13,12,10)" stroke-width="1" opacity="1" d="M 157.5 212 Q 161.9 210.5 161 213.5 L 163.5 218 L 166.5 217 Q 170.8 218.7 168 220.5 L 169 223.5 L 166.5 224 Q 156.2 225.2 151 223 L 151.5 218 L 154 219.5 L 154 217 Q 157.8 218.5 157 215.5 L 158 213.5 L 157.5 212 Z " /><path fill="rgb(13,12,10)" stroke="rgb(13,12,10)" stroke-width="1" opacity="1" d="M 212.5 212 L 214 214.5 L 213 217 L 211 216.5 L 212.5 212 Z " /><path fill="rgb(13,12,10)" stroke="rgb(13,12,10)" stroke-width="1" opacity="1" d="M 162.5 225 L 163 227 L 161 226.5 L 162.5 225 Z " /><path fill="rgb(13,12,10)" stroke="rgb(13,12,10)" stroke-width="1" opacity="1" d="M 20 236 L 26 236 L 26 243 L 20 243 L 20 236 Z M 21 237 L 21 242 L 23 242 L 22 238 Q 25 237 24 242 L 25 242 Q 27 235 21 237 Z " /><path fill="rgb(13,12,10)" stroke="rgb(13,12,10)" stroke-width="1" opacity="1" d="M 241 236 L 247 236 L 247 243 L 242.5 242 L 241 242.5 L 241 236 Z " /><path fill="rgb(13,12,10)" stroke="rgb(13,12,10)" stroke-width="1" opacity="1" d="M 27 243 L 64.5 243 L 65.5 244 L 67.5 244 L 69.5 243 L 232.5 243 Q 233.7 245.3 238.5 244 L 240 243.5 Q 240.6 248.9 239.5 249 L 27 249 L 27 243 Z M 61 245 L 61 247 L 61 248 L 72 248 L 66 247 L 70 246 L 61 245 Z M 233 245 L 233 248 L 239 248 L 239 245 L 233 245 Z M 200 247 L 200 248 L 214 248 L 200 247 Z " /><path fill="rgb(193,10,15)" stroke="rgb(193,10,15)" stroke-width="1" opacity="1" d="M 211.5 26 L 213.5 26 Q 217.7 24.9 216 29 L 212.5 28 L 211 28.5 L 211.5 26 Z " /><path fill="rgb(193,10,15)" stroke="rgb(193,10,15)" stroke-width="1" opacity="1" d="M 52.5 28 Q 59.4 26 58 30 Q 52.3 31.3 52.5 28 Z " /><path fill="rgb(193,10,15)" stroke="rgb(193,10,15)" stroke-width="1" opacity="1" d="M 247.5 32 L 248 46.5 L 247 46.5 L 247.5 32 Z " /><path fill="rgb(193,10,15)" stroke="rgb(193,10,15)" stroke-width="1" opacity="1" d="M 239.5 38 L 240.5 40 L 239.5 38 Z " /><path fill="rgb(193,10,15)" stroke="rgb(193,10,15)" stroke-width="1" opacity="1" d="M 39 39 Q 42.8 38 44 40.5 L 42.5 44 L 39 44 L 39 39 Z " /><path fill="rgb(193,10,15)" stroke="rgb(193,10,15)" stroke-width="1" opacity="1" d="M 226.5 39 Q 229 40.2 228 44 L 223.5 45 L 223 41 L 226.5 39 Z " /><path fill="rgb(193,10,15)" stroke="rgb(193,10,15)" stroke-width="1" opacity="1" d="M 240.5 41 L 241 44.5 L 240 44.5 L 240.5 41 Z " /><path fill="rgb(193,10,15)" stroke="rgb(193,10,15)" stroke-width="1" opacity="1" d="M 181.5 51 Q 182.9 54.2 188 53 L 188 56 L 181 56 L 181.5 51 Z " /><path fill="rgb(193,10,15)" stroke="rgb(193,10,15)" stroke-width="1" opacity="1" d="M 189.5 52 L 190 57 L 199 57 L 199 62.5 L 205 65.5 L 205 70 L 212 70 L 212 77.5 L 211 81.5 Q 212.6 84.5 218 83 L 218 120.5 L 217.5 121 L 212 121 L 212 126.5 L 210.5 135 L 206 134 L 206 141 L 199 141 L 199 134 L 205 134 L 205 130.5 L 205 128.5 Q 203.3 121.8 206.5 120 L 211 121 L 211 83.5 L 210.5 83 L 205 83 L 205 75.5 L 203.5 76 L 199 76 L 199 70 L 193 70 L 193 66.5 Q 194.2 64 198 65 L 198.5 67 L 199 64 L 187.5 64 L 186 62.5 L 187 57 L 189 57 L 189.5 52 Z " /><path fill="rgb(193,10,15)" stroke="rgb(193,10,15)" stroke-width="1" opacity="1" d="M 237.5 53 L 238 55.5 L 237 55.5 L 237.5 53 Z " /><path fill="rgb(193,10,15)" stroke="rgb(193,10,15)" stroke-width="1" opacity="1" d="M 28.5 57 L 29 63 Q 24.5 64.8 26 59.5 L 28.5 57 Z " /><path fill="rgb(193,10,15)" stroke="rgb(193,10,15)" stroke-width="1" opacity="1" d="M 76 57 L 88 57 L 88 62.5 L 89.5 63 L 93.5 62 L 94.5 63 L 101 63 Q 100 59.2 102.5 58 L 105.5 59 L 107 58.5 L 107 63 L 113 63 L 114 57 L 119 57 L 119 63 Q 124.2 60.9 123 65.5 L 124 70 L 129 69 L 129 77 L 131.5 77 L 135 75.5 L 135.5 74 L 136 76 L 141 76 L 141 70 L 146 70 L 146 64 L 151.5 64 L 157 63 Q 155.8 58.4 158.5 57 Q 163.1 56.4 164.5 59 L 172.5 57 Q 175.3 58.4 174 63 L 182.5 62 L 182.5 63 L 180 64.5 Q 179 69 181.5 70 L 185.5 69 Q 188.5 70.6 187 76 L 192.5 76 L 193 76.5 L 193 95 L 187 95 L 187 108 L 180 108 L 180 115 L 174.5 115 L 174.5 116 Q 180.6 114.8 180 117.5 Q 180.5 120.5 184.5 120 L 186 119.5 L 185.5 121 L 180 121 L 180 127.5 L 178.5 127 Q 174 128 173 125.5 L 174 122.5 L 168 122 L 168 128 L 162.5 128 L 163 129.5 Q 162.3 131.8 164.5 131 L 167.5 129 L 168.5 131 L 170 130.5 L 170.5 132 L 174 131 L 174 134 L 168 134 L 168 141 L 165.5 141 L 162.5 140 Q 159.8 141.3 162 142.5 L 162 147 L 157 147 L 157 153.5 L 155.5 153 Q 151.8 152.3 151 154.5 L 151 160 L 145 160 L 145 166 L 138 166 L 138 173 L 134.5 173 Q 133.3 170.8 132 173.5 L 132 186 L 119 186 L 120 180.5 Q 118.4 177.5 113 179 L 113 173 L 108.5 173 L 108.5 174 Q 111.1 173.3 110 176 Q 107 175 108 178 L 111 178.5 L 107 179 L 107 173 L 100 173 L 101 185 L 108.5 186 L 110.5 186 L 114 186.5 L 113 191.5 L 114.5 193 L 117.5 192 L 120 193.5 L 120.5 199 L 123 197.5 L 121.5 195 L 123 194.5 L 121 193.5 L 125.5 193 L 126 195.5 L 125 197.5 L 126 198.5 L 126 205 L 139 205 L 139 198 L 141.5 198 L 143.5 199 Q 146.3 197.6 145 193 L 151 192 L 151 199 Q 143.9 196.6 146 203 L 151 201 L 149.5 205 L 146.5 204 L 145.5 205 L 139 205 L 139 211 L 132 211 L 132 217 L 127.5 217 L 126 213 Q 130.1 211.3 129 215.5 L 130 215.5 L 130 211 L 125 211 L 125 205 L 119.5 205 L 113 203.5 L 114.5 200 L 117 200 Q 115.7 204.1 119 203 L 119 199 L 107.5 199 Q 105.3 198.3 106 194.5 Q 108.3 193.3 105.5 192 L 100 192 L 100 186 L 94.5 186 L 93 183.5 L 94 180.5 Q 92.4 177.5 87 179 L 87 173 L 81 173 L 81 166 L 77.5 166 L 75 165.5 Q 77.5 157.3 70 160 L 70 154 L 64 154 L 64 147 L 58 147 L 58 141 L 52 141 L 52 134 L 58 134 L 58 128 L 60.5 128 L 62.5 127 L 63 129.5 L 64 141 L 70 141 L 70 146.5 L 71 153 L 73 152.5 L 72 147 L 76 148.5 L 76 153 L 81 153 L 81 147 L 76 147 L 76 141 L 71 141 L 71 138.5 L 70 135.5 Q 70.9 132.5 66.5 134 L 65 134.5 L 64 129.5 L 64 127.5 L 63.5 114 L 58 115 L 58.5 117 L 62 116 L 62 121 L 59.5 121 L 56.5 120 L 53 121 L 53.5 98 L 54.5 105 L 55.5 103 L 56.5 106 L 57 90 Q 53.2 91 52 88.5 L 52 83 L 58 83 L 58 75.5 L 58 73.5 L 58 70 L 65 70 L 65 65.5 L 64.5 64 Q 72.2 64.8 76 63 L 76 57 Z M 106 60 L 105 63 L 106 63 L 106 60 Z M 107 64 L 108 70 L 113 69 L 114 65 L 107 64 Z M 101 67 L 100 69 L 106 69 L 101 67 Z M 76 69 Q 77 74 75 76 L 70 76 L 70 82 L 64 82 L 64 101 L 65 101 L 70 101 L 70 108 L 76 108 L 76 101 L 82 101 L 82 95 L 88 95 L 88 89 L 94 89 L 94 82 L 100 82 L 100 76 L 94 76 L 94 69 L 76 69 Z M 158 69 L 158 76 L 163 76 L 163 81 L 160 81 L 160 82 L 164 82 L 164 76 L 164 74 L 165 71 Q 163 68 158 69 Z M 114 70 L 114 77 L 116 76 L 119 76 L 119 82 L 126 82 L 126 76 L 123 76 L 123 70 L 114 70 Z M 66 72 L 65 75 L 69 75 L 66 72 Z M 151 76 L 151 82 L 147 82 Q 143 84 145 89 L 152 89 L 152 83 L 158 83 L 158 81 L 158 79 L 158 76 L 151 76 Z M 160 77 L 160 78 L 162 78 L 160 77 Z M 132 78 L 131 83 L 126 83 L 126 89 L 131 89 Q 132 92 130 91 L 128 92 Q 129 89 126 90 L 126 95 L 132 95 L 132 78 Z M 188 78 L 188 91 L 188 83 L 189 82 L 188 78 Z M 139 89 L 139 95 L 146 95 L 145 93 L 145 89 L 139 89 Z M 55 110 Q 52 116 57 114 L 57 110 L 56 112 L 55 110 Z M 158 134 L 158 141 L 153 142 L 156 142 L 158 142 L 160 143 L 161 141 Q 160 138 163 139 L 165 135 L 158 134 Z M 64 141 L 63 146 L 64 146 L 64 141 Z M 81 142 L 80 145 L 81 145 L 81 142 Z M 82 154 L 81 159 Q 83 161 88 160 L 88 154 L 82 154 Z M 88 160 L 88 164 L 87 164 L 87 165 L 88 166 L 88 172 L 92 172 L 89 170 L 92 169 L 90 168 L 94 166 L 94 160 L 88 160 Z M 98 160 L 99 165 L 100 165 Q 102 159 98 160 Z M 139 160 Q 138 164 141 163 Q 142 159 139 160 Z M 94 166 L 94 173 L 100 173 L 101 168 Q 99 165 94 166 Z M 128 180 L 128 181 L 130 181 L 128 180 Z " /><path fill="rgb(193,10,15)" stroke="rgb(193,10,15)" stroke-width="1" opacity="1" d="M 238.5 57 L 239 62.5 L 238 62.5 L 238.5 57 Z " /><path fill="rgb(193,10,15)" stroke="rgb(193,10,15)" stroke-width="1" opacity="1" d="M 108.5 61 L 112 61.5 L 108.5 62 L 108.5 61 Z " /><path fill="rgb(193,10,15)" stroke="rgb(193,10,15)" stroke-width="1" opacity="1" d="M 120.5 72 L 122 73.5 L 121.5 76 Q 118 76.8 120.5 72 Z " /><path fill="rgb(193,10,15)" stroke="rgb(193,10,15)" stroke-width="1" opacity="1" d="M 53 92 Q 55.7 90.9 55 93.5 L 55.5 95 Q 51.3 96.1 53 92 Z " /><path fill="rgb(193,10,15)" stroke="rgb(193,10,15)" stroke-width="1" opacity="1" d="M 69.5 95 L 70 98.5 L 69 98.5 Q 69.8 95.9 66.5 97 L 66.5 96 L 69.5 95 Z " /><path fill="rgb(193,10,15)" stroke="rgb(193,10,15)" stroke-width="1" opacity="1" d="M 189.5 99 L 191.5 99 Q 194.1 98.3 193 101 L 188 100.5 L 189.5 99 Z " /><path fill="rgb(193,10,15)" stroke="rgb(193,10,15)" stroke-width="1" opacity="1" d="M 184.5 109 Q 187.1 108.2 186 111.5 L 185 111.5 L 184.5 109 Z " /><path fill="rgb(193,10,15)" stroke="rgb(193,10,15)" stroke-width="1" opacity="1" d="M 185.5 113 L 186 115.5 L 185 115.5 L 185.5 113 Z " /><path fill="rgb(193,10,15)" stroke="rgb(193,10,15)" stroke-width="1" opacity="1" d="M 45.5 114 L 52 115 L 51.5 128 L 50.5 119 L 50 121 L 46.5 122 Q 43.1 120.1 45.5 114 Z " /><path fill="rgb(193,10,15)" stroke="rgb(193,10,15)" stroke-width="1" opacity="1" d="M 206 115 L 208 115.5 L 206.5 119 L 206 115 Z " /><path fill="rgb(193,10,15)" stroke="rgb(193,10,15)" stroke-width="1" opacity="1" d="M 240.5 120 L 241 124.5 L 240 124.5 L 240.5 120 Z " /><path fill="rgb(193,10,15)" stroke="rgb(193,10,15)" stroke-width="1" opacity="1" d="M 54.5 122 L 57 123.5 L 56 132 L 53 132 L 53 123.5 L 54.5 122 Z " /><path fill="rgb(193,10,15)" stroke="rgb(193,10,15)" stroke-width="1" opacity="1" d="M 208.5 139 L 211 139.5 L 208.5 140 L 208.5 139 Z " /><path fill="rgb(193,10,15)" stroke="rgb(193,10,15)" stroke-width="1" opacity="1" d="M 240.5 147 L 241 186.5 L 240 186.5 L 240.5 147 Z " /><path fill="rgb(193,10,15)" stroke="rgb(193,10,15)" stroke-width="1" opacity="1" d="M 19.5 160 L 20 168.5 L 19 168.5 L 19.5 160 Z " /><path fill="rgb(193,10,15)" stroke="rgb(193,10,15)" stroke-width="1" opacity="1" d="M 19.5 175 L 20 182.5 L 19 182.5 L 19.5 175 Z " /><path fill="rgb(193,10,15)" stroke="rgb(193,10,15)" stroke-width="1" opacity="1" d="M 102 179 L 106 179 L 106 180.5 L 107 182.5 Q 105.8 185 102 184 L 102 179 Z " /><path fill="rgb(193,10,15)" stroke="rgb(193,10,15)" stroke-width="1" opacity="1" d="M 218 179 L 222 179 L 222 191 L 219.5 192 L 218 179 Z " /><path fill="rgb(193,10,15)" stroke="rgb(193,10,15)" stroke-width="1" opacity="1" d="M 19.5 185 L 20 191.5 L 19 191.5 L 19.5 185 Z " /><path fill="rgb(193,10,15)" stroke="rgb(193,10,15)" stroke-width="1" opacity="1" d="M 199.5 186 L 216.5 186 L 217 190 L 212.5 191 L 210.5 191 L 207.5 190 L 206 190.5 L 206 187 L 199.5 187 L 199.5 186 Z " /><path fill="rgb(193,10,15)" stroke="rgb(193,10,15)" stroke-width="1" opacity="1" d="M 57.5 189 L 58 191.5 L 56.5 195 L 56 192.5 L 57.5 189 Z " /><path fill="rgb(193,10,15)" stroke="rgb(193,10,15)" stroke-width="1" opacity="1" d="M 28.5 199 L 29 210.5 L 28 210.5 L 28.5 199 Z " /><path fill="rgb(193,10,15)" stroke="rgb(193,10,15)" stroke-width="1" opacity="1" d="M 127.5 199 Q 133.3 197.3 132 201 Q 127.3 202 127.5 199 Z " /><path fill="rgb(193,10,15)" stroke="rgb(193,10,15)" stroke-width="1" opacity="1" d="M 194 199 Q 199.2 197.3 198 201 L 195.5 200 L 195 208.5 L 195.5 211 L 199 212.5 L 198 216 L 194.5 217 L 194 213 Q 191.3 211.9 192 214.5 L 192.5 216 L 190 215.5 L 191 213 L 187 212.5 L 194 212 L 194 199 Z " /><path fill="rgb(193,10,15)" stroke="rgb(193,10,15)" stroke-width="1" opacity="1" d="M 120.5 206 L 121 209.5 L 120 209.5 L 120.5 206 Z " /><path fill="rgb(193,10,15)" stroke="rgb(193,10,15)" stroke-width="1" opacity="1" d="M 240.5 211 L 241 221.5 L 240 221.5 L 240.5 211 Z " /><path fill="rgb(193,10,15)" stroke="rgb(193,10,15)" stroke-width="1" opacity="1" d="M 242.5 211 Q 245.9 210.1 244 215.5 L 243 215.5 L 242.5 211 Z " /><path fill="rgb(193,10,15)" stroke="rgb(193,10,15)" stroke-width="1" opacity="1" d="M 247.5 212 L 248 214.5 L 247 214.5 L 247.5 212 Z " /><path fill="rgb(193,10,15)" stroke="rgb(193,10,15)" stroke-width="1" opacity="1" d="M 41.5 218 L 44 219.5 L 43.5 221 L 42.5 219 L 39.5 220 L 39.5 219 L 41.5 218 Z " /><path fill="rgb(193,10,15)" stroke="rgb(193,10,15)" stroke-width="1" opacity="1" d="M 225.5 218 Q 229.7 216.7 228 221.5 L 227 221.5 Q 227.8 218.9 224.5 220 L 225.5 218 Z " /><path fill="rgb(193,10,15)" stroke="rgb(193,10,15)" stroke-width="1" opacity="1" d="M 19.5 230 L 20 232.5 L 19 232.5 L 19.5 230 Z " /><path fill="rgb(193,10,15)" stroke="rgb(193,10,15)" stroke-width="1" opacity="1" d="M 241 230 L 246 230 L 246 232 L 242 232.5 L 246 233.5 L 242 234.5 L 245 235.5 L 241 236 L 241 230 Z " /><path fill="rgb(193,10,15)" stroke="rgb(193,10,15)" stroke-width="1" opacity="1" d="M 247.5 230 L 248 233.5 L 247 233.5 L 247.5 230 Z " /><path fill="rgb(193,10,15)" stroke="rgb(193,10,15)" stroke-width="1" opacity="1" d="M 57.5 233 L 58 235.5 L 57 235.5 L 57.5 233 Z " /><path fill="rgb(193,10,15)" stroke="rgb(193,10,15)" stroke-width="1" opacity="1" d="M 20.5 235 L 26 235.5 L 20.5 236 L 20.5 235 Z " /><path fill="rgb(193,10,15)" stroke="rgb(193,10,15)" stroke-width="1" opacity="1" d="M 235.5 236 Q 240.8 234.3 239 239.5 L 238 239.5 L 237.5 237 L 236.5 242 L 235.5 236 Z " /><path fill="rgb(193,10,15)" stroke="rgb(193,10,15)" stroke-width="1" opacity="1" d="M 50.5 237 L 51 241.5 L 49 240.5 L 50.5 237 Z " /><path fill="rgb(193,10,15)" stroke="rgb(193,10,15)" stroke-width="1" opacity="1" d="M 87.5 237 L 97 237.5 L 87.5 238 L 87.5 237 Z " /><path fill="rgb(193,10,15)" stroke="rgb(193,10,15)" stroke-width="1" opacity="1" d="M 107.5 237 L 115 237.5 L 107.5 238 L 107.5 237 Z " /><path fill="rgb(193,10,15)" stroke="rgb(193,10,15)" stroke-width="1" opacity="1" d="M 127.5 237 L 132 237.5 L 127.5 238 L 127.5 237 Z " /><path fill="rgb(193,10,15)" stroke="rgb(193,10,15)" stroke-width="1" opacity="1" d="M 150.5 237 L 177 237.5 L 150.5 238 L 150.5 237 Z " /><path fill="rgb(193,10,15)" stroke="rgb(193,10,15)" stroke-width="1" opacity="1" d="M 190.5 237 L 206 237.5 L 204.5 241 L 203.5 239 L 202 239.5 L 201.5 238 L 190.5 238 L 190.5 237 Z " /><path fill="rgb(193,10,15)" stroke="rgb(193,10,15)" stroke-width="1" opacity="1" d="M 209.5 237 L 210 240.5 L 209 240.5 L 209.5 237 Z " /><path fill="rgb(193,10,15)" stroke="rgb(193,10,15)" stroke-width="1" opacity="1" d="M 240.5 237 L 241 241.5 L 240 241.5 L 240.5 237 Z " /><path fill="rgb(193,10,15)" stroke="rgb(193,10,15)" stroke-width="1" opacity="1" d="M 33.5 238 L 34 241.5 L 33 241.5 L 33.5 238 Z " /><path fill="rgb(83,9,10)" stroke="rgb(83,9,10)" stroke-width="1" opacity="1" d="M 27.5 12 L 239.5 12 L 241 13.5 L 240.5 26 L 240 13 L 27.5 13 Q 26.4 13.1 27 18.5 L 26 18.5 Q 24.8 13.3 27.5 12 Z " /><path fill="rgb(83,9,10)" stroke="rgb(83,9,10)" stroke-width="1" opacity="1" d="M 207.5 26 L 209.5 27 L 211 26.5 L 208.5 30 L 206 28.5 L 207.5 26 Z " /><path fill="rgb(83,9,10)" stroke="rgb(83,9,10)" stroke-width="1" opacity="1" d="M 217.5 26 L 218 28.5 Q 216.8 31.3 211.5 30 L 211.5 29 Q 218.5 31.3 217.5 26 Z " /><path fill="rgb(83,9,10)" stroke="rgb(83,9,10)" stroke-width="1" opacity="1" d="M 227.5 27 L 228 38 L 239 38.5 L 227 39 L 227.5 27 Z " /><path fill="rgb(83,9,10)" stroke="rgb(83,9,10)" stroke-width="1" opacity="1" d="M 13.5 28 L 14 33.5 L 13 33.5 L 13.5 28 Z " /><path fill="rgb(83,9,10)" stroke="rgb(83,9,10)" stroke-width="1" opacity="1" d="M 58.5 29 L 57.5 31 L 51 30.5 L 58.5 29 Z " /><path fill="rgb(83,9,10)" stroke="rgb(83,9,10)" stroke-width="1" opacity="1" d="M 26.5 38 L 36 38.5 L 26.5 39 L 26.5 38 Z " /><path fill="rgb(83,9,10)" stroke="rgb(83,9,10)" stroke-width="1" opacity="1" d="M 43.5 38 L 45 41.5 L 44 41.5 L 43.5 38 Z " /><path fill="rgb(83,9,10)" stroke="rgb(83,9,10)" stroke-width="1" opacity="1" d="M 225.5 39 L 225.5 42 L 223 40.5 L 225.5 39 Z " /><path fill="rgb(83,9,10)" stroke="rgb(83,9,10)" stroke-width="1" opacity="1" d="M 39.5 44 L 44 44.5 L 39.5 45 L 39.5 44 Z " /><path fill="rgb(83,9,10)" stroke="rgb(83,9,10)" stroke-width="1" opacity="1" d="M 224.5 44 L 228 44.5 L 224.5 45 L 224.5 44 Z " /><path fill="rgb(83,9,10)" stroke="rgb(83,9,10)" stroke-width="1" opacity="1" d="M 29.5 51 L 30 56.5 L 29 56.5 L 29.5 51 Z " /><path fill="rgb(83,9,10)" stroke="rgb(83,9,10)" stroke-width="1" opacity="1" d="M 75.5 54 L 76 56.5 L 75 56.5 L 75.5 54 Z " /><path fill="rgb(83,9,10)" stroke="rgb(83,9,10)" stroke-width="1" opacity="1" d="M 13.5 55 L 14 64.5 L 13 64.5 L 13.5 55 Z " /><path fill="rgb(83,9,10)" stroke="rgb(83,9,10)" stroke-width="1" opacity="1" d="M 237.5 56 L 238 63 Q 235 64.3 236 60.5 L 237.5 56 Z " /><path fill="rgb(83,9,10)" stroke="rgb(83,9,10)" stroke-width="1" opacity="1" d="M 26 57 L 28 57.5 L 26 58.5 L 26 57 Z " /><path fill="rgb(83,9,10)" stroke="rgb(83,9,10)" stroke-width="1" opacity="1" d="M 88 57 L 107 57.5 Q 105.8 60.3 104.5 58 L 101 59.5 L 101 63 L 94.5 63 L 90.5 62 L 88 63 L 88 57 Z " /><path fill="rgb(83,9,10)" stroke="rgb(83,9,10)" stroke-width="1" opacity="1" d="M 119.5 57 L 120 62.5 L 119 62.5 L 119.5 57 Z " /><path fill="rgb(83,9,10)" stroke="rgb(83,9,10)" stroke-width="1" opacity="1" d="M 162.5 57 L 169 57.5 L 164.5 59 L 162.5 57 Z " /><path fill="rgb(83,9,10)" stroke="rgb(83,9,10)" stroke-width="1" opacity="1" d="M 173.5 57 L 186.5 57 L 187 58.5 L 186 62.5 L 187.5 64 L 199 64 L 198.5 67 L 198 65 Q 194.2 64 193 66.5 L 193 70 L 199 70 L 199 76 L 203.5 76 L 205 75.5 L 205 83 L 210.5 83 L 211 83.5 L 211 102.5 Q 208.5 104 210 109.5 L 211 110.5 L 211 121 L 206.5 120 L 205 121.5 Q 206.7 127.8 204 129.5 L 205 134 L 199 134 L 199 140.5 L 198.5 141 L 181 141 L 181 145.5 Q 179.4 148.5 174 147 L 174 166 L 162.5 166 L 161 166.5 L 161.5 165 L 153.5 167 Q 152.3 164.8 151 167.5 L 152 172.5 L 151 173.5 L 151 192 L 145 193 Q 146.3 197.6 143.5 199 L 139 198 L 139 205 L 145 205 L 145 211 L 139 211 L 139 205.5 L 138.5 205 L 126 205 L 126 198.5 L 126 196.5 L 125 194.5 L 125.5 193 L 121 193.5 L 123 194.5 L 121 195.5 L 122.5 198 L 120.5 199 Q 121.4 193.6 118.5 192 L 116.5 193 L 113 191.5 L 114 186.5 L 109.5 185 L 107.5 186 L 101 185 L 100 173 L 94 173 L 94 166.5 L 92.5 166 L 90 167.5 L 92 168.5 L 89 169.5 L 92 171.5 L 88 172 L 88 165.5 L 86.5 165 L 86.5 164 L 88 164 L 88 160 Q 82.6 161.5 81 158.5 L 82 154 L 88 154 L 88 160 L 94 160 L 94 166 L 99.5 166 Q 102.3 167.3 100 168.5 L 100 173 L 107 173 L 107 179 L 110.5 179 L 110.5 178 Q 106.8 179 108 176 Q 111 177 110 174 L 108 173.5 L 113 173 L 113 179 L 118.5 179 L 120 181.5 L 119 186 L 132 186 L 132 173.5 Q 133.3 170.8 134.5 173 L 138 173 L 138 166 L 145 166 L 145 160 L 151 160 L 151 154.5 Q 151.8 152.3 155.5 153 L 157 153.5 L 157 147 L 162 147 L 162 142.5 L 160 141.5 Q 160.8 143.8 158.5 143 L 155.5 142 L 153 141.5 L 158 141 L 158 134 L 164.5 134 L 164 135.5 L 163 139 Q 160.3 137.9 161 140.5 L 162.5 140 L 168 141 L 168 134 L 174 134 L 174 131 L 170.5 132 L 169.5 130 L 168 130.5 L 167.5 129 L 163 131 L 162 128.5 L 168 128 L 168 122 L 173.5 122 L 173 123.5 L 173.5 126 L 174.5 124 L 175 125.5 L 174.5 127 L 179.5 128 L 180 121 L 185.5 121 L 186 119.5 L 184.5 120 Q 180.5 120.5 180 117.5 Q 180.6 114.8 174.5 116 L 174.5 115 L 180 115 L 180 108 L 187 108 L 187 95 L 192.5 95 L 193 94.5 L 193 76 L 187 76 L 187 70.5 Q 185.8 67.8 184.5 70 Q 180.8 70.8 180 68.5 L 181 63.5 L 174 63 L 173.5 57 Z M 190 99 L 188 101 L 193 101 Q 194 98 192 99 L 190 99 Z M 185 109 L 185 112 L 186 112 Q 187 108 185 109 Z M 186 113 L 185 116 L 186 116 L 186 113 Z M 206 115 L 207 119 L 208 116 L 206 115 Z M 146 173 L 147 176 L 148 174 L 146 173 Z M 102 179 L 102 184 Q 106 185 107 183 L 106 181 L 106 179 L 102 179 Z M 128 199 Q 127 202 132 201 Q 133 197 128 199 Z " /><path fill="rgb(83,9,10)" stroke="rgb(83,9,10)" stroke-width="1" opacity="1" d="M 199.5 57 L 200 63 Q 204.6 61.8 206 64.5 Q 204.1 69.9 207.5 69 L 207.5 70 L 205 70 L 205 64 L 200.5 64 Q 197.4 62.4 199.5 57 Z " /><path fill="rgb(83,9,10)" stroke="rgb(83,9,10)" stroke-width="1" opacity="1" d="M 239.5 57 L 240 62.5 L 239 62.5 L 239.5 57 Z " /><path fill="rgb(83,9,10)" stroke="rgb(83,9,10)" stroke-width="1" opacity="1" d="M 105.5 60 L 106 62.5 L 105 62.5 L 105.5 60 Z " /><path fill="rgb(83,9,10)" stroke="rgb(83,9,10)" stroke-width="1" opacity="1" d="M 123.5 63 L 124 65.5 L 123 65.5 L 123.5 63 Z " /><path fill="rgb(83,9,10)" stroke="rgb(83,9,10)" stroke-width="1" opacity="1" d="M 107 64 L 114 64.5 L 113 69 L 107.5 70 L 107 64 Z " /><path fill="rgb(83,9,10)" stroke="rgb(83,9,10)" stroke-width="1" opacity="1" d="M 100.5 67 L 106 68.5 L 100 69 L 100.5 67 Z " /><path fill="rgb(83,9,10)" stroke="rgb(83,9,10)" stroke-width="1" opacity="1" d="M 124.5 69 L 127 69.5 L 124.5 70 L 124.5 69 Z " /><path fill="rgb(83,9,10)" stroke="rgb(83,9,10)" stroke-width="1" opacity="1" d="M 114 70 L 123 70 L 123 75.5 L 126 76 L 126 82 L 119 82 L 119 76 L 115.5 76 L 114 76.5 L 114 70 Z M 121 72 Q 118 77 122 76 L 122 74 L 121 72 Z " /><path fill="rgb(83,9,10)" stroke="rgb(83,9,10)" stroke-width="1" opacity="1" d="M 65.5 72 L 69 74.5 L 65 75 L 65.5 72 Z " /><path fill="rgb(83,9,10)" stroke="rgb(83,9,10)" stroke-width="1" opacity="1" d="M 129.5 74 L 130 76 L 132 76.5 L 129 77 L 129.5 74 Z " /><path fill="rgb(83,9,10)" stroke="rgb(83,9,10)" stroke-width="1" opacity="1" d="M 51.5 77 L 52 80.5 L 51 80.5 L 51.5 77 Z " /><path fill="rgb(83,9,10)" stroke="rgb(83,9,10)" stroke-width="1" opacity="1" d="M 131.5 78 L 132 95 L 126 95 L 126 90 Q 128.7 88.9 128 91.5 L 129.5 91 Q 132.1 91.7 131 89 L 126 89 L 126 83 L 131 83 L 131.5 78 Z " /><path fill="rgb(83,9,10)" stroke="rgb(83,9,10)" stroke-width="1" opacity="1" d="M 187.5 78 L 189 81.5 L 188 82.5 L 187.5 91 L 187.5 78 Z " /><path fill="rgb(83,9,10)" stroke="rgb(83,9,10)" stroke-width="1" opacity="1" d="M 211.5 78 L 212 82 Q 217.4 80.5 219 83.5 L 218.5 88 L 218 83 Q 212.6 84.5 211 81.5 L 211.5 78 Z " /><path fill="rgb(83,9,10)" stroke="rgb(83,9,10)" stroke-width="1" opacity="1" d="M 13.5 87 L 14 99.5 L 13 99.5 L 13.5 87 Z " /><path fill="rgb(83,9,10)" stroke="rgb(83,9,10)" stroke-width="1" opacity="1" d="M 52.5 89 L 57 90 L 56.5 106 L 55.5 103 L 54.5 105 L 53.5 98 L 52.5 121 L 52.5 89 Z M 53 92 Q 51 96 56 95 L 55 94 Q 56 91 53 92 Z " /><path fill="rgb(83,9,10)" stroke="rgb(83,9,10)" stroke-width="1" opacity="1" d="M 218.5 93 L 219 111.5 L 218 111.5 L 218.5 93 Z " /><path fill="rgb(83,9,10)" stroke="rgb(83,9,10)" stroke-width="1" opacity="1" d="M 54.5 110 L 55.5 112 L 56.5 110 L 57 114 Q 51.9 115.6 54.5 110 Z " /><path fill="rgb(83,9,10)" stroke="rgb(83,9,10)" stroke-width="1" opacity="1" d="M 63.5 114 L 64 127.5 L 65 128.5 L 64 131.5 L 65.5 135 L 70 134 L 71 136.5 L 71 138.5 L 71 141 L 76 141 L 76 147 L 81 147 L 81 153 L 76 153 L 76 148.5 L 72 147 L 73 152.5 L 71 153 L 70 141 L 64 141 L 64 134.5 L 62 128.5 L 62.5 127 L 58 128 L 58 121.5 L 56.5 121 L 56.5 120 L 62 121 L 62 116 L 59.5 116 L 58 116.5 Q 57.1 113.1 62.5 115 L 63.5 114 Z " /><path fill="rgb(83,9,10)" stroke="rgb(83,9,10)" stroke-width="1" opacity="1" d="M 218.5 117 L 219 120.5 Q 216.8 121.8 218 126.5 L 216.5 128 L 212.5 127 L 211.5 134 L 211 127.5 L 212 121 L 218 121 L 218.5 117 Z " /><path fill="rgb(83,9,10)" stroke="rgb(83,9,10)" stroke-width="1" opacity="1" d="M 45.5 121 L 47.5 121 L 51 121.5 L 51 123.5 Q 52.5 127.9 49.5 127 L 45 128 L 45.5 121 Z " /><path fill="rgb(83,9,10)" stroke="rgb(83,9,10)" stroke-width="1" opacity="1" d="M 51.5 128 L 52 140.5 L 51 140.5 L 51.5 128 Z " /><path fill="rgb(83,9,10)" stroke="rgb(83,9,10)" stroke-width="1" opacity="1" d="M 206 134 Q 209.8 133 211 135.5 L 212 141 L 206 141 L 206 146.5 L 204 145.5 Q 202.8 139.5 206 140.5 L 206 134 Z M 209 139 L 209 140 L 211 140 L 209 139 Z " /><path fill="rgb(83,9,10)" stroke="rgb(83,9,10)" stroke-width="1" opacity="1" d="M 13.5 140 L 14 142.5 L 13 142.5 L 13.5 140 Z " /><path fill="rgb(83,9,10)" stroke="rgb(83,9,10)" stroke-width="1" opacity="1" d="M 80.5 142 L 81 144.5 L 80 144.5 L 80.5 142 Z " /><path fill="rgb(83,9,10)" stroke="rgb(83,9,10)" stroke-width="1" opacity="1" d="M 58.5 147 L 64 147 L 64 153 L 59.5 154 L 58.5 147 Z " /><path fill="rgb(83,9,10)" stroke="rgb(83,9,10)" stroke-width="1" opacity="1" d="M 65 154 L 70 154 L 70 160 L 65 159.5 L 65 157.5 L 65 154 Z " /><path fill="rgb(83,9,10)" stroke="rgb(83,9,10)" stroke-width="1" opacity="1" d="M 199.5 156 L 200 170.5 L 199 170.5 L 199.5 156 Z " /><path fill="rgb(83,9,10)" stroke="rgb(83,9,10)" stroke-width="1" opacity="1" d="M 71 160 L 75 160 L 75 166 L 80.5 166 L 80.5 167 L 71 166 L 71 160 Z " /><path fill="rgb(83,9,10)" stroke="rgb(83,9,10)" stroke-width="1" opacity="1" d="M 97.5 160 Q 102.1 158.7 100 164.5 L 99 164.5 L 97.5 160 Z " /><path fill="rgb(83,9,10)" stroke="rgb(83,9,10)" stroke-width="1" opacity="1" d="M 139 160 Q 142.3 158.9 141 163 Q 137.7 164.1 139 160 Z " /><path fill="rgb(83,9,10)" stroke="rgb(83,9,10)" stroke-width="1" opacity="1" d="M 76 168 Q 82 166 80 172 Q 74 174 76 168 Z " /><path fill="rgb(83,9,10)" stroke="rgb(83,9,10)" stroke-width="1" opacity="1" d="M 175.5 172 L 178 172.5 L 175.5 173 L 175.5 172 Z " /><path fill="rgb(83,9,10)" stroke="rgb(83,9,10)" stroke-width="1" opacity="1" d="M 223.5 172 L 224 193 L 200 193 L 200 215.5 L 199 215.5 L 199 192 L 223 192 L 223.5 172 Z " /><path fill="rgb(83,9,10)" stroke="rgb(83,9,10)" stroke-width="1" opacity="1" d="M 87.5 179 Q 92.8 177.8 94 180.5 L 93.5 183 L 93 180 L 87.5 180 L 87.5 179 Z " /><path fill="rgb(83,9,10)" stroke="rgb(83,9,10)" stroke-width="1" opacity="1" d="M 57.5 180 L 58 182.5 L 57 182.5 L 57.5 180 Z " /><path fill="rgb(83,9,10)" stroke="rgb(83,9,10)" stroke-width="1" opacity="1" d="M 127.5 180 L 130 180.5 L 127.5 181 L 127.5 180 Z " /><path fill="rgb(83,9,10)" stroke="rgb(83,9,10)" stroke-width="1" opacity="1" d="M 57.5 185 L 64 186 L 64 192 L 58 192 L 58 195.5 L 56.5 198 L 56 195.5 L 58 189.5 L 57 187.5 L 57.5 185 Z " /><path fill="rgb(83,9,10)" stroke="rgb(83,9,10)" stroke-width="1" opacity="1" d="M 51.5 190 Q 57.4 188.3 56 192 Q 51.3 193 51.5 190 Z " /><path fill="rgb(83,9,10)" stroke="rgb(83,9,10)" stroke-width="1" opacity="1" d="M 100.5 192 Q 105.8 190.8 107 193.5 L 105.5 193 Q 99.5 194.2 100.5 192 Z " /><path fill="rgb(83,9,10)" stroke="rgb(83,9,10)" stroke-width="1" opacity="1" d="M 156.5 192 L 177 192.5 L 156.5 193 L 156.5 192 Z " /><path fill="rgb(83,9,10)" stroke="rgb(83,9,10)" stroke-width="1" opacity="1" d="M 151.5 193 L 152 197 L 157 197 L 157 199 L 151.5 199 L 151 201 L 149.5 201 L 146 203 Q 143.9 196.6 151 199 L 151.5 193 Z " /><path fill="rgb(83,9,10)" stroke="rgb(83,9,10)" stroke-width="1" opacity="1" d="M 237.5 198 L 238 209.5 L 237 209.5 L 237.5 198 Z " /><path fill="rgb(83,9,10)" stroke="rgb(83,9,10)" stroke-width="1" opacity="1" d="M 113 199 L 119 199 L 119 203 Q 115.7 204.1 117 200 L 114.5 200 L 113 200.5 L 113 199 Z " /><path fill="rgb(83,9,10)" stroke="rgb(83,9,10)" stroke-width="1" opacity="1" d="M 66 200 L 70 200.5 L 67 201 L 66.5 203 L 66 200 Z " /><path fill="rgb(83,9,10)" stroke="rgb(83,9,10)" stroke-width="1" opacity="1" d="M 151.5 203 L 150.5 205 L 151.5 203 Z " /><path fill="rgb(83,9,10)" stroke="rgb(83,9,10)" stroke-width="1" opacity="1" d="M 73.5 204 L 75 204.5 L 71.5 206 L 71.5 205 L 73.5 204 Z " /><path fill="rgb(83,9,10)" stroke="rgb(83,9,10)" stroke-width="1" opacity="1" d="M 113.5 204 L 125 205 L 125 211 L 130 211 L 130 215.5 L 129 215.5 Q 130.3 211.8 126.5 213 Q 124.8 209.5 119 211 L 119 205 L 113.5 205 L 113.5 204 Z M 121 206 L 120 210 L 121 210 L 121 206 Z " /><path fill="rgb(83,9,10)" stroke="rgb(83,9,10)" stroke-width="1" opacity="1" d="M 132 211 L 138 211 L 138 217 L 132 217 L 132 211 Z " /><path fill="rgb(83,9,10)" stroke="rgb(83,9,10)" stroke-width="1" opacity="1" d="M 181.5 217 L 200 217.5 L 181.5 218 L 181.5 217 Z " /><path fill="rgb(83,9,10)" stroke="rgb(83,9,10)" stroke-width="1" opacity="1" d="M 224.5 217 L 226 217.5 L 223.5 219 L 224.5 217 Z " /><path fill="rgb(83,9,10)" stroke="rgb(83,9,10)" stroke-width="1" opacity="1" d="M 42.5 219 L 44 223 L 39 223 L 39 220 L 42.5 219 Z " /><path fill="rgb(83,9,10)" stroke="rgb(83,9,10)" stroke-width="1" opacity="1" d="M 224 220 Q 227.8 218.5 227 221.5 L 227.5 223 L 224 221.5 L 224 220 Z " /><path fill="rgb(83,9,10)" stroke="rgb(83,9,10)" stroke-width="1" opacity="1" d="M 28.5 223 L 34 223.5 L 28.5 224 L 28.5 223 Z " /><path fill="rgb(83,9,10)" stroke="rgb(83,9,10)" stroke-width="1" opacity="1" d="M 227.5 224 L 228 234.5 L 227 234.5 L 227.5 224 Z " /><path fill="rgb(83,9,10)" stroke="rgb(83,9,10)" stroke-width="1" opacity="1" d="M 38.5 225 L 39 235.5 L 38 235.5 L 38.5 225 Z " /><path fill="rgb(83,9,10)" stroke="rgb(83,9,10)" stroke-width="1" opacity="1" d="M 52.5 232 L 58 232.5 L 52.5 233 L 52.5 232 Z " /><path fill="rgb(83,9,10)" stroke="rgb(83,9,10)" stroke-width="1" opacity="1" d="M 211.5 232 L 215 232.5 L 211 233 L 210.5 235 L 210 233.5 L 211.5 232 Z " /><path fill="rgb(83,9,10)" stroke="rgb(83,9,10)" stroke-width="1" opacity="1" d="M 217.5 232 L 218 234.5 L 217 234.5 L 217.5 232 Z " /><path fill="rgb(83,9,10)" stroke="rgb(83,9,10)" stroke-width="1" opacity="1" d="M 240.5 242 L 241 244.5 L 240 244.5 L 240.5 242 Z " /><path fill="rgb(83,9,10)" stroke="rgb(83,9,10)" stroke-width="1" opacity="1" d="M 240.5 246 L 241 248.5 L 239 249.5 L 240.5 246 Z " /><path fill="rgb(83,9,10)" stroke="rgb(83,9,10)" stroke-width="1" opacity="1" d="M 27.5 249 L 53 249.5 L 27.5 250 L 27.5 249 Z " /><path fill="rgb(83,9,10)" stroke="rgb(83,9,10)" stroke-width="1" opacity="1" d="M 67.5 249 L 235 249.5 L 67.5 250 L 67.5 249 Z " /></svg>